<?xml version="1.0" encoding="UTF-8"?>
<svg xmlns="http://www.w3.org/2000/svg" id="Слой_1" data-name="Слой 1" viewBox="0 0 40 40">
  <path d="M18.13,29.51h0S18.14,29.48,18.13,29.51Zm3.78-9.82-.06.16.23,0c0-.05,0-.1,0-.15Zm.12-.43-.06.23a.74.74,0,0,0,.21,0c0-.07,0-.15.07-.22ZM21.93,32c-.2-.93-.3-1.89-.44-2.84a22.53,22.53,0,0,1,.17-7.56c0-.16,0-.12,0-.29-.06,0,0-.18-.11-.17a.31.31,0,0,0,0-.13,1.73,1.73,0,0,0-.07.31,21.82,21.82,0,0,0-.26,8c0,.17,0,.33.05.46-.91-.12-1.78-.16-2.66-.25h-.06l-.4-.05s0,0,0,0h.09l.06,0h.05l2.59.49v.26a4.54,4.54,0,0,1-1.19.37A52.47,52.47,0,0,1,14,30.61c-1.47-.15-1.47-.39-1.33-1.81a23,23,0,0,0-.49-8.42c-.37-1.38-.9-2.72-1.35-4.08a7.15,7.15,0,0,1-.23-.79.11.11,0,0,1,0-.07A12.78,12.78,0,0,1,10.07,11h0a.45.45,0,0,1,0-.12.5.5,0,0,1,0-.3c0-.37,0-.53,0-.7s0-.27,0-.37h.09l0,0c-.21-.21-.05-.42,0-.64-.12,0,0-.17-.13-.22s-.17.23-.24.35h0s0,.07,0,.1v0a.74.74,0,0,1,0,.39,16.5,16.5,0,0,0,0,3.65v0a21.93,21.93,0,0,0,1.32,5.29,17.14,17.14,0,0,1,1.31,6.87c-.1,2.3-.36,4.61-.59,6.9-.08.73.24,1,.91,1.22a17.19,17.19,0,0,0,7.14.35,4.74,4.74,0,0,0,1.26-.4A1.11,1.11,0,0,0,21.93,32ZM12.5,30.75A1.34,1.34,0,0,1,13,30.7a40.4,40.4,0,0,0,4.11.48,38.83,38.83,0,0,0,4.39-.44,1.11,1.11,0,0,1-.25,1.17h0a.82.82,0,0,1-.36.24,7.63,7.63,0,0,1-2.25.45c-1.58,0-3.18-.1-4.76-.22a1.47,1.47,0,0,1-1.42-.83c-.1-.24-.16-.48-.24-.72Zm8.4,2.4c-2.34.85-4.74.57-7.11.2a3.38,3.38,0,0,1-1.59-.87l6,.59,3.47-.75C21.35,32.69,21.18,33.05,20.9,33.15Zm1-12.57h0l.05-.22h-.1l0,.18a.74.74,0,0,1,0-.14,1.29,1.29,0,0,1-.06-.21,3.74,3.74,0,0,0-.12.45c0,.15.2.27.24.42C21.92,20.88,21.85,20.73,21.89,20.58Zm0-.89-.06.16.23,0c0-.05,0-.1,0-.15Zm.12-.43-.06.23a.74.74,0,0,0,.21,0c0-.07,0-.15.07-.22Zm2-9a7.21,7.21,0,0,1-.13-1c-.18.25-.25,0-.44.26.11,0,.28.82.38,1-.07.85-.06,1.64-.11,2.4h0l0,.24h.36a2,2,0,0,0,0-.25A14.06,14.06,0,0,0,24,10.3Zm-.38,3.29a1,1,0,0,1,0,.24l.35,0,0-.24Z"></path>
  <path d="M13.28,27.78c.57-4.75-1.29-9.07-2.5-13.5C12.26,18.67,14.19,23,13.28,27.78Z"></path>
  <path d="M13.58,18.72l.72,9.88C14.53,26.92,14.7,24.62,13.58,18.72Z"></path>
  <g>
    <path d="M23.9,7.6a.42.42,0,0,1-.09-.27c0-.66-.24-1-.92-1a1.78,1.78,0,0,0-.4,0,1,1,0,0,1-.76-.12c-.15-.09-.42,0-.67,0-.12-.74-.79-.94-1.41-1.19-.13-.06-.29-.12-.34-.22a1.84,1.84,0,0,0-2.52-.47c-.06,0-.11.08-.17,0l-1,0a.93.93,0,0,1-.23,0c-.56-.28-.79-.21-1.06.33l0,.11c-.4-.12-.78-.25-1.16-.33a1.35,1.35,0,0,0-1.06.27,1.27,1.27,0,0,1-.45.16,1.34,1.34,0,0,1-.35,0c-.71.17-.87.5-.59,1l-.32.67v0c-.69.2-.21.89-.55,1.27-.11.14,0,.36.08.57a.87.87,0,0,0,.67.41h0a.69.69,0,0,0,.2-.13,2.3,2.3,0,0,1,1.25-.48.82.82,0,0,1,.9.81,4,4,0,0,1-.15.75A1.37,1.37,0,0,0,13.16,11a1.06,1.06,0,0,0,1.16.36l.34-.09.11-.06a1.28,1.28,0,0,0,.52-1.32C15.13,8.82,16.64,8,17.7,8.43a.82.82,0,0,1,.52.78c0,.91.49,1.21,1.36.84.37-.15.52,0,.5.34a.52.52,0,0,1,0,.17,1.25,1.25,0,0,0,0,1.17l.1.09.2.15a.54.54,0,0,1,.23-.38.73.73,0,0,1-.45-.78c.26-1,.1-1.13-.94-.89a.55.55,0,0,1-.65-.25,1.58,1.58,0,0,1-.16-.62.7.7,0,0,0-.64-.76,4.34,4.34,0,0,0-1.08-.09A1.57,1.57,0,0,0,15,9.94a1.32,1.32,0,0,1-.18.67c-.22.4-.63.42-1,.43a.65.65,0,0,1-.66-.54,2.83,2.83,0,0,1-.05-1.19A1.15,1.15,0,0,0,12.68,8,1.9,1.9,0,0,0,11,8.19c-.1.09-.2.23-.33.25a.23.23,0,0,1-.19,0c-.17-.12-.38-.32-.39-.49s.22-.61,0-1c0,0,.1-.13.19-.18a2,2,0,0,1,.31-.08c-.13-.4.12-.55.44-.62-.41-.8-.15-1.16.76-1.13a.56.56,0,0,0,.37-.13,1.21,1.21,0,0,1,.9-.29,2.1,2.1,0,0,1,1.48.7.34.34,0,0,0-.05-.17c-.23-.31,0-.51.17-.7s.39-.06.59,0a.55.55,0,0,0,.36,0,.78.78,0,0,1,.82.2l-.91.48a4.24,4.24,0,0,0,.91-.24,3,3,0,0,0,.6-.54l.1-.05A1.63,1.63,0,0,1,19,4.78a1,1,0,0,0,.4.27c.75.19,1.44.46,1.35,1.33.29,0,.64-.11.82,0s.58.12.89.08c.83-.12,1.32.4,1.13,1a9.43,9.43,0,0,1,.52,1.17c.09.27-.21.55-.54.58a2.36,2.36,0,0,1-.3,0c-.06.17-.07.35-.17.44s-.29.1-.46.15c.21.34,0,.54-.29.72a1.46,1.46,0,0,0,.18.11c.51.37.49.68,0,1.1l.19.06c.58-.36.61-.83,0-1.25L23,10c.24-.05.51-.14.48-.4a8.1,8.1,0,0,0,.75-.5.4.4,0,0,0,.14-.34C24.19,8.38,24.22,7.93,23.9,7.6Z"></path>
    <path d="M12.68,7.72l.43.25.07,0c-.15-.19-.29-.39-.45-.58s-.15-.1-.2-.08c-.45.14-1,0-1.37.36a.52.52,0,0,1-.35.16,3.38,3.38,0,0,1-.54-.09c0,.26.19.43.51.31L11,7.93A1.87,1.87,0,0,1,12.68,7.72Z"></path>
    <path d="M21.19,11.24c-.6-.16-.68-.29-.55-.86a.64.64,0,0,1,0-.07c.06-.3-.1-.69.42-.81a1.37,1.37,0,0,1-1.41-.72l0,.49c-.43.26-.78.14-1-.39-.07.51.24.8.76.69l.31-.08a.63.63,0,0,1,.75.83c0,.09-.06.17-.08.26C20.32,11,20.62,11.48,21.19,11.24Z"></path>
    <path d="M14.85,9.17a3.81,3.81,0,0,1-.46,1.09c-.29.34-.75.3-1.21.05a.7.7,0,0,0,1,.33C14.75,10.46,14.92,10.08,14.85,9.17Z"></path>
  </g>
  <path d="M11.94,6.23a.8.8,0,0,1-.06-.49A.31.31,0,0,1,12,5.6a.29.29,0,0,1,.19-.08.35.35,0,0,1,.18,0l.13,0a.7.7,0,0,0,.35.07.3.3,0,0,0,.23-.11,1.77,1.77,0,0,1,.19-.18.53.53,0,0,1,.2-.09.49.49,0,0,1,.21,0,1.16,1.16,0,0,1,.27.11,1.53,1.53,0,0,1,.21.14l.36.26a.64.64,0,0,0,.18.1.17.17,0,0,0,.19,0A.19.19,0,0,1,14.8,6a.22.22,0,0,1-.13,0,.78.78,0,0,1-.27,0,2.47,2.47,0,0,1-.46-.15,2.78,2.78,0,0,0-.36-.13s0,0,0,0a1,1,0,0,0-.13.14.91.91,0,0,1-.27.18.74.74,0,0,1-.33,0,1,1,0,0,1-.52-.19l-.09,0,0,0h0s0,0-.07,0A1,1,0,0,0,11.94,6.23Z"></path>
  <path d="M18.67,29.55c-.81,0-1.61,0-2.41,0a11.53,11.53,0,0,0-1.19.07,2.05,2.05,0,0,0-.55.16.86.86,0,0,0-.22.15.45.45,0,0,0-.13.17h0L14.06,30l4.77.36L14,30.2h-.15l0-.14h0a.83.83,0,0,1,.5-.46,2.24,2.24,0,0,1,.61-.14,9.94,9.94,0,0,1,1.22,0C17.06,29.45,17.86,29.5,18.67,29.55Z"></path>
  <path d="M19.84,24.85c-.05-1.15-.12-2.29-.2-3.43s-.19-2.27-.32-3.41c.08,1.14.14,2.28.19,3.41s.11,2.29.13,3.43a24.05,24.05,0,0,1-.11,3.4,2.7,2.7,0,0,1-.08.41,1.34,1.34,0,0,1-.07.18l-.05.05h0a0,0,0,0,1,0,0c-.3,0-.59,0-.89,0-.55,0-1.1,0-1.64,0,0,0,0,.08,0,.12l-.11-.13h.13c.29-1.85.63-3.69,1-5.53.17-.95.37-1.88.58-2.82.1-.47.21-.94.35-1.4a5.82,5.82,0,0,1,.22-.67,1.91,1.91,0,0,1,.15-.32.58.58,0,0,1,.11-.15l0,0s0,0-.05,0a.58.58,0,0,0-.11.15,1.87,1.87,0,0,0-.17.31c-.09.23-.18.45-.25.69-.15.45-.28.91-.4,1.37-.25.94-.44,1.88-.65,2.81s-.38,1.88-.55,2.82-.33,1.89-.5,2.84v.12h.13c.6,0,1.19.05,1.78,0a8.9,8.9,0,0,0,.9,0l.09,0,.09-.05.09-.12.09-.22.09-.43a14.37,14.37,0,0,0,.09-1.72C19.86,26,19.86,25.41,19.84,24.85Z"></path>
  <path d="M14,7.43a5,5,0,0,0,.47.3.72.72,0,0,0,.38.09.79.79,0,0,0,.2,0l.25-.07a2,2,0,0,0,.22-.09.32.32,0,0,0,.17-.19.3.3,0,0,1,0,.33.67.67,0,0,1-.21.26,1,1,0,0,1-.27.18.9.9,0,0,1-.35.1A.84.84,0,0,1,14.24,8,.81.81,0,0,1,14,7.43Z"></path>
  <path d="M12.49,30.69a1.72,1.72,0,0,0,1.41,1.46,19.45,19.45,0,0,0,4.93.17,12.73,12.73,0,0,0,2.42-.42v.21l-2.82.73-4.74-.36-1.2-.25s-.55-1.47-.34-1.72S12.49,30.69,12.49,30.69Z"></path>
  <path d="M16.93,5.22a1.22,1.22,0,0,1,.25-.31.31.31,0,0,1,.24-.06.55.55,0,0,0,.17,0,.52.52,0,0,0,.3,0c.24-.13.37,0,.49.1a1,1,0,0,1,.2.29c-.07,0,0,0,.11-.06a.42.42,0,0,0,.16,0,.22.22,0,0,1,.13,0,.18.18,0,0,1,.15.09.61.61,0,0,1,.06.21,1,1,0,0,0,.08.37,1,1,0,0,1-.2-.34A.42.42,0,0,0,19,5.26s0,0-.06,0-.17.09-.2.09,0,.09-.25,0-.13-.15-.17-.18l-.11-.12C18.14,5.05,18,5,18,5a.61.61,0,0,1-.45.05.59.59,0,0,1-.2-.07.15.15,0,0,0-.13,0A1,1,0,0,0,16.93,5.22Z"></path>
  <path d="M20.36,7.62a1.09,1.09,0,0,1,.36-.17.27.27,0,0,1,.24,0,.72.72,0,0,0,.15.11.57.57,0,0,0,.28.08c.27,0,.33.19.4.3a.72.72,0,0,1,.05.34c-.07,0,0,0,.12,0a.35.35,0,0,0,.17,0,.45.45,0,0,1,.13,0,.17.17,0,0,1,.1.14,1,1,0,0,1,0,.21c0,.13-.12.24-.1.37a.86.86,0,0,1,0-.39,1,1,0,0,0,0-.17s0,0-.06,0a.54.54,0,0,1-.22,0s-.07.06-.25-.06-.05-.2-.07-.24a.47.47,0,0,0,0-.16c0-.09-.12-.2-.13-.17a.66.66,0,0,1-.57-.29s-.07,0-.13,0A1,1,0,0,0,20.36,7.62Z"></path>
  <path d="M10,8.05a11.72,11.72,0,0,0-.18,5.08,11.17,11.17,0,0,0,.95,3.45,2,2,0,0,1-.11-.61c-.09-.49-.17-1-.24-1.48a18.09,18.09,0,0,1-.29-2.55,9.06,9.06,0,0,1,.16-1.8c0-.15.43-1.73.41-1.7S10,8.05,10,8.05Z"></path>
  <g>
    <path d="M26.65,14.66h2A2.37,2.37,0,0,1,26.65,14.66Z"></path>
    <path d="M27,15.36l1.47-.09A1.65,1.65,0,0,1,27,15.36Z"></path>
    <path d="M30,15a8.83,8.83,0,0,0-.19-1.27.77.77,0,0,0-.22-.35l0,0h0a1,1,0,0,1,0,.18v.06a5,5,0,0,1,.21.93c.06,1,.12,2,.09,3.06a7,7,0,0,1-.55,2.57,2.63,2.63,0,0,1-.15.35h0c0,.09-.07.17-.11.26h0l-.26.53-.1.14c0,.09-.09.17-.14.26a10.58,10.58,0,0,0,1-1.54A10.2,10.2,0,0,0,30,15Zm0,0a8.83,8.83,0,0,0-.19-1.27.77.77,0,0,0-.22-.35l0,0h0a1,1,0,0,1,0,.18v.06a5,5,0,0,1,.21.93c.06,1,.12,2,.09,3.06a7,7,0,0,1-.55,2.57,2.63,2.63,0,0,1-.15.35h0c0,.09-.07.17-.11.26h0l-.26.53-.1.14c0,.09-.09.17-.14.26a10.58,10.58,0,0,0,1-1.54A10.2,10.2,0,0,0,30,15Zm0,0a8.83,8.83,0,0,0-.19-1.27.77.77,0,0,0-.22-.35l0,0h0a1,1,0,0,1,0,.18v.06a5,5,0,0,1,.21.93c.06,1,.12,2,.09,3.06a7,7,0,0,1-.55,2.57,2.63,2.63,0,0,1-.15.35h0c0,.09-.07.17-.11.26h0l-.26.53-.1.14c0,.09-.09.17-.14.26a10.58,10.58,0,0,0,1-1.54A10.2,10.2,0,0,0,30,15Zm0,0a8.83,8.83,0,0,0-.19-1.27.77.77,0,0,0-.22-.35l0,0h0a1,1,0,0,1,0,.18v.06a5,5,0,0,1,.21.93c.06,1,.12,2,.09,3.06a7,7,0,0,1-.55,2.57,2.63,2.63,0,0,1-.15.35h0c0,.09-.07.17-.11.26h0l-.26.53-.1.14c0,.09-.09.17-.14.26a10.58,10.58,0,0,0,1-1.54A10.2,10.2,0,0,0,30,15Zm-.63,19.12A5.49,5.49,0,0,0,28,34c-1.15-.09-1.89-.67-1.91-1.83-.05-2.49,0-5,.07-7.49a1.38,1.38,0,0,1,1.09-1.38,3.32,3.32,0,0,0,1.2-.75,6.47,6.47,0,0,0,2.09-5.36,37.59,37.59,0,0,0-.41-3.94h-.23l0,.22c.14,1,.25,2,.3,3a13.71,13.71,0,0,1-.61,3.88A3.9,3.9,0,0,1,28.54,22a2.06,2.06,0,0,0,0-.26h0L26.54,23c-.35.23-.65.5-1,.7a.49.49,0,0,1-.44,0,23.7,23.7,0,0,1-2.33-1.76,2.39,2.39,0,0,1-.22-.23l-.08-.09a3.73,3.73,0,0,1-.58-1h0s0,0,0-.05a.74.74,0,0,1,0-.14,1.29,1.29,0,0,1-.06-.21c0-.1-.06-.22-.09-.33s0-.13,0-.2h0a.94.94,0,0,1,0-.16,1,1,0,0,1,0-.17s0,0,0-.06a12.65,12.65,0,0,1-.09-3.42c0-.14,0-.27,0-.39a.28.28,0,0,0,0-.09c0-.1,0-.19,0-.29.05-.51.13-1,.22-1.55v-.08a.76.76,0,0,1,0-.15h0a1.29,1.29,0,0,1,0-.19h-.15a.37.37,0,0,0-.17.22,1.14,1.14,0,0,0-.11.45c0,.12,0,.25,0,.36s0,.14,0,.21c0,.23,0,.45-.06.68a5.85,5.85,0,0,0,0,.59,15.83,15.83,0,0,0,.09,3.64.39.39,0,0,0,0,.14c0,.14.05.27.07.41a7.59,7.59,0,0,0,.24.85c0,.15.4.85.44,1s0,0,0,.06h0c-.07,0-.51-.62-.53-.66A22,22,0,0,1,21,18.61a14.88,14.88,0,0,1,0-3.53c.05-.43.11-.85.18-1.27,0-.17.06-.34.08-.51s0-.16.05-.24h-.14l-.14,0,0,.17a2.51,2.51,0,0,1,0,.27A18.69,18.69,0,0,0,20.74,19a5.9,5.9,0,0,0,.74,2.37,2.68,2.68,0,0,0,.18.28A5,5,0,0,0,24,23.39a1.62,1.62,0,0,1,.78,1.14,33.21,33.21,0,0,1,0,8c-.21,1.25-.49,1.5-1.77,1.61a15,15,0,0,0-1.63.15c-.21,0-.54.28-.55.45a.89.89,0,0,0,.37.71,3.14,3.14,0,0,0,1.29.37c1.84,0,3.68,0,5.52,0a4.65,4.65,0,0,0,1.52-.33c.23-.09.53-.47.48-.66A1,1,0,0,0,29.32,34.13Zm-.45,1a13.08,13.08,0,0,0-2,.17c-1.59,0-3.18,0-4.77,0a.36.36,0,0,1-.3-.18l.88-.07-.64-.59c.82-.16,1.82-.35,2.81-.57.13,0,.23-.23.36-.36a4.6,4.6,0,0,1-.26-1.2c0-2.38,0-4.77.15-7.15a2.7,2.7,0,0,0-.58-1.8c.49.7,1.09.49,1.75.4-.2.15-.39.31-.56.43a4.92,4.92,0,0,1,.08,1,37.65,37.65,0,0,0,0,7.2c0,.33-.38.7-.58,1,.47-.1.59,0,.31.37l3.2.43,0,.11-1.27.34a.43.43,0,0,0,0,.11l2.09-.24C29.75,35.22,29.58,35.25,28.87,35.15ZM30,15a8.83,8.83,0,0,0-.19-1.27.77.77,0,0,0-.22-.35l0,0h0a1,1,0,0,1,0,.18v.06a5,5,0,0,1,.21.93c.06,1,.12,2,.09,3.06a7,7,0,0,1-.55,2.57,2.63,2.63,0,0,1-.15.35h0c0,.09-.07.17-.11.26h0l-.26.53-.1.14c0,.09-.09.17-.14.26a10.58,10.58,0,0,0,1-1.54A10.2,10.2,0,0,0,30,15Zm0,0a8.83,8.83,0,0,0-.19-1.27.77.77,0,0,0-.22-.35l0,0h0a1,1,0,0,1,0,.18v.06a5,5,0,0,1,.21.93c.06,1,.12,2,.09,3.06a7,7,0,0,1-.55,2.57,2.63,2.63,0,0,1-.15.35h0c0,.09-.07.17-.11.26h0l-.26.53-.1.14c0,.09-.09.17-.14.26a10.58,10.58,0,0,0,1-1.54A10.2,10.2,0,0,0,30,15Zm0,0a8.83,8.83,0,0,0-.19-1.27.77.77,0,0,0-.22-.35l0,0h0a1,1,0,0,1,0,.18v.06a5,5,0,0,1,.21.93c.06,1,.12,2,.09,3.06a7,7,0,0,1-.55,2.57,2.63,2.63,0,0,1-.15.35h0c0,.09-.07.17-.11.26h0l-.26.53-.1.14c0,.09-.09.17-.14.26a10.58,10.58,0,0,0,1-1.54A10.2,10.2,0,0,0,30,15Z"></path>
    <path d="M29.21,20.55A3.45,3.45,0,0,1,28,22.12a6.84,6.84,0,0,1-1.86.8,3.8,3.8,0,0,1-2.06-.15,3.8,3.8,0,0,1-1.82-1.06l0,0a2.86,2.86,0,0,1-.63-1.09v0l0-.05,0-.19-.06-.31.3,0,1.86.24c.62.09,1.21.16,1.83.19s1.22,0,1.84,0A16.13,16.13,0,0,1,29.21,20.55Zm0,0c-.58,0-1.22.16-1.83.22s-1.24.1-1.86.12a13,13,0,0,1-1.87-.11l-1.81-.2.23-.27,0,.15,0-.05,0,.05v0a2.8,2.8,0,0,0,.53.92l0,0a3.48,3.48,0,0,0,1.56.91,3.85,3.85,0,0,0,1.84.21,7.25,7.25,0,0,0,1.81-.64A3.58,3.58,0,0,0,29.21,20.55Z"></path>
    <path d="M30.15,13.27l-.07.23-.12,0a2.58,2.58,0,0,0-.42-.1h0l-.16,0h0a28.08,28.08,0,0,0-5.26-.19h-.36l-1.54.09-.19,0h-.79L21.08,13s.12.05.14,0h.14L22,13h.19c.42,0,.95-.07,1.55-.09h.35a22.48,22.48,0,0,1,6,.37h0Z"></path>
    <path d="M28.82,21.15a4.74,4.74,0,0,0,.32-.78.47.47,0,0,0,0-.09v0s0,0,0,0H29l-.42.06a13.75,13.75,0,0,1-1.71.17,8.26,8.26,0,0,1-.86,0c-.29,0-.58-.07-.85-.11l-.85-.13-.84-.16.86,0,.85.07c.29,0,.56.06.84.06s.56,0,.84,0c.57,0,1.13-.07,1.7-.11l.43,0h.23a.12.12,0,0,1,.09.08.17.17,0,0,1,0,.08.42.42,0,0,1,0,.12A4.38,4.38,0,0,1,28.82,21.15Z"></path>
    <path d="M22.29,19.73c.18.05.36.08.54.14h-.64l-.22,0h-.32l0-.06-.16-.39v0l-.07-.14h.28l.48,0,.22,0,.39,0a11.38,11.38,0,0,1,1.17.18c-.39,0-.79,0-1.19,0a3.46,3.46,0,0,1-.45,0,.67.67,0,0,1-.2,0l-.35,0,.07.17.21.05.22,0Z"></path>
    <path d="M29.66,13.52s-.11.08-.13.08a24.07,24.07,0,0,1-4.18.32c-.51,0-1,0-1.37-.06l-.35,0a11,11,0,0,1-1.46-.23l-.18,0-.23-.06a2.31,2.31,0,0,1-.24-.07l.06-.15,0-.08.16.06h.06a.53.53,0,0,1,.15.05l.18,0a11.25,11.25,0,0,0,1.5.23l.35,0a22.39,22.39,0,0,0,5.32-.29h0l.19,0v.08l0,0Z"></path>
  </g>
  <path d="M20.49,11.52c.23,0,.38.24.61.3a1.6,1.6,0,0,0,.64.11,1.77,1.77,0,0,0,1.17-.64l.22.18a2.33,2.33,0,0,1-.56.57,1.63,1.63,0,0,1-.79.3,2,2,0,0,1-.84-.09l-.38-.16L20.38,12c0-.06-.15,0-.14-.17Z"></path>
</svg>
