<svg version="1.1" id="Слой_1" xmlns="http://www.w3.org/2000/svg" x="0" y="0" viewBox="0 0 250 250" style="enable-background:new 0 0 250 250" xml:space="preserve"><style></style><path d="M227.86 119.488c-.77-.398-1.592-.706-2.427-1-.821-.283-1.668-.501-2.515-.745-4.005-1.181-8.022-2.336-12.027-3.556-.706-.218-1.322-.706-1.977-1.078 1.104-.41 1.977-.372 2.837-.32 3.786.243 7.573.577 11.36.705 2.553.077 3.952-.783 4.337-2.22.411-1.489-.641-3.17-3.054-4.043-2.734-.976-5.584-1.682-8.42-2.31-2.542-.565-5.16-.848-7.701-1.246.5-1.99 1.22-3.735 1.36-5.544.308-3.761.488-7.56.398-11.347-.218-8.625-3.132-16.377-8.201-23.321-4.66-6.38-10.551-11.334-17.43-15.274-17.187-9.857-35.477-14.735-55.372-12.822-1.848.18-3.683.385-5.519.577-9.049.963-17.892 2.811-26.35 6.174-19.638 7.83-35.207 20.844-47.747 37.684-4.39 5.891-7.368 12.206-7.766 19.779-.269 5.121 1.335 9.1 4.75 12.63 3.645 3.786 8.086 6.379 12.873 8.381 3.645 1.528 7.33 2.952 11 4.415-3.427 6.598-4.082 9.447-2.516 12.45 2.44-3.734 3.106-8.24 6.47-11.333 2.002.706 4.068 1.425 6.057 2.118-.282 2.99-2.798 5.108-2.117 8.497 2.99-2.04 3.388-5.211 4.749-7.701 3.144.937 6.083 2.015 9.125 2.67 10.461 2.246 20.935 4.479 31.665 5.095 8.766.513 17.507.886 26.145-1.27 2.349-.578 4.736-.976 7.303-1.502.77 1.963 1.502 3.824 2.298 5.878-4.364 1.463-5.545 5.468-7.445 8.87-4.39-3.762-6.186-3.569-9.767.82-.372.45-.706.95-1.117 1.361-.642.655-1.348 1.27-2.156 2.028-.886-1.04-1.579-1.835-2.26-2.644-2.823-3.337-5.66-3.773-9.138-1.078-2.143 1.656-4.069 3.607-6.007 5.519-1.322 1.296-2.4 2.824-3.735 4.094-1.527 1.45-3.298 2.324-5.634 1.335 1.463-3.799 4.12-6.97 4.582-11.012-3.004 2.374-4.107 6.058-6.61 9.036-.54-.642-.989-1.168-1.374-1.63 1.502-2.773 3.928-4.71 4.878-7.522-.18-.14-.373-.282-.552-.423-1.887 2.118-3.787 4.222-5.738 6.417-.988-1.81-1-1.81-.154-2.708a1049.2 1049.2 0 0 0 3.62-3.825 17.916 17.916 0 0 1-.488-.513c-.757.526-1.514 1.04-2.246 1.591-.821.63-1.617 1.297-2.426 1.938-2.143-2.682-3.17-2.926-6.032-1.437a23.057 23.057 0 0 0-2.99 1.835c-1.284.912-2.517 1.913-3.877 2.965-.372-1.078-.63-1.912-.95-2.72-1.617-4.031-4.043-5.2-8.317-4.25-4.005.9-7.445 2.799-10.486 5.507-1.297 1.142-2.632 2.246-3.967 3.376-2.169-1.784-2.618-4.043-2.682-6.418-.051-2.246.064-4.492-.051-6.726-.116-2.323-.989-3.093-3.35-3.016-3.042.103-5.994.616-8.664 2.26-1.065.667-2.195 1.283-3.363 1.732-2.965 1.168-4.698.629-6.533-2.002-.95-1.36-1.733-2.824-2.657-4.197-1.72-2.529-4.043-4.223-7.11-4.66-1.207-.166-2.465-.025-3.787-.025 1.014-2.786 3.222-4.62 5.134-6.636 1.669-1.758 1.771-2.9-.36-4.03-1.604-.847-3.426-1.348-5.198-1.81-1.822-.475-3.709-.719-6.186-1.168 5.943-3.8 11.487-6.122 17.995-3.504.988.398 1.887.667 2.605-.308.732-.988.296-2.04-.475-2.606-1.219-.898-2.592-1.874-4.03-2.143-8.137-1.54-14.837 1.784-20.96 6.674-1.142.911-1.103 2.156-.372 3.427.77 1.335 1.964 1.797 3.389 1.938 1.848.18 3.709.27 5.519.616 1.54.296 3.209.398 4.697 1.515-.821 1.014-1.565 1.784-2.117 2.683-.963 1.553-1.951 3.131-2.657 4.813-.5 1.206-1.066 2.682.128 3.85 1.091 1.053 2.35.514 3.568.116 2.516-.809 4.621-.064 6.315 1.848.822.937 1.54 2.015 2.144 3.119 1.938 3.542 4.222 6.584 8.869 6.546.038 9.01-.732 17.918 5.622 24.862-2.799 3.49-5.648 6.584-7.958 10.05-1.874 2.798-3.453 5.904-4.531 9.1-1.36 4.03-.128 5.236 4.069 4.53 3.709-.616 7.406-1.411 11.128-2.143.436 1.643 1.309 3.196 1.117 4.62-.296 2.183.847 3.274 2.194 4.39 3.273 2.696 7.073 4.467 11 5.956 11.051 4.158 22.628 5.686 34.321 6.315 15.505.834 30.959.14 46.31-2.272 12.026-1.9 23.924-4.39 35.348-8.754 5.48-2.092 10.755-4.582 15.504-8.047 3.03-2.195 5.776-4.698 7.342-8.163.655-1.477.976-3.107 1.31-4.711.436-2.17 1.142-4.402 1.039-6.572-.436-8.638-1.142-17.276-1.771-25.914-.218-2.978-.616-5.904.731-8.83.706-1.54.822-3.402.912-5.135.154-2.76.038-5.544.038-8.573 2.002.09 4.03.192 6.046.308 2.425.128 4.864.487 7.264.359 3.21-.193 5.353-2.08 5.725-4.518.333-2.118-1.297-4.787-3.774-6.097zm-81.26 13.08c-7.92 1.617-15.877 1.244-23.848.744-19.035-1.194-37.222-6.02-54.819-13.092-7.046-2.824-13.785-6.418-18.624-12.668-2.31-2.978-3.452-6.444-3.003-9.999 2.76 6.174 7.008 10.615 13.438 13.207.257-1.604-.706-2.092-1.36-2.733-1.464-1.412-3.042-2.734-4.441-4.223-3.697-3.928-5.468-8.664-5.673-14.03-.052-1.283 0-2.528 1.399-3.477 1.373 3.978 2.528 7.957 5.532 11.115-.976-2.426-2.067-4.813-2.876-7.29-.821-2.478-2.207-5.006-.539-8.074 1.001 2.708 1.72 5.16 2.811 7.419 1.091 2.272 2.709 4.223 4.98 5.891.552-1.501-.513-2.169-1.052-2.9-2.49-3.466-4.3-7.188-4.518-11.514-.052-.988.244-2.002.898-3.016.822 1.874 1.528 3.825 2.516 5.622.963 1.745 1.976 3.53 4.082 4.57.68-1.503-.244-2.375-.706-3.35a644.83 644.83 0 0 1-3.402-7.381c-.718-1.604-.27-2.888.937-4.197 16.185-17.43 35.464-29.29 59.273-33.025 10.012-1.579 19.882-.95 29.868.975 13.977 2.683 26.376 8.651 37.735 16.879 4.377 3.17 8.086 7.277 11.988 11.076 1.232 1.194 2.092 2.76 3.093 4.133-1.733 3.337-5.018 5.404-6.238 9.396 3.774-1.117 5.134-4.172 7.496-6.161.899.385.988 1.065.5 1.797-.975 1.45-1.899 2.965-3.08 4.235-1.848 1.99-3.914 3.787-5.853 5.7-.86.872-1.617 1.847-2.554 2.938 1.784.68 2.85-.166 3.735-.937 2.785-2.425 5.455-4.967 8.138-7.495.539-.5.988-1.104 1.643-1.836.59 1.733-.116 2.94-.668 4.12-1.347 2.888-3.49 5.173-5.853 7.214-2.271 1.964-4.71 3.76-7.072 5.622-.898.718-1.797 1.424-2.952 2.336 4.082-.154 13.233-7.098 18.213-13.593.873 1.553.603 2.67-.45 4.082-6.48 8.638-13.771 16.39-23.051 22.102-.963.59-1.861 1.322-2.785 1.99l.23.615c.63-.14 1.349-.154 1.9-.462 2.798-1.566 5.763-2.926 8.292-4.864 5.455-4.223 10.897-8.523 15.287-13.94.333-.423.68-.86 1.014-1.283.205.141.397.283.603.437-.41.783-.783 1.591-1.245 2.361-7.047 11.578-17.443 19.125-29.521 24.747-9.472 4.415-19.15 8.137-29.418 10.216zm12.103.975c4.788-1.746 9.588-3.504 14.953-5.468 4.12 2.9 8.317 5.853 12.502 8.83.18.129.218.463.423.963-7.83.129-14.426 2.567-18.867 9.473-.514-.616-.95-1.104-1.36-1.618-.784-.988-1.477-2.079-2.363-2.965-1.014-1.013-2.618-1.642-3.234-2.823-.976-1.861-1.335-4.03-2.054-6.392zm1.014 10.255c1.232 1.412 2.336 2.606 3.35 3.864.963 1.219 1.746 2.592 2.76 3.76 1.81 2.041 3.555 1.707 4.659-.796 3.055-6.866 10.923-10.755 17.956-8.83 1.31.36 2.567.911 3.864 1.31 3.067.936 3.722.59 4.62-2.44.81-2.734 1.759-5.39 4.198-7.149.436-.308 1.013-.423 1.54-.629-.63 1.63-1.4 3.222-1.836 4.903-1.18 4.454-4.248 7.06-8.227 8.857-1.592.718-3.209 1.373-4.813 2.066-1.425.629-2.863 1.207-4.236 1.912-.423.219-.667.783-1.001 1.181 1.13.373 2.092.373 2.914.039 2.875-1.168 5.737-2.362 8.535-3.722 5.288-2.567 8.022-7.162 9.537-12.605.295-1.052.783-2.284-.411-3.208 1.065-.565 2.143-1.117 3.44-1.797.346 3.696-.142 6.88-1.836 9.677-5.031 8.343-12.604 13.465-21.884 15.724-6.559 1.591-12.95-.193-18.906-3.132-2.734-1.36-4.633-3.787-6.302-6.623.603-.68 1.207-1.374 2.08-2.362zm41.933 4.441c.295 1.476.487 2.696.796 3.902.423 1.617-.411 2.233-2.105 2.695.346-2.323-1.592-4.736 1.309-6.597zm-2.798 7.83c-.86.474-1.669.937-2.747 1.527-.244-.924-.462-1.63-.629-2.349-.154-.654-.257-1.322-.45-2.272.848-.513 1.58-.937 2.606-1.553.424 1.618.809 3.042 1.22 4.647zm-4.557 2.105c-1.09.423-2.182.847-3.62 1.411a796.05 796.05 0 0 0-.474-4.081c.886-.45 1.643-.822 2.567-1.297.5 1.297.95 2.452 1.527 3.967zm-5.724 2.027c-1.104.321-2.157.63-3.427 1.002v-3.581c.77-.308 1.553-.604 2.605-1.014.321 1.373.54 2.31.822 3.593zm-5.417 1.297c-2.541 0-4.916.295-7.175-.064-3.645-.565-7.251-1.412-10.807-2.426-2.798-.796-5.07-2.465-5.814-5.545-.09-.346-.013-.732-.013-1.27 6.957 5.198 14.786 6.443 23.129 6.019.231 1.091.436 2.092.68 3.286zm-32.614-7.496c.68.54 1.168 1.13 1.797 1.4.565.243 1.425.41 1.874.14.398-.243.655-1.18.54-1.707-.347-1.476.192-2.58 1.077-3.683.193 1.938 1.4 3.786.334 5.788-.116.231-.051.565-.039.86.424 7.021-2.63 12.104-8.702 15.467-.385.218-.86.308-1.36.474-.244-1.655-.45-3.131-.693-4.62-.013-.116-.308-.193-.745-.45-.205.642-.513 1.207-.539 1.785-.064 1.168.128 2.336.026 3.49-.026.335-.72.591-1.117.887l.103-.09c-.052-.026-.116-.052-.167-.09 0 .051.026.09.051.14-.346.13-.68.27-1.027.412-.552.218-1.116.449-1.72.68-.346.141-.693.282-1.052.423-.205-1.373-.36-2.374-.54-3.568-1.745.847-.628 2.4-1.488 3.735-5.583 2.503-11.873 2.17-18.508 2.144-.142-2.028-.257-3.902-.385-5.776.513-.141.783-.308 1.04-.282 6.032.5 11.82-.796 17.494-2.567 6.7-2.093 11.77-5.969 13.168-13.375.09-.462.309-.898.578-1.617zm-49.274-.27c.308.822.59 1.567.873 2.298v.002-.002c.09.231.167.45.243.68-.025-.025-.038-.051-.038-.051.013.038.026.077.026.115.012-.012.025-.012.038-.025.835 1.142 1.63 2.323 2.554 3.401 5.006 5.815 12.605 6.046 17.854.45 1.579-1.682 2.888-3.646 4.21-5.558 1.31-1.887 2.875-3.376 5.43-3.953 1.783 2.066 3.593 4.17 5.519 6.404-1.81 3.645-6.79 3.222-9.332 6.649.706.244 1.245.642 1.656.552 2.952-.706 5.814-1.72 8.086-3.825.822-.757 1.528-1.81 1.887-2.875 1.296-3.735 4.39-5.879 6.777-8.638 2.747 2.284 2.516 2.22 1.758 5.083-1.925 7.38-7.149 10.884-14.028 12.912-9.383 2.785-18.65 1.99-27.917-.373-2.17-.551-4.3-1.232-6.469-1.784-2.554-.641-4.787-1.63-5.468-4.543-.077-.347-.423-.63-.731-1.066 2.028-2.194 4.004-4.415 7.072-5.852zm14.812 19.035c.115 1.489.218 2.99.372 4.916-1.874-1.27-2.182-2.529-1.848-6.79.603.424 1.065.668 1.399 1.027.14.167.051.552.077.847zm-2.952 4.582c-1.066-.051-1.887-.09-2.875-.14V170.7c.718.09 1.27.167 1.835.23.346 2.119.667 4.095 1.04 6.418zm-4.66-.616c-2.297-.5-2.63-1.399-2.785-6.751 2.298-.103 2.31-.103 2.452 1.81.128 1.54.205 3.08.333 4.941zm-3.26-.334c-1.681-.423-2.939-.731-4.287-1.065-.256-2.451-.475-4.71-.757-7.419 1.296.309 2.336.552 3.414.809.527 2.464 1.014 4.8 1.63 7.675zm-5.788-2.348c-.231.09-.45.166-.68.256-2.247-1.9-1.695-4.697-2.234-7.329 1.31-.09 2.067-.05 2.156 1.387.129 1.9.488 3.786.758 5.686zm-7.034-10.127c1.36 5.403 1.348 4.8-2.362 7.778-4.21 3.388-9.19 4.325-14.619 4.428-.244-2.285-.475-4.454-.744-6.918 6.545.051 12.347-1.913 17.725-5.288zm-36.17-18.136c.475 2.926.796 5.686 1.4 8.394.243 1.078.95 2.13 1.706 2.965.398.436 1.528.744 2.016.488.885-.463.256-1.271-.039-2.003-.975-2.323-1.925-4.646-2.695-7.033-.347-1.066-.27-2.285-.424-3.723h5.096c0 2.388-.051 4.595.013 6.803.077 3.016.847 5.763 3.26 7.817 1.604 1.373 2.426 1.501 4.133.256 1.566-1.142 3.042-2.413 4.505-3.696 2.631-2.31 5.724-3.594 9.1-4.339 1.694-.372 3.106-.218 3.8 1.823-2.786 3.119-5.802 5.891-10.282 6.392-.783.09-1.771.36-1.463 1.335.141.475 1.168.898 1.81.95 2.9.218 5.275-1.104 7.47-2.798 1.142-.886 2.143-1.939 3.145-2.85.872 1.425 1.72 2.785 2.695 4.377-4.672 3.234-10.024 5.262-16.019 5.147-6.006-.116-11.834-1.297-16.968-4.582-4.736-3.042-7.072-7.509-7.085-13.246 1.759-.899 3.363-1.733 4.826-2.477zm18.098 30.085h-3.145c-.436-2.284-.821-4.35-1.257-6.648h3.041c.45 2.207.886 4.35 1.361 6.648zm-4.53-.154c-1.336-.192-2.593-.372-4.07-.59l-.718-7.098c1.36.205 2.349.372 3.311.513.514 2.516.963 4.672 1.476 7.175zm-5.815-1.22c-1.848-.77-1.977-1.116-2.747-7.598 1.579.077 2.285.59 2.285 2.118 0 1.797.282 3.581.462 5.48zm-3.158-1.103c-1.694-.385-2.63-.963-2.9-2.618-.321-2.067-.989-4.082-1.579-6.405 2.195.41 2.875 1.476 3.067 3.286.206 1.874.886 3.683 1.412 5.737zm-8.394-13.066c1.566 1.373 2.593 2.772 2.452 4.993-.09 1.501.847 3.08 1.065 4.697-1.964-2.952-3.71-5.98-3.517-9.69zm-5.814 33.64c-.552.13-1.104.193-1.681.296-.116-5.044 5.12-12.386 12.989-18.329.552.306 1.136.643 1.704.964.686.12 1.367.316 1.966.605 1.317.262 2.666.546 4.03.819a50.507 50.507 0 0 0 16.558.488c4.095-.552 7.509-2.555 10.64-5.135.501-.41.976-.847 1.605-1.411 1.707 4.376 5.083 6.083 9.151 7.033 7.689 1.784 15.467 1.425 23.258 1.322 6.892-.077 13.143-2.49 19.394-4.877 5.673-2.17 9.665-6.097 11.397-12.065.052-.18.129-.36.193-.54 1.206-3.49 1.155-3.388 4.428-1.86 4.274 1.99 8.895 2.965 13.554 3.196 3.94.192 7.906-.296 11.641-.475-1.09 2.605-2.31 5.532-3.555 8.445-1.45 3.402-2.926 6.777-4.377 10.178-.462 1.066-1.18 1.759-2.374 1.875-1.36.128-2.708.32-4.069.397-8.073.385-16.134.732-24.207 1.13-8.279.41-16.532-.141-24.798-.642-7.38-.436-14.786-.423-22.179-.398-2.207.013-4.402.796-6.61 1.091-10.704 1.463-21.435 2.734-32.114 4.377-5.557.847-11.025 2.336-16.544 3.517zm161.928-13.694c-2.22 2.04-4.35 4.197-6.456 6.353a12.168 12.168 0 0 0-2.323 3.312c3.555.27 5.121-2.927 7.984-4.339.025 2.003-1.04 3.363-2.118 4.672-2.452 2.965-5.583 5.134-8.908 6.995-6.405 3.569-13.233 6.123-20.266 8.15-12.49 3.607-25.234 5.854-38.21 6.457-9.807.462-19.664.706-29.47.385-11.693-.385-23.283-2.028-34.476-5.66-2.76-.899-5.429-2.118-8.111-3.26-.835-.36-1.592-.937-2.298-1.643 5.879 2.156 11.821 3.542 18.765 3.003-.796-.886-1.104-1.54-1.579-1.707-1.27-.475-2.618-.732-3.927-1.078-5.07-1.335-10.127-2.67-15.159-3.992-.308-1.373-.539-2.362-.808-3.517 3.042 1.053 5.853 2.22 8.78 2.99 2.9.758 5.903 1.259 8.881 1.618 3.042.347 6.135.873 9.216-.32-3.158-1.785-6.816-1.451-10.178-2.375-3.35-.912-6.752-1.618-10.128-2.413 0-.206 0-.424.013-.63 3.068-.423 6.135-.872 9.203-1.244 6.084-.758 12.168-1.463 18.252-2.22 1.052-.13 2.233-.193 3.106-.707 2.182-1.283 4.415-1.04 6.764-.834 3.876.32 7.778.41 11.667.565 9.524.372 19.035 1.566 28.597.821 5.43-.423 10.858-.988 16.288-1.373 3.889-.283 7.778-.372 11.667-.54.783-.038 1.566-.076 2.336-.102 3.992-.141 6.2-2.13 7.611-5.968 1.9-5.173 4.557-10.063 6.79-15.12.526-1.194.667-2.567 1.027-4.043 5.378-2.76 11.012-5.66 16.788-8.625.706 2.053.706 3.966-.629 5.968-2.605 3.928-5.596 7.457-9.344 10.358-2.836 2.208-5.622 4.48-8.407 6.751-.346.283-.603.706-.885 1.053 4.813.077 7.547-3.376 10.678-5.943 3.196-2.631 5.982-5.763 9.01-8.74.527 1.72.565 3.298-.962 4.992-2.156 2.375-3.953 5.07-5.917 7.611-2.541 3.26-5.583 5.943-9.177 8.022-2.002 1.168-3.89 2.516-6.34 4.108 3.028-.565 10.14-4.3 13.027-7.098 3.453-3.363 6.623-7.008 9.909-10.525.86 1.437.41 2.477-.886 3.645-1.797 1.617-3.375 3.504-4.954 5.352-3.774 4.39-7.97 8.266-12.848 11.398a10.615 10.615 0 0 0-2.85 2.67c9.113-3.196 15.544-9.82 21.756-17.264.642 1.682.809 2.837-.5 4.03zm-3.44-29.65c-.102.116-.32.116-.667.206-.192-1.605-.423-3.196-.539-4.788-.038-.423.206-.95.488-1.296 2.888-3.645 4.197-7.83 4.274-12.437 0-.167.167-.334.41-.822.437.526 1.015.924 1.117 1.412 1.31 6.751-.423 12.668-5.082 17.725zm19.703-24.117c-3.89-.103-7.779-.41-11.655-.334-2.605.065-5.288.334-7.778 1.04-5.288 1.476-8.933 4.967-10.923 10.114-.308.809-.526 1.643-.937 2.901-1.232-.77-2.502-1.194-3.234-2.067-3.876-4.71-8.715-7.983-14.324-10.23-.154-.05-.244-.282-.488-.59 3.042-1.334 6.033-2.656 9.01-3.966.72-.32 1.49-.551 2.118-.988 2.914-1.964 5.981-3.055 9.537-2.143.244.064.539-.142.975-.27-.475-1.604-2.105-1.168-3.029-1.861 4.159-3.838 8.33-7.675 12.72-11.731 2.528.346 5.519.654 8.458 1.193 2.837.514 5.699 1.04 8.176 3.004-1.463 0-2.94.051-4.402-.013-3.684-.141-7.38-.334-11.077-.488-.68-.038-1.36.013-2.04.052-1.284.064-2.709.115-3.094 1.617-.372 1.412.911 1.99 1.848 2.657 3.98 2.836 8.625 3.902 13.246 5.12 2.426.643 4.839 1.413 7.162 2.375 1.848.77 2.067 1.284 3.042 3.376-.77 1.258-2.054 1.258-3.311 1.232z"/><path d="M61.795 123.583c-.856 0-1.529-.164-2.08.026-3.989 1.373-8.866 8.021-9.021 12.196-.04 1.068.765 1.862 1.612 1.396 2.157-1.184 4.223-2.535 6.557-3.96-1.7-1.103-3.006.421-4.48.126.583-2.199 1.868-3.73 3.21-5.27 1.278-1.467 3.534-2.028 4.202-4.514zM39.848 118.95c-.639.02-1.67.465-1.808.926-.328 1.097.702 1.43 1.568 1.594 2.822.533 5.57.253 8.141-1.062.589-.301.998-.951 1.551-1.5-3.36 0-6.408-.053-9.452.042zM44.627 124.632c1.901 2.49 5.887 2.14 8.571-.83-2.874-.186-5.752-.629-8.57.83zM81.692 117.165c-3.029-1.04-5.968-2.336-8.959-3.453-.834-.32-1.784-1.065-2.682.334 2.939 3.94 25.452 11.282 31.78 10.05-1.746-.706-2.914-1.258-4.12-1.656-5.34-1.77-10.705-3.452-16.019-5.275zM149.898 123.275c-5.018.757-10.037 1.412-15.12.937-.577-.052-1.219-.154-1.745.012-.462.154-1.091.63-1.142 1.015-.052.436.372 1.193.77 1.347.873.347 1.86.5 2.81.552 5.417.282 10.654-.809 15.84-2.208.872-.243 1.68-.693 2.528-1.052l-.231-.847c-1.245.077-2.49.051-3.71.244zM124.1 69.059c-.642-.629-2.003-1.13-2.76-.873-.744.27-1.13 1.566-1.348 1.913-.064 2.772 1.502 5.134 3.402 5.519.744.154 1.912.064 2.349-.411.539-.59.898-1.848.641-2.554-.475-1.31-1.283-2.619-2.284-3.594zM115.41 53.439c-.192-.296-.487-1.207-1.104-1.63-.962-.655-1.81.05-2.477.821a5.57 5.57 0 0 0-.539.693c-.898 1.45-1.835 2.888-2.682 4.377-.54.937.205 1.99 1.309 1.99 2.08-.026 5.468-3.543 5.493-6.251zM79.292 75.874c.398.54 1.617.95 2.195.732.603-.218 1.168-1.245 1.283-1.99.437-2.72-1.86-5.48-5.21-6.109.192.86.641 1.694.41 2.04-1.617 2.324.193 3.8 1.322 5.327zm.244-4.12c.36.552.719 1.104 1.078 1.669-.18.115-.36.244-.539.372-.308-.616-.616-1.22-.924-1.822.128-.078.257-.142.385-.219zM102.177 74.167c-1.04.462-2.066 1.104-2.85 1.913-.513.539-.962 1.656-.73 2.246.269.719 1.283 1.155 1.63 1.45 2.45.052 4.35-1.591 4.581-3.465.219-1.771-1.026-2.862-2.63-2.144zM149.038 56.288c.822-2.182.321-3.825-1.116-5.198-1.232-1.194-2.092-1.22-3.235-.218-1.18 1.04-1.386 1.963-.41 3.247 1.142 1.502 2.592 2.541 4.761 2.169zM135.728 55.043c.745-.834 1.258-1.938.27-2.85-.911-.834-2.195-1.065-3.209-.192-.706.59-1.296 1.463-1.617 2.323-.385 1.065-.437 2.246-.706 3.748 2.554-.244 3.979-1.566 5.262-3.029zM155.79 80.97c-.026.616.449 1.656.91 1.81.54.167 1.49-.257 1.965-.719 1.72-1.656 1.9-4.184.565-6.726-2.747 1.04-3.312 3.26-3.44 5.635zM158.575 65.003c-.693.064-1.322.116-2.08.18.373-.822.707-1.553 1.04-2.323-1.309-.848-2.028-.077-2.605.641-1.31 1.656-2.593 3.363-2.041 5.712 2.695-.064 4.749-1.592 5.686-4.21zM125.589 43.658c-1.207.398-1.823 1.63-1.477 2.773.411 1.399 1.566 1.322 2.606 1.078.911-.231 1.81-.668 2.606-1.181.847-.552 1.578-1.297 2.772-2.31-2.4-1.002-4.454-1.053-6.507-.36zM114.32 77.004c-.681-1.027-2.067-.616-2.465.642-.667 2.117-.205 4.004 1.514 5.686 1.45-.398 2.619-1.014 2.426-2.362-.192-1.373-.706-2.811-1.476-3.966zM138.603 68.404c.655.077 1.964-.603 2.003-1 .077-1.182-.18-2.44-.578-3.582-.36-1.027-1.168-1.771-2.618-1.412-.219.514-.45 1.104-.732 1.682-.975 1.963-.128 4.056 1.925 4.312zM168.445 62.847c2.67 3.67 5.237 4.223 8.497 1.976-2.85-.603-4.71-4.39-8.497-1.976zM97.646 64.554c.989-2.13.193-4.84-1.822-5.853-.578-.282-1.54-.27-2.08.026-.359.218-.526 1.219-.397 1.784.5 2.284 2.079 3.53 4.3 4.043zM133.097 78.737c.732.385 1.438.937 2.22 1.103 2.041.45 3.543-1.257 2.696-3.144-.41-.911-1.27-1.682-2.08-2.336-.295-.231-1.103-.077-1.514.18-.23.154-.257.924-.09 1.296.257.577.745 1.065 1.31 1.81-.95.167-1.643.282-2.337.41-.064.231-.14.45-.205.68zM156.688 55.12c1.938-.526 2.9-1.861 2.978-3.94.051-1.643-.513-2.375-2.375-2.927-1.591 2.182-.5 4.544-.603 6.867zM103.255 53.695c.912-2.99.129-4.62-2.785-5.493-1.335 3.863-.706 5.031 2.785 5.493zM104.18 194.279v.026c-2.234 0-4.454-.026-6.675.012-.924.013-1.874.27-1.887 1.36-.025 1.13.989 1.336 1.861 1.413 2.4.23 4.827.565 7.227.5 2.002-.064 4.004-.552 5.968-1.04.488-.115.809-.898 1.207-1.373-.54-.295-1.066-.821-1.618-.86-2.015-.102-4.056-.038-6.084-.038zM167.303 189.363c-3.53.513-7.06 1.117-10.59 1.694-.474.077-1.026.026-1.424.257-.526.282-1.283.732-1.348 1.194-.14 1.04.796 1.142 1.605 1.18.282.013.577 0 .873-.012 5.082-.18 9.934-1.476 14.722-3.094.513-.167.924-.603 1.796-1.193-2.284-1.002-3.966-.283-5.634-.026zM136.91 194.073c-3.492 1.027-6.983 1.592-10.641 1.156-1.13-.129-2.323.115-3.44.372-.41.09-.68.719-1.438 1.591 7.971-.346 15.415.09 22.36-3.696-.476-.167-.963-.526-1.4-.462-1.835.27-3.67.513-5.442 1.04zM101.022 157.468c-.513 1.36.937 3.465 2.683 3.901l-1.335-4.595c-.475.232-1.22.347-1.348.694zM177.93 149.163c2.362-.436 4.724-.924 7.021-1.578 1.656-.475 3.26-1.194 4.8-1.951.604-.296.989-1.014 1.438-1.502-1.13-1.617-2.349-.937-3.299-.5-2.682 1.231-5.48 1.809-8.368 2.207-.924.128-1.9.462-2.67.975-.41.27-.693 1.233-.513 1.695.141.385 1.09.744 1.591.654zM142.172 170.123c-.835 2.593-.822 2.772.757 3.53-.385-1.104.603-2.529-.757-3.53z"/></svg>