<svg version="1.1" id="Слой_1" xmlns="http://www.w3.org/2000/svg" x="0" y="0" viewBox="0 0 250 250" style="enable-background:new 0 0 250 250" xml:space="preserve"><style></style><path d="M156.684 63.017c-.836.204-1.612.793-2.115 1.678-.517.88-.55 2.13-.267 3.05.256.963.711 1.8 1.249 2.532.545.726 1.17 1.371 1.916 1.838-.387-.839-.787-1.616-1.145-2.4-.36-.779-.685-1.557-.893-2.335-.065-.193-.086-.388-.133-.58-.018-.184-.057-.37-.05-.552-.012-.368.032-.74.151-1.107.228-.74.697-1.454 1.287-2.124zM132.777 101.764c-.558-.624-.984-1.353-1.364-2.105-.19-.378-.34-.773-.497-1.168a11.553 11.553 0 0 1-.357-1.227c-.22-.83-.288-1.695-.298-2.562.01-.435.027-.87.105-1.3.034-.216.06-.433.101-.647l.161-.636c.096-.428.282-.826.437-1.234.164-.415.338-.753.513-1.13l1.03-2.217c.668-1.488 1.356-2.962 1.91-4.524.012.838-.144 1.666-.306 2.483-.18.813-.398 1.618-.658 2.407-.241.797-.551 1.566-.847 2.341-.145.38-.339.778-.458 1.135-.129.362-.292.713-.37 1.09-.426 1.477-.516 3.049-.325 4.616.088.785.239 1.573.453 2.35.203.782.459 1.557.77 2.328zM103.856 183.489c-.02 0-.048-.003-.065-.002l-.352-.006a7.3 7.3 0 0 1-.485.169 11.9 11.9 0 0 1-2.105.427c-.719.08-1.45.09-2.205.117-6.013.168-12.047.26-18.072.346-6.026.102-12.054.18-18.08.235-3.012.027-6.026.059-9.033.04a98.935 98.935 0 0 1-2.25-.03 18.737 18.737 0 0 1-1.106-.039c-.36-.02-.717-.038-1.108-.086-1.524-.147-3.028-.215-4.528-.317-1.497-.103-2.996-.211-4.447-.459-.713-.126-1.456-.289-2.006-.593a.878.878 0 0 1-.29-.239c-.016-.009-.086-.137-.13-.213l-.139-.24c-.18-.322-.353-.647-.51-.979-.633-1.32-1.11-2.738-1.17-4.17a5.17 5.17 0 0 1 .325-2.073l.215-.477c.09-.149.195-.289.29-.435.05-.068.098-.153.147-.209.049-.046.09-.098.157-.14a1.95 1.95 0 0 1 .424-.237c.639-.268 1.381-.397 2.112-.494a27.186 27.186 0 0 1 2.231-.184 65.891 65.891 0 0 1 4.507-.023c3.009.081 6.019.264 9.027.47-2.996-.346-5.998-.646-9.013-.814a66.31 66.31 0 0 0-4.535-.123c-.759.01-1.518.04-2.28.113-.762.08-1.527.177-2.293.467-.19.076-.383.161-.567.298-.094.058-.18.147-.266.233-.075.084-.122.165-.184.248-.115.165-.239.327-.346.499l-.262.548a5.88 5.88 0 0 0-.42 2.35c.038 1.591.522 3.1 1.158 4.502.159.353.333.697.515 1.037l.138.252c.05.088.064.128.16.272.162.24.361.386.55.501.385.23.768.361 1.149.477.38.113.76.198 1.14.272 1.518.289 3.03.425 4.536.56 1.505.132 3.013.231 4.487.403.356.053.75.078 1.144.104.397.034.775.044 1.153.054.759.023 1.517.046 2.271.052 3.022.05 6.037.05 9.054.053 6.033-.018 12.063-.086 18.093-.167 6.032-.112 12.056-.207 18.097-.419.749-.033 1.529-.052 2.306-.148.778-.1 1.55-.252 2.316-.496a7.44 7.44 0 0 0 1.075-.435 11.27 11.27 0 0 1-.53-.852zM47.937 146.242c4.944-.695 8.118-3.612 10.516-7.506a4.926 4.926 0 0 1-1.742-1.446c-1.352 2.066-3.127 3.792-5.236 5.251-3.422 2.368-8.278 1.265-10.39-2.55-.811-1.464-1.42-3.046-1.957-4.644-.435.253-.914.4-1.407.474.286.59.542 1.188.745 1.794 1.663 4.949 4.398 7.834 9.471 8.627zM193.278 167.34l-.15 1.276c7.255 1.44 23.014-1.16 23.682-1.27l-.499-1.287c-.16.026-16.106 2.658-23.033 1.282zM186.867 180.68c-3.88.128-7.782.156-11.693.03-3.903-.139-7.852-.361-11.709-1.14l-.173 1.12c4.03.939 8.047 1.283 12.032 1.551 3.988.252 7.954.348 11.897.343 7.897.003 15.705-.3 23.507-.831l-.763-2.635c-7.606.768-15.338 1.318-23.098 1.561zM52.684 161.702c3.109.057 6.233.032 9.362-.116 3.122-.16 6.281-.385 9.358-1.057l.154.897c-3.215.8-6.425 1.125-9.612 1.389-3.19.25-6.364.375-9.52.419-6.323.098-12.577-.05-18.83-.381l.576-2.122c6.1.523 12.296.87 18.512.971zM164.74 148.472c-1.467-.834-2.83-1.932-3.938-3.347-1.17-1.355-2.073-2.993-2.992-4.673.27.94.548 1.9.912 2.812.435.861.8 1.8 1.393 2.55 1.032 1.646 2.49 2.91 4.076 3.833 3.215 1.825 7.13 1.929 10.521.494-1.77.241-3.512.194-5.199-.036-1.682-.26-3.307-.782-4.773-1.633zM172.618 84.555c1.003 2.452 2.113 5.369 1.87 8.029-.22 2.665-.926 4.587-2.256 6.89-1.44 2.225-4.132 4.7-6.466 6.042-2.26 1.389-5.413 1.756-7.693.22 2.514 1.019 5.122.237 7.096-1.152 2.009-1.402 3.713-3.29 4.958-5.417 2.629-4.205 3.42-9.46 2.491-14.612zM109.494 133.294c-.314 2.63-1.28 5.2-2.784 7.408-1.487 2.223-3.516 4.045-5.797 5.413-2.34 1.246-4.897 2.133-7.59 2.172-2.65.117-5.584-1.094-6.831-3.543 1.703 2.11 4.362 2.695 6.762 2.439 2.437-.25 4.844-1.073 6.966-2.327 4.34-2.399 7.584-6.609 9.274-11.562zM207.348 184.214c-9.009 2.48-18.047 2.944-27.13.451 9.046.023 18.099.487 27.13-.45zM160.167 167.554l20.038.436c-6.596 3.105-13.34 1.956-20.06 1.498l.022-1.934zM216.508 147.087c-3.152 1.223-6.091 4.23-8.963 4.189-.997-.015-3.875 1.295-1.946-.861 1.212-1.355 2.13-2.088 4.11-2.316 2.193-.253 4.527-.668 6.799-1.012zM106.192 98.571l18.532-7.633c-4.798 5.489-11.437 7.14-17.776 9.413l-.756-1.78zM199.974 162.277l15.402-1.838c-7.301 2.847-7.727 4.227-15.402 1.838zM204.273 157.807c4.642.217 8.346-3.134 12.91-1.486-4.148 1.582-8.287 3.146-12.91 1.486zM149.318 81.042c1.647-.243 2.293-1.6 2.797-2.78.207-.811-.166-1.268-.664-1.143-1.452.355-2.187 1.517-2.649 2.838-.154.445-.1 1.174.516 1.085zM147.777 94.423c1.641-.201 2.447-1.434 3.081-2.732.071-.687-.272-1.049-.823-.93-1.47.308-2.323 1.369-2.892 2.666-.243.552.059 1.067.634.996zM155.208 86.506c1.582-.35 2.471-1.488 3.034-2.815.077-.705-.278-1.227-.77-1.073-1.493.468-2.536 1.505-2.862 3.088-.071.326.077.912.598.8zM141.827 88.55c-.19.492.012 1.126.604 1.031 1.636-.272 2.264-1.623 2.839-2.945.048-.551-.006-1.15-.634-1.067-1.695.22-2.282 1.618-2.809 2.981zM159.937 93.137c1.174-.42 2.578-.776 3.058-2.264.184-.563-.385-.883-.93-.788-1.405.243-2.685.794-3.165 2.27-.184.551.326.841 1.037.782zM151.244 98.838c-.101.575.491.74 1.013.575 1.013-.326 1.973-.735 2.37-1.867-.195-.527-.557-.812-1.096-.616-.99.35-2.086.705-2.287 1.908z"/><path d="M218.404 121.837c-9.013-17.322-17.95-34.685-27.01-51.978-2.662-5.09-7.657-6.844-13.104-4.96-1.475.51-2.921 1.102-4.67 1.772.44-5.328-1.522-6.78-6.145-5.008-1.748.67-3.514 2.14-5.161 1.998-1.808-.155-1.992-2.898-3.337-4.166-.07-.066-2.216-2.608-2.281-2.68-2.122-2.429-2.655.392-3.84 3.408a26.429 26.429 0 0 0-1.429 5.115c-.249 1.416-.652 1.683-2.11 1.35-5.742-1.297-10.204.902-13.712 5.423-2.2 2.839-3.752 6.033-5.091 9.322-.61 1.5-1.434 2.388-2.969 2.957-10.81 4.03-21.589 8.16-32.386 12.232-19.829 7.478-38.898 13.162-58.757 20.57-2.388.888-4.29 4.401-4.077 7.02.166 1.956.005 3.51.005 5.49 0 17.369 1.135 33.044 1.147 50.42.012 8.136 3.73 10.238 11.908 10.523 1.185.041 2.639-.142 3.824-.142 51.83 0 100.137 3.787 151.967 3.781 1.677 0 3.36-.012 5.032-.106 6.293-.368 10.554-4.522 10.584-10.851.095-19.349 2.3-38.704 2.264-58.053 0-1.173-.07-2.323-.652-3.437zm-62.258-61.323c1.357.581 4 2.758 3.54 6.192-.303 2.274 1.714 1.377 3.681.287 1.713-.949 3.662-3.965 6.518-3.422 2.054 2.928-1.42 6.326-2.148 7.861-1.57 3.283-1.272 1.181 2.219 2.408.818.29 4.194 3.098 5.089 3.442-3.514 2.364-11.31 6.135-17.081 1.516-5.5-4.403-6.746-16.054-1.818-18.284zM139.06 71.91c2.062-2.364 5.822-4.177 8.797-3.502 1.6.362 4.122 4.175 4.798 5.906 1.582 4.03 4.036 6.64 8.024 8.317 4.907 2.068 4.811 2.932 3.375 10.515-.272 1.433-5.01 6.61-6.243 7.38-5.748 3.604-10.549 6.727-17.53 7.545-5.98.699-11.883-6.002-11.895-13.155 1.511-7.082 5.08-16.582 10.674-23.006zm-93.425 46.956c26.117-9.861 56.462-22.138 82.964-32.147-.267 1.665-1.746 5.483-1.918 6.626-1.434 9.571 5.564 17.595 15.177 16.41 9.849-1.215 18.323-5.95 25.25-13.085 2.958-3.052 3.574-6.999 2.24-11.052-.544-1.642-.165-2.217 1.447-2.69 1.778-.528 3.52-1.316 5.126-2.259 2.85-1.677 2.815-4.314.012-5.997-1.18-.699-3.796-2.76-5.74-3.756 3.805-1.28 6.666-3.04 10.139-3.443 3.064-.355 7.283 2.522 8.604 5.093 7.177 13.95 14.754 25.272 21.907 39.234 1.014 1.98 4.078 8.008 3.142 9.572-.854 1.417-5.535.818-7.751.8-52.037-.445-104.605-2.03-156.677-1.63-.29.002-4.902.06-5.198.03-2.868-.651 1.33-1.51 1.276-1.706zm169.261 58.327c-.387 3.442-1.397 5.58-3.319 8.489-1.18 1.787-2.696 1.948-4.01 2.17-1.811.306-.766.253-2.597.253-50.34-.006-100.895 1.552-151.234 1.546-2.928 0-5.913-.01-8.695-.923-6.277-2.06-8.766-17.72-7.895-18.29.687-.45 1.555-.485 2.375-.507 32.76-.868 65.532-1.221 98.302-1.059.61.003 1.365-.087 1.583-.656.35-.912-1.03-1.44-2.007-1.44l-99.782.128c-.662.001-1.395-.025-1.874-.48-.513-.489-.544-1.282-.54-1.99l.077-17.038c6.821 3.429 14.519 6.947 21.813 4.693 6.46-1.996 11.208-8.216 17.89-9.257 1.6-.249 3.407-.115 4.572 1.008.735.708 1.103 1.7 1.549 2.618 2.315 4.77 7.4 8.064 12.698 8.228 5.299.165 10.578-2.808 13.185-7.424-3.625 1.676-7.331 3.375-11.302 3.792-3.97.418-8.325-.67-10.869-3.747-2.876-3.48-2.926-8.73-5.985-12.05-.949 2.224-2.066 5.112-4.279 6.084-2.213.973-5.605-.471-6.503-2.715-2.103 5.421-6.454 10.062-11.96 11.931s-12.086.682-16.198-3.43c-5.581-5.578-5.595-13.599-5.198-21.48.032-.629.66-1.397 1.2-1.72.3-.18 2.394-.928 2.744-.926 15.037.065 27.854.03 42.89.095 43.278.186 86.59.373 129.769 3.298.587.04 1.193.085 1.717.353.823.42 1.292 1.309 1.602 2.179 1.31 3.674.572 8.006-1.881 11.038-3.24 4.007-8.997 5.383-14.042 4.332s-9.438-4.183-13.06-7.849c-1.384 4.218-2.8 8.504-5.348 12.139-2.548 3.634-6.439 6.588-10.864 6.926-4.829.369-9.519-2.501-12.259-6.493-2.74-3.993-3.765-8.942-3.932-13.781-1.68 1.749-3.705 3.398-6.118 3.646s-5.141-1.512-5.083-3.937c-2.021 2.762-4.095 5.576-6.902 7.534-5.041 3.516-12.222 3.634-17.376.286-1.464-.95-2.833-2.177-4.543-2.528-1.71-.35-3.873.711-3.837 2.456 8.315 1.615 16.898 6.622 24.678 3.273 4.455-1.917 8.492-6.496 13.156-5.167 3.992 1.137 5.467 5.853 7.742 9.324 3.39 5.17 9.79 8.198 15.937 7.54 6.147-.66 11.76-4.975 13.978-10.746.485-1.262 1.046-2.796 2.372-3.054.735-.143 1.469.18 2.16.467 7.879 3.268 17.308 2.515 24.568-1.962-.131.081.384 2.44.424 2.712a126.908 126.908 0 0 1 .944 8.524c.291 3.802.413 7.616.365 11.428-.052 4.088-.345 8.13-.798 12.16z"/><path d="M138.206 82.026c-1.689.889-2.169 1.914-1.718 3.526 1.493-.64 1.878-1.677 1.718-3.526zM142.586 77.202c1.422-.563 1.712-1.962 2.103-3.378-.183-.445-.237-1.268-1.013-.93-1.363.598-1.802 1.931-1.985 3.306-.09.617.1 1.322.895 1.002zM136.914 98.696c-.16.51.012 1.09.634.936 1.423-.344 2.181-1.464 2.732-2.69-.012-.634-.326-1.026-.883-.848-1.268.41-2.098 1.328-2.483 2.602zM35.04 121.864s17.215 6.617 47.43 3.055c30.216-3.561 32.988-3.534 32.988-3.534M189.535 70.75s25.588 41.012 20.953 46.921c-3.777 4.816-9.82 6.614-38.526 4.44-28.705-2.173-28.782.294-28.782.294l72.86 2.82.77-2.913-27.275-51.562zM35.041 173.313c7.519-.447 15.035-.675 22.55-.77 7.516-.095 15.03-.122 22.543.105l11.268.484c3.755.177 7.511.345 11.268.423 7.513.17 15.029.055 22.545-.13a894.36 894.36 0 0 1 22.546-.37c7.515-.036 15.03-.093 22.544.008 15.027.244 30.052.724 45.072 1.743l-.002.284c-15.035.77-30.066 1-45.095.996-7.515-.024-15.028-.205-22.54-.365a894.363 894.363 0 0 1-22.538-.744c-7.512-.31-15.025-.549-22.54-.503-3.757.015-7.515.121-11.273.236l-11.275.297c-7.515.103-15.028-.049-22.54-.268-7.514-.22-15.025-.572-22.535-1.143l.002-.283z"/><path d="M174.147 71.745a14.246 14.246 0 0 1 4.97-2.104c.9-.198 1.844-.28 2.817-.167.956.108 1.987.448 2.766 1.179.099.087.2.172.292.264l.231.317c.144.208.321.437.43.631l.636 1.154 1.247 2.328c.828 1.557 1.639 3.128 2.377 4.76-1.23-1.306-2.31-2.724-3.322-4.185-.518-.723-.983-1.48-1.463-2.23-.237-.375-.455-.763-.682-1.146-.113-.189-.224-.298-.33-.454l-.16-.219-.207-.17c-.498-.514-1.232-.774-2.009-.904-.776-.166-1.619-.127-2.462-.068-1.694.152-3.406.555-5.131 1.014z"/></svg>