<?xml version="1.0" encoding="UTF-8" standalone="no"?>
<svg xmlns="http://www.w3.org/2000/svg" version="1.0" width="512.000000pt" height="512.000000pt" viewBox="0 0 512.000000 512.000000" preserveAspectRatio="xMidYMid meet">
  <g transform="translate(0.000000,512.000000) scale(0.100000,-0.100000)" fill="#000000" stroke="none">
    <path d="M2515 5111 c-11 -5 -31 -21 -45 -36 l-25 -27 -5 -464 -5 -465 -324 335 c-179 184 -335 339 -348 345 -89 40 -189 -46 -163 -141 7 -25 116 -143 424 -458 l415 -425 0 -503 1 -504 -42 25 c-24 13 -216 125 -428 247 -212 122 -389 225 -393 229 -4 4 -79 261 -167 570 -87 310 -166 574 -175 587 -23 36 -76 58 -118 50 -47 -9 -97 -65 -97 -109 0 -18 56 -230 125 -472 68 -241 123 -441 121 -443 -2 -2 -168 91 -368 206 -199 115 -377 217 -395 226 -84 42 -173 -12 -173 -106 0 -69 17 -81 429 -318 216 -124 387 -226 380 -229 -6 -2 -212 -55 -457 -117 -403 -102 -449 -116 -475 -142 -62 -62 -37 -162 48 -190 39 -14 60 -9 618 133 l579 146 429 -247 c236 -137 429 -251 429 -254 0 -3 -193 -117 -429 -254 l-429 -247 -579 146 c-557 142 -579 147 -617 133 -83 -28 -110 -128 -50 -188 28 -29 63 -39 476 -144 245 -62 451 -115 457 -117 7 -3 -164 -105 -380 -229 -290 -167 -396 -233 -410 -255 -38 -60 -17 -140 45 -169 43 -20 69 -20 109 0 18 9 196 111 395 226 200 115 366 208 368 206 2 -2 -53 -202 -121 -443 -69 -242 -125 -453 -125 -468 0 -118 166 -157 222 -53 6 11 82 271 169 579 87 308 162 563 166 568 4 4 181 107 393 229 212 123 404 234 428 247 l42 25 -1 -504 0 -503 -415 -425 c-301 -309 -417 -434 -423 -457 -18 -65 22 -133 87 -150 62 -15 84 3 422 352 l325 336 5 -465 5 -466 33 -32 c28 -28 39 -33 82 -33 43 0 54 5 82 33 l33 32 5 466 5 465 325 -336 c338 -349 360 -367 422 -352 65 17 105 85 87 150 -6 23 -122 148 -423 457 l-415 425 0 503 c-1 502 -1 503 19 492 59 -32 836 -483 843 -489 4 -4 79 -260 166 -568 87 -308 163 -568 169 -579 56 -104 222 -65 222 53 0 15 -56 226 -125 468 -68 241 -123 441 -120 443 2 2 167 -90 367 -206 200 -115 377 -217 395 -226 84 -43 173 12 173 106 0 69 -16 81 -429 318 -215 124 -387 226 -381 228 5 2 210 54 456 117 408 103 449 116 476 142 61 62 39 160 -44 191 -36 14 -57 10 -618 -133 l-580 -147 -430 248 c-237 137 -430 251 -430 254 0 3 193 117 430 254 l430 248 575 -146 c316 -80 583 -146 593 -146 58 0 120 81 108 142 -14 76 -22 79 -511 203 -245 63 -450 115 -455 117 -6 2 166 104 381 228 413 237 429 249 429 318 0 94 -89 149 -173 106 -18 -9 -195 -111 -395 -226 -200 -116 -365 -208 -367 -206 -3 2 52 202 120 443 69 242 125 454 125 472 0 44 -50 100 -97 109 -43 8 -95 -14 -118 -50 -9 -13 -88 -278 -175 -587 -88 -309 -163 -566 -167 -570 -7 -6 -783 -457 -843 -489 -20 -11 -20 -10 -19 492 l0 503 415 425 c308 315 417 433 424 458 26 95 -74 181 -163 141 -13 -6 -169 -161 -348 -345 l-324 -335 -5 465 -5 466 -31 31 c-33 33 -92 46 -129 30z"></path>
  </g>
</svg>
