<?xml version="1.0" encoding="utf-8"?><svg version="1.1" id="Слой_1" xmlns="http://www.w3.org/2000/svg" xmlns:xlink="http://www.w3.org/1999/xlink" x="0px" y="0px" viewBox="0 0 250 250" style="enable-background:new 0 0 250 250;" xml:space="preserve"><style type="text/css">.st0{fill:#FFD500;}.st1{fill:#5DB7E8;}.st2{fill:#E8E8E8;}.st3{fill:#FFFFFF;}.st4{display:none;}.st5{display:inline;fill:#010202;stroke:#010202;stroke-width:0.25;stroke-miterlimit:10;}.st6{display:inline;fill:#010202;stroke:#010202;stroke-width:0.3;stroke-miterlimit:10;}.st7{display:inline;fill:none;}.st8{display:inline;fill:#231F20;stroke:#231F20;stroke-width:0.5;stroke-miterlimit:10;}.st9{display:inline;fill:#010202;stroke:#010202;stroke-width:0.4;stroke-miterlimit:10;}.st10{stroke:#000000;stroke-width:0.1;stroke-miterlimit:10;}.st11{stroke:#000000;stroke-width:0.25;stroke-miterlimit:10;}.st12{fill:none;stroke:#000000;stroke-width:0.25;stroke-miterlimit:10;}.st13{fill:#050505;}.st14{fill:#010101;}.st15{fill:none;}.st16{fill:#009604;}.st17{fill:#727272;}.st18{fill:#41B6E6;stroke:#000000;stroke-width:2.8346457;stroke-linecap:round;stroke-linejoin:round;stroke-miterlimit:10;}.st19{fill:#FFD500;stroke:#000000;stroke-width:2.8346457;stroke-linecap:round;stroke-linejoin:round;stroke-miterlimit:10;}.st20{fill:#FCFCFC;}.st21{fill:#282F39;}.st22{fill:#DBDBDB;}.st23{fill:#333333;}.st24{fill:#343434;}.st25{fill:#F8F8F8;}.st26{fill:#323232;}.st27{fill:#F9F9F9;}.st28{fill:#F0F0F0;}.st29{fill:#2F2F2F;}.st30{fill:#2D2D2D;}.st31{fill:#2C2C2C;}.st32{fill:#FBFBFB;}.st33{fill:#D9D9D9;}.st34{fill:#DADADA;}.st35{fill:#353535;}.st36{fill:#E1E1E1;}.st37{fill:#2E2E2E;}.st38{fill:#F6F6F6;}.st39{fill:#363636;}.st40{fill:#313131;}.st41{fill:#D3D3D3;}.st42{fill:#D2D2D2;}.st43{fill:#DADBDB;}.st44{fill:#393939;}.st45{fill:#D9D9DA;}.st46{fill:#A4A4A4;}.st47{fill:#C3C3C3;}.st48{fill:#444444;}.st49{fill:#D0D0D0;}.st50{fill:#303030;}.st51{fill:#ACACAC;}.st52{fill:#626262;}.st53{fill:#474747;}.st54{fill:#808080;}.st55{fill:#C5C5C5;}.st56{fill:#979797;}.st57{fill:#777777;}.st58{fill:#E0E0E0;}.st59{fill:#4C4C4C;}.st60{fill:#3E3E3E;}.st61{fill:#3A3A3A;}.st62{fill:#919191;}.st63{fill:#C9C9C9;}.st64{fill:#DCDCDC;}.st65{fill:#8D8D8D;}.st66{fill:#666666;}.st67{fill:#3F3F3F;}.st68{fill:#767676;}.st69{fill:#969696;}.st70{fill:#5F5F5F;}.st71{fill:#CDCDCD;}.st72{fill:#484848;}.st73{fill:#838383;}.st74{fill:#464646;}.st75{fill:#4A4A4A;}.st76{fill:#747474;}.st77{fill:#C4C4C4;}.st78{fill:#515151;}.st79{fill:#A2A2A2;}.st80{fill:#9F9F9F;}.st81{fill:#6C6C6C;}.st82{fill:#858585;}.st83{fill:#CCCCCC;}.st84{fill:#B3B3B3;}.st85{fill:#989898;}.st86{fill:#474748;}.st87{fill:#696969;}.st88{fill:#ABABAB;}.st89{fill:#545454;}.st90{fill:#9C9C9C;}.st91{fill:#4D4D4D;}.st92{fill:#6A6A6A;}.st93{fill:#404040;}.st94{fill:#C8C8C8;}.st95{fill:#7A7A7A;}.st96{fill:#AEAEAE;}.st97{fill:#373737;}.st98{fill:#414141;}.st99{fill:#4E4E4E;}.st100{fill:#575757;}.st101{fill:#5B5B5B;}.st102{fill:#606060;}.st103{fill:#434343;}.st104{fill:#909090;}.st105{fill:#ADADAD;}.st106{fill:#C0C0C0;}.st107{fill:#6F6F6F;}.st108{fill:#9D9D9D;}.st109{fill:#848484;}.st110{fill:#686868;}.st111{fill:#535353;}.st112{fill:#AFAFAF;}.st113{fill:#949495;}.st114{fill:#D7D7D7;}.st115{fill:#A9A9A9;}.st116{fill:#8C8C8C;}.st117{fill:#8B8B8B;}.st118{fill:#5D5D5D;}.st119{fill:#7D7D7D;}.st120{fill:#BABABA;}.st121{fill:#616161;}.st122{fill:#565656;}.st123{fill:#7C7C7C;}.st124{fill:#BDBDBD;}.st125{fill:#888888;}.st126{fill:#BEBEBE;}.st127{fill:#878787;}.st128{fill:#8E8E8E;}.st129{fill:#C1C1C1;}.st130{fill:#424242;}.st131{fill:#C7C7C7;}.st132{fill:#939393;}.st133{fill:#B0B0B0;}.st134{fill:#999999;}.st135{fill:#3B3B3B;}.st136{fill:#A6A6A6;}.st137{fill:#737373;}.st138{fill:#D8D8D8;}.st139{fill:#454545;}.st140{fill:#656565;}.st141{fill:#818181;}.st142{fill:#7F7F7F;}.st143{fill:#5C5C5C;}.st144{fill:#A1A1A1;}.st145{fill:#797979;}.st146{fill:#B2B2B2;}.st147{fill:#9E9E9E;}.st148{fill:#717171;}.st149{fill:#B9B9B9;}.st150{fill:#CFCFCF;}.st151{fill:#D1D1D1;}.st152{fill:#A8A8A8;}.st153{fill:#828282;}.st154{fill:#595959;}.st155{fill:#AAAAAA;}.st156{fill:#636363;}.st157{fill:#D6D6D6;}.st158{fill:#BCBCBC;}.st159{fill:#A3A3A3;}.st160{fill:#525252;}.st161{fill:#8A8A8A;}.st162{fill:#646464;}.st163{fill:#6B6B6B;}.st164{fill:#DEDEDE;}.st165{fill:#F2F2F2;}.st166{fill:#757575;}.st167{fill:#CECECE;}.st168{fill:#B4B4B4;}.st169{fill:#959595;}.st170{fill:#F1F1F1;}.st171{fill:#FAFAFA;}.st172{fill:#383838;}.st173{fill:#9B9B9B;}.st174{fill:#CACACA;}.st175{fill:#5E5E5E;}.st176{fill:#B1B1B1;}.st177{fill:#929292;}.st178{fill:#7B7B7B;}.st179{fill:#A0A0A0;}.st180{fill:#2A2A2A;}.st181{fill:#A5A5A5;}.st182{fill:#707070;}.st183{fill:#868686;}.st184{fill:#9A9A9A;}.st185{fill:#585858;}.st186{fill:#6D6D6D;}.st187{fill:#4F4F4F;}.st188{fill:#C2C2C2;}.st189{fill:#242424;}.st190{fill:#787878;}.st191{fill:#BFBFBF;}.st192{fill:#7E7E7E;}.st193{fill:#B7B7B7;}.st194{fill:#C6C6C6;}.st195{fill:#676767;}.st196{fill:#A7A7A7;}.st197{fill:#6E6E6E;}.st198{fill:#B6B6B6;}.st199{fill:#B5B5B5;}.st200{fill:#494949;}.st201{fill:#8F8F8F;}.st202{fill:#898989;}.st203{fill:#3D3D3D;}.st204{fill:#121212;}.st205{fill:#212121;}.st206{fill:#1D1D1D;}.st207{fill:#505050;}.st208{fill:#171717;}.st209{fill:#1B1B1B;}.st210{fill:#F4F4F4;}.st211{fill:#555555;}.st212{fill:#5A5A5A;}.st213{fill:#FBFCFB;}.st214{fill:#FCFDFC;}.st215{fill:#FCFCFB;}.st216{fill:#FDFDFD;}.st217{fill:#F5F6F6;}.st218{fill:#BFC1C4;}.st219{fill:#BEC1C4;}.st220{fill:#C2C3C7;}.st221{fill:#D4D7D8;}.st222{fill:#D0D3D5;}.st223{fill:#90949A;}.st224{fill:#B4B6BA;}.st225{fill:#93979C;}.st226{fill:#9DA2A6;}.st227{fill:#9DA1A8;}.st228{fill:#787D84;}.st229{fill:#AAAEB3;}.st230{fill:#7F838B;}.st231{fill:#868A90;}.st232{fill:#AFB3B7;}.st233{fill:#C5C6C9;}.st234{fill:#7E8288;}.st235{fill:#7E8289;}.st236{fill:#8A8F95;}.st237{fill:#898D94;}.st238{fill:#82878E;}.st239{fill:#93969D;}.st240{fill:#2C303A;}.st241{fill:#A6AAB1;}.st242{fill:#ABAFB5;}.st243{fill:#AAAFB4;}.st244{fill:#F7F9F8;}.st245{fill:#8D9196;}.st246{fill:#A0A4AA;}.st247{fill:#A9ADB4;}.st248{fill:#B9BEC2;}.st249{fill:#9EA2A8;}.st250{fill:#F7F7F7;}.st251{fill:#D5D5D5;}.st252{fill:#E3E3E3;}.st253{fill:#E5E5E5;}.st254{fill:#EEEEEE;}.st255{fill:#DDDDDD;}.st256{fill:#BBBBBB;}.st257{fill:#D4D4D4;}.st258{fill:#ECECEC;}.st259{fill:#B8B8B8;}.st260{fill:#DFDFDF;}.st261{fill:#F3F3F3;}.st262{fill:#949494;}.st263{fill:#EAEAEA;}.st264{fill:#EBEBEB;}.st265{fill:#E6E6E6;}.st266{fill:#68696A;}.st267{fill:#E2E2E2;}.st268{fill:#222222;}.st269{fill:#F5F5F5;}.st270{fill:#3C3C3C;}.st271{fill:#D5D5D6;}.st272{fill:#B2B3B4;}.st273{fill:#E4E4E4;}.st274{fill:#E9E9E9;}.st275{fill:#282828;}.st276{fill:#A9AAAB;}.st277{fill:#EFEFEF;}.st278{fill:#888989;}.st279{fill:#8D8E8E;}.st280{fill:#D2D2D3;}.st281{fill:#6B6B6C;}.st282{fill:#4B4B4B;}.st283{fill:#ABABAC;}.st284{fill:#CBCBCB;}.st285{fill:#272727;}.st286{fill:#DADADB;}.st287{fill:#2B2B2B;}.st288{fill:#E7E7E7;}.st289{fill:#353536;}.st290{fill:#979899;}.st291{fill:#1C1C1C;}.st292{fill:#30363F;}.st293{fill:#3A4048;}.st294{fill:#293039;}.st295{fill:#292F38;}.st296{fill:#D8D8D9;}.st297{fill:#181818;}.st298{fill:#0A0A0A;}.st299{fill:#A9A9AA;}.st300{fill:#292929;}.st301{fill:#262626;}.st302{fill:#1E1E1E;}.st303{fill:#040404;}.st304{fill:#080808;}.st305{fill:#0B0B0B;}.st306{fill:#070707;}.st307{fill:#101010;}.st308{fill:#0F0F0F;}.st309{fill:#161616;}.st310{fill:#0D0D0D;}.st311{fill:#232323;}.st312{fill:#0E0E0E;}.st313{fill:#1F1F1F;}.st314{fill:#202020;}.st315{fill:#191919;}.st316{fill:#151515;}.st317{fill:#0C0C0C;}.st318{fill:#141414;}.st319{fill:#111111;}.st320{fill:#252525;}.st321{fill:#131313;}.st322{fill:#1A1A1A;}.st323{fill:#221E20;}.st324{fill:#1C1A1A;}.st325{fill:#131112;}.st326{fill:#1E1C1D;}.st327{fill:#231F20;}.st328{fill:#211E1F;}.st329{fill:#211D1E;}.st330{fill:#1C191A;}.st331{fill:#131213;}.st332{fill:#231E20;}.st333{fill:#1B191A;}.st334{fill:#1F1C1D;}.st335{fill:#151414;}.st336{fill:#131212;}.st337{fill:#1E1B1C;}.st338{fill:#1A1819;}.st339{fill:#040505;}.st340{fill:#1D1B1C;}.st341{fill:#0F0E0E;}.st342{fill:#181616;}.st343{fill:#1B1819;}.st344{fill:#171616;}.st345{fill:#100F10;}.st346{fill:#060706;}.st347{fill:#0C0B0B;}.st348{fill:#181617;}.st349{fill:#626061;}.st350{fill:#636162;}.st351{fill:#060606;}.st352{fill:#605F5F;}.st353{fill:#181717;}.st354{fill:#565555;}.st355{fill:#616060;}.st356{fill:#FAF9FA;}.st357{fill:#232021;}.st358{fill:#5F5D5E;}.st359{fill:#646162;}.st360{fill:#646263;}.st361{fill:#626161;}.st362{fill:#201D1E;}.st363{fill:#201E1F;}.st364{fill:#272526;}.st365{fill:#1A191A;}.st366{fill:#1E1D1D;}.st367{fill:#252223;}.st368{fill:#605E5F;}.st369{fill:#494748;}.st370{fill:#1C1B1C;}.st371{fill:#615F60;}.st372{fill:#666565;}.st373{fill:#595758;}.st374{fill:#4F4D4E;}.st375{fill:#454445;}.st376{fill:#636262;}.st377{fill:#484748;}.st378{fill:#232122;}.st379{fill:#474546;}.st380{fill:#6B6A6B;}.st381{fill:#585657;}.st382{fill:#666465;}.st383{fill:#575656;}.st384{fill:#5D5C5D;}.st385{fill:#616061;}.st386{fill:#4A494A;}.st387{fill:#5A5959;}.st388{fill:#212021;}.st389{fill:#474646;}.st390{fill:#555455;}.st391{fill:#4E4D4E;}.st392{fill:#3D3C3D;}.st393{fill:#413F40;}.st394{fill:#272626;}.st395{fill:#797878;}.st396{fill:#252324;}.st397{fill:#7E7C7D;}.st398{fill:#5B5A5B;}.st399{fill:#242223;}.st400{fill:#7E7D7D;}.st401{fill:#575657;}.st402{fill:#2B292A;}.st403{fill:#9F9E9E;}.st404{fill:#757374;}.st405{fill:#636263;}.st406{fill:#777677;}.st407{fill:#717070;}.st408{fill:#545253;}.st409{fill:#5C5A5A;}.st410{fill:#FCFDFD;}.st411{fill:#FBFAFB;}.st412{fill:#F8F7F8;}.st413{fill:#F9F8F9;}.st414{fill:#E3E1E2;}.st415{fill:#747273;}.st416{fill:#676566;}.st417{fill:#FCFBFB;}.st418{fill:#F9F8F8;}.st419{fill:#F5F4F4;}.st420{fill:#F9F7F8;}.st421{fill:#E5E3E4;}.st422{fill:#F4F3F4;}.st423{fill:#ECEBEB;}.st424{fill:#EAE8E9;}.st425{fill:#DCDADB;}.st426{fill:#D6D5D5;}.st427{fill:#221E1F;}.st428{fill:#CECDCD;}.st429{fill:#ABAAAA;}.st430{fill:#F8F7F7;}.st431{fill:#F8F8F9;}.st432{fill:#FAF9F9;}.st433{fill:#FAF8F9;}.st434{fill:#F8F6F7;}.st435{fill:#F5F4F5;}.st436{fill:#EAE9E9;}.st437{fill:#F7F6F7;}.st438{fill:#F7F5F6;}.st439{fill:#F4F2F3;}.st440{fill:#F6F5F6;}.st441{fill:#F5F3F4;}.st442{fill:#F3F4F4;}.st443{fill:#F6F5F5;}.st444{fill:#F4F3F3;}.st445{fill:#F6F4F5;}.st446{fill:#F1EFF0;}.st447{fill:#F1F0F1;}.st448{fill:#EEECED;}.st449{fill:#EBE8E9;}.st450{fill:#F3F1F2;}.st451{fill:#F3F2F2;}.st452{fill:#E9E7E8;}.st453{fill:#E8E6E7;}.st454{fill:#E4E2E3;}.st455{fill:#F2F0F1;}.st456{fill:#525151;}.st457{fill:#DBD9DA;}.st458{fill:#706E6F;}.st459{fill:#CDCCCC;}.st460{fill:#DAD7D8;}.st461{fill:#D2CFD0;}.st462{fill:#FBFAFA;}.st463{fill:#F7F6F6;}.st464{fill:#494848;}.st465{fill:#EBEAEB;}.st466{fill:#F1F0F0;}.st467{fill:#535152;}.st468{fill:#EBEAEA;}.st469{fill:#F3F2F3;}.st470{fill:#EBE9EA;}.st471{fill:#EDECED;}.st472{fill:#E2E1E2;}.st473{fill:#E0DEDF;}.st474{fill:#E5E4E4;}.st475{fill:#E1DFE0;}.st476{fill:#E8E5E6;}.st477{fill:#797778;}.st478{fill:#CBCACA;}.st479{fill:#C5C2C3;}.st480{fill:#F0EFF0;}.st481{fill:#F2F1F1;}.st482{fill:#EDECEC;}.st483{fill:#6D6C6C;}.st484{fill:#A2A1A2;}.st485{fill:#979394;}.st486{fill:#5E5D5E;}.st487{fill:#BCB9BA;}.st488{fill:#D2D0D1;}.st489{fill:#E9E8E8;}.st490{fill:#B7B4B5;}.st491{fill:#D1CECF;}.st492{fill:#9B9798;}.st493{fill:#E1DEDF;}.st494{fill:#E7E5E6;}.st495{fill:#D7D4D5;}.st496{fill:#DAD8D9;}.st497{fill:#E5E2E3;}.st498{fill:#CFCDCE;}.st499{fill:#736F70;}.st500{fill:#D9D5D6;}.st501{fill:#BBB8B9;}.st502{fill:#C0BCBD;}.st503{fill:#BFBEBE;}.st504{fill:#FDFCFD;}.st505{fill:#E9E8E9;}.st506{fill:#3B3A3A;}.st507{fill:#D5D4D4;}.st508{fill:#BBB9BA;}.st509{fill:#100F0F;}.st510{fill:#222021;}.st511{fill:#373536;}.st512{fill:#DFDDDE;}.st513{fill:#504F4F;}.st514{fill:#FCFBFC;}.st515{fill:#FEFDFD;}.st516{fill:#EFEDEE;}.st517{fill:#B1B0B0;}.st518{fill:#8B898A;}.st519{fill:#D4D2D3;}.st520{fill:#DBDADB;}.st521{fill:#E6E5E5;}.st522{fill:#D5D3D4;}.st523{fill:#B9B6B7;}.st524{fill:#D8D7D8;}.st525{fill:#636161;}.st526{fill:#D8D5D6;}.st527{fill:#BAB7B8;}.st528{fill:#C6C4C5;}.st529{fill:#858384;}.st530{fill:#E1E0E0;}.st531{fill:#EEEDEE;}.st532{fill:#626162;}.st533{fill:#6B6A6A;}.st534{fill:#313031;}.st535{fill:#C7C4C5;}.st536{fill:#FDFCFC;}.st537{fill:#474647;}.st538{fill:#5C5B5B;}.st539{fill:#E4E3E4;}.st540{fill:#1A1919;}.st541{fill:#1C1B1B;}.st542{fill:#3F3E3E;}.st543{fill:#2F2E2E;}.st544{fill:#2D2C2C;}.st545{fill:#1D1A1B;}.st546{fill:#252425;}.st547{fill:#595859;}.st548{fill:#201C1D;}.st549{fill:#262525;}.st550{fill:#202120;}.st551{fill:#383738;}.st552{fill:#302F2F;}.st553{fill:#5B5A5A;}.st554{fill:#414241;}.st555{fill:#3A3B3A;}.st556{fill:#222121;}.st557{fill:#1F1D1E;}.st558{fill:#141314;}.st559{fill:#2F2C2D;}.st560{fill:#4D4C4D;}.st561{fill:#353334;}.st562{fill:#2F2D2E;}.st563{fill:#292828;}.st564{fill:#2A2829;}.st565{fill:#343334;}.st566{fill:#4A4949;}.st567{fill:#595A59;}.st568{fill:#161414;}.st569{fill:#171617;}.st570{fill:#161415;}.st571{fill:#585758;}.st572{fill:#1D1C1C;}.st573{fill:#151415;}.st574{fill:#191718;}.st575{fill:#090909;}.st576{fill:#141213;}.st577{fill:#2B2A2A;}.st578{fill:#363435;}.st579{fill:#2C2B2B;}.st580{fill:#181718;}.st581{fill:#302F30;}.st582{fill:#312F30;}.st583{fill:#666767;}.st584{fill:#DEDBDC;}.st585{fill:#FEFDFE;}.st586{fill:#E7E6E7;}.st587{fill:none;stroke:#000000;stroke-width:2.1259842;stroke-miterlimit:10;}.st588{fill:none;stroke:#000000;stroke-miterlimit:10;}.st589{fill:#000105;}.st590{fill:#41B6E6;}.st591{fill:#251A0A;}.st592{fill:#271A0E;}.st593{fill:#21150C;}.st594{fill:#33250F;}.st595{fill:#FFB600;}.st596{fill:#5EA5E5;}.st597{fill:#00B5ED;}</style><title>menu icon salad</title><g><path d="M234.2554626,142.5075684c-0.0324554-0.3141479-0.0698242-0.6277008-0.1123657-0.9405365 c-1.2966309-9.5351562-7.3152618-18.4131851-15.7937469-22.9980011c-1.3140411-0.7105713-2.6845856-1.3162766-4.0971832-1.8022842 c3.5437622-5.8485794,1.548645-13.882515-3.2133789-18.7903214c-4.7622681-4.9077988-11.6488342-7.1766815-18.4159546-8.1620407 c-12.20047-1.7765656-24.5917816,0.0607452-36.8896027,0.9389038c-12.2980499,0.8782196-25.171051,0.681366-36.2326813-4.7637634 c-7.2093811-3.5489273-13.1895523-9.106369-19.4529877-14.1402435 c-7.8182144-6.2834473-16.6366882-12.0031891-26.5948334-13.2024689 c-6.9944916-0.8422852-15.2302094,1.4357948-18.0586548,7.8879776c-2.3116684-0.1315994-4.1165352-1.9729385-5.6341743-3.7216835 c-1.5176353-1.748806-3.2064095-3.6518631-5.4977684-3.984581c-2.2914772-0.3327789-4.903717,2.1034584-3.7777481,4.1266327 c-9.2562904-1.0622139-18.9113388,4.1607018-23.0876045,12.4894981c-4.1762676,8.328743-2.5864019,19.1901016,3.8017845,25.9725342 c1.8911572,2.0079117,4.231308,3.807373,5.0665627,6.4361954c0.6015015,1.8930817,0.3205204,3.934288,0.2543011,5.919548 c-0.2456493,7.3641663,2.5557556,14.5013733,6.039423,20.9940643c9.7164612,18.1087646,25.2867851,33.074646,43.9104118,41.763504 c9.3517075,4.3630219,19.3566055,7.1477814,29.3975525,9.5290375c22.7907486,5.4049988,46.3018723,8.8384247,69.6341629,6.7794342 c9.2159119-0.8132629,18.6796265-2.6105042,26.2763519-7.891098c7.7298737-5.3731995,12.9187927-14.2506256,13.8076324-23.622467 c-0.0329285,0.3462982,6.6041565-1.2948914,7.1699677-1.5249634c2.3735657-0.9651184,4.5761108-2.3536835,6.4745941-4.0739441 c1.7890015-1.621048,3.7490234-3.7751007,4.6426849-6.059433 C234.7098694,147.5258179,234.4895782,144.7851715,234.2554626,142.5075684z M62.8828697,62.8017464 c4.0155907-3.0568466,9.6835289-0.197876,14.7886696,0.8378983c15.9984131,3.2459526,26.9328995,19.7486916,41.6000671,26.9151039 c10.1474304,4.958046,21.8859253,5.4424896,33.1588287,4.7568588c11.2731628-0.6856232,22.544632-2.4445877,33.8078156-1.6123962 c5.6440277,0.4170227,11.4307098,1.5644455,16.0634308,4.8150253c3.3021851,2.3169556,5.8232117,5.6831436,7.2420654,9.4498367 c0.713028,1.8930206,1.1496429,3.891922,1.2671814,5.9121552c0.0388184,0.6689224-0.0155029,2.1222-1.0316315,1.4943237 c-0.8585663-0.5305405-1.4741364-1.4126587-2.0976257-2.1840973c-0.2718506-0.3362656-0.5470581-0.6705475-0.8491974-0.9802551 c-2.2553101-2.3111267-5.895813-2.6895142-9.0567932-2.0292435c-3.1611023,0.6602707-6.0674286,2.184639-9.1332245,3.1993179 c-5.0144043,1.6596298-10.482132,1.9263763-15.634491,0.7627258c-5.8324738-1.3173523-11.7490692-4.4303894-17.4706268-2.6929398 c-2.8088531,0.8529816-5.1931,2.8124619-8.0258789,3.5828171c-2.1572418,0.5867233-4.4366913,0.4467087-6.6677246,0.3021927 c-4.9215088-0.31884-10.0250854-0.6888123-14.3442459-3.0694046c-1.6201477-0.8929977-3.0966873-2.054245-4.8015594-2.7723236 c-1.543602-0.650116-3.216507-0.9127045-4.8510818-1.2778778c-6.8902969-1.5392075-13.3350906-5.0225754-18.3975677-9.9436569 c-1.2019196-1.168396-2.3447189-2.4295044-3.7743835-3.3045959c-1.7596817-1.0770035-3.8291855-1.4954681-5.7807922-2.1643906 c-7.4361572-2.5489655-13.0019531-8.6532288-18.2278748-14.5253601c0.3731613-3.0495148,0.7463226-6.0990295,1.1195984-9.1485443 c-1.886467,2.2497787-3.0124359,5.1260529-3.1547318,8.0586319c-0.8852463-1.9700546-1.2236786-4.182457-0.9679337-6.3270721 c-1.0796967,0.8365707-1.7632828,2.1640244-1.8168869,3.5289764c-1.7302322-1.4461365-3.4604683-2.8922653-5.1908264-4.3383942 C58.5258522,66.0020905,61.7817802,63.639946,62.8828697,62.8017464z M186.4761505,116.4325714 c-2.5342712,5.7714233-10.9649811,1.638916-11.3053284,0.1870956 C177.851059,117.2374115,184.6646729,116.5408554,186.4761505,116.4325714z M144.5490112,118.3527679 c-3.2489471,2.5302124-5.9859314,4.9619446-9.8254547,5.5723343c-2.0084534,0.324913-3.5246582-0.1772003-4.4401855-2.0576019 c-0.7088318-1.4472733-1.3686218-2.9338455-2.1168518-4.5583191 C133.7587433,117.6635895,138.8978882,117.9983521,144.5490112,118.3527679z M110.6225891,110.2009354 c-2.9241104,1.2995682-5.7299576,1.3291321-8.5162201,0.2658386c-0.6201324-0.2362747-1.1419525-0.915596-1.5554962-1.4964905 c-1.1026535-1.545639-1.4472122-3.3178177-1.2896576-5.3852768 C103.1007385,105.8297348,106.7828217,107.975975,110.6225891,110.2009354z M84.1487808,94.8818436 c-3.8690872,0.0098572-6.7536545-1.9394684-7.4527435-5.109642C79.2656174,91.534523,81.6087723,93.1392899,84.1487808,94.8818436z M63.1097717,77.515007c-6.2813454,0.6005402-11.390934-2.0084534-11.5189247-8.9985046 C55.8439102,70.987648,59.368557,74.0494843,63.1097717,77.515007z M46.9928665,63.9844437 c0.2451706,0.3669662,0.4518776,0.7577362,0.6114769,1.1557159c0.7965584,1.9864578,0.8333321,4.1958542,1.4551468,6.2437286 c1.1582985,3.8139191,4.4782791,6.8889771,8.3695984,7.7521133c2.4978256,0.5540314,5.0980492,0.2472687,7.6506767,0.4218292 c2.5523911,0.1744995,5.2922668,0.98806,6.7257767,3.1072617c1.336647,1.9761887,1.2097321,4.5625839,1.8505325,6.860733 c1.3517914,4.8491592,6.6679688,8.231636,11.6332169,7.4016724c2.2595139-0.3776703,4.5668564-1.5023193,6.7346649-0.7612839 c2.0562897,0.7029343,3.233696,2.8840256,3.7436218,4.9964981c0.5100403,2.1124649,0.5595551,4.3410339,1.3373642,6.3703384 c1.3468628,3.5143738,4.988205,6.0172501,8.7518921,6.0155029c5.3731461-0.0025253,10.9626083-4.485672,15.6111832-1.7909851 c4.8756027,2.8264008,4.0130615,11.2858963,9.0701294,13.7733307c2.9451447,1.4487076,6.4854126,0.0593643,9.2469177-1.714798 c4.7567444-3.0560608,8.8486328-7.3135147,14.1829681-9.1870041c4.5436554-1.5958176,9.7376099-1.2374344,14.0190277,0.9673309 c4.5036469,2.3191223,8.3900299,6.6655045,13.4544373,6.5504913c3.0597839-0.0694656,5.8127594-1.8208542,8.2196045-3.7114105 c2.4069824-1.8905563,4.7221375-4.0220718,7.5895081-5.0924606c1.0595093-0.3954544,2.195816-0.598381,3.3268433-0.5890045 c0.8195038,0.0067291,2.1472626,0.0179672,2.7666626,0.6532364c1.0155334,1.0415497-0.239151,2.7732849-1.3088837,3.1594238 c-1.0142059,0.366127-2.1497803,0.4973679-3.191391,0.7939148c-1.137146,0.323822-2.2601013,0.697525-3.364563,1.1195374 c-2.2089081,0.8440247-4.3440399,1.8815994-6.3704071,3.1007156c-2.7327728,1.6441803-5.5279236,3.6916351-8.7146301,3.5667725 c-5.0487823-0.1977615-8.16745-5.5413361-12.6347961-7.901619c-3.6640625-1.9358673-8.1684265-1.7357025-12.0733185-0.3476868 c-3.9046631,1.3880234-7.3242645,3.8513641-10.6143341,6.3710022c-2.6562195,2.0342331-5.3323975,4.1625671-8.4902496,5.2679825 c-3.1578674,1.105423-6.9630127,1.0004425-9.519249-1.1582947c-2.4427872-2.0631332-3.2342911-5.4605713-5.0927582-8.0624771 c-2.037178-2.852417-5.4460907-4.6759186-8.9494705-4.7875061c-3.8009415-0.1209564-7.7041626,1.6326523-11.3075256,0.4170837 c-4.317482-1.4563446-6.1939774-6.3996582-7.5449219-10.7512054c-0.7373123-2.3751907-1.7946548-5.0770187-4.1701431-5.8132477 c-1.7305908-0.5363617-3.5628662,0.1848984-5.3191757,0.629509c-5.0014267,1.2662735-11.5298615-0.7720413-12.5114975-5.8370438 c-0.4254379-2.1960526,0.2841034-4.5363235-0.3795319-6.6725311c-1.3600769-4.3785934-7.1663513-5.1608429-11.7404137-4.8459091 c-4.5741844,0.3149338-10.169899,0.4312668-12.554039-3.4851151c-1.2798004-2.1024323-1.1412315-4.7283707-1.4044266-7.1756058 c-0.3526077-3.2792969-1.5104256-6.4691238-3.3432961-9.2111588 C44.4204063,61.4335556,46.0142403,62.5195045,46.9928665,63.9844437z M28.3857059,98.8002625 c-1.6342106-2.9929657-4.69244-5.5785904-5.1452789-8.7881241c-0.4429855-3.0814819,0.1243858-5.9304199-0.2794209-9.3171616 c-0.4331284,0.3938293-0.8958244,0.6103973-0.9648075,0.9057388c-0.2461281,1.1519318-0.4922581,2.3333054-0.5315571,3.5147324 c-0.1674118,4.7256699,0.8663807,9.0969315,4.4400616,12.4640274c1.6934624,1.6047668,2.1660118,3.2193298,1.0633564,5.28685 c-0.1672916,0.3150558-0.1968555,0.6891174-0.3151131,1.1125107c-0.2657185-0.1181412-0.5315571-0.1477051-0.6201305-0.2954025 c-1.644186-2.7566376-3.5443573-5.4049911-4.8241577-8.3289795c-4.8734341-11.1053848-1.4767761-25.725441,14.7480488-28.9152679 c1.1716385-0.2264786,2.3727226-0.3249054,3.5540924-0.4036865c0.9648094-0.068924,1.9395905-0.0098572,2.8945427-0.0098572 c1.1616669,1.5949173,1.2405014,3.3965988,1.4176483,5.1687164c0.1870003,1.7819748,0.1968575,3.6033707,0.6005402,5.3262711 c0.6103973,2.6582108,1.9690361,4.9619522,4.7453232,5.7791138c2.126709,0.6301041,4.3713188,0.9254532,6.586483,1.1617279 c1.7720566,0.1870575,3.5836563-0.0098572,5.3755455,0.068924c1.6243591,0.0787735,3.2881317,0.1574936,4.8831711,0.4922562 c2.973259,0.6202469,4.2530594,2.2939377,4.3711929,5.3557739c0.0591278,1.3389282,0.0295639,2.6877136,0.0985489,4.036499 c0.0590134,1.3487854,0.3051376,2.6384964,1.1715164,3.7707138c2.9437027,3.8297882,9.8648834,5.6216202,14.2459412,3.6525879 c0.3348236-0.1477051,0.6399612-0.3741226,0.9845123-0.5218277c1.8410492-0.8565216,3.1799774-0.4922562,4.0956268,1.3389282 c0.6989746,1.3980637,1.1125107,2.9240494,1.7032013,4.3712616c0.8171005,1.9985962,1.545639,4.0562057,2.5695724,5.9465256 c2.1364441,3.9774246,7.1968765,6.2319489,11.6370621,5.3360672c1.3093643-0.2658386,2.5793076-0.8171692,3.8986511-0.9746628 c1.2207947-0.1378479,2.5991364-0.2461319,3.7017975,0.1772003c3.2292404,1.2405014,5.8381195,3.3079681,7.2853317,6.5864258 c0.3939514,0.8860321,0.7482376,1.791832,1.1520462,2.6680603c1.7819138,3.8986511,4.9323196,5.6314087,9.1067886,5.7003326 c3.229126,0.0590668,6.2122345-0.7777405,8.8606567-2.6483459c1.2798004-0.9057388,2.5891571-1.791832,3.7213745-2.8649826 c4.1350555-3.9085083,9.2840576-5.9759674,14.4626312-7.8465729c3.9380646-1.4177094,7.6398621-0.4529037,10.5934143,2.7862015 c2.2250214,2.4317245,4.5483398,4.7748871,7.9449921,5.7692566c-7.1475983,0.9648056-14.019516,2.8944855-20.7535706,5.3557739 c-5.2377014,1.9099731-10.6525421,2.9634094-16.1756744,3.2587585c-2.5597229,0.1378326-5.1588593-0.6793213-7.7580109-0.8958893 c-8.9590759-0.7581024-17.0912018-3.9972076-24.9477463-8.1321259c-2.0969086-1.1125107-4.3613434-1.9099655-6.5469437-2.864975 c-0.6792603-0.3051987-1.3389282-0.6497574-1.9788895-1.02388c-8.6046753-5.0702896-16.4019775-11.1841049-23.6185608-18.0659256 c-3.1405563-2.9830551-6.2713699-5.9759674-9.5104752-8.8508072c-3.5442352-3.1504059-7.4133224-5.8480301-12.0799255-7.0491104 c-6.3699188-1.6441269-12.5723038-1.2897186-18.4598198,1.9296722c-0.2461281,0.1279297-0.5218201,0.216568-0.8761139,0.3642654 c-0.9156532-1.7524719-0.9353638-3.8494949-2.4908562-5.1982803c-0.9845181,1.2798615-0.9845181,1.2798615,1.2799187,6.094162 c-1.01408,0.8663864-2.0577278,1.7819748-3.0915184,2.6779251c-1.7426147-2.5499268-2.8457508-4.1238098-2.3331814-9.0871353 c-2.7566967,1.8508911-2.0084534,6.684906,1.5160751,11.0167465C29.4096432,96.9001541,28.9962234,97.668045,28.3857059,98.8002625 z M207.1248779,173.0919037c-2.4317322,3.7412109-5.5527039,7.1279602-8.6341248,9.0083618 c0.1278687-0.7088318,0.2264252-1.2306519,0.3247375-1.7524719c0.2362671-1.171524,0.5513763-2.3332977,0.6400757-3.514679 c0.0392914-0.4627533-0.3446808-1.2602081-0.7186737-1.398056c-0.8270874-0.305191-1.1224976,0.4528961-1.3489075,1.1125031 c-0.0394287,0.1477051-0.0885773,0.285553-0.1181335,0.433197c-0.5217133,2.4022217-1.0533905,4.8044434-1.6047821,7.3248138 c-0.6595459,0.4036865-1.4274902,0.8565216-2.6482849,1.5949097c0.3052521-1.0041656,0.4824066-1.5850525,0.6496887-2.1560974 c0.3742523-1.2897186,0.8270874-2.5597229,1.0535126-3.8789978c0.0591278-0.374115-0.5612488-0.8663788-0.876236-1.3093719 c-0.3544159,0.3248596-0.9353638,0.5808411-1.0336761,0.9648132c-0.6203766,2.3825226-1.1323395,4.7847443-1.7229004,7.3838806 c-1.0633545,0.4036255-2.2250214,0.8368225-3.9183655,1.4767761c0.6694031-1.6047668,1.1616669-2.7172699,1.5849304-3.8495026 c0.4234009-1.112442,0.8468018-2.2348022,1.1027832-3.3965302c0.0884552-0.374115-0.3446808-0.8663788-0.5415344-1.3094177 c-0.3938293,0.2461243-1.0042267,0.4036255-1.1616669,0.7580872c-1.0239258,2.2348175-1.9494476,4.5189056-2.9241028,6.7832794 c-0.1969757,0.4726105-0.4332428,0.9451599-0.7383881,1.3487854c-0.1279907,0.1575623-0.521698,0.0984955-1.092804,0.1969147 c0.5612488-1.5259857,1.0042267-2.7172699,1.4176483-3.9085083c0.2461395-0.7088776,0.5119781-1.4177094,0.6399689-2.1462402 c0.1476898-0.7580872,0.5808258-1.8115387-0.5019989-2.1167297c-1.1421967-0.3249054-1.2110596,0.8565216-1.467041,1.5751953 c-0.7875366,2.2447357-1.5160828,4.5091095-2.3628693,7.0590363c-3.0027008,0.2362823-6.1039581,0.5808411-9.2149506,0.6989746 c-11.4402008,0.4233856-22.5794678,1.8725281-33.9211273,0.1496277c-4.9423065-0.7482452-9.9687195-1.5856628-14.8518906-2.6194 c-7.9451218-1.6933899-14.1814041-3.955246-22.0871048-5.8652191c-2.2447281-0.5414734-6.3654709-2.4060669-8.5904922-3.0361786 c-10.0421448-2.8747711-19.5327911-6.9211273-27.9504623-13.2319031 c-7.4331512-5.5821991-14.2163696-11.8535767-20.4090195-18.7845612 c-8.1026802-9.0477142-12.5920162-19.6509781-13.6749611-31.7211761c-0.2362747-2.5991364-0.4528389-5.217926-0.4134197-7.8170624 c0.1377258-8.250267,6.4583721-15.0532532,14.6397686-16.1362534c6.0152626-0.807312,11.4695282,0.4922562,16.3133965,4.0365524 c3.1209641,2.2938843,6.0646591,4.8339539,8.9689407,7.4133835c3.4162445,3.012619,6.6454926,6.2320099,10.0321732,9.2742004 c6.3697968,5.7298355,13.4092407,10.4752197,21.1179657,14.2163696c1.2699509,0.6202545,2.4808807,1.3684921,3.6623764,2.1560898 c6.2220993,4.1645508,13.0154114,6.9703979,20.3401642,8.4176788c2.1856003,0.4331818,4.4500351,0.4233398,6.6849136,0.6202545 c2.1560364,0.1772003,4.3317719,0.2067108,6.4485168,0.5808258c5.660965,0.9746552,11.1545258,0.1378479,16.6383667-1.1518707 c6.4584808-1.5161896,12.8677063-3.5048828,19.4244995-4.3614044c12.9464264-1.683548,24.0319824,2.421875,31.9475403,13.0251465 C212.5102692,153.6673889,213.2879639,163.5913544,207.1248779,173.0919037z M224.9938812,153.1456299 c-0.7778015,0.590683-1.5949097,1.1124573-2.4415741,1.6244202c-0.4234009,0.2461243-0.8468018,0.4922638-1.2700653,0.7383881 c-0.4232788,0.2461243-0.8565369,0.4922638-1.2799225,0.7383881c-0.4035645,0.2264252-0.807251,0.4627533-1.2010803,0.7088776 c-0.0197144,0.0097961-0.0394287,0.0196533-0.0591278,0.0295105c-0.0195923,0.0147858-0.0367889,0.0295105-0.0540924,0.044281 c0.0171967-0.0147705,0.0343781-0.0294952,0.0540924-0.044281c0.0196991-0.0098572,0.0394135-0.0197144,0.0591278-0.0295105 c0-0.0098419,0-0.0098419,0-0.0098419c0.0098419-0.0492249,0.0098419-0.0886383,0.0196991-0.1181488 c0.0295715-0.157547,0.0492859-0.2953339,0.068985-0.4233246c0.0393066-0.2954102,0.0491638-0.5316772,0.0197144-0.71875 c0-0.0294952,0-0.068924-0.0197144-0.0984192c0-0.0197144-0.0098572-0.0492096-0.0196991-0.068924 c-0.0098572-0.0393677-0.0197144-0.0787811-0.0492859-0.1082916c-0.0492706-0.0984802-0.1279907-0.1870575-0.2362671-0.2559814 c-0.1181335-0.068924-0.2756958-0.1279907-0.4725494-0.1673431c-0.1968536-0.0492706-0.433136-0.0886383-0.7186737-0.1181488 c-0.7383881-0.088623-1.6343384,0.3445587-2.3137207-0.7285919c0.502121-0.1772003,0.876358-0.3248444,1.250351-0.4429779 c1.8411713-0.6006012,3.7017975-1.1322174,5.5133972-1.8115387c0.6299896-0.2264252,1.4669189-0.502121,1.4077911-1.7819672 c-0.817215,0.1476898-1.5751953,0.2854767-2.3431549,0.4134674c-1.6933441,0.2756958-3.3769379,0.6006012-5.070282,0.7974701 c-0.7383881,0.088623-1.5653534,0.0196991-1.5162048-1.2700195c2.6878357-0.3839722,5.2475586-1.1518555,7.0787506-3.5048676 c-0.8959503-1.0140839-1.6343384-0.3150635-2.3431549-0.0984344c-1.7623291,0.5414734-3.5245361,1.1124573-5.503418,1.7425537 c-2.5498657-5.6806183-6.0449524-10.3374329-10.9774017-13.8127441 c-4.8831635-3.4359589-10.2291412-5.8381805-16.5792236-7.1377487c5.001297-2.2644424,9.0575104-5.5231857,14.3147888-6.1630859 c2.5894165-0.3150558,5.2179871-0.6103973,7.2953033-2.6582108c7.1771698,2.2151642,13.6355438,5.3164139,17.3373413,12.3163147 c-0.4035645,0.7876129-0.7679443,1.5062866-1.2109375,2.3923798c-0.4232788-0.3544159-0.8565216-0.7088318-1.2897797-1.0632935 c-0.6299744-0.5119171-1.2207794-1.092804-1.919754-1.526001c-0.3052521-0.1870575-0.807251-0.068924-1.2109375-0.0984192 c0.0394135,0.4626923,0.0098572,0.9549408,0.1575623,1.3782806c0.1082764,0.3052063,0.4626923,0.5218201,0.8368073,0.9254456 c-1.9493256,0.5218353-4.0857697-0.3445435-5.6708221,1.5654144c1.8410339,1.9985352,4.5190125,0.6596069,6.5470581,1.9198151 c-1.4177704,1.3093719-3.7017975,1.4964294-5.0111542,3.7214508c2.8451385-0.3347015,4.7944641-2.116684,7.2951813-2.4317322 c0.4036865,1.0829468,0.7975159,2.1363831,1.1912231,3.1898346c0.1871338-0.0098572,0.3742523-0.0295715,0.5513916-0.0394287 c-0.1082764-2.3430939-0.4626923-4.7256622,1.0140839-6.8719025c0.1672974,0.2264099,0.4725494,0.4922485,0.6103973,0.8270111 c1.3487854,3.1110535,2.3037415,6.3008728,2.2938843,9.7368317 C229.1288147,147.9473572,227.8488922,150.9895325,224.9938812,153.1456299z"/><path d="M161.1774139,180.7735901c-6.1631012,0.3374023-12.3261871,0.5421295-18.5187225,0.1216888 c-6.2812195-0.4315186-12.5821533-0.8076172-18.8633804-1.2169495c-1.7721786-0.1162109-3.5343781-0.304245-5.3064423-0.4259796 c-1.289772-0.0885162-2.166008,0.1604309-2.4022827,0.6361694c-0.2658386,0.5310211,0.3445587,1.0233307,1.7031937,1.2446442 c0.9255142,0.1493225,1.9001694,0.2323151,2.8551254,0.2875977c6.5962219,0.3816986,13.1924362,0.7523346,19.7986221,1.1229706 c7.3347321,0.414856,14.5806427,0.088501,21.7578125-0.8353119c0.7581024-0.0940552,1.4767761-0.2876587,2.5892944-0.5144348 C163.4122772,180.5301666,162.2604675,180.7127228,161.1774139,180.7735901z"/><path d="M161.865799,175.6004944c-4.2137604,0.3594513-8.4176636,0.845047-12.7003021,0.6432037 c-6.241806-0.2963715-12.4837341-0.6179657-18.7254181-0.9774323c-2.7468338-0.1576233-5.4739685-0.4729156-8.2109528-0.6432037 c-0.5612488-0.0378571-1.4866333,0.132431-1.6736374,0.3846893c-0.4135361,0.5360107,0.3149948,0.8828583,1.0730896,1.0341644 c1.132225,0.2333221,2.2840271,0.4540405,3.445816,0.5738525c7.4527359,0.7693329,14.9744644,1.0846252,22.5060501,1.2675476 c5.129303,0.1260681,10.1011505-0.4666595,15.0138855-1.2990265c0.7383881-0.1261292,1.4077911-0.4099426,2.4514465-0.7189178 C163.7362823,175.367157,162.8010406,175.524826,161.865799,175.6004944z"/><path d="M34.5760765,115.6847c-0.2377167-4.9127274,0.7603798-9.5694809,1.8602715-14.1573639 c0.2171669-0.8958817,0.5839539-1.7819748,0.128952-2.7566376c-0.5227852-0.3544083-0.896183-0.0295029-1.1677933,0.6005402 c-0.2714844,0.6301117-0.5430946,1.2602158-0.7536507,1.939537c-2.5800285,8.2502594-2.7564545,16.5300217-0.0949402,24.8294907 c0.2035828,0.6301117,0.5090828,1.1814346,0.767231,1.7819748c0.1628456-0.0787125,0.3258095-0.1574936,0.4886513-0.2362747 c-0.0745087-0.9254456-0.1288338-1.8508911-0.2307434-2.7664871C35.2346649,121.8379364,34.725338,118.7859573,34.5760765,115.6847 z"/><path d="M38.3706512,106.646843c0.0492706-0.3544159,0.167408-0.7482452,0.1329193-1.0632401 c-0.0492744-0.4627533-0.162487-1.0928574-0.3396301-1.2602081c-0.1723404-0.1575012-0.561245,0.0197067-0.6744537,0.3150482 c-0.2854271,0.7581024-0.5561943,1.614624-0.6891136,2.5203629c-0.7580986,5.1195068-0.4577675,10.0420914,0.8368149,14.6988373 c0.1821938,0.6497574,0.5070419,1.1420135,0.7630272,1.6934052c0.1230621-0.1182022,0.2461281-0.2363358,0.369194-0.3643341 c-0.0885735-0.8958817-0.1230659-1.8410416-0.2855492-2.687706C37.637188,115.901329,37.6864624,111.2839355,38.3706512,106.646843 z"/><path d="M140.4107208,171.8222046c-0.0295563,0.2471466,0.1968536,0.6179657,0.5415344,0.7415009 c0.5316772,0.1966248,1.2306519,0.2808685,1.8803406,0.3258209c4.98172,0.3089752,9.5596313-0.6628571,14.1672211-1.5111542 c0.6103973-0.1123657,1.2700653-0.3089294,1.1322174-0.8931885c-1.1026459-0.4213409-2.3824463-0.2359619-3.5935059-0.1573029 c-3.9970856,0.2640381-7.9844208,0.5674286-11.9717712,0.8538818c-0.4429779,0.0337067-0.9253845,0.0281219-1.3093567,0.1348419 C140.9029846,171.4177246,140.4304352,171.6368256,140.4107208,171.8222046z"/><path d="M151.8047791,142.7491302c1.2110596-0.6498108,1.2799225-1.841095,0.0886993-2.6483459 c-1.4373627-0.9648743-3.0914001-0.9747314-4.7454376-0.8270264c-1.5160828,0.1279907-2.7565765,0.6596069-3.229248,2.4415894 C145.6024017,143.093689,150.1212921,143.6548767,151.8047791,142.7491302z"/><path d="M160.52771,144.9544373c-0.3545227,0.1968536-0.9156494,0.6399078-0.876236,0.8958893 c0.2362823,1.4177094-1.0632324,1.3783417-2.205307,2.2250214c2.9338379,0.9549561,5.4049835,0.7580872,7.8171234,0.0492096 c1.3289642-0.3937683,1.4176483-1.7032013,0.3444366-2.5991364 C164.3968048,144.5015411,161.8960876,144.1963501,160.52771,144.9544373z"/><path d="M104.8926315,141.193573c-2.2053146-0.5414734-4.4204788,0.4430542-5.4542694,2.4317322 c-0.9352417,1.7819824-0.1279907,3.1012573,2.1364517,3.1209717c1.6343307-0.0984955,3.2981033-0.6990356,4.371315-2.3235168 C106.8518066,143.0739746,106.3004227,141.5381317,104.8926315,141.193573z M101.5649567,144.7772369 c0.6695251-2.0970306,1.437355-2.5203705,3.0519791-1.6638336 C104.0361023,144.4818268,102.8940277,144.708313,101.5649567,144.7772369z"/><path d="M81.1755219,130.2851105c-1.870491-0.6596069-3.6722336-0.502121-5.2867355,0.7186737 c-1.0337906,0.7778168-1.575325,1.9887543-1.0140839,2.6680603c0.4922638,0.5906982,1.3880844,0.866394,2.0477524,1.240509 c1.614624-0.3839722,3.0322723-0.590744,4.322052-1.1026611c0.5415268-0.2067719,1.0534973-1.0239258,1.1912231-1.6539764 C82.6228485,131.2893372,82.0124588,130.5804596,81.1755219,130.2851105z M77.7888412,132.6676178 c-0.0197144-0.157486-0.0492783-0.3150482-0.068985-0.4725494c1.0140839-0.2559814,2.0281601-0.5119629,3.081665-0.7777405 C80.8506699,132.8842468,80.6341095,132.9531708,77.7888412,132.6676178z"/><path d="M125.9710541,146.2244415c1.0830688-0.2362671,2.18573-0.521759,3.150528-1.0337219 c2.0280457-1.0830078,2.0576172-2.7468414,0.2264252-4.3614044c-0.8171082,0.305191-1.6441879,0.5414734-2.4022903,0.9254456 c-0.7875366,0.3839111-1.5652237,0.8466644-2.2544556,1.397995c-0.6498184,0.521759-1.1420746,1.2109375-0.7581024,2.1363831 C124.3171387,146.2145996,125.1442184,146.4115143,125.9710541,146.2244415z"/><path d="M41.7977104,108.4977341c-0.1182556-0.3347015-0.2904739-0.807312-0.4480324-0.8269577 c-0.221489-0.0197067-0.5316772,0.216568-0.6496925,0.5513229c-0.1575584,0.4528427-0.2658386,1.1518707-0.2165642,1.6736374 c0.1723366,1.8804626,0.3740005,3.7608643,0.6644745,5.572403c0.1033554,0.6497498,0.4971886,1.1026535,0.7580986,1.6441269 c0.0885735-0.068924,0.1772652-0.1378479,0.2657204-0.2067108c0.0149002-0.6793213,0.0739098-1.3684998,0.0394173-2.0379639 c-0.0934982-1.8410416-0.2264175-3.672287-0.3445549-5.503479 C41.8517952,109.0687714,41.8715019,108.7241592,41.7977104,108.4977341z"/><path d="M84.3554916,121.8477859c-0.2067108,2.49086,0.4726715,4.696167,2.0675812,6.7144241 c0.7482452-0.1772156,1.3684921-0.3249207,1.9493256-0.4627075 C89.4160461,124.0728073,87.7422943,121.365387,84.3554916,121.8477859z"/><path d="M139.4590149,153.3031311c1.0533905,0.0787811,1.5259247-0.7777557,1.8706055-1.6244812 c0.1377258-0.3445587,0.2461395-0.7186737,0.2559814-1.0730896c0.059021-2.1659546-0.6105042-4.0463562-2.343277-5.80867 c-1.0336609,2.274231-1.4472046,4.3516083-1.1715088,6.5372009 C138.1792145,152.2398376,138.3267975,153.22435,139.4590149,153.3031311z"/><path d="M172.1352081,137.6591339c-0.5710907-0.0492096-1.1716309,0.068924-1.7426147,0.1870575 c-0.5612488,0.1181335-1.1027679,0.3446198-1.6441803,0.5316772c-1.2109375,0.4134827-1.5357971,1.6244202-0.502121,2.3923798 c0.7875366,0.590683,1.831192,0.8466644,2.7664337,1.2404938c0.0295563-0.0886383,0.0591278-0.1674042,0.0985413-0.2559814 c0.3740082,0,0.7482452,0.0393524,1.1123962-0.0098572c1.4374695-0.1772003,2.2447205-0.9451599,2.1955719-2.057663 C174.3798218,138.6042938,173.4937286,137.7674103,172.1352081,137.6591339z"/><path d="M110.1400604,136.8715363c-0.2067108,0.2067719-0.2854233,0.6005402-0.521698,0.7088776 c-0.9353638,0.4429932-1.1617889,1.1124573-0.7186813,1.9886932c0.4922562,0.9746552,1.2306442,1.6539764,2.7074203,1.7426147 c0.4725494-0.2756958,1.2502365-0.5809021,1.8310699-1.1026611c1.0337906-0.9353027,1.0042267-2.3923645,0.0591278-3.3867493 C112.5817642,135.8476562,111.2033005,135.8575134,110.1400604,136.8715363z"/><path d="M95.9629898,128.0404358c-0.8761139,0.2067108-1.5357819,1.2503052-1.545639,2.4415894 c-0.0098572,1.2404938,0.8368149,2.7664948,1.8016205,3.1307526c0.7482452,0.2953491,1.4964905,0.2362823,2.0183105-0.4430389 c0.8368149-1.1026611,0.9352417-2.3135986,0.3741226-3.5738068 C98.0895844,128.414505,97.0066376,127.7943115,95.9629898,128.0404358z M96.8097839,132.3624268 c-0.5809555-0.9845123-0.9255142-1.5653534-1.2700729-2.1560974c0.1574402-0.1082764,0.324852-0.216568,0.4824066-0.3248444 C96.9869232,130.1669769,97.1837845,130.8462982,96.8097839,132.3624268z"/><path d="M147.5222778,148.9810791c-0.2264252,0.3446198-0.3446808,0.7482452-0.6203766,0.9156036 c-0.9450989,0.5808868-1.0140839,1.2700653-0.5414124,2.2151642c0.4824066,0.9550018,1.2109375,1.4964752,2.2544708,1.5260468 c1.5359039,0.0590668,2.3137054-1.1617889,1.624588-2.5302124 C149.7275848,150.0935974,149.0285034,149.2469177,147.5222778,148.9810791z"/><path d="M70.6707993,107.3557205c-0.5415344-1.0435867-1.1125107-2.1560898-2.9239883-1.9985962 c-0.0985489,0.7088852-0.5119705,1.5850601-0.2559814,2.165947c0.6694031,1.4866333,1.7524643,2.707428,3.6229553,3.2095413 C71.8127518,109.4231873,71.1926193,108.3697433,70.6707993,107.3557205z"/><path d="M74.9829865,118.1657028c-0.9649277-0.8368149-2.4121399-0.8270187-3.298111-0.0886307 c-0.7580948,0.6301041-0.767952,1.50634-0.0492706,2.0773773c1.1518097,0.9057388,3.5049362,0.9057388,5.0407257-0.0787811 C76.1053543,119.4259109,75.6130905,118.7170334,74.9829865,118.1657028z"/><path d="M89.337204,133.2977295c-0.1377258,2.3923645-0.2461243,4.6075287,2.6877136,5.2376404 C92.7928696,135.5818176,92.0741959,134.1838226,89.337204,133.2977295z"/><path d="M117.1892395,151.166748c1.8607559,0.7482452,3.7510681,0.7580261,5.5428391-0.3052063 c0.1476974-0.088623,0.1871185-0.3544617,0.4036865-0.8171692c-0.7581024-0.088623-1.3783493-0.1772003-1.9986038-0.2362671 c-1.1715164-0.1181335-2.3431549-0.2756958-3.5246429-0.3150482c-0.4429855-0.0197144-0.8859711,0.2461243-1.3388138,0.374115 C116.5689926,150.3102112,116.7758179,150.9993286,117.1892395,151.166748z"/><path d="M135.3239746,159.5547943c1.1913452,0.2855377,3.0126801-0.7285309,3.8003387-2.1560974 c-1.6048889-0.6399078-3.0126801,0.0197144-4.4007568,0.5710297c-0.1871185,0.068924-0.3249664,0.6990356-0.2166901,0.9648132 C134.6053009,159.2102356,135.0089722,159.4760742,135.3239746,159.5547943z"/><path d="M148.713501,107.7692032c1.0632324-0.3051987,0.9549561-1.3684921,0.7975159-2.2545242 c-0.1083984-0.5710373-0.2756958-1.1519241-0.5218201-1.6736908c-0.3939514-0.8466721-0.9943695-1.50634-2.0380249-1.4078522 c-0.8466644,0.0885696-1.486618,1.0632324-1.5359039,2.5990829c0.1576843,0.374115,0.3446808,1.181427,0.7581024,1.8411026 C146.7346191,107.7987671,147.8077087,108.0153351,148.713501,107.7692032z"/><path d="M107.3046494,99.0463943c0.1772614-0.8959427,0.2362747-1.5949097,0.4528351-2.2447281 c0.354538-1.0435867-0.039299-1.7721176-0.8662567-2.2938843c-0.8566437-0.5316772-1.722908-0.3938293-2.4612961,0.3051987 c-0.7482376,0.7285309-0.8270798,1.6441269-0.2954025,2.4514389 C104.8433533,98.3276596,105.778595,99.1645279,107.3046494,99.0463943z"/><path d="M105.6014557,90.2152405c2.0084534-1.0238724,2.3923035-1.9099655,1.5654678-3.4359512 c-0.4234009-0.7974625-1.023941-1.3684921-1.9690399-0.9943771c-0.8960648,0.3544769-1.4866257,1.0140839-1.2799149,2.0871735 C104.0951157,88.8664627,104.5380936,89.6934814,105.6014557,90.2152405z"/><path d="M141.0046539,100.8874359c1.0042267-0.3544083,1.9985962-1.683548,2.0478821-3.1406097 c-0.1575623-0.1772079-0.5415344-0.9057388-0.866394-0.876236c-0.7580872,0.0590668-1.7426147,0.2854843-2.1561432,0.8171692 c-0.4824066,0.6103897-0.6595612,1.6441269-0.6005402,2.4612885 C139.4884644,100.8480148,140.2072601,101.1729279,141.0046539,100.8874359z"/><path d="M135.1369781,108.5863724c1.1223602-0.0984879,1.1322174-0.98452,1.2207794-1.7130508 c0-1.4374161-0.4626923-1.8508987-1.9493256-1.8607559c-1.181366-0.0098572-1.6933289,0.3839798-1.6440582,1.2601547 C132.8332367,107.3557205,134.1425934,108.6650848,135.1369781,108.5863724z"/><path d="M132.5575409,99.4795837c0.1181335-1.1026535-0.5315552-1.6933975-1.6244812-1.4767761 c-1.3487854,0.2756348-1.8901978,1.3586426-1.6243591,3.298111 C131.6320343,101.4682693,132.3999786,101.0449295,132.5575409,99.4795837z"/><path d="M140.8964996,110.3781967c-0.1871338,0.1673508-0.0295715,1.1912308,0.2165527,1.3093643 c0.6595612,0.3150558,1.4669342,0.5021133,2.2053223,0.4627533c0.5119629-0.0295639,1.0042267-0.5218201,1.4767761-0.7875977 c-0.2756958-1.5358429-0.7088318-2.0183105-2.0577393-1.8903198 C142.0877228,109.5413208,141.3984833,109.9351501,140.8964996,110.3781967z"/><path d="M119.4044037,101.2024918c1.5359039-1.2405014,1.8508987-2.1167374,1.092804-3.3473816 c-0.216568-0.3544159-0.8269653-0.7186813-1.1913528-0.6694717c-0.3838577,0.0590744-0.9253845,0.5611877-1.0139618,0.9549561 C118.0064697,99.351593,118.2820435,100.4641037,119.4044037,101.2024918z"/><path d="M117.3762436,102.4429932c-1.4669266-0.4627533-2.5203018-0.876236-3.6032486-1.092865 c-0.3643875-0.068924-1.0929184,0.2756958-1.1716385,0.5611877c-0.0984268,0.3544083,0.1871185,0.9943695,0.5119705,1.2602081 C114.0585403,103.9492722,115.5943298,103.7523575,117.3762436,102.4429932z"/><path d="M97.0952072,93.7595444c1.0140839,0.0098495,1.6441879-0.5513306,1.5260544-1.4374237 c-0.1378479-1.0927963-1.0042267-1.1125031-2.2151642-1.220787c-0.2954025,0.2953415-0.9649277,0.6793213-1.1716385,1.2405014 C94.988327,93.040802,96.0221176,93.7496872,97.0952072,93.7595444z"/><path d="M124.1104279,108.7340088c0.1968536-1.1715775,0.3544083-2.0674591,0.5415344-3.1799698 c-1.0830688-0.2756958-1.9297409,0.1378479-2.2841492,1.1322174c-0.1870041,0.5217667-0.0492783,1.3389282,0.2658386,1.8114777 C123.0470734,109.1081314,123.7657471,109.0786285,124.1104279,108.7340088z"/></g></svg>