<svg xmlns="http://www.w3.org/2000/svg" viewBox="-29 31 40 40"><style>.st0{display:none}.st1,.st2{display:inline;fill:#010202;stroke:#010202;stroke-width:.25;stroke-miterlimit:10}.st2{stroke-width:.3}.st3,.st5{display:inline;fill:none}.st5{fill:#010202;stroke:#010202;stroke-width:.4;stroke-miterlimit:10}</style><path d="M-10 48.4c.1-.1.2-.1.4-.1-.1 0-.3-.1-.4-.1 0 0 0 .1-.1.1s-.2-.1-.2-.2l-.2.1c0 .1 0 .1-.1.1s-.3.1-.4.2l-.5.4c.3-.2.6-.3 1-.4.2 0 .4-.1.5-.1zm7.5-.4c.3.1.5.4.6.6 0 .1 0 .1.1.2 0 0 .1 0 .2.1 0-.1-.1-.1-.1-.2-.3-.4-.6-.7-1-.9 0 0 0 .1.1.1l.1.1zm-11.3-3.7s.1 0 0 0c.3.3.6.5.8.7-.4.1-.7.2-1 .3h-.2c-.2-.1-.3-.2-.5-.2h-.2c.2.1.4.2.5.3 0 0 .1.1 0 .1l-.1.1c.1 0 .3-.1.5 0 .1-.1.3-.1.4-.2.5-.2 1-.4 1.6-.3.4 0 .7.1 1.1.1 0 0 .1 0 .2-.1h-.2c-.2 0-.3-.3-.3-.5s-.1-.3-.2-.5c0 .1-.1.2-.1.3l-.1.1h.1c.2 0 .3.2.3.4 0 0 0 .1-.1.1-.4-.1-.8 0-1.2-.1-.4-.1-.8-.3-1-.6l-.3-.3c.1.1 0 .2 0 .3zM5.9 48c-.1-.3-.3-.5-.5-.7-.1 0-.2-.1-.2-.2.2.3.5.6.7.9zm-7.4-7.8s.1 0 .1-.1c.1-.1.1-.2.3-.3 0 0 .1-.1.2-.1s0 .1 0 .2l-.1.1h.1c.1-.3.3-.6.5-.8 0 .3-.1.5-.2.8h.2v-.1c0-.1 0-.1.1-.2.1 0 .1.1.1.1 0 .2.1.2.2.1s.2 0 .2.1.1.3.2.4c.1.3.1.3-.1.5v.1c.2-.1.2-.1.3.1.1.3-.1.5-.2.7.1 0 .1-.1.2 0v.3c-.1.1-.2.3-.3.4h.3l.1-.1v-.1H.6c.1-.3.3-.6.3-1 0-.5-.2-1-.5-1.5-.1-.2-.2-.3-.3-.1-.1-.2-.1-.4-.2-.7 0-.1 0-.1-.1-.2-.1 0-.1 0-.2.1l-.3.3c-.1.1-.1.3-.3.1h-.1c-.1.4-.3.6-.4.9zm-.2 2.3c-.1-.2-.2-.5-.2-.7-.1-.1-.1-.3-.2-.5v.4c0 .3.1.7.3 1 0-.1 0-.1.1-.2zm-20.4 7c.2.1.4.2.6.2.2 0 .5.1.7.1-.1-.1-.1-.2-.2-.3l-.4-.4-.1-.1-.2-.2v.1c.1.2.3.4.4.6 0 0 .1.1.1.2-.3-.1-.5-.1-.9-.2.1 0 .1 0 0 0zm-.4.6c-.2.1-.4.2-.7.1.9.1 1.7.4 2.4.9.1 0 .1.1.2.2V51c0-.1.1-.2.1-.3 0 0 0-.1.1-.1-.7-.3-1.4-.4-2.1-.5zm1.5.4c.2 0 .3.1.5.1.1 0 .1.1 0 .2s-.2.2-.4.1c-.3-.2-.6-.4-1-.5.3 0 .6 0 .9.1zm2.2-1.6c0 .3-.2.6-.4.8v.1h.5c-.1-.2 0-.4.1-.5.1-.3.3-.5.4-.8v-.2c-.3.2-.4.4-.6.6zm-3.5 1-.1.1h.1c.6.1 1.3.2 1.9.3h.3c.1 0 .2-.1.2-.1l.1-.1h-.3.1c-.4-.1-.8-.1-1.3-.2-.2.1-.6 0-1 0zm5.2.7h-.3c-.1 0-.2.1-.2.1h-.4v.2c0 .1-.1.3-.2.4l-.1.1c.2-.1.3-.3.5-.4.1-.1.3-.1.5-.1.2.1.4.1.6.2v-.2c-.1-.1-.2-.1-.3-.2-.1.1-.1 0-.1-.1zm21.4-5.9c0-.1-.1-.2 0-.2.2-.1.1-.2 0-.3-.4-.5-.8-1.1-1.6-1.3.1-.1.3 0 .3-.2-.2-.1-.5-.2-.7-.3-.2 0-.4 0-.5-.1-.1-.1-.3-.1-.4-.1.1 0 .2 0 .2.1 0 .3.2.2.4.2h.5c.1 0 .3.1.4.2-.1.1-.3 0-.2.2 0 .1-.1.1-.1.1-.2 0-.3 0-.5.1l.1.1c.2 0 .5-.1.7 0 .4 0 .7.3.9.5.1.1.2.3.4.4l.1.1h-.4c-.3.1-.5 0-.8 0v.2c.4 0 .8.3.8.7 0 .1.1.3.1.4 0 0 .1 0 .1.1 0-.3-.1-.5-.2-.7l-.3-.3s-.1 0 0-.1.1 0 .1 0c.3-.2.5-.2.6.2-.1.3.1.5 0 .7v.2c-.1 0-.1 0-.2.1l.1.2s.1 0 .1-.1c0 0 0-.1.1-.1.2-.4.1-.7-.1-1zm-8.4 7.7h.3c0 .1 0 .1-.1.2.1.1.1.2.2.3.3-.5.7-.8 1.4-.8h.2s-.1 0-.1-.1c-.2 0-.4 0-.6.1-.2 0-.4.1-.6.2h-.1c-.2 0-.3.1-.6.1zm-.8-.2h.3l-.6-.3c-.2 0-.4 0-.6-.1-.5-.2-.9-.5-1.2-1h-.1c-.2-.3-.3-.6-.3-1 0-.2 0-.3.1-.4.1-.2.3 0 .4 0 .6-.1 1.1-.1 1.7-.2.3-.1.7 0 1-.1h.1s0-.1-.1-.1h-.6c-.7.1-1.3.1-2 .2H-7s-.1 0-.1-.1h-.2c-.2.5-.2 1.1.1 1.6 0 .1.1.1.1.2-.2-.1-.3-.3-.4-.5-.2-.5-.3-1-.1-1.4l-.1-.1c-.3.6-.1 1.6.4 2 .5.4 1 .7 1.6 1 .1.1.4.2.8.3zm14.6-3.1s-.2-.1-.1-.2c.1-.2 0-.2-.2-.2-.1 0-.1 0-.2-.1-.6-.4-1.3-.6-2-.9-.3-.2-.7-.2-1-.6-.2-.3-.5-.5-.9-.6-.3-.1-.7-.2-1-.4l.1.2s0 .1.1.1c.4.2.9.5 1.3.7.4.2.6.6.6 1 .1 0 .2-.1.4-.1 0-.1.1 0 .1 0 .2 0 .4.1.5.2h.3l-.1-.1c-.3-.1-.5-.3-.8-.3 0 0-.1 0-.1-.1 0 0-.1 0-.1-.1s.1 0 .1 0c.2 0 .4.1.5.2.3.1.6.3.8.4.1 0 .3.1.4.2l.4.2.1.1c.5.2.7.8.6 1.2v.2c-.2.4-.5.7-.9 1-.2.1-.4.3-.6.4-.2.1-.3.3-.5.4-.3.3-.7.3-1.1.2l-.1.1c-.1 0-.2.1-.2 0s.1-.1.1-.2l-.1-.1c-.1 0-.2 0-.3-.2v-.4c-.1 0-.2-.1-.3-.2-.2-.2-.1-.3.1-.4h.1v-.1h-.1c-.1 0-.2 0-.3-.1 0-.1-.2-.2.1-.2h.1l-.2-.1c0 .1-.1.2-.2.3.2.6.6 1.1.6 1.7 0 .1-.1.3-.2.3-.7.3-1.4.5-2.1.6-.1 0-.2 0-.2-.1-.1-.3-.3-.6-.4-.9.2-.1.2-.3.3-.4.1-.1.2-.1.2-.3.1 0 .1-.1.2-.1.3-.2.5-.3.7-.4h-.1c-.3.2-.5.3-.7.5v.1h-.1c-.2.3-.5.3-.9.2h-2c-.1 0-.2 0-.2-.1s.1-.1.1-.2c.5-.4.9-.9 1.5-1.3.3 0 .6-.1.9-.1l-.1-.1h-.3c-.1 0-.1 0-.1-.1-.4-.4-.8-.8-1-1.3-.2-.1-.2-.3-.2-.4 0-.2.1-.4.3-.5v-.5c-.1-.1-.1-.3-.1-.5 0-.1 0-.2.1-.3V46c-.4.4-.3.8-.1 1.3-.2-.1-.3-.6-.3-1 0-.2.2-.4.4-.5.1-.1.1-.2.3-.3-.2-.1-.4-.2-.5-.4-.1 0-.2.1-.3.1 0 .1 0 .1-.1.1s-.3-.1-.4-.1l-.3-.1h-.1c-.1 0-.1.2-.2.1-.2-.2-.4-.3-.5-.5 0-.1-.1-.2-.2-.3-.1 0-.2-.1-.2-.1.1.1.2.3.2.4-.2 0-.3-.1-.5-.2s-.3-.1-.5-.2c.1-.1.3-.3.5-.3-.1-.1-.1-.2-.2-.3-.1 0-.1.1-.2.1-.2.2-.7.4-1.1.3-.2 0-.4 0-.6.1-.1 0-.3 0-.4-.1-.5-.4-1-.8-1.7-.9h-.4c-.1 0-.2-.1-.2-.2s.1-.1.2-.1h.4c.5 0 1 .2 1.4.6.4.4.9.6 1.4.5.3 0 .6-.3.8-.4.1-.1.2-.2.3-.2 0-.2-.1-.3-.1-.5v-.2c-.1-.5-.2-.9-.4-1.3-.2-.5-.5-.9-.9-1.2-.1-.1-.2-.1-.2 0-.1.4-.2.1-.3 0l-.2-.2c-.3-.4-.8-.6-1.3-.6-.1 0-.2 0-.2-.1-.4-.3-.8-.6-1.4-.5-.1 0-.2 0-.2.1 0 .3-.2.1-.2 0-.2-.2-.5-.3-.8-.4-.2 0-.5-.1-.5-.3 0-.1-.1-.1-.2-.1s-.1.1 0 .2c.1.2.1.3 0 .5-.1.6-.1 1.2-.1 1.8 0 .2 0 .4.1.6 0 0 .1.1 0 .2s-.1 0-.2 0c-.2-.2-.4-.1-.6 0l-.3.3c-.4.4-.9.7-1.6.6-.4-.1-.8 0-1.1-.1l.1.1h.5c.3 0 .6 0 1 .1-.2.2-.4.3-.7.2 0 0 .1.1.1.2.1.2.1.3.2.5.3.1.7.2 1 .3.2.1.4.1.6.2.1 0 .3.2.3.3 0 .3.1.6.2.9v.1l.2.1V45c0-.3-.2-.5-.2-.8-.1-.3.1-.6.4-.8.3-.1.5-.3.7-.5.1-.2.4-.2.5-.1.3.2.5.4.9.4.1 0 .1.1.2.2-.4.1-.7.3-1 .6-.3.3-.5.7-.3 1.1 0 .2 0 .3-.2.3h-.4c.3 0 .6 0 1 .1.1 0 .3.1.4.2.1.1.1.1 0 .2s-.3.1-.4.2c0 .1.1.1.1.2.1-.1.3-.1.4-.2h.2s.1 0 .1.1 0 .1-.1.1l-.5.3v.2l.1-.1c.3-.2.4-.2.7.1-.5.2-.9.4-1.2.8-.2.4-.5.7-1 .9h.2c-.2 0-.4 0-.5.1.1 0 .1 0 .2.1h.2c.1 0 .2 0 .1.1v.1c.2.3.2.7.1 1 .1.2.2.4.2.5v.2s0 .1.1.1c0 .1.1.1.1.2.1.2.2.4.1.6 0 .1.1.1.2.2.1-.1.2-.1.4-.2-.6-.5-.8-.8-1-1.1-.2-.4-.3-.9-.2-1.4 0-.3.1-.6.2-.9V48c0-.3.1-.5.3-.7.2-.2.5-.4.8-.5H-6.3c.1-.1.3-.2.5-.2h.1c.3-.1.5-.2.8-.3.3-.1.6 0 .8.1.8.2 1.8.6 2 1-.6-.4-1.2-.7-1.9-.8l.1.1c.5.1 1.1.4 1.5.7.5.4.9 1 1.2 1.5l.1.1c.1.1.2.3.3.5v.2c0 .1.1.2.1.3v.2l.1.1c0-.2 0-.3-.1-.5-.1-.4-.3-.8-.5-1.2-.1-.1-.1-.2-.1-.3.5.1.8.5 1.1.8.6.6.7 1.2.5 2 0 .1 0 .1-.1.2-.1.2-.2.2-.3 0 0 .1 0 .1-.1.2.2.2.2.4.2.5l-.2-.2c-.1.1-.2.3-.4.4.4.2.6.5.9.8.2.2.3.5.3.7 0 .2 0 .2-.2.2-.6.1-1.3.2-2 .2h-.8v.1h-1.2c-.2 0-.3-.1-.3-.3v-.1c0 .2-.1.3-.2.3H-5c0 .1 0 .1-.2.1h-.1c-.3 0-.4 0-.4-.2H-6v.1c0 .1-.2 0-.2.1-.5.1-.7-.1-.9-.5-.1-.1-.1-.3-.2-.4-.1 0-.1 0 0 0-.1 0-.2 0-.2-.1h-.1c.1.1.1.2.2.3.1.2.2.3.3.5.1.1 0 .2-.1.2h-.1c-.6 0-1.3.1-1.9.1h-.1c0-.1.2-.2.1-.3-.3.5-.9.6-1.3.4-.4 0-.8 0-1.2-.1-.1 0-.1 0-.2-.1 0-.2-.1-.3-.3-.4-.1-.1-.3-.1-.4-.1-.1 0-.1.1 0 .2v.1c.1.1.3.2.2.3 0 .1-.3 0-.4 0-.4 0-.8 0-1.1-.1-.2 0-.2-.1-.1-.2.1-.3.3-.7.5-.9.5-.6 1.1-1 1.9-1-.1 0-.2-.1-.3-.1-.7.2-1.3.5-1.8 1-.2.2-.3.5-.4.7 0-.5.3-.9.6-1.2.4-.3.8-.6 1.3-.8l-.1-.1h-.1c-.1 0-.1-.1-.1-.1-.1-.1 0-.2 0-.4 0-.4.1-.8.4-1.1.1-.2.2-.3.4-.5.4-.4.9-.7 1.5-.8l.1-.1c-.1 0-.2.1-.4.1-.6.2-1.1.5-1.5 1 0 .1-.1.3-.2.4-.1 0-.1.1-.2.1-.2.3-.2.6-.3 1 0-.3 0-.6.1-.9-.1 0-.1.1-.2.1v.2c0 .1-.1 0-.2 0 0 .1.1.1.1.2l.1.1c0 .1.1.3 0 .5.1.1.1.2.1.3 0 .1-.1.1-.1.1-.2.1-.3.2-.4.2-.1 0-.1.1-.2.1v.1c-.5.4-.8.9-.9 1.5-.1-.2-.2-.3-.3-.5-.1-.4-.2-.8-.4-1.1-.2 0-.4.1-.6 0-.4.3-.8.6-1.1.9-.3.3-.5.5-.8.7-.1.1-.2.1-.3.1-.4-.1-.9-.1-1.3-.2-.1 0-.2-.1-.2-.2.1-.3 0-.5-.1-.8-.1-.1 0-.3.1-.4l.1-.1h-.5c.2.4.3.8.2 1.2-.2-.4-.5-.9-.8-1.3-.1-.2-.3-.4-.5-.5v.5c.4.4.7.8 1 1.3 0 .1.1.1 0 .2s-.1.1-.2 0c-.4-.1-.8-.1-1.3-.3-.1 0-.2 0-.2-.2 0-.1-.1-.3-.2-.3h-.2c-.3.2-.5.1-.8 0-.1 0-.2-.1-.3-.2-.1-.2-.2-.4-.5-.4s-.3 0-.2.4c-1.1-.4-2.1-.8-3.1-1.2h.9c.5.1 1 .1 1.6 0V51c-.5.1-.9.1-1.4.1-.5 0-.9-.1-1.4-.2-.2 0-.5-.4-.5-.5v-.1h1-.1c-.1 0-.1-.1-.2-.1s-.2-.1-.2-.2-.1-.1-.2-.2-.1-.2 0-.3v-.1c-.1 0-.1 0-.2.1-.2.1-.2.3 0 .4 0 0 .1 0 .1.1 0 0 .1.1.1.2s-.1 0-.2 0c-.4 0-.5-.1-.3-.4.1-.2.3-.4.5-.5v-.1h-.2c-.1 0-.1 0-.1-.1 0-.3.3-.6.6-.6.1-.1.1-.2.2-.3-.1-.2 0-.4.1-.5 0 0 .4.1.6.2h.2v-.6c0-.1.1-.3.3-.1.3.2.6.2.8.5.1.2.2.3.3.5.1.2.2.4.1.6h.2c.1 0 0-.1 0-.1 0 .1-.1 0-.2 0s-.1-.1-.1-.1c0-.4-.1-.9-.4-1.2-.1-.2-.2-.4-.2-.6 0-.3.1-.5.2-.7.1-.1.2-.1.3 0s.2.1.3.2c.4.2.6.6.5 1 0 .1 0 .1-.1.2 0 0 .1-.1.2-.1h.1c0-.3 0-.6-.1-.9v-.4c.1-.1.1-.2.2-.3.1-.1.1-.3.4-.2.3.2.3.3.2.5 0 .1-.1.3 0 .3s.2-.2.2-.3c.1-.4.4-.7.7-1.1.1-.1.1-.1.2 0l.1.1c.1.2.2.2.4.1.1-.1.3-.2.3.1 0 .1.2 0 .2 0 .2-.2.4-.4.6-.5.1 0 .2-.1.2-.1.1 0 .1 0 .1.1 0 .4.1.8.2 1.2 0 .2 0 .3-.2.3h-.3c-.3 0-.5 0-.8.1-.1.1-.2 0-.2 0-.1-.1-.2-.2-.2-.3-.1-.2-.2-.1-.3 0-.3.3-.6.6-.8 1 0 .1-.1.1-.2.1h-.2c-.3-.1-.3-.1-.3.1h.2c.1 0 .2.1.3.1.1.1.2 0 .2-.1.1-.4.4-.6.6-.9.1-.1.2-.2.3 0 .1.2.3.3.1.4-.4.3-.7.6-.8 1 0 0 0 .1-.1.1 0 .1 0 .1.1.2 0-.1.1-.3.2-.3.2-.5.6-.9 1-1 .4-.2.8-.2 1.3-.1.1 0 .1 0 .2.1.2.3.5.6.8.9v-.2c-.3-.2-.5-.6-.7-.9-.1-.1-.2-.3-.2-.5-.1-.2-.2-.4-.2-.5-.1-.6.2-1.3.6-1.7.7-.7 1.8-1.1 2.8-1 .4 0 .8.1 1.3.2.1 0 .1 0 .1.1.1 0 .2.1.3.1v-.4c.1 0 .2.1.2.2 0-.1 0-.1.1-.2v-.1c0-.1-.2-.2-.1-.3.1-.1.3 0 .3.1.1-.1.2-.1.3-.2-.2 0-.4 0-.6-.1-.3-.1-.3-.1-.3.3 0 .2 0 .3-.2.2-.9-.3-2-.3-2.9 0-.9.3-1.6.8-1.8 1.9 0 .1-.1.2-.2.2-.3.1-.5.3-.7.5 0 0-.1.1-.1 0-.1-.2-.2-.1-.3 0-.2.1-.4.1-.5-.1 0 0 0-.1-.1-.1-.1-.1-.2-.1-.3 0-.1.2-.3.3-.5.5-.3.2-.3.2-.6 0-.1-.1-.1-.1-.2 0-.2.2-.4.5-.5.8 0 .1-.1.2-.2.1-.2-.1-.4-.3-.7-.4 0 0-.1-.1-.1 0-.2.3-.5.7-.4 1.1 0 .1.1.3.1.4-.3-.1-.6-.1-.8-.4-.1-.1-.2-.1-.2 0-.1.1-.1.3-.2.4-.1.4-.1.5-.5.3 0 0-.1 0-.1-.1-.1 0-.2 0-.2.1v.1c-.1.2-.1.3 0 .5 0 .1 0 .2-.1.2-.2 0-.4.1-.5.3-.1.2-.3.3-.4.4-.4.3-.6.8-.6 1.3 0 .6.2 1.2.4 1.8.3.7.8 1.3 1.3 1.9.9 1.1 2 2.1 3.2 2.9.9.6 1.9 1.2 2.9 1.7l2.4.9c.1 0 .3.1.2.2-.1.3.1.4.3.4.7.3 1.5.6 2.3.8.9.2 1.9.4 2.8.5 1.2.2 2.3.3 3.5.3 1 0 2 0 3.1-.1.6-.1 1.1-.1 1.7-.2.4-.1.9-.1 1.3-.2.7-.1 1.5-.3 2.2-.5.6-.2 1.2-.5 1.8-.8.1 0 .2-.1.2-.2 0-.5.3-.7.7-.9.4-.2.9-.4 1.3-.6.8-.5 1.6-1.1 2.4-1.7 1.8-1.5 3.4-3.1 4.4-5.2.1-.3.3-.5.3-.8.3-1 .1-1.5-.3-1.9zM5 46.6c.4 0 1 .4 1.1.7-.3-.4-.7-.5-1.1-.7zm-4 4.1c-.1.1-.1 0 0 0-.1-.2-.1-.4 0-.5 0 0 .1 0 .1.1.1.1.2.1.2.2-.1.1-.2.2-.3.2zm-1.1-5.3c0-.1.1 0 .2 0 .2 0 .3.1.5.2h.3c.1 0 .4 0 .5.1 0 .1 0 .1-.1.1-.4.2-.5.5-.5.8v.1s-.1 0-.1-.1c-.2-.3-.4-.6-.7-1-.1 0-.2-.1-.1-.2zm-3.4-1c.3-.1.5 0 .8-.1h.4c.2-.1.2.1.4.1.3.1.5.2.8.3.5.3.9.6 1.2 1 .3.4.5.8.8 1.2 0 0 .1.1 0 .2s-.2 0-.2-.1c-.3-.7-.8-1.2-1.3-1.7-.7-.8-1.8-1.1-2.8-.8-.1 0-.2 0-.2-.1-.2.1 0 .1.1 0zm-4.6-1.7-1.2.9c-.3.2-.7 0-1-.1-.1-.1-.3-.1-.5-.2-.2 0-.4-.1-.5-.3.2-.3.5-.5.8-.6.4-.2.7-.6 1.1-.9.3-.2.6-.1.8.2v.1c.1.3.3.5.5.6.1.2.1.2 0 .3zm-.3-.9c-.1-.3-.3-.7-.3-1.1.1.3.2.6.5.8-.6-.8-.6-1.7-.4-2.7.3.6.6 1.3 1 1.9.2.3.5.6.8.9.1 0 .2.1.1.2s-.1 0-.2 0c-.4 0-.7 0-1-.2.1.1.3.2.4.2.3 0 .7.1 1 .1.3 0 .5.2.7.3.1.1.3 0 .5.2-.7-.1-1.1.3-1.7.3-.6 0-1.2-.4-1.4-.9zm1.1 1.1c0-.1.1-.1.2-.1.5 0 .9-.2 1.4-.3h.6-.1l-.3-.3c-.5-.1-1-.4-1.4-.8-.4-.4-.7-.9-.9-1.4-.2-.4-.4-.8-.5-1.2.3 0 .6 0 .9.2 0 0 .1 0 .1.1.2.1.4.3.5.5 0 0 .1-.1.2-.1v-.1c-.1-.3 0-.3.2-.3.5 0 .9.3 1.2.6l.3.3h.1s.1.1.2.1V40c0-.1-.1-.2-.1-.3.1-.1.3 0 .3.1.3.2.6.4.8.7.1.1.2.3.2.4 0 0 .1 0 .2.1V40.4c.1 0 .1 0 .2.1.3.3.5.5.7.9.1.2.2.3.2.5.2.2.3.5.2.8v.1c0 .1.1.2 0 .3-.1.1-.1 0-.1 0s0 .1-.1.1c.1 0 .2.1.4.1-.9 1.1-1.8.8-2.5.1.2 0 .4 0 .6-.1l-.1-.1h-.2c-.3 0-.7 0-1-.2-.4-.2-.9-.2-1.3-.1-.5.1-.8.1-1.1 0zm3 3.5h-.6c-.4 0-.8 0-1.1.1-.3 0-.5-.1-.6-.4-.1-.3-.3-.6-.6-.7-.2 0-.4 0-.5-.2-.1-.3-.1-.6 0-.8.4-.6 1-.9 1.7-.8 1 .1 1.7.7 2.3 1.5.3.3.1 1.1-.3 1.3h-.3zm3.9 2.5c-.1-.1-.3-.2-.4-.3-.1 0-.2-.1-.3-.2-.1 0-.1-.1-.2-.1s-.1-.1-.2-.1v-.1h.1s-.1-.1-.1-.2c-.2 0-.3-.2-.5-.3-.1 0 0-.1 0-.1h-.1s-.1 0-.1-.1c-.1 0-.2-.1-.2-.1-.4-.3-.8-.5-1.3-.6-.2 0-.2-.1-.1-.3.1-.3.4-.4.6-.5.2-.1.3-.1.5-.2.1-.1.3-.1.4 0 .1.1.3.2.4.3h.1c-.1 0-.1-.1-.2-.1-.3-.3-.7-.3-1-.1h-.1c-.3.2-.3.1-.3-.2 0-.1 0-.3-.1-.4-.1-.1 0-.2.1-.2h.6c1 0 1.7.4 2.3 1.1.3.3.6.7.9 1.1 0 0 .1.1 0 .1H.3s.1.1.1.2h.1c.1 0 .2 0 .3.1.1 0 .1.1.1.1-.2.5 0 1 .3 1.4.2.3.4.6.7.8.1.1.1.2 0 .4s-.3.1-.4 0c-.4-.4-.7-1-.9-1.6 0-.2-.1-.3-.2-.5 0 0 0 .1-.1.1.2.8.5 1.5 1.1 2 0 0 0 .1.1.2-.3-.3-.5-.5-.8-.7-.3-.4-.5-.8-.7-1.3-.1 0-.1.1-.2.1.1.1.2.3.3.4.1.3.4.6.6.9.3.4.2 1.1-.2 1.3v-.3c.1-.9-.2-1.5-.9-2zm.7 3.8c-.1-.2-.2-.4-.2-.6 0-.1 0-.2.1-.2.8.1 1.6-.1 2.5 0 .1 0 .2.1.2.2.1.4.3.7.5 1 .1.2.1.3-.1.3-.7.2-1.4.3-2.2.5-.1 0-.2 0-.2-.1-.2-.5-.4-.8-.6-1.1zm-12.9 1.1c.2-.1.4.2.4.3 0 0-.1.1-.1 0-.1 0-.2-.2-.3-.3zm-4.7-.1c.4-.4.9-.8 1.4-1.1.1-.1.3-.2.4-.4s.2-.1.3 0l.6 1.5c.1.3.2.3-.4.4l-2.3-.2s-.1 0-.1-.1c0 0 0-.1.1-.1zm-4.4-.8c.1 0 .1 0 .1.1s-.1.1-.1.1c-.1 0-.2 0-.3-.1 0-.1.1-.1.3-.1zm-1.9-.6c.1 0 .4.1.3.3 0 .1 0 .1-.1.1s-.2-.2-.2-.4c-.1.1 0 .1 0 0zM.9 59.8c-.3.3-.6.4-.9.6-.7.3-1.5.5-2.2.7-.6.1-1.2.3-1.7.3-1.5.3-3 .4-4.5.3-.9 0-1.8 0-2.7-.2-.7-.1-1.4-.2-2-.4-1.2-.3-2.5-.6-3.7-.9-.3-.1-.5-.1-.8-.3-.1-.1-.2-.1-.1-.2 0-.1.1 0 .2 0 .3 0 .7.1 1 .3.6.2 1.2.3 1.8.4.7.1 1.3.2 2 .3.8.1 1.6.2 2.3.2 1.3 0 2.6.1 3.9.2 1.1 0 2.1-.1 3.2-.3 1.4-.3 2.8-.6 4.2-1.1.1 0 .2-.1.3 0-.1-.1-.2 0-.3.1zm8.2-7.3c-.8 1-1.5 2-2.4 2.8-1.3 1.3-2.9 2.4-4.5 3.3-.9.5-1.8.9-2.8 1.2l-1.2.3c-.6.2-1.3.3-2 .4-.8.1-1.6.2-2.3.2-1.6.1-3.2 0-4.8-.1-1.2-.1-2.4-.3-3.5-.4-.9-.1-1.7-.3-2.6-.5-1-.2-1.9-.5-2.9-.9-.8-.3-1.7-.7-2.4-1.2-1.2-.9-2.5-1.7-3.5-2.7-.9-.9-1.8-2-2.2-3.2 0-.1-.1-.2-.1-.3l.4.4c.4.3.8.6 1.3.8.8.3 1.5.6 2.3.8 1 .3 2 .5 3 .8.9.2 1.9.4 2.8.5 1 .2 2.1.3 3.1.3 2.1.1 4.2 0 6.2 0h4.4c1.1 0 2.1-.1 3.2-.2.5 0 .9 0 1.3-.1l2.7-.3c1.3-.2 2.5-.5 3.7-1 1.2-.4 2.3-1.1 3.3-1.9 0 .3-.2.7-.5 1zm.5-1.3c-.4.5-1 .9-1.6 1.2-1 .5-2.1.8-3.2 1.1-.9.3-1.8.5-2.7.6-.6.1-1.1.1-1.7.2-1.3.1-2.6.1-3.9.2-2.3.2-4.7.3-7 .1-1.2-.1-2.5-.1-3.7-.1-1 0-2.1-.1-3.1-.3-.8-.1-1.5-.2-2.3-.3-.8-.2-1.6-.3-2.4-.5-.7-.2-1.4-.3-2.1-.5-1.2-.3-2.3-.7-3.3-1.4-.4-.3-.7-.6-.8-1.1-.1-.5.1-.8.5-1.2 0 .2 0 .3-.1.5-.2.8.2 1.4.9 1.8.6.3 1.2.5 1.8.7.4.2.9.3 1.3.5l2.1.6c.6.2 1.3.3 1.9.4 1 .2 2 .3 3 .4.5 0 .9.1 1.4.2.5.1.9 0 1.3 0 2.6.3 5.2.2 7.9.1 1.7-.1 3.4 0 5.1-.2 1-.1 1.9-.2 2.9-.4 1.2-.2 2.3-.5 3.5-.9 1.1-.4 2.2-.7 3.2-1.4.5-.3 1-.7 1.2-1.3.1-.2.1-.4.1-.6.3.6.2 1.1-.2 1.6zm-18.3 1c-.1 0-.2-.1-.3-.1-.3 0-.6 0-.8-.3h-.3c-.3-.1-.6-.1-.9-.1-.1.1-.2.2-.4.2h.4c.9.1 1.8.3 2.6.8-.1-.1-.1-.2-.1-.3l-.2-.2zm4.6-2.9c0 .2.1.4.1.6 0 .1 0 .3.1.4h.1c-.1-.3-.1-.6-.2-.9 0 0 0-.1-.1-.1zm-11-.1h-.5c.1 0 .3 0 .4-.1l-.1-.1c-.1.1-.3 0-.3-.1s0-.1.1-.1c-.1-.1-.1-.3-.1-.5V48h-.1v-.2c.1-.2.4-.4.6-.5h.1c.1 0 .2-.1.3-.1l-.1-.1s-.1.1-.2.1c-.3.1-.5.3-.7.5-.2.2-.2.2-.3-.1-.1-.3-.1-.5-.1-.8v-.3c0-.1 0-.2-.2-.2-.4.1-.8.3-1.1.3h-.1c-.1 0-.1.2-.2 0h-.2c0 .1.1.1.1.2.2-.1.3-.1.5-.1 0 0 .1-.1.2-.1.2 0 .4-.1.6-.1.3-.1.3-.1.3.2v.1c0 .3.1.6.2.9.2.6.3 1.1.4 1.7 0 .1.1.3.1.4 0-.1.1-.1.1-.2-.1-.2 0-.2.1-.2h.5-.1c-.1-.2-.1-.2-.2-.2zm-8.9 1h.7c-.1 0-.2 0-.3-.1h-.1c-.3 0-.4-.1-.4-.3 0-.1.1-.3.2-.3v-.2c-.3.2-.4.5-.3.8-.1-.1-.2-.3-.1-.4 0 0-.1.1-.1.2v.2c0 .1.1.2-.1.2-.1 0-.2 0-.2-.1-.1.1-.2.2-.3.2 0 0-.1 0-.1.1v.1c0 .1 0 .3.1.4 0 0 0 .1.1.1s0-.1 0-.1v-.5s0-.1.1-.1.1 0 .1.1v.4s.1 0 .1-.1v-.3c0-.1 0-.2.2-.2.1 0 .3 0 .3.2v.2c.1 0 .1-.1.1-.2-.2-.2-.1-.3 0-.3zm22.4-9.9s-.1-.1 0 0c-.2-.2-.2 0-.3 0-.1.2-.1.3-.1.5 0-.2.2-.4.4-.5zm-22.2 8.1s.1-.1 0 0c.1-.1.1-.2.1-.2v-.1c0-.1 0-.3.2-.3 0-.1.1-.1.1-.2l-.1.1c-.3.1-.3.2-.3.5-.1 0 0 .1 0 .2zm7.8-3.6c-.2.1-.3.2-.5.3-.1.1-.2.1-.3.2-.1.1-.2.2-.3.2v.1s0 .1-.1.1c.3-.3.6-.5 1-.6.1-.1.2-.1.3-.2l-.1-.1zm.7-1.9c.1-.1.2-.1.3-.1h-.7c.1 0 .2.1.4.1zm.4 2.8c-.1-.3-.3-.5-.4-.7h-.2c.1.3.3.5.4.8.1.2.1.4 0 .5-.1.2 0 .4.1.5-.1-.4 0-.8.2-1.1l-.2.1c.2 0 .1 0 .1-.1zm-1.4-2.9h-.4c-.1 0-.2 0-.2.1v.1c.1-.1.3-.2.6-.2zm14.9 16.7c-.1 0-.1 0-.2-.1 0-.1 0-.1.1-.2.4-.5.8-.9 1.3-1.4.5-.5.8-1.2.8-2 0-.2.1-.4.1-.6 0-.2.2-.3.4-.3.8-.1 1.7-.2 2.5-.4s1.5-.3 2.3-.6c.4-.1.7-.3 1-.5.1 0 .1-.1.2 0 0 .1 0 .2-.1.3-.2.2-.4.3-.6.5-.6.4-1.1 1-1.7 1.5-.7.7-1.4 1.3-2.2 1.9-.6.4-1.2.8-1.8 1.1-.3.2-.6.3-1 .5-.4.1-.8.2-1.1.3zm8-5.7h-.2c-.2.1-.4.2-.6.2-.8.2-1.6.5-2.3.6-.8.1-1.5.3-2.3.4-.3 0-.4.2-.4.4-.1.4-.2.8-.3 1.3-.1.3-.3.6-.5.9-.3.4-.6.7-.9 1-.2.2-.4.5-.6.7h.1c.7-.2 1.3-.5 2-.8 1-.5 1.9-1.1 2.7-1.8l2.1-2.1c.4-.3.8-.5 1.2-.8zm-27.9 2.9c-.3-.1-.7-.3-1-.4-.9-.5-1.8-1.2-2.5-2-.2-.2-.4-.4-.5-.7 0 0-.1-.1 0-.1h.1c.5.3 1 .3 1.5.4.2 0 .2 0 .3.2 0 .4.3.6.5.9.5.6 1.1 1 1.7 1.6l.1.1h-.2zm-3.8-3c1 1.3 2.3 2.3 3.7 2.9 0-.1-.1-.1-.2-.2-.4-.3-.9-.7-1.2-1.1-.3-.4-.7-.7-.8-1.1 0-.2-.1-.2-.3-.2-.3-.1-.7-.2-1.2-.3zm13.3-.1c-.1-.1-.1-.1-.2-.1h-.1v.1c.2.1.3.2.4.4h.1c0-.1-.1-.2-.2-.4zm-10.5-1-.1-.1s-.1 0-.1-.1c-.1 0-.2-.1-.3-.1.1.2.3.3.5.3 0 .1 0 .1 0 0zm-3.5-1.7s-.1 0-.1-.1 0-.1.1-.1h.1s-.2-.2 0-.1c.1 0 .1.1.1.2s-.1.1-.2.1z"/><path d="M-10 48.4c.1-.1.2-.1.4-.1-.1 0-.3-.1-.4-.1 0 0 0 .1-.1.1s-.2-.1-.2-.2l-.2.1c0 .1 0 .1-.1.1s-.3.1-.4.2l-.5.4c.3-.2.6-.3 1-.4.2 0 .4-.1.5-.1zm7.5-.4c.3.1.5.4.6.6 0 .1 0 .1.1.2 0 0 .1 0 .2.1 0-.1-.1-.1-.1-.2-.3-.4-.6-.7-1-.9 0 0 0 .1.1.1l.1.1zm-11.3-3.7s.1 0 0 0c.3.3.6.5.8.7-.4.1-.7.2-1 .3h-.2c-.2-.1-.3-.2-.5-.2h-.2c.2.1.4.2.5.3 0 0 .1.1 0 .1l-.1.1c.1 0 .3-.1.5 0 .1-.1.3-.1.4-.2.5-.2 1-.4 1.6-.3.4 0 .7.1 1.1.1 0 0 .1 0 .2-.1h-.2c-.2 0-.3-.3-.3-.5s-.1-.3-.2-.5c0 .1-.1.2-.1.3l-.1.1h.1c.2 0 .3.2.3.4 0 0 0 .1-.1.1-.4-.1-.8 0-1.2-.1-.4-.1-.8-.3-1-.6l-.3-.3c.1.1 0 .2 0 .3zM5.9 48c-.1-.3-.3-.5-.5-.7-.1 0-.2-.1-.2-.2.2.3.5.6.7.9zm-7.4-7.8s.1 0 .1-.1c.1-.1.1-.2.3-.3 0 0 .1-.1.2-.1s0 .1 0 .2l-.1.1h.1c.1-.3.3-.6.5-.8 0 .3-.1.5-.2.8h.2v-.1c0-.1 0-.1.1-.2.1 0 .1.1.1.1 0 .2.1.2.2.1s.2 0 .2.1.1.3.2.4c.1.3.1.3-.1.5v.1c.2-.1.2-.1.3.1.1.3-.1.5-.2.7.1 0 .1-.1.2 0v.3c-.1.1-.2.3-.3.4h.3l.1-.1v-.1H.6c.1-.3.3-.6.3-1 0-.5-.2-1-.5-1.5-.1-.2-.2-.3-.3-.1-.1-.2-.1-.4-.2-.7 0-.1 0-.1-.1-.2-.1 0-.1 0-.2.1l-.3.3c-.1.1-.1.3-.3.1h-.1c-.1.4-.3.6-.4.9zm-.2 2.3c-.1-.2-.2-.5-.2-.7-.1-.1-.1-.3-.2-.5v.4c0 .3.1.7.3 1 0-.1 0-.1.1-.2zm-20.4 7c.2.1.4.2.6.2.2 0 .5.1.7.1-.1-.1-.1-.2-.2-.3l-.4-.4-.1-.1-.2-.2v.1c.1.2.3.4.4.6 0 0 .1.1.1.2-.3-.1-.5-.1-.9-.2.1 0 .1 0 0 0zm-.4.6c-.2.1-.4.2-.7.1.9.1 1.7.4 2.4.9.1 0 .1.1.2.2V51c0-.1.1-.2.1-.3 0 0 0-.1.1-.1-.7-.3-1.4-.4-2.1-.5zm1.5.4c.2 0 .3.1.5.1.1 0 .1.1 0 .2s-.2.2-.4.1c-.3-.2-.6-.4-1-.5.3 0 .6 0 .9.1zm2.2-1.6c0 .3-.2.6-.4.8v.1h.5c-.1-.2 0-.4.1-.5.1-.3.3-.5.4-.8v-.2c-.3.2-.4.4-.6.6zm-3.5 1-.1.1h.1c.6.1 1.3.2 1.9.3h.3c.1 0 .2-.1.2-.1l.1-.1h-.3.1c-.4-.1-.8-.1-1.3-.2-.2.1-.6 0-1 0zm5.2.8h-.3c-.1 0-.2.1-.2.1h-.4v.2c0 .1-.1.3-.2.4l-.1.1c.2-.1.3-.3.5-.4.1-.1.3-.1.5-.1.2.1.4.1.6.2V51c-.1-.1-.2-.1-.3-.2-.1 0-.1-.1-.1-.1zm21.4-6c0-.1-.1-.2 0-.2.2-.1.1-.2 0-.3-.4-.5-.8-1.1-1.6-1.3.1-.1.3 0 .3-.2-.2-.1-.5-.2-.7-.3-.2 0-.4 0-.5-.1-.1-.1-.3-.1-.4-.1.1 0 .2 0 .2.1 0 .3.2.2.4.2h.5c.1 0 .3.1.4.2-.1.1-.3 0-.2.2 0 .1-.1.1-.1.1-.2 0-.3 0-.5.1l.1.1c.2 0 .5-.1.7 0 .4 0 .7.3.9.5.1.1.2.3.4.4l.1.1h-.4c-.3.1-.5 0-.8 0v.2c.4 0 .8.3.8.7 0 .1.1.3.1.4 0 0 .1 0 .1.1 0-.3-.1-.5-.2-.7l-.3-.3s-.1 0 0-.1.1 0 .1 0c.3-.2.5-.2.6.2-.1.3.1.5 0 .7v.2c-.1 0-.1 0-.2.1l.1.2s.1 0 .1-.1c0 0 0-.1.1-.1.2-.4.1-.7-.1-1zm-8.4 7.7h.3c0 .1 0 .1-.1.2.1.1.1.2.2.3.3-.5.7-.8 1.4-.8h.2s-.1 0-.1-.1c-.2 0-.4 0-.6.1-.2 0-.4.1-.6.2h-.1c-.2 0-.3.1-.6.1zm-.8-.2h.3l-.6-.3c-.2 0-.4 0-.6-.1-.5-.2-.9-.5-1.2-1h-.1c-.2-.3-.3-.6-.3-1 0-.2 0-.3.1-.4.1-.2.3 0 .4 0 .6-.1 1.1-.1 1.7-.2.3-.1.7 0 1-.1h.1s0-.1-.1-.1h-.6c-.7.1-1.3.1-2 .2H-7s-.1 0-.1-.1h-.2c-.2.5-.2 1.1.1 1.6 0 .1.1.1.1.2-.2-.1-.3-.3-.4-.5-.2-.5-.3-1-.1-1.4l-.1-.1c-.3.6-.1 1.6.4 2 .5.4 1 .7 1.6 1 .1.1.4.2.8.3zm14.6-3.1s-.2-.1-.1-.2c.1-.2 0-.2-.2-.2-.1 0-.1 0-.2-.1-.6-.4-1.3-.6-2-.9-.3-.2-.7-.2-1-.6-.2-.3-.5-.5-.9-.6-.3-.1-.7-.2-1-.4l.1.2s0 .1.1.1c.4.2.9.5 1.3.7.4.2.6.6.6 1 .1 0 .2-.1.4-.1 0-.1.1 0 .1 0 .2 0 .4.1.5.2h.3l-.1-.1c-.3-.1-.5-.3-.8-.3 0 0-.1 0-.1-.1 0 0-.1 0-.1-.1s.1 0 .1 0c.2 0 .4.1.5.2.3.1.6.3.8.4.1 0 .3.1.4.2l.4.2.1.1c.5.2.7.8.6 1.2v.2c-.2.4-.5.7-.9 1-.2.1-.4.3-.6.4-.2.1-.3.3-.5.4-.3.3-.7.3-1.1.2l-.1.1c-.1 0-.2.1-.2 0s.1-.1.1-.2l-.1-.1c-.1 0-.2 0-.3-.2v-.4c-.1 0-.2-.1-.3-.2-.2-.2-.1-.3.1-.4h.1v-.1h-.1c-.1 0-.2 0-.3-.1 0-.1-.2-.2.1-.2h.1l-.2-.1c0 .1-.1.2-.2.3.2.6.6 1.1.6 1.7 0 .1-.1.3-.2.3-.7.3-1.4.5-2.1.6-.1 0-.2 0-.2-.1-.1-.3-.3-.6-.4-.9.2-.1.2-.3.3-.4.1-.1.2-.1.2-.3.1 0 .1-.1.2-.1.3-.2.5-.3.7-.4h-.1c-.3.2-.5.3-.7.5v.1h-.1c-.2.3-.5.3-.9.2h-2c-.1 0-.2 0-.2-.1s.1-.1.1-.2c.5-.4.9-.9 1.5-1.3.3 0 .6-.1.9-.1l-.1-.1h-.3c-.1 0-.1 0-.1-.1-.4-.4-.8-.8-1-1.3-.2-.1-.2-.3-.2-.4 0-.2.1-.4.3-.5v-.5c-.1-.1-.1-.3-.1-.5 0-.1 0-.2.1-.3V46c-.4.4-.3.8-.1 1.3-.2-.1-.3-.6-.3-1 0-.2.2-.4.4-.5.1-.1.1-.2.3-.3-.2-.1-.4-.2-.5-.4-.1 0-.2.1-.3.1 0 .1 0 .1-.1.1s-.3-.1-.4-.1l-.3-.1h-.1c-.1 0-.1.2-.2.1-.2-.2-.4-.3-.5-.5 0-.1-.1-.2-.2-.3-.1 0-.2-.1-.2-.1.1.1.2.3.2.4-.2 0-.3-.1-.5-.2s-.3-.1-.5-.2c.1-.1.3-.3.5-.3-.1-.1-.1-.2-.2-.3-.1 0-.1.1-.2.1-.2.2-.7.4-1.1.3-.2 0-.4 0-.6.1-.1 0-.3 0-.4-.1-.5-.4-1-.8-1.7-.9h-.4c-.1 0-.2-.1-.2-.2s.1-.1.2-.1h.4c.5 0 1 .2 1.4.6.4.4.9.6 1.4.5.3 0 .6-.3.8-.4.1-.1.2-.2.3-.2 0-.2-.1-.3-.1-.5v-.2c-.1-.5-.2-.9-.4-1.3-.2-.5-.5-.9-.9-1.2-.1-.1-.2-.1-.2 0-.1.4-.2.1-.3 0l-.2-.2c-.3-.4-.8-.6-1.3-.6-.1 0-.2 0-.2-.1-.4-.3-.8-.6-1.4-.5-.1 0-.2 0-.2.1 0 .3-.2.1-.2 0-.2-.2-.5-.3-.8-.4-.2 0-.5-.1-.5-.3 0-.1-.1-.1-.2-.1s-.1.1 0 .2c.1.2.1.3 0 .5-.1.6-.1 1.2-.1 1.8 0 .2 0 .4.1.6 0 0 .1.1 0 .2s-.1 0-.2 0c-.2-.2-.4-.1-.6 0l-.3.3c-.4.4-.9.7-1.6.6-.4-.1-.8 0-1.1-.1l.1.1h.5c.3 0 .6 0 1 .1-.2.2-.4.3-.7.2 0 0 .1.1.1.2.1.2.1.3.2.5.3.1.7.2 1 .3.2.1.4.1.6.2.1 0 .3.2.3.3 0 .3.1.6.2.9v.1l.2.1V45c0-.3-.2-.5-.2-.8-.1-.3.1-.6.4-.8.3-.1.5-.3.7-.5.1-.2.4-.2.5-.1.3.2.5.4.9.4.1 0 .1.1.2.2-.4.1-.7.3-1 .6-.3.3-.5.7-.3 1.1 0 .2 0 .3-.2.3h-.4c.3 0 .6 0 1 .1.1 0 .3.1.4.2.1.1.1.1 0 .2s-.3.1-.4.2c0 .1.1.1.1.2.1-.1.3-.1.4-.2h.2s.1 0 .1.1 0 .1-.1.1l-.5.3v.2l.1-.1c.3-.2.4-.2.7.1-.5.2-.9.4-1.2.8-.2.4-.5.7-1 .9h.2c-.2 0-.4 0-.5.1.1 0 .1 0 .2.1h.2c.1 0 .2 0 .1.1v.1c.2.3.2.7.1 1 .1.2.2.4.2.5v.2s0 .1.1.1c0 .1.1.1.1.2.1.2.2.4.1.6 0 .1.1.1.2.2.1-.1.2-.1.4-.2-.6-.5-.8-.8-1-1.1-.2-.4-.3-.9-.2-1.4 0-.3.1-.6.2-.9V48c0-.3.1-.5.3-.7.2-.2.5-.4.8-.5H-6.3c.1-.1.3-.2.5-.2h.1c.3-.1.5-.2.8-.3.3-.1.6 0 .8.1.8.2 1.8.6 2 1-.6-.4-1.2-.7-1.9-.8l.1.1c.5.1 1.1.4 1.5.7.5.4.9 1 1.2 1.5l.1.1c.1.1.2.3.3.5v.2c0 .1.1.2.1.3v.2l.1.1c0-.2 0-.3-.1-.5-.1-.4-.3-.8-.5-1.2-.1-.1-.1-.2-.1-.3.5.1.8.5 1.1.8.6.6.7 1.2.5 2 0 .1 0 .1-.1.2-.1.2-.2.2-.3 0 0 .1 0 .1-.1.2.2.2.2.4.2.5l-.2-.2c-.1.1-.2.3-.4.4.4.2.6.5.9.8.2.2.3.5.3.7 0 .2 0 .2-.2.2-.6.1-1.3.2-2 .2h-.8v.1h-1.2c-.2 0-.3-.1-.3-.3v-.1c0 .2-.1.3-.2.3H-5c0 .1 0 .1-.2.1h-.1c-.3 0-.4 0-.4-.2H-6v.1c0 .1-.2 0-.2.1-.5.1-.7-.1-.9-.5-.1-.1-.1-.3-.2-.4-.1 0-.1 0 0 0-.1 0-.2 0-.2-.1h-.1c.1.1.1.2.2.3.1.2.2.3.3.5.1.1 0 .2-.1.2h-.1c-.6 0-1.3.1-1.9.1h-.1c0-.1.2-.2.1-.3-.3.5-.9.6-1.3.4-.4 0-.8 0-1.2-.1-.1 0-.1 0-.2-.1 0-.2-.1-.3-.3-.4-.1-.1-.3-.1-.4-.1-.1 0-.1.1 0 .2v.1c.1.1.3.2.2.3 0 .1-.3 0-.4 0-.4 0-.8 0-1.1-.1-.2 0-.2-.1-.1-.2.1-.3.3-.7.5-.9.5-.6 1.1-1 1.9-1-.1 0-.2-.1-.3-.1-.7.2-1.3.5-1.8 1-.2.2-.3.5-.4.7 0-.5.3-.9.6-1.2.4-.3.8-.6 1.3-.8l-.1-.1h-.1c-.1 0-.1-.1-.1-.1-.1-.1 0-.2 0-.4 0-.4.1-.8.4-1.1.1-.2.2-.3.4-.5.4-.4.9-.7 1.5-.8l.1-.1c-.1 0-.2.1-.4.1-.6.2-1.1.5-1.5 1 0 .1-.1.3-.2.4-.1 0-.1.1-.2.1-.2.3-.2.6-.3 1 0-.3 0-.6.1-.9-.1 0-.1.1-.2.1v.2c0 .1-.1 0-.2 0 0 .1.1.1.1.2l.1.1c0 .1.1.3 0 .5.1.1.1.2.1.3 0 .1-.1.1-.1.1-.2.1-.3.2-.4.2-.1 0-.1.1-.2.1v.1c-.5.4-.8.9-.9 1.5-.1-.2-.2-.3-.3-.5-.1-.4-.2-.8-.4-1.1-.2 0-.4.1-.6 0-.4.3-.8.6-1.1.9-.3.3-.5.5-.8.7-.1.1-.2.1-.3.1-.4-.1-.9-.1-1.3-.2-.1 0-.2-.1-.2-.2.1-.3 0-.5-.1-.8-.1-.1 0-.3.1-.4l.1-.1h-.5c.2.4.3.8.2 1.2-.2-.4-.5-.9-.8-1.3-.1-.2-.3-.4-.5-.5v.5c.4.4.7.8 1 1.3 0 .1.1.1 0 .2s-.1.1-.2 0c-.4-.1-.8-.1-1.3-.3-.1 0-.2 0-.2-.2 0-.1-.1-.3-.2-.3h-.2c-.3.2-.5.1-.8 0-.1 0-.2-.1-.3-.2-.1-.2-.2-.4-.5-.4s-.3 0-.2.4c-1.1-.4-2.1-.8-3.1-1.2h.9c.5.1 1 .1 1.6 0V51c-.5.1-.9.1-1.4.1-.5 0-.9-.1-1.4-.2-.2 0-.5-.4-.5-.5v-.1h1-.1c-.1 0-.1-.1-.2-.1s-.2-.1-.2-.2-.1-.1-.2-.2-.1-.2 0-.3v-.1c-.1 0-.1 0-.2.1-.2.1-.2.3 0 .4 0 0 .1 0 .1.1 0 0 .1.1.1.2s-.1 0-.2 0c-.4 0-.5-.1-.3-.4.1-.2.3-.4.5-.5v-.1h-.2c-.1 0-.1 0-.1-.1 0-.3.3-.6.6-.6.1-.1.1-.2.2-.3-.1-.2 0-.4.1-.5 0 0 .4.1.6.2h.2v-.6c0-.1.1-.3.3-.1.3.2.6.2.8.5.1.2.2.3.3.5.1.2.2.4.1.6h.2c.1 0 0-.1 0-.1 0 .1-.1 0-.2 0s-.1-.1-.1-.1c0-.4-.1-.9-.4-1.2-.1-.2-.2-.4-.2-.6 0-.3.1-.5.2-.7.1-.1.2-.1.3 0s.2.1.3.2c.4.2.6.6.5 1 0 .1 0 .1-.1.2 0 0 .1-.1.2-.1h.1c0-.3 0-.6-.1-.9v-.4c.1-.1.1-.2.2-.3.1-.1.1-.3.4-.2.3.2.3.3.2.5 0 .1-.1.3 0 .3s.2-.2.2-.3c.1-.4.4-.7.7-1.1.1-.1.1-.1.2 0l.1.1c.1.2.2.2.4.1.1-.1.3-.2.3.1 0 .1.2 0 .2 0 .2-.2.4-.4.6-.5.1 0 .2-.1.2-.1.1 0 .1 0 .1.1 0 .4.1.8.2 1.2 0 .2 0 .3-.2.3h-.3c-.3 0-.5 0-.8.1-.1.1-.2 0-.2 0-.1-.1-.2-.2-.2-.3-.1-.2-.2-.1-.3 0-.3.3-.6.6-.8 1 0 .1-.1.1-.2.1h-.2c-.3-.1-.3-.1-.3.1h.2c.1 0 .2.1.3.1.1.1.2 0 .2-.1.1-.4.4-.6.6-.9.1-.1.2-.2.3 0 .1.2.3.3.1.4-.4.3-.7.6-.8 1 0 0 0 .1-.1.1 0 .1 0 .1.1.2 0-.1.1-.3.2-.3.2-.5.6-.9 1-1 .4-.2.8-.2 1.3-.1.1 0 .1 0 .2.1.2.3.5.6.8.9v-.2c-.3-.2-.5-.6-.7-.9-.1-.1-.2-.3-.2-.5-.1-.2-.2-.4-.2-.5-.1-.6.2-1.3.6-1.7.7-.7 1.8-1.1 2.8-1 .4 0 .8.1 1.3.2.1 0 .1 0 .1.1.1 0 .2.1.3.1v-.4c.1 0 .2.1.2.2 0-.1 0-.1.1-.2v-.1c0-.1-.2-.2-.1-.3.1-.1.3 0 .3.1.1-.1.2-.1.3-.2-.2 0-.4 0-.6-.1-.3-.1-.3-.1-.3.3 0 .2 0 .3-.2.2-.9-.3-2-.3-2.9 0-.9.3-1.6.8-1.8 1.9 0 .1-.1.2-.2.2-.3.1-.5.3-.7.5 0 0-.1.1-.1 0-.1-.2-.2-.1-.3 0-.2.1-.4.1-.5-.1 0 0 0-.1-.1-.1-.1-.1-.2-.1-.3 0-.1.2-.3.3-.5.5-.3.2-.3.2-.6 0-.1-.1-.1-.1-.2 0-.2.2-.4.5-.5.8 0 .1-.1.2-.2.1-.2-.1-.4-.3-.7-.4 0 0-.1-.1-.1 0-.2.3-.5.7-.4 1.1 0 .1.1.3.1.4-.3-.1-.6-.1-.8-.4-.1-.1-.2-.1-.2 0-.1.1-.1.3-.2.4-.1.4-.1.5-.5.3 0 0-.1 0-.1-.1-.1 0-.2 0-.2.1v.1c-.1.2-.1.3 0 .5 0 .1 0 .2-.1.2-.2 0-.4.1-.5.3-.1.2-.3.3-.4.4-.4.3-.6.8-.6 1.3 0 .6.2 1.2.4 1.8.3.7.8 1.3 1.3 1.9.9 1.1 2 2.1 3.2 2.9.9.6 1.9 1.2 2.9 1.7l2.4.9c.1 0 .3.1.2.2-.1.3.1.4.3.4.7.3 1.5.6 2.3.8.9.2 1.9.4 2.8.5 1.2.2 2.3.3 3.5.3 1 0 2 0 3.1-.1.6-.1 1.1-.1 1.7-.2.4-.1.9-.1 1.3-.2.7-.1 1.5-.3 2.2-.5.6-.2 1.2-.5 1.8-.8.1 0 .2-.1.2-.2 0-.5.3-.7.7-.9.4-.2.9-.4 1.3-.6.8-.5 1.6-1.1 2.4-1.7 1.8-1.5 3.4-3.1 4.4-5.2.1-.3.3-.5.3-.8.3-1 .1-1.5-.3-1.9zM5 46.6c.4 0 1 .4 1.1.7-.3-.3-.7-.5-1.1-.7zm-4 4.1c-.1.1-.1 0 0 0-.1-.2-.1-.4 0-.5 0 0 .1 0 .1.1.1.1.2.1.2.2-.1.1-.2.2-.3.2zm-1.1-5.2c0-.1.1 0 .2 0 .2 0 .3.1.5.2h.3c.1 0 .4 0 .5.1 0 .1 0 .1-.1.1-.4.2-.5.5-.5.8v.1s-.1 0-.1-.1c-.2-.3-.4-.6-.7-1-.1-.1-.2-.2-.1-.2zm-3.4-1c.3-.1.5 0 .8-.1h.4c.2-.1.2.1.4.1.3.1.5.2.8.3.5.3.9.6 1.2 1 .3.4.5.8.8 1.2 0 0 .1.1 0 .2s-.2 0-.2-.1c-.3-.7-.8-1.2-1.3-1.7-.7-.8-1.8-1.1-2.8-.8-.1 0-.2 0-.2-.1h.1zm-4.6-1.8-1.2.9c-.3.2-.7 0-1-.1-.1-.1-.3-.1-.5-.2-.2 0-.4-.1-.5-.3.2-.3.5-.5.8-.6.4-.2.7-.6 1.1-.9.3-.2.6-.1.8.2v.1c.1.3.3.5.5.6.1.2.1.2 0 .3zm-.3-.9c-.1-.3-.3-.7-.3-1.1.1.3.2.6.5.8-.6-.8-.6-1.7-.4-2.7.3.6.6 1.3 1 1.9.2.3.5.6.8.9.1 0 .2.1.1.2 0 .1-.1 0-.2 0-.4 0-.7 0-1-.2.1.1.3.2.4.2.3 0 .7.1 1 .1.3 0 .5.2.7.3.1.1.3 0 .5.2-.7-.1-1.1.3-1.7.3-.6 0-1.2-.4-1.4-.9zm1.1 1.1c0-.1.1-.1.2-.1.5 0 .9-.2 1.4-.3h.6-.1l-.3-.3c-.5-.1-1-.4-1.4-.8-.4-.4-.7-.9-.9-1.4-.2-.4-.4-.8-.5-1.2.3 0 .6 0 .9.2 0 0 .1 0 .1.1.2.1.4.3.5.5 0 0 .1-.1.2-.1v-.1c-.1-.3 0-.3.2-.3.5 0 .9.3 1.2.6l.3.3h.1s.1.1.2.1V40c0-.1-.1-.2-.1-.3.1-.1.3 0 .3.1.3.2.6.4.8.7.1.1.2.3.2.4 0 0 .1 0 .2.1V40.4c.1 0 .1 0 .2.1.3.3.5.5.7.9.1.2.2.3.2.5.2.2.3.5.2.8v.1c0 .1.1.2 0 .3-.1.1-.1 0-.1 0s0 .1-.1.1c.1 0 .2.1.4.1-.9 1.1-1.8.8-2.5.1.2 0 .4 0 .6-.1l-.1-.1h-.2c-.3 0-.7 0-1-.2-.4-.2-.9-.2-1.3-.1-.5.2-.8.1-1.1 0zm3 3.5h-.6c-.4 0-.8 0-1.1.1-.3 0-.5-.1-.6-.4-.1-.3-.3-.6-.6-.7-.2 0-.4 0-.5-.2-.1-.3-.1-.6 0-.8.4-.6 1-.9 1.7-.8 1 .1 1.7.7 2.3 1.5.3.3.1 1.1-.3 1.3h-.3zm3.9 2.5c-.1-.1-.3-.2-.4-.3-.1 0-.2-.1-.3-.2-.1 0-.1-.1-.2-.1s-.1-.1-.2-.1v-.1h.1s-.1-.1-.1-.2c-.2 0-.3-.2-.5-.3-.1 0 0-.1 0-.1h-.1s-.1 0-.1-.1c-.1 0-.2-.1-.2-.1-.4-.3-.8-.5-1.3-.6-.2 0-.2-.1-.1-.3.1-.3.4-.4.6-.5.2-.1.3-.1.5-.2.1-.1.3-.1.4 0 .1.1.3.2.4.3h.1c-.1 0-.1-.1-.2-.1-.3-.3-.7-.3-1-.1h-.1c-.3.2-.3.1-.3-.2 0-.1 0-.3-.1-.4-.1-.1 0-.2.1-.2h.6c1 0 1.7.4 2.3 1.1.3.3.6.7.9 1.1 0 0 .1.1 0 .1H.3s.1.1.1.2h.1c.1 0 .2 0 .3.1.1 0 .1.1.1.1-.2.5 0 1 .3 1.4.2.3.4.6.7.8.1.1.1.2 0 .4s-.3.1-.4 0c-.4-.4-.7-1-.9-1.6 0-.2-.1-.3-.2-.5 0 0 0 .1-.1.1.2.8.5 1.5 1.1 2 0 0 0 .1.1.2-.3-.3-.5-.5-.8-.7-.3-.4-.5-.8-.7-1.3-.1 0-.1.1-.2.1.1.1.2.3.3.4.1.3.4.6.6.9.3.4.2 1.1-.2 1.3v-.3c.1-.8-.2-1.5-.9-2zm.7 3.8c-.1-.2-.2-.4-.2-.6 0-.1 0-.2.1-.2.8.1 1.6-.1 2.5 0 .1 0 .2.1.2.2.1.4.3.7.5 1 .1.2.1.3-.1.3-.7.2-1.4.3-2.2.5-.1 0-.2 0-.2-.1-.2-.5-.4-.8-.6-1.1zm-12.9 1.1c.2-.1.4.2.4.3 0 0-.1.1-.1 0-.1 0-.2-.2-.3-.3zm-4.7-.1c.4-.4.9-.8 1.4-1.1.1-.1.3-.2.4-.4s.2-.1.3 0l.6 1.5c.1.3.2.3-.4.4l-2.3-.2s-.1 0-.1-.1c0 0 0-.1.1-.1zm-4.4-.8c.1 0 .1 0 .1.1s-.1.1-.1.1c-.1 0-.2 0-.3-.1 0-.1.1-.1.3-.1zm-1.9-.6c.1 0 .4.1.3.3 0 .1 0 .1-.1.1s-.2-.2-.2-.4c-.1.1 0 .1 0 0zM.9 59.8c-.3.3-.6.4-.9.6-.7.3-1.5.5-2.2.7-.6.1-1.2.3-1.7.3-1.5.3-3 .4-4.5.3-.9 0-1.8 0-2.7-.2-.7-.1-1.4-.2-2-.4-1.2-.3-2.5-.6-3.7-.9-.3-.1-.5-.1-.8-.3-.1-.1-.2-.1-.1-.2 0-.1.1 0 .2 0 .3 0 .7.1 1 .3.6.2 1.2.3 1.8.4.7.1 1.3.2 2 .3.8.1 1.6.2 2.3.2 1.3 0 2.6.1 3.9.2 1.1 0 2.1-.1 3.2-.3 1.4-.3 2.8-.6 4.2-1.1.1 0 .2-.1.3 0-.1-.1-.2 0-.3.1zm8.2-7.3c-.8 1-1.5 2-2.4 2.8-1.3 1.3-2.9 2.4-4.5 3.3-.9.5-1.8.9-2.8 1.2l-1.2.3c-.6.2-1.3.3-2 .4-.8.1-1.6.2-2.3.2-1.6.1-3.2 0-4.8-.1-1.2-.1-2.4-.3-3.5-.4-.9-.1-1.7-.3-2.6-.5-1-.2-1.9-.5-2.9-.9-.8-.3-1.7-.7-2.4-1.2-1.2-.9-2.5-1.7-3.5-2.7-.9-.9-1.8-2-2.2-3.2 0-.1-.1-.2-.1-.3l.4.4c.4.3.8.6 1.3.8.8.3 1.5.6 2.3.8 1 .3 2 .5 3 .8.9.2 1.9.4 2.8.5 1 .2 2.1.3 3.1.3 2.1.1 4.2 0 6.2 0h4.4c1.1 0 2.1-.1 3.2-.2.5 0 .9 0 1.3-.1l2.7-.3c1.3-.2 2.5-.5 3.7-1 1.2-.4 2.3-1.1 3.3-1.9 0 .3-.2.7-.5 1zm.5-1.3c-.4.5-1 .9-1.6 1.2-1 .5-2.1.8-3.2 1.1-.9.3-1.8.5-2.7.6-.6.1-1.1.1-1.7.2-1.3.1-2.6.1-3.9.2-2.3.2-4.7.3-7 .1-1.2-.1-2.5-.1-3.7-.1-1 0-2.1-.1-3.1-.3-.8-.1-1.5-.2-2.3-.3-.8-.2-1.6-.3-2.4-.5-.7-.2-1.4-.3-2.1-.5-1.2-.3-2.3-.7-3.3-1.4-.4-.3-.7-.6-.8-1.1-.1-.5.1-.8.5-1.2 0 .2 0 .3-.1.5-.2.8.2 1.4.9 1.8.6.3 1.2.5 1.8.7.4.2.9.3 1.3.5l2.1.6c.6.2 1.3.3 1.9.4 1 .2 2 .3 3 .4.5 0 .9.1 1.4.2.5.1.9 0 1.3 0 2.6.3 5.2.2 7.9.1 1.7-.1 3.4 0 5.1-.2 1-.1 1.9-.2 2.9-.4 1.2-.2 2.3-.5 3.5-.9 1.1-.4 2.2-.7 3.2-1.4.5-.3 1-.7 1.2-1.3.1-.2.1-.4.1-.6.3.6.2 1.1-.2 1.6zm-18.3 1c-.1 0-.2-.1-.3-.1-.3 0-.6 0-.8-.3h-.3c-.3-.1-.6-.1-.9-.1-.1.1-.2.2-.4.2h.4c.9.1 1.8.3 2.6.8-.1-.1-.1-.2-.1-.3l-.2-.2zm4.6-2.9c0 .2.1.4.1.6 0 .1 0 .3.1.4h.1c-.1-.3-.1-.6-.2-.9 0 0 0-.1-.1-.1zm-11-.1h-.5c.1 0 .3 0 .4-.1l-.1-.1c-.1.1-.3 0-.3-.1s0-.1.1-.1c-.1-.1-.1-.3-.1-.5V48h-.1v-.2c.1-.2.4-.4.6-.5h.1c.1 0 .2-.1.3-.1l-.1-.1s-.1.1-.2.1c-.3.1-.5.3-.7.5-.2.2-.2.2-.3-.1-.1-.3-.1-.5-.1-.8v-.3c0-.1 0-.2-.2-.2-.4.1-.8.3-1.1.3h-.2c-.1 0-.1.2-.2 0h-.2c0 .1.1.1.1.2.2-.1.3-.1.5-.1 0 0 .1-.1.2-.1.2 0 .4-.1.6-.1.3-.1.3-.1.3.2v.1c0 .3.1.6.2.9.2.6.3 1.1.4 1.7 0 .1.1.3.1.4 0-.1.1-.1.1-.2-.1-.2 0-.2.1-.2h.5c0-.1 0-.1-.2-.2.1 0 .1 0 0 0zm-8.9 1h.7c-.1 0-.2 0-.3-.1h-.1c-.3 0-.4-.1-.4-.3 0-.1.1-.3.2-.3v-.2c-.3.2-.4.5-.3.8-.1-.1-.2-.3-.1-.4 0 0-.1.1-.1.2v.2c0 .1.1.2-.1.2-.1 0-.2 0-.2-.1-.1.1-.2.2-.3.2 0 0-.1 0-.1.1v.1c0 .1 0 .3.1.4 0 0 0 .1.1.1s0-.1 0-.1v-.5s0-.1.1-.1.1 0 .1.1v.4s.1 0 .1-.1v-.3c0-.1 0-.2.2-.2.1 0 .3 0 .3.2v.2c.1 0 .1-.1.1-.2-.2-.2-.1-.3 0-.3zm22.4-9.9s-.1-.1 0 0c-.2-.2-.2 0-.3 0-.1.2-.1.3-.1.5 0-.2.2-.4.4-.5zm-22.2 8.1s.1-.1 0 0c.1-.1.1-.2.1-.2v-.1c0-.1 0-.3.2-.3 0-.1.1-.1.1-.2l-.1.1c-.3.1-.3.2-.3.5-.1 0 0 .1 0 .2zm7.8-3.6c-.2.1-.3.2-.5.3-.1.1-.2.1-.3.2-.1.1-.2.2-.3.2v.1s0 .1-.1.1c.3-.3.6-.5 1-.6.1-.1.2-.1.3-.2l-.1-.1zm.7-1.9c.1-.1.2-.1.3-.1h-.7c.1 0 .2.1.4.1zm.4 2.9c-.1-.3-.3-.5-.4-.7h-.2c.1.3.3.5.4.8.1.2.1.4 0 .5-.1.2 0 .4.1.5-.1-.4 0-.8.2-1.1l-.2.1c.2-.1.1-.1.1-.1zm-1.4-3h-.4c-.1 0-.2 0-.2.1v.1c.1-.1.3-.2.6-.2zm14.9 16.7c-.1 0-.1 0-.2-.1 0-.1 0-.1.1-.2.4-.5.8-.9 1.3-1.4.5-.5.8-1.2.8-2 0-.2.1-.4.1-.6 0-.2.2-.3.4-.3.8-.1 1.7-.2 2.5-.4s1.5-.3 2.3-.6c.4-.1.7-.3 1-.5.1 0 .1-.1.2 0 0 .1 0 .2-.1.3-.2.2-.4.3-.6.5-.6.4-1.1 1-1.7 1.5-.7.7-1.4 1.3-2.2 1.9-.6.4-1.2.8-1.8 1.1-.3.2-.6.3-1 .5-.4.1-.8.2-1.1.3zm8-5.7h-.2c-.2.1-.4.2-.6.2-.8.2-1.6.5-2.3.6-.8.1-1.5.3-2.3.4-.3 0-.4.2-.4.4-.1.4-.2.8-.3 1.3-.1.3-.3.6-.5.9-.3.4-.6.7-.9 1-.2.2-.4.5-.6.7h.1c.7-.2 1.3-.5 2-.8 1-.5 1.9-1.1 2.7-1.8l2.1-2.1c.4-.3.8-.5 1.2-.8zm-27.9 2.9c-.3-.1-.7-.3-1-.4-.9-.5-1.8-1.2-2.5-2-.2-.2-.4-.4-.5-.7 0 0-.1-.1 0-.1h.1c.5.3 1 .3 1.5.4.2 0 .2 0 .3.2 0 .4.3.6.5.9.5.6 1.1 1 1.7 1.6l.1.1h-.2zm-3.8-3c1 1.3 2.3 2.3 3.7 2.9 0-.1-.1-.1-.2-.2-.4-.3-.9-.7-1.2-1.1-.3-.4-.7-.7-.8-1.1 0-.2-.1-.2-.3-.2-.3-.1-.7-.2-1.2-.3zm13.3-.1c-.1-.1-.1-.1-.2-.1h-.1v.1c.2.1.3.2.4.4h.1c0-.1-.1-.2-.2-.4zm-10.5-1-.1-.1s-.1 0-.1-.1c-.1 0-.2-.1-.3-.1.1.2.3.4.5.3 0 .1 0 .1 0 0 0 .1 0 0 0 0zm-3.5-1.7s-.1 0-.1-.1 0-.1.1-.1h.1s-.2-.2 0-.1c.1 0 .1.1.1.2s-.1.2-.2.1z" style="stroke:#000;stroke-width:.1;stroke-miterlimit:10"/><path d="M-28.9 30.8h39.8v39.8h-39.8V30.8z" style="fill:none"/></svg>