<svg xmlns="http://www.w3.org/2000/svg" viewBox="-29 31 40 40"><style>.st0{display:none}.st1,.st2{display:inline;stroke:#010202;stroke-miterlimit:10}.st1{fill:#010202;stroke-width:.25}.st2{stroke-width:.3}.st2,.st4{fill:#010202}</style><g id="Layer_3"><path id="XMLID_193_" d="M-29.4 30.5H11v40.4h-40.4V30.5z" style="fill:none"/><path id="XMLID_192_" d="M7.9 57.9c-.3 0-.2.3-.3.5C5 63.9.7 67.5-5.2 68.9c-4.7 1.2-9.3.5-13.5-1.9-5.5-3.2-8.7-8-9.5-14.3-1-8 3.2-15.6 10.4-19.3 8.1-4.1 18-1.9 23.6 5.2 1.7 2.1 3.1 4.5 3.6 7.2.8 4.3.6 8.6-1.2 12.8-1.7 4-4.5 7-8.2 9.1-2.8 1.6-5.9 2.4-9.1 2.2.9 0 1.7 0 2.5-.3 1.5-.6 3.2-.9 4.7-1.6 1.5-.7 3-1.6 4.3-2.6 1.3-1.1 2.4-2.3 3.4-3.7.9-1.1 1.6-2.4 2.1-3.8.2-.2.2-.5.3-.7 1.2-3.2 1.4-6.7.7-10.1-1-4.6-3.3-8.4-7.2-11.1-4-2.9-8.6-4.1-13.5-3.3-6.9 1.1-11.8 4.9-14.3 11.4-2.4 6.1-1.6 11.9 2.4 17.2 3.5 4.6 8.2 7 14 7.3 4.4.2 8.4-1.3 11.7-4.2 3.5-2.9 5.6-6.7 6.3-11.2.1-.8.2-1.6.2-2.3h.1c0 4-1.3 7.7-3.6 11 1.4-1.6 2.3-3.4 3-5.4.3.6-.2.9-.1 1.4z" class="st4"/><path id="XMLID_212_" d="M-12.5 61s-.1 0 0 0c-.1 0-.1-.1-.2-.1v-.8c0-.1.1-.2.2-.2h.5c.2 0 .4 0 .6-.1.2 0 .3-.1.5-.2.1-.1.3-.2.3-.3V49.2c0-.3 0-.7-.1-1 0-.4-.1-.7-.1-1s-.1-.5-.2-.5l-1.7-.4s-.1 0-.1-.1c0 0-.1-.1-.1-.2v-.6c0-.2.2-.3.4-.3h2.8c.3 0 .5-.1.8-.2.2 0 .4-.1.7-.1h.7c.3 0 .5 0 .8.1.1 0 .2.1.4.1.1.1.2.1.3.2.1.1.1.2.1.3 0 .1 0 .3-.1.4 0 .1-.1.1-.2.1h-1.1c-.1 0-.2.1-.3.1-.1.1-.2.1-.2.1l-.1.2c0 .2-.1.4-.1.7 0 .4-.1.9-.1 1.5s-.1 1.1-.1 1.7-.1 1.1-.1 1.4v1.6c0 .5 0 1 .1 1.4 0 .5.1 1 .1 1.4 0 .5.1 1 .2 1.5v.8c0 .1 0 .2.1.3l.2.2c.1.1.3.1.5.2s.4.2.5.3c.2.1.3.2.5.3.1.1.2.2.2.4s0 .3-.2.4h-4c-.4.1-.9.2-1.3.3-.2.4-.7.3-1.1.2zm.3-15.6.7.1c.2 0 .5 0 .7-.1h-1.4zm1.1 14.7h-1 .6c.1.1.3.1.4 0zm-1 .7h1.2l.2-.1-1.4.1zm0-15s0 .1 0 0c-.1.1 0 .2 0 .2s.1 0 0-.2c.1.1.1.1 0 0zm.5.2h.4c0-.1-.1-.1-.2-.1-.1.1-.1 0-.2.1 0-.1 0 0 0 0zm.7 13.9s-.1 0 0 0c-.1.1 0 .2 0 .2s.1-.1 0-.2c.1 0 .1 0 0 0zm.5-13.6.3-.2.2-.2.1-.1v-.2h-.2c-.1 0-.3.1-.4.1s-.3.1-.4.1c.1.1.4.5.4.5zm-.1 13.7s0 .1-.1.1c0 0 0 .1-.1.1h.4s.1 0 .1-.1c0 0 0-.1.1-.1.2-.3.5-.6.7-.9.3-.3.5-.6.7-1 .1-.1.1-.2.1-.3 0-.1 0-.2-.1-.4 0-.2-.1-.3-.1-.4l-1.5 1.6c0 .2-.1.5-.1.7.1.3 0 .5-.1.7zm.4-12.9v.2c.1-.1.2-.2.2-.3.1-.1.2-.2.4-.3.1-.1.2-.2.4-.3h.3c.1-.1.2-.3.3-.4.1-.1.2-.3.3-.4H-9c-.2 0-.3 0-.5.1-.1.1-.3.2-.3.4-.1.2-.3.4-.5.6v.2c.2.1.2.2.2.2zm0 10.8.2-.2.3-.3.3-.3.2-.2.2-.2c0-.1.1-.1.2-.2l-1.3 1-.1.4zm.1-2.9v.5l.7-.7c.2-.2.3-.3.4-.6.1-.3.1-.4.2-.7v-1l-.3.3c-.1.1-.1.2-.2.2l-.3.4-.3.3c-.1.1-.1.2-.2.2V55zm0 1.8c.2 0 .2-.1.3-.1l.4-.3c.1-.1.3-.2.4-.3s.2-.1.2-.2v-.7s-.1 0-.2.1-.2.2-.2.3l-.3.3c0 .1-.1.2-.2.2l-.1.1s-.1.1-.1.2l-.2.4zm.1-5.8v1s.1-.1.2-.3l.3-.3.4-.4.2-.2c0-.1.1-.2.1-.3s.1-.2.1-.3v-.3c0-.1-.1-.1-.3 0l-.3.3c-.1.1-.2.1-.3.2-.1.1-.2.1-.3.2 0 .1-.1.3-.1.4zm0 2v.4c.1-.1.2-.1.3-.2.1-.1.2-.2.2-.3l.2-.2.2-.3.3-.3v-.7l-.7.7c-.3.2-.5.5-.5.9zm.1-2.9 1.2-1.2.1-.2c0-.2 0-.4.1-.6 0-.2 0-.3.1-.5v-.5c-.1 0-.2.1-.4.3-.2.1-.3.3-.5.4-.2.1-.3.3-.4.4s-.2.2-.2.3v1.6zm.5 9.9s-.1.1-.1.2-.1.1-.1.2h.1L-8 60c-.1-.1-.1-.3-.2-.4 0-.1-.1-.2-.1-.3-.2.1-.4.2-.6.4-.1 0-.3.1-.4.3zm-.1-4.7c-.1 0-.1 0 0 0-.1.2 0 .2 0 .2s.1 0 0-.2c.1 0 0 0 0 0zm1.3-10.2h-.5.8c.3 0 .6 0 .9-.1l-1.2.1zm0 15.2h-.5.8v-.1h-.3v.1zm-.2-13.8c-.2.1-.2.2-.2.2.1 0 .1 0 .2-.2 0 .1 0 .1 0 0zm-.2 12.2zm.8.8.1.1h.1l-.1-.1h-.1zm.6.2c0-.1 0-.1 0 0h-.2.2zm.1.6c-.1 0-.1 0 0 0-.1.1 0 .1 0 .2v-.2z" class="st4"/><path id="XMLID_195_" d="M-9 43.5c.2 0 .3 0 .5-.1.3-.1.6-.3.7-.6.2-.3.3-.6.4-1 .1-.3.1-.7 0-1.1 0-.3-.1-.6-.2-.9 0-.1-.1-.2-.2-.3l-.3-.3c-.2-.2-.4-.3-.6-.4-.2-.1-.4-.2-.6-.2s-.4 0-.6.1c-.2.1-.4.3-.6.5-.1.1-.2.3-.3.5l-.3.6c-.1.2-.1.4-.2.7v.6l.3.9c.1.3.3.6.6.8.1.1.2.1.3.2.1 0 .2.1.3.1.4-.1.6-.1.8-.1zm1-.9c0-.1 0-.1 0 0 0-.1 0-.1 0 0zm.1-.2c0-.1 0 0 0 0 .1 0 .1 0 0 0zm.1-.1c0-.1 0-.1 0 0 .1-.1.1-.1 0 0 .1 0 .1 0 0 0zm.1-1.5c.1 0 .1 0 0 0 .1.1 0 .1 0 .1h-.2l.2-.1zm-.7-1.5s0 .1 0 0c0 .1 0 0 0 0zm.1.1.3.3c.1.1.1.1.1.2s0 .2-.1.2l-.3.3V40s0-.1-.1-.2c0-.1 0-.2-.1-.2l.2-.2zm0 2.2s0-.1.1-.1.1-.1.1-.1h.4v.4l-.6.6-.1.1-.1.1.2-1zm-.3-1.6c.1.1.1.3.1.5l-.1 1.5v.1c0 .1 0 .1-.1.2 0 .1-.1.2-.1.3 0 .1-.1.1-.1.2 0 0-.1.1-.2.1h-.3c-.2-.1-.3-.3-.4-.5-.1-.3-.1-.5-.2-.8 0-.3 0-.6.1-.9 0-.3.1-.5.2-.8.1-.2.2-.3.3-.4.1-.1.3 0 .4.2.2 0 .3.1.4.3zm-2.2.9c0-.2.1-.4.2-.6s.2-.5.3-.7c.1-.2.3-.4.5-.6.2-.1.4-.2.6-.1l.1.1h.5l-.1.1h-.1c-.1 0-.2-.1-.2-.2s-.3.1-.4.1-.2 0-.3.1c-.1.1-.2.2-.2.3-.1.1-.1.2-.2.4s.1.1 0 .2v.4l-.7.5c.1.1 0 .1 0 .2 0 0-.1 0-.1.1 0-.2 0-.3.1-.3zm.5.1c0-.1 0-.1 0 0 .1 0 .1 0 0 0zm-.2.1c0 .1-.1.1-.1.1l.1-.1c0 .1 0 0 0 0zm-.2.3c0 .1-.1.1 0 0-.1.1-.1.1 0 0-.1 0-.1 0 0 0-.1 0 0 0 0 0zm.3 1c-.1.1-.1.1 0 0-.1 0-.2-.1-.2-.1-.2-.3-.2-.5-.2-.7.1-.2.3-.3.5-.4v.4c0 .1 0 .2.1.4v.2l-.1.1c0 .1-.1.1-.1.1zm.5.2c-.1 0-.1.1-.1.1l-.1.1.2-.2c0-.1 0 0 0 0 0 .1 0 .1 0 0zm.1.4c-.1 0-.1 0 0 0 0-.1 0-.1 0 0v-.3l.3.3c.1.1.3.1.4.1h-.4c-.2 0-.3-.1-.3-.1z" style="fill:#231f20"/></g></svg>