<svg xmlns="http://www.w3.org/2000/svg" viewBox="-29 31 40 40"><style>.st0{display:none}.st1,.st2{display:inline;fill:#010202;stroke:#010202;stroke-width:.25;stroke-miterlimit:10}.st2{stroke-width:.3}</style><path d="M.8 50.7c.1.1.3.1.4.1-.1 0-.2 0-.4-.1-.2-.2-.2-.3-.1-.6 0 0-.1 0-.1.1-.1.3.1.4.2.5zm-4.6 4.8c.5 0 .8-.4.9-.9 0-.5-.4-.9-.9-.9-.4 0-.8.5-.8.9 0 .5.4.9.8.9zm0-1.7c.4 0 .8.4.8.8 0 .3-.3.8-.7.8-.5 0-.9-.3-.8-.7 0-.5.2-1 .7-.9zm8.3-3.5c0 .1 0 .1-.1.2-.3.3-.6.5-1 .6-.4.2-.9.2-1.4 0-.1 0-.3-.1-.4-.1h.1c.3.1.7.2 1 .2.6 0 1.1-.1 1.6-.5.2-.1.4-.3.4-.6-.1.2-.1.2-.2.2zm-9.9-13.8c-.1 0-.2.1-.2.2s.1.2.2.2.2-.1.2-.2-.1-.2-.2-.2zm0 .2c-.1 0-.1 0 0 0l-.1-.1s0-.1.1-.1c.1.1.1.1 0 .2.1 0 0 0 0 0zm10.7 11v1.1c.1-.4.2-.7 0-1.1.1 0 .1 0 0 0zm-7.9 4.8c0-.1-.1-.2-.2-.1-.1 0-.2.1-.3.2 0 .1 0 .3.1.3s.1.1.2.2c0 .1.1.1.2.1s.1-.1.1-.2 0-.1-.1-.2c.1-.1.1-.2 0-.3zm-.2.3c-.1 0-.1-.1-.1-.2s0-.2.1-.2.1.1.1.2c.1.1 0 .2-.1.2zm.3.3c-.1 0-.1 0-.1-.1s0-.1.1-.1.1.1.1.1c-.1 0-.1.1-.1.1zM3.8 42c-.4.1-.6.4-.7.8-.1.3-.1.6 0 .9 0 .1.1.2.1.3.2.3.5.4.8.4.3.1.6 0 .8 0 .2 0 .3-.1.5-.2.2-.3.3-.6.3-.9 0-.6-.3-1.1-.9-1.3-.4-.2-.7-.1-.9 0zm1.5.8c.2.4.1 1-.3 1.3-.2.1-.5.2-.8.2-.4 0-.7-.1-1-.5-.2-.3-.2-.6-.1-.9.1-.2.1-.4.3-.5.7-.5 1.6-.5 1.9.4zM4 45.2c.6.1 1.1.6 1.2 1.2 0 .1 0 .2-.1.3v.1c.2-.2.2-.3.1-.6 0-.1-.1-.1-.1-.2-.2-.5-.7-.8-1.2-.9 0 .1 0 .1.1.1zm1.6 2.7v-.6c0-.1-.1-.3-.1-.4-.1-.1-.2-.1-.3-.1v.1c.1 0 .1 0 .2.1s.2.2.2.4c0 .3.1.5.1.8 0 .3-.1.6-.1.8 0 .2-.1.4-.2.6 0-.1.1-.2.1-.3.1-.2.1-.5.1-.7 0-.2.1-.4 0-.7zm-1.9-2.8h.2-.1c-.3-.1-.6-.2-.8-.2h.1c.1.1.4.1.6.2zm-11.4-1.7-.5-.2c-.2-.1-.3-.3-.4-.5 0-.1-.1-.2-.2-.3h-.1v.1c.1.1.2.3.2.4 0 .1.1.2.2.2.3.1.6.2.8.3.2.2.4.1.5 0h.1-.6zm3.9-3.5v.1c.1.2.1.4-.1.6v.1c.1-.1.1-.2.2-.3 0-.2-.1-.4-.1-.5zm-2.5-1.8c.1 0 .2 0 .3.1.2.1.3.2.5.3h.2c.1 0 .2.1.2.1h.1c-.5-.3-.9-.3-1.3-.5 0-.1-.1-.1-.1-.1l.1.1zm2.3 3.7s.1-.1 0 0c.2-.2.2-.4.2-.5V41c0-.1 0-.2-.1-.2v.1l.1.1v.3c0 .1-.1.2-.1.3-.1.1-.1.2-.1.2zm1.7 5.9c-.2.1-.4.1-.6.2-.1 0-.1.2-.1.3v.1l.1.1v-.1c-.1-.2-.1-.2.1-.3.3-.1.4-.1.5-.3.1.1.1.1 0 0 .1 0 .1 0 0 0zm-.9.3v-.2c.1-.1.3-.2.5-.3.3-.1.5-.2.8-.4l.2-.1v-.2c-.4.2-.9.5-1.3.7-.1.1-.2.1-.3.2-.1.1-.2.1-.1.3h.2l.1.2c0-.1 0-.1-.1-.2zM1 43c.3.2.6.2.9 0 .2-.1.4-.4.6-.6.3-.4.3-.8.2-1.2-.1-.5-.4-1-.8-1.3l-.1-.1c0-.1.1-.1.1-.1.1 0 .2 0 .2-.1s0-.1-.1-.2l-.1-.1c-.1-.1-.2-.2-.4-.3l-.1-.1c0-.2-.1-.3-.3-.3H.9s0 .1-.1.1h.3c.1 0 .2 0 .2.2 0 .1.1.2.1.2.1.1.3.1.4.3l.1.1c0 .1-.1 0-.2 0s-.2 0-.2.1-.1 0-.1 0c-.2-.1-.4-.3-.7-.4v-.1c0-.1 0 0 .1 0s.2.1.3.1h.1c-.1-.1-.4-.1-.7-.1h-.8c-.1 0-.3.1-.4.2-.1.1-.4.2-.6.2-.1 0-.1.1-.2.1v-.1c-.1.2-.3.3-.5.3.1.1 0 .1 0 .2s.1 0 .2 0h.5c.1 0 .1.1.1.2v.5c0 .1.1.3.2.3.1.1.2 0 .2 0 0-.1.2-.2.3-.2h.4s.1 0 .1.1 0 .1-.1.1l-.1.1c-.3.2-.6.5-.8.9-.1.1-.1.2 0 .3.2.2.5.4.7.6l.1.1.1-.1c-.1 0-.2 0-.2-.1-.1-.1-.2-.1-.2-.2l-.2-.2h-.1c-.1 0-.1-.1-.1-.2 0-.3.1-.5.4-.6.1-.1.3-.3.5-.4l-.1-.1-.1-.1h-.1s-.1 0-.1-.1c0 0 0-.1.1-.1v-.1c-.3 0-.6 0-.7.3v.1s0 .1-.1.1-.1-.1-.1-.1c-.1-.4 0-.8.2-1.1.4-.4.9-.5 1.5-.4.4.1.7.4 1 .6.1.1.2.1.2.2.3.2.5.6.6.9.1.3.2.6.1 1-.1.3-.3.6-.6.9-.2.2-.4.2-.7.2 0 0 0-.1.1-.1.5-.1.8-.4.9-.8.1-.4.1-.8 0-1.2-.1-.4-.4-.7-.7-.9-.4-.3-.9-.5-1.4-.6l.1.1c.8.2 1.5.6 1.8 1.4.1.3.1.7.1 1-.1.3-.2.6-.5.8.1-.1-.2-.1-.5-.1.1-.1.1-.2.1-.2.2-.1.3-.4.2-.6h-.1c0 .1-.1.1-.2.1v-.2H.7c-.1 0-.1.1-.2.1 0 .1-.1.1-.1.1h.1c.1 0 .1-.1.2-.2 0 0 .1-.1.1 0 .1.1.1.3 0 .4.2.4.2.5.2.5zm-1.4-2.3c0-.1 0-.1.1-.2.1.2 0 .3-.1.2 0 .1 0 .1 0 0zm-.2 0c.1-.1.1 0 0 0 0 .1 0 .1-.1.2 0 0-.1 0 0 0 0-.2.1-.2.1-.2zm-.7-.8c.1-.1.2-.2.3-.2 0 .2-.1.3-.3.2zm2.4 2.8c0-.1 0-.1 0 0 .1-.1.1-.1.1 0h-.1zm-2.2-5.2c.1.1.2 0 .3 0 .1-.1.1-.2 0-.3 0-.1-.1-.1 0-.2v-.1c0-.1-.1-.2-.2-.2s-.2.1-.2.2V37.2c-.1.1 0 .3.1.3zm0-.7c.1 0 .1.1.1.1 0 .1 0 .1-.1.1s-.1-.1-.1-.1 0-.1.1-.1zm0 .3c.1 0 .2.1.2.2s-.1.1-.2.1-.1-.1-.2-.2c.1 0 .1-.1.2-.1zm-.9 4.2c-.1 0-.2.1-.2.2 0 .2.1.3.3.3.1 0 .2-.1.2-.2s-.1-.2-.3-.3zm.1.4c-.1 0-.2 0-.2-.2 0-.1 0-.1.1-.1.1.1.2.2.1.3.1 0 0 0 0 0zm-1 1h.5c-.2-.1-.4-.1-.6-.2-.3 0-.6-.1-.9 0-.2.1-.4.2-.5.3-.1.1-.2.1-.2.2.2-.2.5-.3.7-.3h.6c.1-.1.2-.1.4 0zm-9.7 7.8c-.3 0-.5 0-.6.3l-.1.1c-.1 0-.2.1-.2.3v.1c-.3.2-.2.5-.2.8 0 .2.1.3.1.5v.1s.1.1 0 .1v.2c.3.2.6.3.8.6.1 0 .2-.1.3-.1.4 0 .8 0 1.1-.4.2-.2.4-.3.4-.6.1-.6-.1-1.1-.5-1.5-.3-.3-.6-.5-1-.5h-.1zm1.6 1.7c0 .4-.4.9-.7 1-.1.1-.3.1-.5.1-.8 0-1.1-.3-1.4-.9 0-.1-.1-.2-.1-.3v-.4c0-.1 0-.2.1-.2.1-.1.1-.2.1-.3.1-.1.2-.3.4-.4.2-.1.3-.2.5-.2.3-.1.5 0 .7.1.5.4.8.9.9 1.5zm-6.6-8.9v-.4c0-.1-.1-.1-.1-.1-.1 0-.1-.1 0-.1.2-.1.2-.3.1-.5 0-.3-.1-.5-.3-.7-.2-.5-.7-.9-1.2-1.1h-.4v.1c.2-.1.5 0 .7.1.5.3.9.8 1.1 1.4 0 .1 0 .2.1.3 0 .2 0 .3-.2.5-.1.1-.2.1-.3.2h.2c.2 0 .3 0 .4.3.1.3 0 .6-.1 1s-.3.8-.5 1.2c-.1.2-.2.3-.4.4-.3.2-.6.4-.9.5-.3.1-.4.1-.5-.2h-.1v.1c0 .3-.2.3-.4.3h-.5c.2 0 .5.1.7 0 .2 0 .2-.2.3-.3.1.2.4.2.6.1.5-.2.9-.5 1.2-.8.2-.2.3-.5.4-.7 0-.7.2-1.1.1-1.6zm-1.4 3.3s-.1 0-.1.1-.2.1-.1.2c0 0 .1.1.2 0v-.1c-.1 0 0-.1 0-.2zm-5.1-4.3s.1 0 0 0c0-.1 0-.1 0 0-.1 0-.1.1-.2.2 0 .1.1.2.1.2 0-.1.1-.2.1-.4zm11.3.8s-.1 0 0 0c0-.1-.1-.1-.1-.2 0 .2.1.3.1.5v.1-.4zm23.3 7.3c-.1-1-.2-1.9-.3-2.9-.1-.7-.2-1.5-.4-2.2 0-.2-.1-.3-.2-.5-.1-.6-.3-1.1-.6-1.6-.3-.6-.6-1.2-.9-1.7-.3-.5-.6-.9-.9-1.3-.7-.9-1.3-1.8-2.1-2.5-.7-.7-1.3-1.3-2.1-1.9-.8-.6-1.7-1.1-2.5-1.6-.6-.4-1.3-.7-2-.9-.4-.1-.7-.3-1.1-.4h-.1c-.1 0-.2 0-.3-.1-.1 0-.3-.1-.4-.1-.3-.1-.6-.1-.9-.2-.5-.1-1-.2-1.5-.2-.6 0-1.3-.1-1.9-.1-1.2-.1-2.5 0-3.7.2-.8.1-1.7.3-2.4.5-.8.3-1.7.6-2.4 1-.6.3-1.1.6-1.7 1l-.9.6c-.2.1-.2.2-.1.4.1.1.1.2.2.3.3.6.6 1.1 1 1.6.5.6.9 1.2 1.4 1.8.2.3.4.7.7 1 .6.6 1 1.3 1.5 2l.9 1.2c.1.1.2.3.2.4 0 .3.1.3.3.4.1 0 .3.1.4.3.2.3.4.5.6.8.6.7 1.2 1.5 1.7 2.3.1.2.2.3.2.5 0 .1.1.1.2.2.2.1.4.3.4.6 0 .1 0 .2.1.2l.3.3c.1.1.2.3.3.4 0 0 .1 0 .1-.1V50c-.3-.1-.5-.3-.6-.6-.2-.3 0-.7.2-.8.1 0 .2-.1.3-.1.2-.2.4-.4.6-.5-.1 0-.2 0-.3-.1l-.4.4c-.1.1-.1.1-.2.1-.1.1-.1.2-.2.2 0 .1 0 .2-.1.3-.1-.1-.1-.1-.1-.2-.2 0-.4-.1-.5-.3-.1-.2-.2-.5-.3-.7 0 0 0-.1-.1-.1-.2-.2-.3-.4-.5-.7-.3-.3-.6-.7-.9-1.1l-.6-.9s-.1-.1 0-.1h.1c.3 0 .6 0 .9-.1h.1v-.1c-.1.1-.2.1-.3.1h-.7c-.3 0-.6-.3-.6-.6l-.3-.6c-.1-.3-.1-.6-.3-.8 0-.1-.1-.2-.1-.3-.1-.2 0-.3.2-.4.5-.1.9-.2 1.4-.2.5-.1.9-.1 1.4-.2.1 0 .2 0 .2.1 0 .5.1 1 .2 1.5v.3h.1c-.2-.6-.3-1.3-.2-1.9 0-.1 0-.2-.1-.1-.3 0-.6 0-.8.1-.4.1-.8.1-1.3.2-.3 0-.6 0-.9.1-.2.1-.4.2-.3.5.1.4.2.7.3 1.1 0 .1.1.2 0 .3-.1 0-.1-.1-.2-.2-.3-.4-.5-.8-.8-1.2-.7-.9-1.3-1.8-2-2.7 0 0-.1 0 0 0s.1-.1.1-.2-.1-.1-.1-.2c0 .1-.1.2-.1.3-.2-.2-.3-.4-.5-.6-.2-.3-.4-.5-.6-.8-.1-.1 0-.2.1-.2s.2-.1.2-.1c.1 0 .2-.1.3-.3 0-.1.1-.1.2 0 .1.2.2.3.2.5s.1.3.1.5c0 .1.1.2.1.2 0-.1 0-.1 0 0v-.2c0-.2-.2-.4-.2-.7 0-.2-.2-.4-.2-.5v-.1s-.1-.1 0-.2h.1c.1 0 .2 0 .2-.1v-.1l.1.1v-.1l-.1-.1h-.1v.1c-.1 0-.2 0-.2-.1-.1 0-.1 0-.2.1 0 .2-.2.4-.5.4-.2.1-.4 0-.5-.2-.2-.4-.5-.8-.7-1.2-.1-.2-.1-.3.1-.4.4-.3.8-.6 1.2-.8.4-.2.7-.4 1.1-.6.5-.3 1-.5 1.5-.7.5-.2 1-.4 1.5-.5 1.3-.4 2.7-.6 4.1-.6h1.7c.8 0 1.6.1 2.3.2.5.1 1.1.2 1.6.3.2 0 .3.1.5.1.1.1.3 0 .5.1.3.1.7.3 1 .4.5.2.9.4 1.4.6.3.2.7.3 1 .6.9.6 1.8 1.1 2.7 1.7.8.6 1.5 1.3 2.2 2 .7.9 1.5 1.8 2.1 2.8.3.4.5.9.7 1.3.4.8.8 1.6 1 2.5.2.7.4 1.5.5 2.2.1 1 .3 1.9.4 2.9 0 .5.1 1 0 1.5 0 .6 0 1.3-.1 1.9 0 .5-.1 1-.2 1.5-.1.4-.1.7-.2 1.1-.1.3-.2.7-.3 1-.3.7-.6 1.5-.9 2.2-.3.6-.7 1.2-1.1 1.8-.3.4-.5.9-.8 1.3-1.1 1.5-2.5 2.8-4 3.9-.6.5-1.3 1-2 1.4-.8.4-1.4.6-2.1.9-.5.2-1.1.4-1.6.6l-1.2.3c-.5.1-1.1.2-1.6.2-1.5.2-2.9.3-4.4.1-.6-.1-1.2-.2-1.9-.3-.4-.1-.8-.1-1.2-.3-.5-.2-1.1-.4-1.6-.6-.3-.1-.6-.2-1-.3-.4-.1-.8-.3-1.1-.5-1-.5-1.9-1.1-2.8-1.8-1-.8-2-1.7-2.9-2.7-.8-.9-1.4-1.8-1.9-2.9-.2-.5-.5-.9-.7-1.4-.2-.6-.5-1.2-.7-1.8-.4-1-.6-2.1-.7-3.2-.1-.7-.1-1.4-.1-2.1v-1.9c0-.5 0-1 .2-1.5 0-.2.1-.3.3-.3h.9c.3 0 .7.1 1 .1.1 0 .2 0 .2.1 0 0 .1.1 0 .1-.1.2 0 .4 0 .6 0 .1.1.3.1.4v.4c-.1.2-.3.4-.4.6-.1.1-.1.2-.1.3 0 .3-.1.6-.2.9-.1.1-.1.3-.1.4 0 .2.1.4-.1.6-.1.1-.1.2-.1.3.1.3.2.6.4.9 0 .1.1.1.1.1.2.1.3.4.3.6 0 .7.3 1.2.7 1.7.1.1.2.3.2.6 0 .2 0 .4-.1.7-.1.2 0 .4.1.6.1.2.3.4.4.6.2.3.3.6.4 1 0 .1 0 .1.1.2l.2.2c-.1-.1-.1-.2-.1-.4l.9 1.2c.1.1.2.2.3.4l-.1-.1c.2.1.5.2.5.5 0 .1.1.2.2.2s.3.2.3.3c.1.1.2.1.3.2 0-.1-.1-.1-.1-.2 0-.2-.2-.4-.4-.5-.1 0-.1-.1-.1-.2 0-.2-.1-.3-.2-.4-.5-.3-.9-.7-1.2-1.1-.2-.2-.3-.4-.4-.7-.1-.2-.2-.5-.3-.7-.1-.2-.4-.4-.5-.6-.2-.2-.2-.4-.1-.6.2-.4.1-.9-.1-1.3-.3-.4-.5-.9-.5-1.4 0-.2 0-.3.1-.5s.1-.5-.2-.6h-.1c-.1 0-.1-.1-.2-.1-.2-.1-.3-.3-.2-.5 0 0 0-.1.1-.1l.1-.1c.1-.1.2-.2 0-.4-.3-.3-.1-.6 0-.9.1-.2.1-.3 0-.4h-.1c0 .1-.1.3 0 .4v.2c-.1.2-.1.5 0 .7.1.2.1.2-.1.4-.3.2-.3.4-.1.7.1.2.3.3.5.4.1.1.2.2.1.3 0 .1-.1.2-.1.3l-.1-.1c0-.2-.1-.4-.3-.5-.1 0-.1-.1-.1-.2-.1-.2-.1-.5-.2-.7-.1-.1-.1-.3 0-.4.2-.2.1-.4.1-.6v-.4c.1-.1.1-.2.1-.3.1-.2.1-.4.1-.6 0-.2.1-.3.2-.5h.1v.2c0 .2-.1.3-.1.5v.1s.1 0 .1-.1v-.1c.1-.2.1-.4.2-.6.1-.2.1-.3.1-.5s-.1-.4-.2-.5c-.1-.2-.2-.4-.1-.6 0-.2.1-.3.3-.3.5.1 1 .1 1.5.2.6.1 1.2.2 1.8.4.3.1.7.2 1 .2.6 0 1.1.1 1.6.2s1 .2 1.5.2c.4 0 .7.1 1.1.1.6.1 1.1.2 1.7.3h.1l-1.5-.3c-.8-.2-1.6-.3-2.4-.4l-1.8-.3-1.5-.3c-.9-.2-1.8-.3-2.8-.4-.6-.1-1.1-.1-1.6-.2s-1-.1-1.5-.1c-.1 0-.2 0-.2.1s-.1.2-.1.2c-.1.5-.2.9-.2 1.4 0 1.2 0 2.4.1 3.6.1 1 .2 2 .5 3 .2.8.5 1.7.9 2.4.3.7.6 1.3.9 2 .3.6.6 1.1 1 1.7.6.8 1.3 1.6 2.1 2.3.6.6 1.3 1.1 2 1.6.6.4 1.2.8 1.8 1.1.8.5 1.7.9 2.6 1.3.4.2.8.3 1.2.4.4.1.7.3 1.1.4.5.1 1 .2 1.4.3.6.1 1.3.2 1.9.2h2.2c.4 0 .8-.1 1.2-.1.5-.1 1-.1 1.5-.2.6-.1 1.1-.2 1.7-.4.5-.2 1.1-.4 1.6-.6.6-.2 1.2-.5 1.7-.8.8-.5 1.7-1 2.4-1.6 1-.8 1.9-1.7 2.7-2.6 1-1.1 1.9-2.3 2.6-3.6.4-.8.8-1.5 1.1-2.4.1-.3.2-.7.3-1l.3-1.5c0-.4.1-.7.1-1.1 0-.5.1-1.1.1-1.6.4-.8.4-1.4.3-2zm-28.1-12.8s.1-.1 0 0c.3-.1.4-.1.6-.3h.1v.1s0 .1-.1.1c-.2.1-.3.2-.5.2 0 0-.1 0-.1-.1zm-6.5 9.1c.7.1 1.3.2 2 .3.9.1 1.8.3 2.7.5.6.1 1.2.2 1.8.4.8.2 1.7.5 2.5.7.3 0 .6.1.9.2.3.1.5.2.8.2.2 0 .5 0 .7.2.2.1.4.2.7.2.1 0 .2-.1.3 0 .2 0 .3.1.5.1s.2.2.4.2c.4.1.7.1 1.1.1h.1c.1 0 .1-.1.1-.1 0-.1-.1-.2-.2-.3-.3-.3-.6-.7-.8-1.1-.1-.3-.3-.6-.5-.8-.1-.1-.2-.1-.3-.2-.8-.8-1.4-1.9-2.2-2.7-.3-.4-.5-.8-.8-1.2-1.1-1.5-2.2-3-3.4-4.4-.5-.6-1-1.1-1.4-1.7l-.9-1.2V36.4c.1.1.1.1 0 .2l-.1.1c0 .1-.1.1-.1.2.1-.1.2-.1.4-.2.1-.1.1 0 .2.1l.9 1.2c.2.3.5.6.7.8.4.4.7.9 1.1 1.3.4.3.7.7 1 1.1.5.7 1 1.3 1.5 2 .4.5.7 1 1.1 1.5.4.5.7.9 1.1 1.4.3.4.6.8 1 1.2.1.1.1.1 0 .2-.5.3-.9.8-1 1.5 0 .2-.1.2-.3.2s-.4-.1-.6-.1c-.1 0-.2-.1-.2-.1-.6-.1-1.1-.2-1.7-.4-.3-.1-.7-.2-1-.3l-2.1-.6c-.5-.1-1-.2-1.4-.3-.6-.1-1.3-.2-1.9-.4-.5-.1-1-.2-1.5-.2-.4 0-.8-.1-1.1-.2-.2 0-.4-.1-.6-.1h-1.2c-.1 0-.2-.1-.1-.2v-.7c0-.1 0-.2.1-.3.1-.1.2-.2.3-.4.2-.5.5-1 .6-1.5-.2.3-.3.5-.5.8-.1.2-.2.4-.2.6 0 0 0 .1-.1.1-.1.1-.2.1-.3.2-.1.1-.1.2-.1.3 0 .3 0 .6-.1.9 0 0 0 .1-.1.1h-.1v-.1c.2-.2.1-.5.1-.8 0-.1 0-.2-.1-.2v.2c.1.3 0 .7-.3.8-.1 0-.3.1-.4 0-.2-.1-.5-.1-.7-.1-.2 0-.3-.1-.4-.2-.1 0-.1-.2-.1-.3 0-.4 0-.7.1-1.1 0-.5.1-1 .3-1.4.1-.5.3-1 .6-1.4.3-.6.6-1.3 1-1.9.5-.8 1.1-1.6 1.8-2.3l2.1-2.1c.3-.2.5-.4.8-.6.1-.1.2-.1.3-.1.1 0 .2 0 .2.1.1.2.3.4.4.5h.4c-.1-.1-.2-.2-.2-.3l-.5-.5c-.1-.1-.2-.1-.4 0-.3.1-.5.3-.7.4-1.1.9-2.2 1.9-3.1 3-.6.7-1.1 1.4-1.5 2.1-.6 1-1.1 2.1-1.3 3.2-.2.6-.3 1.3-.3 2v.4c0 .2.2.5.4.5s.4.1.6.1c.5.1.9.1 1.4.1.3.1 1 .2 1.8.3zm12.2 1c.1 0 .1-.1.2-.1.2-.1.3 0 .4.1 0 0 0 .1.1.1l.2.2.1.1c.1.1.1.2.2.3 0 .1.1.3.1.4 0 .1 0 .1-.1 0h-.1s0 .1-.1.1c.1 0 .3.1.4.2.1.1.2.1.2.2l.1.1c0 .1-.1 0-.2 0-.3 0-.6-.1-.8-.3 0 0-.1 0 0-.1h-.2s-.1 0-.1-.1h-.1c-.1 0-.2.1-.4 0h-.2s-.1 0-.1-.1v-.1l-.1-.1v.1s0 .1-.1.1-.1 0-.2-.1v-.1c.3-.2.4-.7.8-.9zm-2.1.2c.5.2 1-.1 1-.7 0-.1 0-.3-.1-.4l-.6-.6c-.3-.2-.7 0-.8.3-.4.6-.1 1.2.5 1.4zm-.4-1.4c.1-.1.3-.2.5-.1.3.1.6.3.7.6v.5c-.1.3-.5.4-.7.3-.3-.1-.5-.3-.6-.6-.1-.3 0-.5.1-.7zm-2.4-5.6c0-.2-.1-.3-.3-.3-.1 0-.2.1-.2.2 0 .2.1.3.3.3.1 0 .2 0 .2-.2zm-.4 0s0-.1.1-.1.2.1.2.2 0 .1-.1.1c-.1-.1-.2-.1-.2-.2zm4.7 5.9c-.2-.4-.5-.7-.8-1-.2-.2-.5-.2-.7-.2-.1 0-.2 0-.4.1-.1 0-.1 0-.1-.1-.1-.5-.1-1.1-.2-1.6v-.3c.1-.2 0-.4-.1-.5-.5-.6-1.3-1-2.2-1-.1 0-.1 0-.2-.1-.2-.4-.4-.9-.6-1.3-.1-.2-.4-.4-.6-.6-.3-.3-.6-.4-.9-.5-.1 0-.1-.1 0-.2.2-.3.2-.6.2-.9-.1-.4-.3-.8-.7-1-.6-.4-1.4-.1-1.7.5-.2.4-.2.8 0 1.2v.2c-.6.3-1.1.7-1.5 1.2-.1.2-.3.4-.5.6-.2.3-.3.7-.3 1.1-.1.2-.1.5-.1.8v.1c-.1 0 0 0-.1-.1 0-.1-.1-.2-.1-.3 0 .1 0 .3.1.5 0 .1.1.2.1.3 0 .2.1.4.1.5 0 .1 0 .2.1.2.1.1.1.2 0 .2v.1l.3.3s.1.1 0 .1c0 .1-.1 0-.1 0h-.1v.1h.3c.1 0 .1 0 .2.1.2.2.3.4.5.6.3.3.8.5 1.2.6.7.2 1.3.1 2-.1.2 0 .3-.1.5-.1V46c-.2.1-.3.2-.5.2-.6.2-1.3.2-1.9 0-.7-.2-1.1-.6-1.6-1-.2-.3-.5-.5-.6-.9-.1-.4-.2-.7-.2-1.1 0-1 .3-1.9.9-2.6h.1c0 .1-.1.2-.1.4-.1.3-.2.6-.4.9-.1.2-.1.3 0 .5 0 0 0 .1.1.1 0 0 0 .1-.1.1s-.2 0-.2.1-.1.2-.1.3c-.1.3-.1.5 0 .8.1.1.1.3.1.5 0 .1 0 .2.1.4.3.5.6.9 1.1 1.2l.3.2-.2-.2c-.1 0-.2-.1-.3-.2-.4-.2-.6-.6-.9-1-.1-.1-.2-.3-.2-.5 0-.1 0-.2-.1-.3-.2-.3-.1-.6 0-1 .1-.2.1-.2.3-.2v-.2c-.1-.1-.2-.4-.1-.5.2-.3.3-.6.4-.9.1-.4.4-.8.8-.9.3-.1.5-.2.8-.3h.1c-.1-.1-.2-.3-.3-.5-.1-.2-.1-.3-.1-.5v-.6c.2-.4.7-.8 1.1-.8.3 0 .5.2.7.3.3.2.4.5.4.9v.1c0 .3 0 .5-.2.7 0 .1-.1.1-.1.2h.1c1.1.3 1.8 1 2.1 2.1.2.8.2 1.7-.1 2.5-.1.2-.2.5-.3.7.1-.1.3-.1.4-.2.1-.2.2-.4.2-.6.1-.6.2-1.1.2-1.7 0-.1 0-.2.2-.2.3 0 .6 0 .9.1.4.1.7.2 1 .5.1.1.1.2.1.3v.3c0 .6.1 1.2.2 1.7 0 .2 0 .2-.2.3h-.1c0 .1 0 .1-.1.2v.2c.1 0 .1.1.1.1 0 .1-.1.3-.1.5-.2.7.2 1.2.7 1.5.4.3.9.1 1.3 0 .4-.2.6-.5.7-1 .1.1.1-.1 0-.2zm-8.7-7v.1c-.3.1-.6.3-.9.4h-.1c.2-.2.4-.3.7-.5h.3zm8.5 7.7c-.3.5-.6.7-1.2.7-.3 0-.6-.1-.8-.3-.2-.2-.4-.4-.5-.7-.1-.4.1-.7.4-1.1.1-.2.4-.3.6-.4.3-.1.6 0 .8.2.3.3.6.6.7.9.2.3.1.5 0 .7zm15.3 7.6c.2.2.4.4.5.6l.1.1c.1.1.2.2.3.4 0 .1.1.1.1.2-.1-.3-.2-.5-.3-.7-.3-.5-.8-.9-1.3-1.1.1.1.4.3.6.5zm-7.3 1.7c-.1 0-.1.1-.1.2s0 .2.2.2c.1 0 .1-.1.1-.2 0-.2-.1-.3-.2-.2zm.1.3-.1-.1s0-.1.1-.1c0 0 .1 0 0 .2 0-.1 0 0 0 0zm-19.7-16.2c.2-.2.2-.2.1-.4s-.1-.4-.1-.6c0-.2.2-.3.3-.3.3 0 .6-.1.8-.3.1 0 .1-.1.1-.2s0-.1.1-.1.3-.1.3-.2c0 0 0-.1.1-.1.3-.1.5-.3.7-.5-.1 0-.2.1-.3.1 0 0-.1 0-.1.1l-.1.1s-.1 0-.1.1c-.1 0-.3.1-.3.2s-.1.1-.2.1c-.2 0-.2 0-.2.2s-.1.3-.3.3c-.2 0-.3.1-.5.1s-.4.2-.4.5c0 .2.1.4.1.6 0 .1 0 .3-.1.4-.2.1-.3.4-.3.7 0 .3 0 .5-.2.7h.3v-1c0-.4.2-.4.3-.5zm19.9 17.3c-.1.3-.2.6-.3.8-.1.3-.1.6.1.8l.1.1s.1.1 0 .1c-.1.2 0 .4 0 .6 0 .1 0 .2.1.2 0-.1 0-.2-.1-.3v-.3c0-.2.1-.3-.1-.5 0 0-.1-.1-.1-.2 0-.2 0-.5.1-.7.1-.3.2-.6.4-.9.1-.2.2-.4.4-.5v-.1l-.6.9zm-21.7-14.3c-.1.1-.2.3-.1.5l.3-.6.3-.6c.1-.1.1-.2.2-.3v-.2c-.3.3-.4.6-.6 1 0 .1 0 .1-.1.2zm27.5 7.7c-.4.1-.7.3-1.1.4.3 0 .5-.1.8-.2.1-.1.2-.1.3-.2.1.1.2 0 .3 0h-.3zm-19.2 11.2c0-.1-.1-.3-.3-.3-.1 0-.2.1-.2.2s.1.2.3.2c.1.1.2 0 .2-.1zm-.2 0c-.1 0-.1 0-.1-.1 0 0 0-.1.1-.1v.2zm-1.8-2.9c0 .3.2.6.3.8.3.4.7.8 1.2.9.2.1.5 0 .7 0-.6.1-1.1-.1-1.5-.5-.4-.4-.8-.8-.7-1.5v.3zm11.9 2.7c0-.2-.1-.3-.2-.5-.3-.3-.7-.5-1.1-.6-.3-.1-.5 0-.8.1-.1 0-.2.1-.3.2-.1.1-.1 0-.2 0-.3-.5-.5-1-.7-1.5V60c0-.2-.1-.4-.3-.4-.7-.4-1.6-.5-2.4-.2h-.1c0 .2 0 .3-.1.5h.2v-.1c0-.1 0-.2.1-.2.3-.1.6-.2.9-.2.4 0 .7 0 1.1.2.1 0 .2.1.2.3 0 .1.1.2.1.3.2.6.5 1.1.8 1.6.1.2.1.2-.1.3-.1.1-.2.1-.4.2-.4.1-.8.3-1.2.3-.3 0-.7 0-1-.1.2.1.3.2.5.3h.2c.6-.1 1.1-.1 1.7-.2.1 0 .1 0 .1.1v.5c.1.7.6 1 1.2 1.1.5.1.9-.2 1.2-.5.5-.3.6-.7.6-1.2zm-.2.3c-.1.5-.4.9-.9 1.1-.3.1-.6.1-.8 0-.3-.1-.5-.3-.7-.5-.2-.4-.1-.7 0-1.1.1-.2.2-.4.4-.6.2-.2.5-.2.8-.1.4.1.7.3 1 .6.2.2.3.4.2.6zm-8.2-10.6c.1 0 0 0 0 0-.1-.4-.2-.6-.4-.8.2.3.3.5.4.8zm.9-.7v-.1h-.1c-.1 0-.1.1 0 .2 0 .1.1.2.1.3v-.4c-.1 0 0 0 0 0zm0 .6s-.1-.1 0 0c-.2 0-.1 0-.1.1s.1.2.2.3c-.1-.1-.1-.3-.1-.4zm20.1 6.7c0 .1.1.2.2.2s.1-.1.1-.2-.1-.2-.2-.2c0 0-.1.1-.1.2zm.2 0v.1c-.1 0-.1 0 0-.1-.1 0-.1 0 0 0zm-7.7 6.4c0-.1-.1-.2-.3-.2-.2 0-.4.1-.4.3 0 .2.1.3.3.3.2 0 .4-.2.4-.4zm-.4.3c-.1 0-.1-.1-.1-.2s.1-.2.2-.2.2.1.2.2c-.1.1-.2.2-.3.2zm-4.7-1.7c0-.1 0-.2.1-.2h.1s0-.1.1-.1c-.1 0-.2-.1-.3-.1-.2.2-.2.5-.2.8 0 .2 0 .4.1.6 0 .1 0 .1-.1.1l-.9.2c-.2 0-.4.1-.6.2-.1 0-.1 0-.2-.1-.1-.3-.3-.6-.5-.9h-.1c.2.3.3.6.4.9v.2c-.1-.1-.1-.3-.2-.4-.1-.2-.3-.5-.5-.7l-.1-.1c-.2-.1-.5-.2-.7-.2-.1 0-.3-.1-.4-.2h-.7c-.1.1-.2.1-.3.2.1 0 .1.1 0 .1 0 0-.1 0-.1.1-.4.4-.7 1.3-.1 1.9.3.4.9.5 1.3.3.8-.4 1.1-1.2.7-2 0 0-.1-.1 0-.1h.2c.3.4.5.8.6 1.2 0 .2.1.2.2.1.6-.3 1.1-.4 1.7-.6.1-.1.3 0 .3.1.2.3.5.5.8.6.5.1 1.1.1 1.6 0s.8-.4 1.1-.7c.3-.2.4-.6.4-.9 0-.4-.2-.7-.4-1 0-.1-.1-.2-.2-.1-.1 0-.1.1-.1.2v.2c.1.1.3.2.3.4 0-.1.1-.2.1-.3.1.1.1.3.2.4.1.5-.1.8-.4 1.1-.2.2-.4.4-.6.5-.4.2-.8.2-1.3.1-.2 0-.3-.1-.5-.1s-.4-.1-.5-.2c-.3-.1-.4-.3-.5-.6.2-.1.1-.4.2-.9 0 .1 0 .1 0 0zm-3 1V65.2c0 .3 0 .6-.3.8-.3.3-.8.4-1.2.3-.5-.2-.8-.7-.7-1.2.1-.6.5-.9 1-1 .6-.1 1.1.3 1.2.8zm6.5-1.2c-.1-.1-.1-.2-.1-.4v-.1c.2.2.2.4.1.5zm-9.1-1.4v-1.1c-.1.1-.2.2-.2.3V62.1c0 .1.1.1.2.2zm15-17.4c.1-.1.2-.1.3-.1h.7c.1 0 .2.1.4.1.1 0 0-.1 0-.1-.3-.1-.6-.1-.9-.1h-.3c-.1 0-.3.1-.3.2h.1zm4.6 9.2c-.1-.3-.3-.6-.5-.8-.4-.3-.9-.3-1.3-.1-.1 0-.1.1-.2.1h.1s.1-.1.3-.1c.2-.1.5-.1.7 0 .3.1.6.3.7.6.2.5.3 1 .2 1.5-.1.6-.5 1.1-.9 1.4-.2.2-.5.4-.8.5-.1 0-.1.1-.2 0s0-.1.1-.1c.4-.2.8-.5 1.1-.8.5-.6.7-1.4.4-2.2l-.1-.1c0 .2 0 .3.1.5.1.7-.1 1.3-.6 1.8-.2.3-.5.5-.8.7-.1.1-.2 0-.1-.1 0-.3 0-.7-.1-1-.2-.6-.5-1.1-1.1-1.4-.2-.1-.3-.2-.5-.2-.1 0-.1-.1-.1-.2h-.4c-.4-.1-.7-.2-1.1-.3-.6-.1-1.1 0-1.6.3-.2.1-.3.2-.5.3-.1.1-.1.1-.2-.1-.1-.4-.3-.6-.5-.9 0 0-.1-.1-.1-.2s.1-.2.2-.3c.3-.2.6-.4.9-.5.2 0 .4-.1.5-.3.1-.2.3-.3.5-.4.2-.1.5-.2.6-.4.1-.1.3 0 .4 0 .2 0 .4.1.6.2.1 0 .1.1.2.1h.2v-.1H3.6c.3 0 .6-.1.8-.3.5-.3.9-.8 1.1-1.4.2-.5.4-1 .4-1.6 0-.4 0-.8-.1-1.2-.1-.3-.1-.7-.3-.9-.4-.6-.9-1-1.4-1.4-.2-.1-.3-.2-.5-.3-.2-.1-.4-.1-.6-.2-.2-.1-.4-.1-.6-.1-.6-.1-1.2 0-1.8.2-.1 0-.2.2-.3.1-.1 0-.1-.2-.2-.3v-.2h-.2s-.1-.1 0-.1l-.1-.1c-.1-.1-.2-.2-.2-.3v-.1h.1v-.1c-.2 0-.3 0-.4-.1 0 0 0-.1-.1-.1-.3-.3-.6-.6-1-.8-.5-.3-1.1-.4-1.7-.4-.1 0-.1 0-.1-.1.1-.1.1-.3.1-.4 0-.2.1-.1.2-.1.2.1.4.2.6.2.2 0 .2 0 .2-.2 0-.3.1-.6.2-.9.1-.4.3-.7.5-1.1 0-.1 0-.1.1-.2 0 0 0-.1.1-.1 0-.1.1-.2.2-.3v-.2c-.3-.2-.6-.3-1-.3-.1 0-.2 0-.3-.1-.1-.1-.2-.2-.4-.2s-.5-.1-.7-.1c-.3 0-.6-.2-.8-.4-.2-.1-.2-.1-.3.1v.1c-.1.3-.2.4-.5.3-.4-.1-.8-.2-1.2-.2-.1 0-.2 0-.2-.1-.3-.4-.5-.8-.7-1.2-.1-.1-.2-.2-.3-.1 0 0 0 .1.1.1h.2c.1.1.2.3.3.4.2.3.3.6.5.9 0 0 .1.1 0 .1-.3.1-.5.1-.8.2.3-.2.3-.5.2-.9 0-.2-.1-.3-.2-.5v.4c.1.2 0 .5-.1.6-.5.5-1.5.8-2.2.3-.5-.3-.7-1-.2-1.6.1-.1.2-.2.4-.2.1-.1.2-.2.4-.3-.5 0-.9.2-1.1.7 0 .1-.1.2-.2.2-.3.1-.6.3-1 .4-.2.1-.2.1-.1.3.4.6.7 1.3 1 2l.3.6c.1.2.2.2.4.2.1 0 .1 0 .1.1s0 .3-.1.4c-.1.4 0 .7.1 1.1.1.4.3.7.5 1 .2.4.5.8.9 1.1.2.1.4.3.7.4.1 0 .3 0 .4.1.2.1.5.1.7.2.1 0 .1 0 .1.1 0 .3.2.6.3.9 0 .1.1.2 0 .4 0 .6.1 1.1.2 1.7v.1s0 .1-.1.1c-.3-.1-.7 0-1 0 0 0-.1.1-.1.2v.1h.1c.3-.1.5-.1.8-.1h.3c.1 0 .1 0 .1.1s-.1.1-.1.1c-.6 0-1.3.2-1.8.6-.1.1-.2.1-.3.2h.1c.4-.3.9-.6 1.4-.6h.7c.1 0 .2.1.2.2.2.4.4.7.6 1 .1.1.1.3 0 .4v.2l.2-.2h.1c.1.1.2.2.4.2.1 0 .2.1.3.1.2.1.4.2.6.2l.1.1c.1.3.2.6.2.9 0 .6-.2 1.2-.6 1.7l-.3.3s0 .1-.1.1l-.6.3c-.1.1-.2 0-.3 0h-.2c0 .3-.1.5-.4.6-.3-.5-.5-.4-.6-.4-.1 0-.3-.2-.4-.3 0-.1.1-.1.1-.1h.3c.2 0 .3-.1.3-.3 0-.1 0-.3.1-.4v-.2c-.1.3-.1.5-.1.6 0 .1 0 .1-.1.1-.2 0-.4.1-.6.1-.1 0-.2-.1-.3-.1-.5 0-.9-.2-1.2-.6h-.1c-.2 0-.4-.1-.6-.2-.2-.1-.3-.3-.4-.5-.2-.3-.1-.5.3-.6h.2v-.1h-.5c-.1 0-.3-.1-.3-.3 0-.3.1-.5.1-.8h.3c.1 0 .2 0 .2.1 0 .2 0 .3.2.3v-.1c-.1 0-.1-.1-.1-.2s0-.2-.1-.2c0 0-.1 0-.1-.1-.1-.1-.2-.1-.3-.1-.1 0-.2 0-.3-.1-.1-.1-.3-.1-.5 0-.1.1-.2.1-.4.1-.4-.1-.9-.1-1.3-.2h-.1c.4.1.8.2 1.2.2.4.1.4.1.4.5-.1.6 0 1.2.3 1.8v.1h-.2c-.5.2-.9.6-1.3 1-.4.5-.6 1-.8 1.5 0 0 0 .1-.1.1V55c0-.2-.1-.4-.1-.5 0-.2-.1-.2-.3-.2-.3.1-.6.1-.9.2-.1 0-.1 0-.1-.1-.1 0-.1 0-.2.1-.1 0-.3.1-.4.1s.1 0 .1.1h-.1c-.2 0-.3.1-.5.1-.3.1-.6.1-.8.2-.1 0-.1 0-.1.1 0 .5 0 .9.1 1.3.1.6.3 1.1.4 1.7 0 .3 0 .2.3.3.1 0 .3 0 .4.1.1-.1.2-.2.2-.3v-.1h-.1c-.1-.1-.2-.1-.4-.2-.1 0-.1-.1-.1-.2 0-.6-.2-1.1-.3-1.6-.1-.2-.2-.5-.2-.7 0-.2 0-.2.2-.3.4-.1.9-.2 1.3-.3h.2l.1.1s.1.1.1 0v-.1c-.1-.1 0-.2.1-.2s.2-.1.3-.1c.2-.1.3 0 .4.2v.1-.3s-.1-.1 0-.1c0 0 .1 0 .1.1.1.2.1.3.1.5v1.2c0 .2 0 .4.1.6v.1c0 .1.1.2.1.3v.1s.1 0 .1.1.1.2 0 .3v.2h.1c.1.2.2.5.2.7l.1.1v-.1c.1.1.2.3.3.4.1.1.2.3.3.4.4.3.8.6 1.2.8.2 0 .5.1.7.1 0 0 .1 0 .1.1h.1c.1-.1.2 0 .3 0 .1 0 .1.1.1.1l.3.3v-.3c0-.1 0-.2.1-.2h.1l.1-.1c-.2.1-.4.1-.7.1-.6 0-1.3-.1-1.8-.5-.5-.3-.9-.7-1.2-1.2-.2-.4-.4-.8-.5-1.2-.3-.8-.4-1.6-.1-2.4.2-.6.5-1.2.9-1.7.3-.3.7-.7 1.2-.8.3-.1.5-.1.8-.1.4.1.9.1 1.3.3.6.2 1.2.6 1.6 1.2.3.4.5.8.7 1.3.1.4.2.8.2 1.2v.6c0 .3 0 .5-.1.8 0 .3-.1.6-.2.8-.3.6-.8 1.1-1.5 1.3l-.2.1h.4c.1 0 .3-.1.4-.2H-6.8s0-.1.1-.1c.1-.1.2-.1.3-.2h.1c.1.1.2 0 .2-.1v-.1l.1.1c.1.2.1.2.3 0 0 0 0-.1.1 0v.5c0 .2-.1.4 0 .6v.1-.6s0-.1.1-.1.1.1.1.1c.1.3.2.6.4.9l.4.4c.1.1.1.1 0 .2l-.2.2c-.1.1-.1.2 0 .2.1.2.3.4.4.6.3.6.5 1.2.7 1.9 0 .1.1.1.2.1.5-.3 1-.4 1.6-.6.5-.1.9-.2 1.4-.5.2-.1.4-.2.5-.3 0 0 .1-.1 0-.2-.2-.3-.4-.7-.5-1 .3.3.3.2.5.1.5-.3.9-.7 1.2-1.2 0 0 .1-.1.1 0 .2.1.3.3.5.5.1.1 0 .1-.1.1h-.2c-.1 0-.2 0-.2.1s0 .1.1.2c-.1 0-.3 0-.4.1-.1 0-.2 0-.2.1s.1.2.2.2h.4l-.1.1c-.1 0-.1.1-.1.2s.1.1.1.1h.4v.2h.1c.2 0 .4-.1.5-.2.4-.1.7-.2 1.1 0 .1 0 .2.1.3.1 0 0 .1.1.1 0s0-.1-.1-.1c-.2-.2-.4-.6-.3-.9 0-.2.1-.3.2-.4.3 0 .4-.1.4-.2.1-.1.1-.2 0-.3-.1-.1-.1-.4 0-.5l.1-.1c.3-.6.2-1.1-.1-1.6-.1-.2-.2-.4 0-.5v-.1c0-.2.1-.3.3-.4.4-.1.8-.4 1.1-.6.5-.3.7-.9.8-1.4.1-.5.1-1-.1-1.4zm-21 2.9c.2.4.2.9.2 1.3 0 .1 0 .2.2.2s.2.1.3.2c0 0 .1 0 0 .1l-.1.1c-.2 0-.4-.1-.6-.2v-.1c0-.6-.2-1.3-.3-1.9-.1-.3 0-.7-.1-1.1v-.1c.1.2 0 .3.1.5 0 .4.1.7.3 1zm-.1-1.5c-.1 0-.1 0 0 0-.1-.1-.1 0 0 0 .2-.1.4-.2.6-.2-.2.2-.4.2-.6.2zm5.8-2.8h-.1c-.1 0-.1 0-.1-.1-.3-.4-.4-1-.4-1.5v-.5c0-.1 0-.1.1-.1s.2 0 .2.2 0 .3-.1.4c-.1.2 0 .5.2.6 0 0 .1 0 0 .1-.1 0-.2.1-.2.2s0 .3.1.4c0 .1.1.1.1.2.3.1.3.1.2.1zM-2.4 38s.1 0 0 0c.3 0 .5.1.7.2.1 0 .1.1 0 .2l-.3.9c-.2.6-.5 1.1-.6 1.7 0 .2-.1.2-.3.1 0 0-.1 0-.1-.1.2 0 .3-.2.3-.4 0-.4.2-.7.4-1.1.1-.2.2-.5.3-.8 0-.1.1-.2.2-.3.1-.2 0-.2-.1-.3-.1-.1-.2 0-.4-.1 0 .1 0 .1-.1 0 0 .1 0 0 0 0zm-2.4-.6c0-.1.1-.2.1-.3 0-.1.1-.1.1 0 .1.1.3.2.5.3.4.1.7.2 1 .3.2.1.4.2.6.4.1.1.3.2.4.2.1 0 .2.1.2.1v.1c-.1.3-.2.5-.3.8 0 .2-.1.4-.2.6-.2.3-.3.6-.3 1 0 .2-.1.3-.3.1 0 0-.1-.1-.2-.1s-.1-.1-.1-.2c-.1-1-.6-2-1.3-2.6l-.1-.1c-.2-.3-.2-.3-.1-.6zm-5.3 2.2c-.1 0-.1 0-.2-.1-.2-.2-.3-.5-.4-.8l-.9-1.8c-.1-.1 0-.2.1-.2.3-.2.6-.3 1-.4.1 0 .1 0 .1.1 0 .3.1.6.3.8.3.4.6.5 1.1.6.2 0 .5 0 .7-.1.1 0 .1 0 .2-.1 0 .1-.1.1-.2.2-.6.4-1 .9-1.3 1.5-.2.3-.4.3-.5.3zm3.9 4.6c0 .2-.1.3-.1.5-.1-.1-.1-.2-.1-.4 0 0 .1-.1.2-.1zm-.5-.2c-1.1-.1-1.9-.6-2.4-1.5 0-.1-.1-.2-.2-.3 0 0-.1-.1-.1-.2-.1-.1-.1-.2-.2-.4-.3-.6-.3-1.3-.1-2 .1-.4.3-.8.6-1.1.3-.3.6-.6 1-.8.3-.2.6-.3 1-.3h.1v.1c-.3-.1-.6 0-.8.2-.6.4-1 .8-1.4 1.4-.1.3-.3.6-.3.9 0 .1 0 .2-.1.3-.1.1 0 .2.1.3h.1v-.1c-.1 0-.1-.2-.1-.3 0-.3.1-.5.2-.8.1-.4.3-.7.6-1 .3-.4.8-.7 1.2-.9.1 0 .2-.1.4 0 .1 0 .1.1.2.1h.1c0-.1 0-.2.1-.3 0-.1.1-.1.2-.1.2 0 .5.1.7.2.2.1.5.2.7.2.2 0 .3.1.4.2.1 0 .1.1.1.2s.1.2.1.2c.1.1.2.3.3.4h.1c-.2-.2-.3-.4-.4-.6-.1-.2-.3-.4-.4-.5-.1-.1-.1-.1-.2-.1-.1.1-.2 0-.2-.1-.1-.1-.2-.1-.4-.1-.1 0-.2 0-.3-.1-.1-.1-.2-.1-.3-.1 0 0 .1-.1.2 0 .6 0 1.1.2 1.5.6.4.4.7.8.9 1.3v.1c.1.2.1.4.2.6 0 .1.1.3.1.4.1.4 0 .8-.2 1.2-.1.1-.2.2-.3.2-.2 0-.3.1-.5.2v-.1c.1-.1.1-.2.1-.3h-.1c-.2.3-.4.6-.6.8-.1.1-.3.2-.4.3-.1.1-.2.2-.3.2v.1c-.1.1-.1.2-.1.2 0 .1-.1.2-.2.2-.2.1-.4.1-.6 0-.1 0-.2-.2-.2-.3H-7l.1.1c.1.3.4.4.7.3h.1c.1 0 .1-.1.2 0 0 .1 0 .2-.1.2-.3.7-.5.8-.7.7zm2.8 5.8c-.5-.2-.9-.5-1.1-.9-.2-.3-.4-.5-.5-.8-.3-.7-.6-1.4-.6-2.2 0-.7 0-1.3.1-2 .1-.5.4-1 .9-1.3.3-.2.7-.4 1.1-.6.3-.1.7-.1 1 0 .5.1.9.2 1.3.4s.8.5 1.1.9c.3.4.5.8.7 1.3.1.2.1.4.2.6 0 .2.1.4.1.6 0 .2 0 .5-.1.7-.1.3-.2.5-.2.8 0 .2-.1.3-.2.4l-.3.6c-.1.2-.2.4-.4.5l-.9.9c-.4.3-.8.5-1.4.3-.3-.1-.6-.1-.8-.2zm-.1 3.1c.2-.2.3-.4.5-.6.3-.5.4-1.1.3-1.7 0-.1-.1-.2-.1-.4v-.1c.1 0 .1 0 .1.1.1.2.2.5.2.8v.2c0 .6-.1 1.1-.4 1.6-.3 0-.4.1-.6.1 0 .1 0 .2 0 0-.1.1 0 .1 0 0zm-.6.5c.1-.1.3-.2.5-.1.4 0 .7.2 1 .5.1.1.3.3.4.5.1.2 0 .5 0 .7-.1.5-.5.8-.9 1-.4.2-.9 0-1.2-.3-.5-.7-.5-1.8.2-2.3zm-1.6.8s0-.1 0 0c.1-.1.2-.1.2-.1.3 0 .5-.2.7-.5 0 0 0-.1.1-.1s.2 0 .3.1c-.1.1-.2.3-.3.4-.3.1-.6.2-1 .2.1 0 0 0 0 0zm1.1 5.5c0 .1 0 .2-.2.2-.1 0-.1.1-.1.1s-.1.1-.1 0c-.1-.1-.1-.2-.2-.3v-.1c.1-.2.2-.5.3-.7.2-.6.2-1.1.1-1.7 0-.6-.2-1.2-.4-1.8-.1-.2-.2-.5-.4-.7.1-.2.1-.2.2-.3.2 0 .3-.1.5-.1.1 0 .1 0 .1.1 0 .3 0 .6.2.9.2.4.5.6.9.8.2 0 .4 0 .6-.1.4-.1.7-.3.9-.6.2-.3.3-.6.3-.9 0-.4-.3-.8-.7-1.1-.1-.1-.2-.1-.3-.2-.1-.1-.1-.1 0-.2.2-.3.4-.6.5-.9 0-.1 0-.2.1-.3-.2-.3-.1-.6 0-.9 0-.1 0-.2-.1-.4 0-.1-.1-.2-.1-.3 0-.1 0-.1.1-.1.3 0 .3 0 .2.3v.3l.3-.3v-.1c0-.1.3-.2.5-.2.2-.1.3-.1.5-.1l.1-.1H-1.6c.1-.2.3-.3.6-.2h.1c.1 0 .2-.1.2-.1-.1 0-.1-.1-.2-.2 0-.1.1-.2.2-.3.1 0 .1 0 .1.1l.3.6c.1 0 .1.1.2.2l.1.1-.1-.1c0-.1-.1-.1-.1-.2l-.2-.2-.1-.1s-.1-.1-.1-.2v-.1c-.1-.2-.1-.3.1-.5h.1l.1-.1v-.2l.1-.1c0-.1.1-.3.2-.4v-.2c0-.2.1-.4.2-.5 0-.2 0-.3.2-.4v-.1c-.1 0-.1 0-.1-.1s.1-.2.1-.3v-.1c-.1 0-.1 0-.1-.2v-.4c0-.1 0-.2.2-.2s.4-.3.5-.4h.2c-.1 0-.1-.1-.2 0-.1-.1-.2 0-.3 0H.5c0-.1-.1-.2 0-.3.1-.1.2-.1.3-.1.7-.3 1.4-.3 2.1-.1.3.1.5.1.8.2.5.3.9.5 1.3 1 .2.2.4.5.5.7.2.5.4.9.4 1.4v1c-.1.7-.5 1.4-1 1.9-.2.2-.4.4-.6.5-.3.1-.6.2-.9.2H2.2c-.5-.1-1.1-.2-1.5-.5-.1-.1-.2-.1-.3-.2V51c.1.1.3.2.4.2.1 0 0 .1 0 .1-.1.1-.3.2-.5.2-.2.4-.7.6-1.1.8-.2 0-.3.1-.5.1h-.3.1s.1 0 .1.1c0 0 0 .1-.1.1-.3.1-.5.2-.5.4v.2c.2.3.3.7.5 1.1 0 .1 0 .3-.1.4-.4.4-.6.8-.8 1.3 0 .1-.1.2-.3.2-.4.1-.8.3-1.1.6-.3.3-.6.6-.7 1-.1.2-.3.4-.4.6-.1.4-.1.8-.2 1.3zm5.4 3.5c0 .1 0 .2-.1.2-.2.2-.5.3-.8.4-.6.2-1.3.4-1.9.6-.1 0-.3.1-.4.2s-.2 0-.2-.1l-.3-.9c-.1-.4-.3-.8-.6-1.2l-.1-.1c-.1-.1-.1-.2 0-.3v-.1c.1-.2.2-.2.4-.1.3.2.6.3.9.4.5.1.9.2 1.4.1.2 0 .4-.1.6-.2.3-.1.4-.1.4.2 0 .2.1.3.1.5.1.2 0 .4-.3.5-.6.2-1.3.4-1.9.6-.1 0-.2.1-.3.2.1 0 .2-.1.3-.1.5-.2 1-.3 1.5-.5l.9-.3c.1 0 .1-.2.1-.3-.2-.3-.3-.5-.4-.8V62c.1 0 .1 0 .1.1.3.5.5.8.6 1.1zm3.4-.8h-.3c-.4 0-.7 0-1.1.2-.1 0-.2.1-.2.1H2v-.1l.1-.1.1-.1s-.1-.1-.1 0c-.1 0-.2 0-.3.1h-.1c-.1 0-.1-.1 0-.2 0 0 .1 0 .1-.1 0 0 .1 0 .1-.1l-.1-.1h-.6s-.1 0-.1-.1.1-.1.1-.1h.5c.1 0 .1 0 .2-.1 0-.1 0-.1-.1-.1 0 0-.1 0-.1-.1s.1 0 .1 0H2c.1 0 .2-.1.1-.2 0-.1-.1-.1-.2-.2l-.3-.3c-.1-.1-.1-.1 0-.2.2-.1.3-.1.5-.2.1 0 .1 0 .2.1.2.4.4.7.6 1 .1.1.2.2.2.3v.1H3c-.2-.1-.5-.1-.7-.1-.1 0-.3 0-.4.1 0 0-.1 0-.1.1.7-.3 1.3-.1 1.9.4zm.3-1.5-.1.1c-.2.2-.4.5-.3.8 0 .1.1.2 0 .2s-.2-.1-.2-.1c-.3-.3-.3-.8-.1-1.2l.1-.1c-.1.1-.3.3-.3.5v.4H3c-.3-.3-.6-.7-.7-1.1v-.1c.1 0 .1-.1.2-.1s.2 0 .2.1.1.2.2.3c.1.1.2.1.2 0s.1-.2.2-.1h.6c.1 0 .1 0 .1.1v.2c0 .1 0 .1.1.1 0-.2 0-.1-.1 0zm-1.1-.6c.1 0 .1 0 .1.1 0 0 0 .1-.1.1v-.2c-.1 0 0 0 0 0zm1-2.5c0 .1 0 .2-.1.1s-.1-.1-.1-.2V57c0-.2-.1-.4-.1-.6 0 .2 0 .4-.2.6v.2c.1.1.2.2.1.4 0 .1-.1.1-.1.1s.1.1.1.2c.2.1.5.4.6.7 0 .1.1.1.1.2.1.2.1.3.1.5V59.6c0 .1 0 .1-.1.2-.1.3-.5.5-.8.5-.3 0-.6-.2-.8-.4v-.1c-.1 0-.2.1-.3.1-.2 0-.3.1-.5.1h-.1c-.2.1-.3.1-.5.1 0 0 0 .1-.1 0H1c0 .1-.1.1-.2.1s-.2 0-.2-.1H.3c-.6 0-1.1-.3-1.3-.9-.1-.1-.2-.3-.3-.5l-.1-.1c-.1-.2-.3-.5-.4-.7-.1-.2-.1-.5.1-.7v-.1c0-.1 0-.1.1-.2 0-.4.2-.7.4-1v-.1s0-.1.1-.1c0-.1.1-.2.1-.3.4-.5.9-.8 1.5-1.1-.4 0-.8.2-1.1.5-.7.6-1.1 1.4-1.3 2.3 0 .3 0 .6.1.8V58.2c.2.4.5.8.8 1.2.3.3.6.6 1 .7.7.3 1.4.3 2.1-.1 0 0 .1 0 .2-.1h.1v.1c-.6.5-1.3.5-2.1.5-.6 0-1.1-.3-1.6-.6l-.1-.1v.1l1.2.6c.1 0 .1.1.2.1 0 0 .1 0 .1.1s.1.1.1.2l.1-.1c.1-.1.2-.1.3 0 .1 0 .1.1 0 .1-.2.3-.4.5-.8.7-.1.1-.2.1-.3.1 0 0-.1 0-.1.1l-.1.1c.2-.1.5-.2.7-.3.1-.1.3-.2.4-.3.1-.1.2-.3.4-.4H1v.1c-.2.3-.5.5-.8.8-.4.3-.8.5-1.2.7-.3.1-.6.1-.9.1h-.4c.1 0 .2-.1.4 0-.1 0-.2 0-.3-.1h-.2c0 .1.1.1.1.1-.2 0-.4 0-.6-.1-.5-.2-.9-.4-1.2-.8-.1-.1-.2-.3-.4-.4-.1-.1-.1-.3-.2-.4-.1-.2-.1-.4-.1-.6 0-.5 0-1 .2-1.5s.4-1.1.9-1.5c.3-.3.7-.5 1-.6h.2c0 .1-.1.1-.1.2-.1.1-.1.2-.2.3 0 0 .1 0 .1.1 0-.1 0-.1.1-.2 0 0 0-.1.1 0v1c.2.1.2.3.2.5v.4h.1s.1 0 .1.1c-.2-.6-.2-1.2-.2-1.8 0-.5.2-1 .4-1.4.3-.5.7-.9 1.3-1.1.1 0 .2-.1.3-.1.3-.7.5-.7.7-.7.5 0 .9.1 1.4.2.4.1.8.3 1.2.5.4.3.8.8.9 1.3.2.6.1 1.2 0 1.8zm-9.8-2.3c-.1-.3-.2-.5-.4-.8-.4-.7-1.1-1.2-1.9-1.4-.6-.1-1.2-.1-1.7.2-.4.2-.7.5-1 .8-.3.3-.5.6-.6 1-.1.3-.1.7-.2 1-.1.5 0 1.1.1 1.6s.3.9.6 1.3c.4.5.9.9 1.4 1.2.5.3 1.1.3 1.7.2.4 0 .6-.2.9-.4.5-.3 1-.7 1.2-1.3.1-.3.2-.5.2-.8 0-.3.1-.6.1-.9.1-.6-.2-1.1-.4-1.7zm-.2 3.6c-.1.2-.3.3-.5.4l-.1.1c-.1.1-.3.2-.4.3-.3.2-.6.3-1 .3h.5c0 .1-.1.1-.1.1-.4.1-.7.1-1.1 0-.8-.2-1.5-.5-2-1.2 0 0 0-.1-.1-.1-.1-.1-.2-.2-.2-.4 0-.1-.1-.2-.1-.3 0-.1-.1-.1-.1-.2s-.1-.2-.1-.2c-.2-.7-.1-1.5-.1-2.2.1-.8.5-1.4 1.1-1.8.3-.2.7-.4 1.1-.5h.1c.2 0 .5-.1.7 0h.5c.4.1.7.4 1 .7.2.1.3.3.4.5.3.3.5.7.7 1.1.2.4.3.9.3 1.3 0 .8-.1 1.5-.5 2.1zm-5.2-20.6c0-.3-.1-.5-.3-.7-.3-.5-.9-.7-1.5-.6-.2 0-.4.1-.6.1 0 0 0 .1-.1.1h.1c.1 0 .2-.1.4-.1.5 0 .9 0 1.3.4.2.1.4.3.4.5.2.6-.3 1-.7.9 0 .1.2.2.3.1.5 0 .7-.3.7-.7zm-.4 1.9c-.1-.2-.2-.5-.3-.7l-.3-.5-.1.1c.1.3.2.5.3.8.1 0 .1.1.2.2s.2.3.1.5c.2-.2.2-.3.1-.4zm-1.9-4.7h.1c.2 0 .5-.2.7-.2 0 0 .1 0 .1-.1.1 0 .1-.1.2 0h.3c.1-.1.2-.2.2-.3h-.4c-.7.1-1.3.4-1.9.7.1 0 .1 0 .2-.1.2 0 .4-.1.5 0zm1.2 1.9h.2c-.2-.1-.3-.1-.5-.1.1 0 .1.1.2.1h.1zM7.8 51.5s.1-.1 0-.1h-.1c-.1 0-.2.1-.3.1l-.1.1h.2c0 .1-.1.1-.2.2h-.2v.1h.1V52.2c.1-.1.2-.1.2-.2.1-.1.1-.1.1-.2s0-.2.1-.2.2-.1.2-.1zm-1.8-6c-.1 0-.2.1-.2.2 0 .2.1.4.3.4.2 0 .3-.1.3-.3-.1-.2-.2-.3-.4-.3zm.1.5c-.1 0-.2-.1-.2-.2s.1-.2.2-.2.2.1.2.2c-.1.1-.1.2-.2.2zM-4 50.9c.3-.3.2-.6 0-.9v.2c.1.1.1.3.1.5-.1.1-.1.1-.1.2zm-6.8-10.3c-.1 0-.2.1-.1.2 0 .1.1.2.2.2s.2-.1.2-.2c-.1-.1-.2-.2-.3-.2zm.1.2c0 .1 0 .1-.1.1s-.1 0-.1-.1 0-.1.1-.1.1 0 .1.1zm16.8 8.5c0 .1.1.2.2.2s.2-.1.2-.2-.1-.2-.2-.2-.2 0-.2.2zm.3 0c0 .1 0 .1 0 0l-.1.1-.1-.1s0-.1.1-.1.1.1.1.1zm-26.5 11c.1.4.2.7.5.9.3.2.5.5.9.6.4.2.8.1 1.2 0 .4-.1.7-.3.9-.7.1-.2.2-.5.1-.8 0 .1 0 .3-.1.4 0 .2 0 .3-.2.6s-.6.4-.9.5c-.6.1-1.1-.1-1.5-.6-.6-.6-.8-1.3-.6-2.1 0-.2.1-.4.2-.6.1-.2.3-.4.6-.4h.4c.2 0 .3.1.4.3 0 .1 0 .2.1.2v.1c.1-.1.1-.2.2-.2 0-.1 0-.1-.1-.2-.1-.2-.1-.2.1-.3.2-.1.4-.1.6-.2.2 0 .2-.1.1-.3 0-.1-.1-.2-.2-.3-.1-.3-.1-.3.1-.4h.1c.4-.3.7-.7.9-1.1.2-.4.4-.8.5-1.2 0-.2.1-.2.2-.1H-15.3s0-.1-.1-.1c-.2-.1-.3-.2-.3-.4s.1-.4 0-.6c0-.1 0-.2.2-.3.1 0 .2-.1.2-.2v-.1.1c0 .1-.1.1-.2.1h-.2c0-.2-.1-.4-.2-.7 0-.2-.1-.3-.1-.5-.1-.1-.1-.3 0-.4 0-.1.1-.2.1-.3.1-.3.2-.6.4-.8.1-.1 0-.1 0-.2-.3-.2-.7-.4-1.1-.6-.3-.1-.6-.1-.9-.2-.5-.1-1-.2-1.5-.2-.1 0-.1 0-.1.1s.1.3.1.4c0 .3 0 .4-.3.4h-.2c-.2 0-.4.1-.6.2-.1.1-.2.1-.2-.1 0-.4-.2-.7-.3-1-.1-.2-.3-.3-.6-.4-.4-.2-.8-.2-1.1.1-.3.2-.4.5-.5.8-.1.4-.1.9.2 1.3.2.3.5.6.9.6 0 0 .1 0 .1.1l-.1.1c-.1.1-.2.2-.2.3 0 .1-.1.1-.1.2.2-.3.5-.5.8-.7 0 0 .1 0 .2-.1l.2-.2.9-.6.6-.3c-.3.1-.6.2-.9.4 0 0-.1.1-.1 0v-.1c.3-.2.6-.4.9-.5 1-.2 1.8.1 2.5.8.4.4.6.8.8 1.3.1.3.2.6.2 1 0 .3 0 .6-.2.9 0 .1-.1.3-.2.4-.1.3-.2.6-.4.8-.2.2-.4.5-.6.6 0 .1-.1.2-.3.3-.5.3-1.1.4-1.7.4h-.1c-.4 0-.8-.1-1.1-.3-.3-.2-.5-.4-.7-.6-.1-.1-.2-.2-.2-.3l-.5-.5.2.4v.2c-.1.1-.3.2-.4.4s-.1.2 0 .4c.2.2.3.4.4.6.3.5.7 1.1.9 1.7 0 .1.1.1.2.1h.3c.1 0 .1 0 .1.1 0 .8 0 1.2.1 1.6zm-.5-9c-.4.5-.8.6-1.4.2-.4-.3-.5-.6-.6-1.1 0-.3 0-.6.1-.9.2-.4.8-.6 1.2-.4.5.2.8.7.8 1.3.1.4 0 .7-.1.9zm4.4.2c-.1-.1-.1-.2-.1-.3 0-.2.2-.4.4-.5.1-.1.1-.2 0-.3-.3-.1-.7-.3-1-.4-.2-.1-.5-.2-.8-.2h-.2c.1.1.2.1.3.1.5.1 1 .3 1.4.6.1 0 .1.1 0 .2s-.2.3-.2.5-.1.2-.2.1c-.2-.2-.4-.4-.7-.5-.4-.2-.9-.3-1.4-.3-.2 0-.2 0-.1-.2v-.5c0-.1 0-.1.1-.2h.7c.5.1 1 .2 1.4.3.3.1.6.3.9.5.1.1.1.1 0 .2-.2.3-.3.6-.5.9.1.1 0 .1 0 0zm-4.2 7.4c-.1 0-.1 0-.1-.1-.3-.7-.7-1.3-1.1-2-.1-.1-.1-.2-.2-.3v-.1c.1-.1.2-.2.4-.3h.1c0 .1.1.1 0 .1-.1.1-.2.2-.2.3v.1c.3.3.5.7.7 1 .2.3.3.6.5.9 0 0 0 .1.2.1 0-.2-.1-.3-.2-.5l-.9-1.5c-.1-.1 0-.2.1-.3.1-.1.2 0 .2 0l.6.6c.2.1.4.2.5.2.4.1.7.2 1.1.2.3 0 .7-.1 1-.1.1 0 .2 0 .2.1s.1.3.1.4v.1c-.2.1-.5.2-.7.3h-.1c-.1-.1-.3-.1-.5-.2-.4-.1-.8.1-1 .5-.2.4-.5.4-.7.5zm-.4-2.6.2.2c.2.3.6.4.9.5-.4-.2-.8-.4-1.1-.7zm27.6-2c-.1-.1-.2-.1-.3 0-.1.1-.1.2 0 .3.1.1.1.2.1.3.1.1.2.1.4.1s.3-.2.3-.3c0-.1 0-.1-.1-.2s-.3-.1-.4-.2zm-.1.2c-.1 0-.1-.1-.1-.1 0-.1 0-.1.1-.1s.1 0 .1.1l-.1.1zm.2 0c.1 0 .1.1.1.2s0 .2-.1.2-.1-.1-.1-.2 0-.2.1-.2zm-22.2 10.2c.1 0 0-.1 0-.2 0 0 0-.1-.1-.1-.1-.1-.1-.3-.1-.5.1 0 .1.1.1.2.1.2.3.3.5.3.1 0 .2 0 .2-.1v-.5c-.1-.1 0-.1.1-.2.1 0 .2-.2.2-.3 0 0 0-.1-.1-.1-.3-.4-.6-.8-.7-1.3-.2-.4-.3-.8-.1-1.3 0 0 0-.1-.1-.1s-.1 0-.1.1-.1.3-.1.4c-.1.2-.2.3-.3.5-.3.5-.6.8-1.1 1.1-.2.1-.4.3-.5.5-.1.1-.1.2 0 .3.1.1 0 .1 0 .2-.1.1-.1.3-.1.4 0 .1 0 .1-.1.1-.3 0-.5-.2-.6-.5 0-.1 0-.1-.1-.2 0 .1 0 .2-.1.3l.2.4c0 .1.1.1.2.2.1 0 .2 0 .3.1.2 0 .3 0 .4.2.3.1.6.2.8.3l-.1-.1c-.1 0-.1-.1-.1-.2s.1-.2.1-.3v-.1c-.1.1-.1.3-.2.4 0 0 0 .1-.1.1s-.2-.1-.2-.1c0-.1-.1-.2-.2-.3 0 0-.1 0 0-.1 0 0 .1-.1.1 0 .1.1.2 0 .3-.1l.1-.1-.1-.1-.1.1v-.1s.1-.1 0-.1-.1 0-.1.1l-.2.2s-.1.1-.1 0V64c0-.1.1-.3.3-.4l.1-.1h-.2v-.1c.1-.1.2-.3.4-.4.1 0 .1-.1.2-.1v-.1c.1-.2.3-.3.4-.4.2-.2.4-.5.5-.7 0 0 0-.1.1-.1 0 .2-.1.5-.2.7h.1v-.1c0 .1.1.1.1.2 0 0 .1 0 .1.1-.1-.3-.1-.5 0-.8.1.1.1.2.1.3.1.4.4.9.6 1.2.1.1.2.2.2.3 0 0 .1.1 0 .1l-.1.1c-.1 0-.2-.1-.3-.1 0 0-.1-.1-.1 0v.1c0 .1.1.1.2.2 0 .1.1.1.1.2-.1.1 0 .2 0 .3v.1h-.1c-.2-.1-.3-.2-.3-.4 0-.1-.1-.2-.1-.3v.1c0 .1-.1.2-.1.3 0 .2.1.3.1.5.1-.2.1-.1.1 0-.1-.1-.2-.1-.2-.2-.1-.1-.1-.1-.2 0-.2.1-.5.1-.8.2.2.1.3.1.5.2h.1v-.1h.1c.1 0 .1 0 .1-.1 0 0 .1 0 .1-.1.2.1.3.1.3.1zm-.3 0s.1 0 0 0c.1 0 0 0 0 0zm22.8-7.5c0-.2.2-.4.4-.5.4-.1.7-.4.9-.7.2-.3.2-.6.1-.9v.1c.1.6-.3 1.1-.8 1.3-.2.1-.4.2-.6.4v.3c-.2.2-.2.4-.3.6-.1.1-.1.2 0 .3.1.2.1.4 0 .6v.2c.1-.2.2-.5.1-.7 0-.2-.1-.3 0-.5.2-.1.2-.3.2-.5zm-1.5-6.4c.1 0 .1 0 .1.1s.1.1.2 0 .2-.3.2-.5.1-.3.3-.4c0 0 .1-.1.1 0s.2.1.1.2v.1c.1-.1.2-.2.3-.2.2-.1.2-.1.3-.1.1 0 .1-.1.2 0l-.1.1c.1.1.2 0 .3 0 0 .1-.1.1-.1.1v.1l.1-.1s0-.1.1 0 0 .1 0 .1c0 .1 0 .2-.1.2v.4c.1-.1.1-.2.1-.3v-.1c.1-.1.2-.3.1-.5 0-.1-.1-.1-.2-.1h-.1c0-.1-.1-.1-.2-.1s-.3 0-.3.1c0 0-.1.1-.1 0-.1-.1-.2 0-.3-.1h-.1c-.2.1-.3.2-.4.4 0 .1-.1.3-.1.4 0 .1-.1.2-.2.1-.1 0 0-.2 0-.2s.1-.2.1-.3v-.1h-.1c0 .1-.1.1-.1.2l-.3.3c-.2 0-.2.2-.2.3 0 .2-.1.5-.1.7v.1c-.1.2-.4.4-.7.4h-.1v.1c0 .1.1 0 .2 0 .3-.1.6-.1.9 0l-.1-.1h-.1.1v-.3c-.2.2-.3.3-.4.3l.3-.6v.2l.1-.1v-.7c.1-.1.2-.1.3-.1zm-22 13.7c0 .1 0 .1 0 0 .1.1.2 0 .4 0v-.1c-.2.1-.3.1-.4.1zM8.6 49.8c-.1-.1-.1-.3-.1-.4 0-.2 0-.4-.1-.6 0-.2-.1-.3-.1-.5 0-.3-.1-.6-.3-.8-.2-.2-.2-.4-.2-.6.1-.5 0-.8-.3-1.2-.2-.2-.3-.4-.5-.6-.2-.2-.3-.4-.3-.6 0-.2-.1-.3-.2-.5s-.2-.5-.1-.7c.1-.7-.1-1.3-.6-1.8-.1-.1-.2-.1-.3-.1-.1 0-.2-.1-.3-.2-.2-.3-.5-.5-.8-.7l-.3-.3c-.1-.1-.2-.2-.4-.3-.2-.2-.5-.4-.7-.5-.1-.1-.1-.2-.2-.3-.1-.3-.2-.5-.5-.6 0 0-.1 0-.1-.1-.1-.3-.4-.4-.6-.6-.2-.2-.4-.5-.7-.6l-.6-.3c-.2-.1-.4-.4-.4-.7 0-.2-.2-.5-.5-.5-.1 0-.2-.1-.3-.2-.3-.2-.7-.2-1.1-.1-.2 0-.4 0-.5.1-.5 0-1.1 0-1.6-.3-.3-.2-.6-.2-1-.3-.1 0-.2 0-.2-.1l-.4-.4c-.1-.1-.3-.2-.5-.2-.3-.1-.7 0-1 .1-.1 0-.3.1-.5.1h-.4c-.2-.1-.5-.1-.7.1-.1 0-.2.1-.3.2-.1.1-.2.1-.2.1-.2-.1-.4-.1-.6-.1h-.2s-.1 0-.2.1c-.1 0-.3.1-.3.2s-.1.1-.2.1c-.2 0-.3 0-.5-.1-.1 0-.2-.1-.3-.2l-.1.1c.1.1.2.2.3.2h.4c.2 0 .4.1.5-.1h.2c.2-.1.4-.1.5-.1.1 0 .2 0 .3.1.1 0 .3 0 .4-.1.2-.2.5-.3.7-.2h.4c.4-.1.8-.2 1.2-.2.3 0 .5.2.6.4.1.3.2.4.5.4h.2c.2.1.3.2.5.3.2.1.5.2.7.2.4.1.8.2 1.2.4.1.1.3.1.5 0h.2c.1 0 .3 0 .4-.1.2-.1.5-.1.7-.1.2 0 .3.1.3.3 0 .1.1.2.1.2.2.1.5.3.6.5l.3.3c.4.1.7.3 1.1.5.7.2.9.3 1 .6 0 .1.1.1.1.2.2.1.4.3.5.5.1.3.3.5.5.6.1.1.3.2.4.4.1.2.2.3.3.4.2.1.3.2.4.4.1.2.3.4.4.6v.1c0 .2.1.3.3.4.2.1.5.2.7.4s.4.4.3.6c-.1.5.1.9.3 1.2.1.1.1.2.1.4 0 .4.2.7.5.9.5.3.8 1 .4 1.6-.1.2-.1.4.1.6.1 0 .1.1.1.2.5.3.5.8.5 1.2v.3c0 .1.1.2.1.3.1.2.2.5.2.7 0 .1 0 .1-.1.2-.2.1-.2.1-.1.3.1.2 0 .5-.1.6-.2.2-.4.5-.4.8 0 .1 0 .1-.1.1s-.2 0-.2-.1v.1h.1s.1 0 .1.1c0 0 0 .1-.1.1 0 0-.1 0-.1.1h-.1s0 .1-.1.1c0 .2-.2.2-.3.3 0 0-.2 0-.2-.1-.2 0-.4-.1-.4-.3h-.1c0 .1.1.1.1.2l-.2-.2h-.2l.2.2c.2.2.4.3.6.4H7l.3-.3c0-.1 0-.1.1-.2 0 0 .1 0 .1-.1.1-.1.2-.1.2 0v.4c.1.1.1.2.1.4v.5c.2.4.3.8.2 1.2 0 .2-.1.3-.2.4-.2.2-.4.4-.6.5-.3.1-.5.3-.4.7 0 .1 0 .2-.1.3-.2.2-.3.6-.2.9.1.4 0 .8-.4 1 .1 0 0 .1-.1.2s-.3.2-.3.4c0 .1-.1.1-.1.1-.2.1-.3.3-.3.5 0 .1 0 .1-.1.2-.1 0-.1.1-.1.1 0 .2-.1.4-.3.5-.3.2-.3.5-.3.7v.4c0 .2-.1.3-.2.5-.1.4-.5.6-.9.5 0 0-.1 0-.1-.1-.2-.1-.5 0-.7.2-.1.2-.3.3-.6.3s-.5.1-.6.3c-.2.2-.4.4-.7.4-.2.1-.4.2-.5.4 0 .1-.1.2-.1.2 0 .2-.2.3-.3.2-.1 0-.3 0-.3.2 0 .1-.1.2-.2.2s-.2.1-.2.2l-.1.2c-.1.4-.4.5-.7.3-.2-.1-.3-.2-.4-.3-.1-.1-.2 0-.3 0-.1.1-.2.2-.2.4-.1.2-.2.2-.4.2h-.2c-.2.1-.3.2-.5.3-.2 0-.4.1-.6.1-.4.2-.7.3-.9.5l-.2.2c-.3.2-.4.2-.6-.1l-.1-.1c0-.1-.2-.1-.2-.1-.1 0-.3.1-.4.1-.1 0-.2 0-.3-.1-.1-.2-.3-.3-.6-.3-.1 0-.2 0-.3.1-.1.1-.1.1-.2 0s-.1 0-.2 0c0 .1-.1.2-.1.2-.1.2-.1.2-.3.1 0 0-.1 0-.1-.1-.1-.1-.2-.2-.4-.3-.2-.1-.5 0-.7 0-.3.1-.6 0-.8-.3 0-.1-.2-.1-.3-.1-.1.1-.2.1-.3.2-.2.1-.4.2-.6 0-.4-.3-.8-.4-1.3-.5-.3 0-.6-.2-.8-.4l-.3-.3c-.1 0-.3-.1-.3-.3-.1-.1-.3-.2-.5-.2h-.3v.2h.1c.2 0 .4.1.6.2.2.2.5.4.8.6.3.2.6.2.9.3.2 0 .4.1.6.2.1.1.2.1.3.3.1.2.3.2.4.1.1 0 .2-.1.3-.2.1-.1.3-.1.5 0 .1.1.3.1.4.2.2.1.5.1.7 0 .3-.1.5-.1.7.2.1.1.3.2.4.2.1 0 .2 0 .2-.1v-.1c0-.2.1-.2.3-.1h.2c.3-.2.3-.2.6 0 .1 0 .1.1.2.1.1.1.2.1.3 0 .1 0 .2-.1.3-.1.2 0 .3 0 .4.2h-.1c-.1-.1-.2-.1-.3 0-.2.1-.5.1-.7 0-.1 0-.1-.1-.2-.1-.2-.1-.3-.1-.4 0-.1.1-.1.1-.3 0h-.1c0 .1-.1.1-.1.2-.2.2-.5.2-.6 0-.2-.3-.4-.4-.7-.4h-.6c-.2 0-.4 0-.6-.2-.1 0-.2-.1-.2 0-.1.1-.3.1-.5.1-.4.1-.7 0-1-.3-.1-.1-.2-.2-.4-.2l-.9-.3c-.1 0-.1 0-.2-.1-.2 0-.3-.2-.5-.4-.1-.2-.3-.4-.5-.4h-.1s-.1 0-.1-.1v.1c.1.1.3.1.4.2.1 0 .2.1.3.2.1.1.1.2.2.3.1.1.3.1.5.2.4.2.8.3 1.1.4.1 0 .1.1.2.1.3.3.8.4 1.2.3.2-.1.4-.1.6 0 .2.1.4.1.5.1h.8c.2 0 .3.1.4.3.1.2.4.3.6.2.1 0 .2-.2.3-.3.1-.1.1-.1.2 0s.1 0 .2 0c.2-.2.2-.2.4 0 .3.2.6.2.9.1h.2c.4.2.7 0 1-.2.1-.1.3-.2.4-.3.2-.2.5-.3.8-.3.2 0 .4-.1.6-.2.1-.1.2-.1.4-.1.2.1.5 0 .7-.2.1-.1.2-.1.3 0 .1 0 .1 0 .2.1.3.2.8.1 1-.2l.6-.6c.1-.1.2-.1.3-.1.3 0 .5-.3.5-.6s.1-.6.5-.7c.1 0 .2-.1.3-.1.1-.1.2-.1.2-.2.1-.2.4-.3.6-.3.2 0 .4-.1.5-.3.1.2.4.1.6.2.1 0 .2 0 .2.1.2.1.4 0 .6-.1.3-.2.4-.4.5-.8.1-.2.1-.5.1-.7 0-.2.1-.4.2-.5.2-.1.2-.3.3-.5 0-.1 0-.2.2-.2.1 0 .1-.1.1-.1v-.2c0-.1 0-.2.1-.2l.3-.3s.1 0 .1-.1c.2-.1.5-.3.7-.4.1 0 .1-.1.1-.2-.2.3-.6.4-.8.6h-.1v-.1c.1-.1.2-.1.3-.2.5-.3.6-.5.4-1.1-.1-.3-.1-.6.2-.9.3-.2.4-.3.3-.5 0-.3.1-.4.4-.5.6-.1.8-.6.8-1.1 0-.4-.1-.8-.2-1.2-.1-.2-.1-.4 0-.6 0-.1 0-.2-.1-.3-.1 0-.1-.1 0-.2v-.2c-.2-.1-.2-.3-.1-.5 0-.1.2-.3.3-.5.2-.2.2-.4.1-.7 0-.1-.1-.2.1-.2.1 0 .1-.1.1-.2 0-.3-.1-.5-.2-.7s-.1-.5-.1-.8v-.8c0-.2-.1-.4-.2-.5-.1-.1-.1-.2-.2-.3v-.2c.1.2.2.3.3.4.2.2.2.4.2.6 0 .2 0 .4.1.6 0 .1.1.2.1.3 0 .3 0 .7.2.9.1.1.1.3.1.4 0 .1 0 .3-.2.3-.1 0-.1.1-.1.2s0 .3-.1.4v.1c0 .2-.1.5-.3.6-.2.1-.1.3.1.5.1.1.1.2.1.3v.3c.1.1.1.3.1.5-.1.4.1.7.2 1h.1c0-.1 0-.3-.1-.4-.1-.2-.1-.5-.1-.7 0-.1 0-.3-.1-.4-.1-.1-.1-.2 0-.4 0-.1 0-.2-.1-.2l-.1-.1c-.1-.1 0-.2 0-.3.1-.1.1-.2.2-.2.1-.1.1-.2.1-.3v-.1c.1-.2.2-.4.2-.6 0 0 0-.1.1-.1.2-.1.2-.2.2-.4-.1-.1-.1-.3-.3-.6zM.4 37.2c-.1 0-.1-.1-.2-.1-.2-.3-.4-.5-.7-.7l-.1-.1c0-.2-.2-.4-.5-.4-.2 0-.4 0-.6.1 0 0-.2 0-.3-.1h-.2c-.2.1-.4.1-.6 0-.4-.2-.9-.3-1.3-.4-.1 0-.2 0-.4-.1-.1 0-.2-.1-.3-.2-.1-.1-.3-.2-.4-.1-.1 0-.4-.2-.5-.3 0-.2-.1-.4-.3-.4.1 0 .3 0 .4.1.1.1.2.2.4.3.1.1.3.2.5.3.3 0 .6.1.8.2.2.1.5.2.8.2.2 0 .4 0 .6.1h.3c.3-.1.6-.1 1-.1.2 0 .4.1.6.2.1.1.2.1.3.2.2 0 .4.2.4.4 0 .4.3.6.6.8.2.1.5.2.7.4l.1.1c-.5-.2-.8-.3-1.1-.4zm3.4 3s0-.1 0 0c0-.1.1-.1 0 0 .1 0 .2.1.2.3-.1-.1-.2-.2-.2-.3zm2.5 3.4c-.1-.1-.1-.2-.1-.3.1-.5-.1-.8-.3-1.1-.1-.2-.3-.3-.6-.3-.2 0-.3-.2-.4-.3-.1-.2-.3-.5-.5-.7v-.1h.1c.2.2.4.3.6.5l.3.3c.5.1.7.6.9 1 .1.3.1.7 0 1zM.1 65.4s0 .1 0 0c-.6.1-.9.5-1.2.8-.1.1-.3.2-.6.3h-.2c-.1 0-.2-.1-.3-.1-.1 0-.3-.1-.4 0 .1-.3.2-.4.5-.2.2.1.4.2.6.1.3 0 .5-.2.5-.5 0-.2.1-.3.3-.3.1 0 .1-.1.2-.2.1-.2.1-.2.3-.1.2 0 .3 0 .4-.2.1-.1.1-.3.2-.4 0 .4 0 .7-.3.8zm-21.6-16c-.2-.1-.4 0-.6.1-.1.2-.3.4-.2.7 0 .1 0 .3.1.4.1.3.4.5.6.6.3.1.5.1.6-.2.4-.6 0-1.3-.5-1.6zm.5 1.2c0 .2 0 .3-.1.5 0 .1-.1.1-.3.1-.4-.1-.8-.5-.8-.9 0-.2 0-.4.2-.6.1-.1.3-.2.5-.1.3.2.5.6.5 1zm27.9-1.5c.2 0 .3-.2.3-.4s-.1-.3-.3-.3c-.2 0-.3.2-.3.4 0 .1.1.3.3.3zm-.2-.4c0-.1.1-.2.2-.2s.2.1.2.3c0 .1-.1.2-.2.2s-.2-.2-.2-.3z" style="stroke:#000;stroke-width:.1;stroke-miterlimit:10"/><path d="M-29.7 30.2h41.3v41.3h-41.3V30.2z" style="fill:none"/></svg>