<svg xmlns="http://www.w3.org/2000/svg" viewBox="-29 31 40 40"><style>.st1,.st2{fill:#010202;stroke:#010202;stroke-miterlimit:10}.st1{display:inline;stroke-width:.25}.st2{stroke-width:.1}</style><g id="Layer_2"><path id="XMLID_188_" d="M-9.8 41.5c.1 0 .1 0 .1.1.1.5.2.9.3 1.4 0 .1-.1.2-.1.3v.1c.1.1.2.2.2.3 0 .2 0 .4.1.5.1.2-.1.3-.2.3.3.1.4.4.4.7 0 .4-.1.8-.3 1.2-.2.5-.4 1-.7 1.5-.1.1-.2.1-.3.1.1-.2.2-.4.3-.5.3-.6.6-1.2.8-1.8.1-.2.1-.4.1-.6s-.1-.4-.3-.4h-.1c-.7.3-1.5.4-2.3.5-1.2.1-2.4.2-3.6.2-.9 0-1.7-.1-2.6-.2-.6-.1-1.1-.1-1.7-.2-.2 0-.4-.1-.6-.2-.3-.1-.3-.3-.4-.6 0-.3.1-.6.1-.9.1-.1.3-.1.2-.3-.1-.1 0-.3 0-.4 0-.2 0-.3.1-.5 0-.3.2-.5.2-.8 0-.3.1-.5.1-.8.1-.6.3-1.2.5-1.7.3-.6.9-1.1 1.4-1.5l1.2-.9c-.1-.1-.1-.1-.1-.2v-.7c0-.1 0-.2-.1-.2-.3 0-.3 0-.4-.4 0-.4 0-.7.1-1 0-.1.1-.1.2-.2 0 0 .1 0 .1-.1h-.1c-.1 0-.1 0-.1-.1-.1-.3-.1-.7 0-1 .1-.2.2-.4.4-.5h1.3c.7 0 1.4-.1 2.1 0 .5.1.5.1.7.6.1.2.1.5 0 .7v.1c.1.1 0 .1-.1.1 0 0-.1 0-.1.1s0 .1.1.1.1.1.2.2c.1.4.1.9 0 1.3 0 .1-.1.1-.2.1-.3 0-.3 0-.3.2s.1.4 0 .5c0 .1 0 .1.1.2.6.6 1.3 1.1 1.9 1.8.7.7 1 1.5 1.2 2.5 0 .2.1.4 0 .6 0 .1 0 .2.1.2.1.1.1.2.1.2h-.2c-.3-.1-.5-.3-.8-.4-.3-.1-.7-.2-1-.1-.6.1-1.1.3-1.6.6-.6.2-1.1.4-1.7.4s-1.2-.2-1.7-.4l-1.5-.6c-.6-.2-1.2-.1-1.8.3-.1.1-.2.1-.2.2-.1.4-.1.8-.1 1.3 1.1-.6 2-.3 3 .4 0-.5.1-.9.2-1.3-.1.4-.1.8-.2 1.2v.1c.4.2.8.4 1.3.5.6 0 1.1-.1 1.6-.3.5-.2 1-.4 1.6-.7.3-.1.7-.3 1-.3h.2c.4-.1.8-.1 1.2 0 .3.1.5.3.7.4l.1.1c.1 0 0-.1 0-.2s-.1-.3-.1-.4c.1-.2 0-.5 0-.8zm-.3-.6c-.1-.6-.2-1.2-.5-1.7-.3-.6-.8-1-1.2-1.4-.4-.3-.8-.7-1.1-1.1l-.3-.3c-.1-.1 0-.3 0-.4v-.2c0-.3 0-.3-.4-.3h-3.1c-.1 0-.1.1-.1.1v.7c0 .1 0 .1-.1.2-.2.1-.4.3-.5.4-.6.3-1.1.7-1.6 1.2-.7.8-.9 1.7-1.1 2.7.7-.4 1.5-.6 2.3-.2 0-.4 0-.8.2-1.2 0 .4-.1.7-.1 1.1 0 .1 0 .1.1.1.3.2.6.3.9.5.1 0 .1 0 .1-.1 0-.2 0-.4.1-.6 0-.3.1-.7.2-1v.3c-.1.5 0 1-.2 1.4 0 .1 0 .1.1.1.5.2 1 .3 1.5.3.4-.1.8-.2 1.2-.4l1.2-.6c.6-.2 1.2-.3 1.8 0 .1.1.3.2.6.4zm-5 4.3c1.1 0 2.5-.1 3.8-.3.6-.1 1.2-.2 1.8-.5.1-.1.2-.1.1-.2 0-.2 0-.3-.1-.5 0 0 0-.1-.1-.1-.3-.2-.5-.3-.7-.5-.2-.1-.4-.3-.7-.2-.3 0-.7 0-1 .1-.5.1-1 .3-1.4.5-.3.1-.5.3-.8.4-1.4.6-2.7.5-3.9-.3-.2-.1-.5-.3-.7-.4-.4-.2-.9-.3-1.3-.1-.7.2-.6.1-.7.8-.1.5.1.8.6.9h.2c.4 0 .8.1 1.3.1 1.3.3 2.4.3 3.6.3zm1.1-10c.4 0 .7 0 1.1.1.1 0 .1 0 .1-.1V34s0-.1-.1-.1-.2-.1-.3-.1c-.3 0-.6 0-.9-.1-.5 0-.9-.1-1.4 0-.3 0-.7.1-1 .1h-.5c-.2.1-.2.1-.2.3v1c0 .1 0 .1.1.1H-14zm-5.1 7.4c-.5 0-.9.1-1.3.2-.1 0-.1.1-.1.1 0 .1.1.1.2.1.5-.2 1-.1 1.4.1.4.1.8.4 1.2.6 1.2.5 2.4.6 3.6.1.4-.2.8-.3 1.2-.5.5-.2 1.1-.4 1.7-.4.5 0 1 .1 1.4.4 0 0 .1.2.2.1s0-.2-.1-.2c-.1-.1-.2-.2-.4-.3-.3-.2-.6-.3-1-.3-.7 0-1.3.2-1.9.5l-1.5.6c-1.1.4-2.2.3-3.2-.4-.2-.1-.4-.3-.6-.4-.2-.2-.5-.3-.8-.3zm5.9-10.2c.1 0 .1.1.1.1.1.2.1.5 0 .8 0 .1-.1.1 0 .2.1 0 .1-.1.1-.2v-.6c0-.5 0-.5-.4-.5-1.1-.1-2.3-.1-3.4.1-.1 0-.3.1-.3.2-.1.3-.1.7 0 1 0 .1 0 .1.1 0 .1 0 .1 0 .1-.1-.1-.2-.1-.5-.1-.7v-.1.1c0 .2.1.5.1.7v.1c.1 0 .2 0 .3-.1.1 0 0-.1 0-.2-.1-.3 0-.5.1-.8.1.3.1.5.1.8v.1h.2c.1 0 0-.1 0-.1-.1-.3 0-.6 0-.9.1.1.1.1.1.2.1.3.1.5.1.7 0 .1 0 .1.1.1s.1-.1.1-.1v-.7s0-.1.1-.1c0 0 0 .1.1.1v.7s0 .1.1.1 0-.1 0-.1v-.6c0-.1 0-.2.1-.3 0 .3 0 .5.1.8 0 .2 0 .2.3.2v-.9s.1 0 .1.1c-.1.2 0 .4-.1.7 0 .1 0 .1.1.1h.5c0-.4 0-.7.1-1.1.1.2.1.5.1.7 0-.2.1-.4.1-.5 0 0 0-.1.1-.1s.1.1.1.1c.1.3 0 .7-.1 1 .1 0 .1 0 .1-.1 0-.3.1-.6.1-1 .1.2.1.4.1.6v.5c0 .1 0 .1.1.1s0 0 0-.1c0-.3 0-.6.1-.9 0 0 0-.1.1-.1h.2c-.1.2 0 .3 0 .4v-.4zm-5.5 8.1c-.1 0-.2 0-.3.1-.4 0-.7.1-1 .3-.2 0-.2.1-.2.2s0 .1.1 0c.5-.4 1.1-.4 1.7-.3.5.1 1.1.4 1.6.6.4.2.8.3 1.2.4 1 .1 1.9-.2 2.7-.6.3-.2.6-.3 1-.4.4-.1.8-.1 1.1.1.2.1.4.2.5.3 0 0 .1.1.1 0s0-.1-.1-.2c-.8-.6-1.7-.8-2.7-.3l-1.2.6c-1 .5-2 .4-2.9-.1-.3-.2-.5-.3-.8-.5-.2-.1-.5-.2-.8-.2zm5.6-6.9c-.1 0-.1.1-.2 0s-.2-.1-.3-.1c-.8 0-1.5-.2-2.3-.1-.3 0-.7.1-1 .1-.1 0-.1 0-.1.1s.1.1.1.1c.2 0 .4 0 .6-.1.5-.1 1.1-.1 1.6-.1s.9 0 1.4.1c0 .1.1.1.2 0zm6.9 33.1c.1-.5.2-1 .3-1.4.6-1.9 1.2-3.9 1.8-5.8.4-1.3.9-2.6 1.3-4 0-.1 0-.2-.1-.1h-.5c-.1 0-.2.1-.2.2l-1.5 4.5c-.7 2.2-1.4 4.3-2.1 6.5 0 0 0 .1-.1.1.1-.2.1-.4.1-.5 1-3.5 2.2-7 3.4-10.5.1-.2.1-.2-.2-.2-1.3 0-2.6-.1-3.9-.3-.8-.1-1.6-.3-2.3-.4-.4-.1-.9-.2-1.3-.4v.1c.1.5.1 1.1.2 1.6.2 1.3.3 2.6.5 4 .1 1 .2 2 .3 3.1l.3 2.4c0 .4 0 .8.1 1.1 0 .4.1.8.3 1.1.1.2.3.4.6.4 0 0 .1 0 .1.1s-.1 0-.1 0c-.4-.1-.7-.3-.8-.7-.2-.4-.2-.8-.2-1.3l-.3-3-.3-3c-.1-1.3-.3-2.6-.4-3.9-.1-.7-.2-1.3-.3-2 0-.1 0-.1-.1-.2-.1 0-.1-.1-.1-.2.1 0 .1.1.2.1-.1-.9-.2-1.8-.1-2.7.1.7.1 1.3.2 2 0 .2.1.5.1.7 0 .1.1.2.1.2.4.2.8.3 1.3.4 1.1.2 2.3.4 3.4.5 1 .1 1.9.1 2.9.1.1 0 .1 0 .2-.1.5-1.4 1-2.7 1.4-4.1 0-.1 0-.2-.1-.1-2.3.2-4.6.1-6.9-.3-1-.2-2-.3-2.9-.7l-.6-.3c-.3-.2-.3-.4 0-.7.4-.3.9-.5 1.4-.5h.5c0 .1-.1 0-.2.1-.5.1-.9.2-1.4.4-.1.1-.2.1-.3.2-.2.1-.2.3 0 .4.2.2.5.3.8.4 1.1.3 2.2.5 3.3.6 1 .1 2.1.2 3.1.3 1.1 0 2.1 0 3.2-.1h.1c0-.1.1-.1.1-.2s-.1 0-.2 0c-.4 0-.9.1-1.3.1h-.2c.3 0 .6-.1.8-.1.3 0 .5-.1.8-.1.1 0 .1-.1.1-.2.2-.7.4-1.4.7-2l.6-1.5c.1-.2.2-.4.3-.7.2-.3.4-.5.6-.8.1-.1.3-.2.5-.3h.1l-.1.1c-.4.2-.7.5-.9.9-.5.8-.9 1.8-1.2 2.7-.2.6-.4 1.1-.6 1.7.2 0 .4-.1.6-.1.4-.1.8-.2 1.1-.3.1-.1.3-.1.2-.3h.1c.1.1.1.2 0 .3s-.2.2-.3.2c-.5.2-1.1.3-1.7.4H-2c0 .1-.1.1-.1.2s.1 0 .2 0c.6-.1 1.3-.2 1.9-.4.3-.1.5-.2.7-.4.2-.2.2-.3 0-.5-.1-.1-.2-.1-.3-.2-.2-.1-.5-.2-.7-.2-.1 0-.1 0-.2.1 0 .1-.1.2-.2.3 0-.1 0-.2.1-.3 0-.1.1-.1 0-.2.2 0 .1-.1.2-.2.2-.5.5-1 .8-1.5.1-.2.3-.5.6-.5.1 0 .1-.1.1-.2.1.1.1.1 0 .2 0 .1-.1 0-.1 0-.1 0-.1 0-.2.1-.3.2-.4.4-.5.7-.2.4-.4.9-.6 1.3 0 .1 0 .1.1.1.3.1.6.1.9.3.2.1.4.2.4.4s-.1.4-.3.5c-.4.3-.9.4-1.4.5-.4.1-.9.2-1.3.2-.1 0-.1 0-.2.1-.5 1.4-1 2.7-1.4 4.1 0 .1 0 .1.1.1h.5c.1 0 .2-.1.2-.1.3-.8.5-1.5.8-2.3.2-.5.4-.9.6-1.4 0 .1 0 .2-.1.3-.1.4-.3.9-.4 1.3-.1.2-.1.2.1.2s.4.1.6.2c-.3 0-.5-.1-.7-.1-.1 0-.1 0-.2.1l-.6 1.8c0 .1 0 .1.1.1.7-.1 1.4-.3 2.1-.7 0 0 .1 0 .1-.1.3-.2.4-.4.1-.7.2.1.3.3.2.5l-.3.3c-.5.4-1.1.6-1.8.7-.2 0-.3.1-.5.1-.1 0-.2.1-.2.2-.4 1.2-.8 2.3-1.2 3.5-.7 2-1.3 4-1.9 6 0 .4-.2 1-.3 1.6zm-14.2-2.3v-.2c0-.1 0-.3.1-.4.1-.4.1-.8 0-1.2 0-1.2-.1-2.4-.1-3.6 0-1.3-.1-2.5-.1-3.8v-1.5c-.2-.5-.2-1-.1-1.6.1-.3.2-.6.4-.9.1-.2.1-.5.1-.7.1-.5.2-1 .4-1.5 0 0 0-.1.1-.1s0 .1 0 .1c-.1.3-.2.6-.2.9-.1.3-.1.5-.1.8 0 .1 0 .1.1.1.3-.1.6 0 .9 0 .3 0 .6.2.8.4.1 0 .1.1.2.1 0 .1.1.2.2.2.2.2.5.4.7.5.3.2.6.3 1 .3.9.1 1.7-.2 2.5-.6.2-.1.4-.2.6-.2 0 0 .1-.1.1 0v.1c-.5.2-1.1.5-1.6.7-.5.1-1 .2-1.5.1-.6-.1-1.2-.4-1.7-.9-.4-.4-.9-.7-1.5-.7-.2 0-.3 0-.5-.1-.1 0-.1 0-.1.1 0 .2-.1.3-.2.4 0 0-.1 0-.1.1.3-.2.6-.1.9 0 .4.2.9.4 1.3.7.4.3.9.6 1.3.8.8.4 1.6.3 2.4 0 .4-.2.9-.4 1.3-.7.1-.1.2-.1.3-.2.1.1 0 .2-.1.3-.4.2-.8.5-1.2.7-1.1.5-2.3.5-3.3-.2-.5-.4-1.1-.8-1.7-1.1l-.6-.3c-.2-.1-.5.1-.6.3-.2.5-.2.9-.1 1.4.2 1.1 1 1.7 2 2 .8.3 1.6.4 2.4.4 1.2 0 2.5 0 3.7-.2 0 0 .1-.1.1 0s0 .1-.1.2c-.6.1-1.1.2-1.7.2-1.1.1-2.1.1-3.2-.1-.6-.1-1.2-.2-1.7-.5s-1-.6-1.3-1.2c-.1.1 0 .2 0 .2 0 1.1 0 2.3.1 3.4.1 1.5.1 3.1.1 4.7 0 .4.1.8 0 1.2s0 .6.2.9c.3.6.9 1 1.5 1.2.8.4 1.7.5 2.5.6 1.2.1 2.4 0 3.5-.4.3-.1.6-.2.9-.4 0 0 .1-.1.1 0 .1.1 0 .2-.1.3-.7.4-1.5.6-2.3.7-1.6.2-3.1.1-4.6-.5-.5-.2-1-.5-1.3-.9-.6.2-.7.1-.8 0 .1.2.2.3.3.5.5.7 1.2 1.1 2 1.3 1.1.3 2.2.4 3.3.3 1-.1 2-.2 2.9-.6 0 0 .1 0 .1-.1 0 0 .1-.1.1 0v.1c-.1.1-.2.1-.3.2-.8.3-1.6.5-2.4.5-1.2.1-2.3.1-3.5-.2-.9-.2-1.7-.7-2.3-1.5-.2-.1-.3-.5-.5-.9zm0 0c0 .9 0 1.7.2 2.6.1.3.2.5.3.7.4.5.9 1.1 1.4 1.5.5.4 1.1.7 1.7.8 1.5.3 2.9.1 4.3-.5.5-.2.9-.5 1.3-.9 0 0 .1-.1.1 0 .1.1 0 .1 0 .2-.6.6-1.4 1-2.2 1.2-1.1.3-2.3.4-3.5.2-1-.2-1.8-.7-2.4-1.4-.3-.3-.5-.7-.8-1-.1-.1-.2-.3-.3-.5 0-.1-.1-.2-.1-.3-.1-.2-.2-.5-.2-.7 0-.5-.1-1 0-1.5.1-.2.1-.3.2-.4zm12.6 6c-.2 0-.4 0-.7-.1-.4-.1-.9-.2-1.3-.4-.7-.3-1.1-.8-1.1-1.5 0-.8-.1-1.5-.2-2.3-.1-.5-.1-1.1-.2-1.6-.2-1.6-.3-3.3-.5-4.9-.1-1.2-.2-2.3-.3-3.5v-.5c.1.4.1.8.1 1.3.2 2.2.4 4.3.7 6.4l.3 2.1.3 3c0 .7.4 1.2 1 1.4.3.1.7.2 1 .3.4.1.7.1.9.3zm-7.4-20.6c-.9-.1-1.8 0-2.7-.2l-1.2-.3c-.1-.1-.3-.2-.4-.3-.1-.1-.2-.2-.2-.4 0-.3-.2-.6-.3-.8-.2-.5-.5-.9-.7-1.4-.1-.4-.2-.8-.3-1.3 0-.1 0-.2.1-.3 0-.1.1-.1.2-.1.1.1 0 .1 0 .1-.1.1-.1.3-.1.4 0 .3.1.5.2.8.2.5.5.9.7 1.4.2.3.4.7.4 1.1v.2c-.1 0 0 .1 0 .1.2.2.4.4.7.5.5.2 1.1.3 1.6.3 1.1.1 2.3.1 3.4.1h.5c.1 0 .1 0 .1.1s-.1.1-.1.1H-15s-.1 0-.2-.1zM.5 56v.7c-.1 1.5-.2 3-.4 4.5-.1 1.1-.3 2.3-.3 3.4 0 .7-.1 1.3-.2 2-.1.5-.1 1-.2 1.5 0 0 0 .1-.1.1v-.5c.1-.7.1-1.5.2-2.2.1-1.4.3-2.9.5-4.3.2-1.3.3-2.6.3-3.8 0-.4.1-.8.1-1.3 0 0 0-.1.1-.1zM-6 68.7h.9c.5 0 1 0 1.5-.1.9-.2 1.6-.7 1.8-1.7.2-.6.2-1.2.3-1.9.1-.9.2-1.8.3-2.8.2-1.4.4-2.8.4-4.2v-.7 1.4c-.1 1.7-.4 3.5-.6 5.2-.1.7-.1 1.4-.2 2.1 0 .3-.1.7-.2 1-.2.8-.7 1.3-1.5 1.6-.7.2-1.7.3-2.7.1.1 0 .1 0 0 0zm-3.8-20.3c2.3-.3 4.7-.2 6.9.2-2.2-.3-4.5-.5-6.9-.2zm6.3 4.5h-.8c-1.5-.1-3 0-4.4.1-.7.1-1.4.2-2.1.4h-.1c.4-.2.9-.3 1.3-.3 1.5-.2 3-.2 4.5-.2.5-.1 1-.1 1.6 0-.1-.1 0-.1 0 0zm-9.3-3c.1.6.2 1.1.3 1.7.1 1 .2 2 .2 3 0 .3.1.4.4.5.1 0 .2 0 .2.1-.2.1-.6-.1-.6-.4 0-.4-.1-.9-.1-1.3-.1-1.2-.1-2.4-.3-3.6-.1.1-.1.1-.1 0zm15.2-5h1.2c.6 0 1.2-.1 1.8-.1h.5c.2.1.4.3.5.5 0 .2-.1.5-.3.6H6c0-.1.1-.1.1-.2.1-.2.2-.3.1-.5s-.3-.3-.5-.3c-.5 0-.9.1-1.3.1-.6 0-1.3 0-2-.1zM2.2 46c.1-.2 0-.5.1-.7.1.2.1.3.1.5 0 .1 0 .3-.1.3s-.2-.1-.2-.2c-.1-.2-.2-.3-.2-.5 0 0 0-.1-.1-.1v.4c0 .2 0 .4-.1.5 0 .1-.1.1-.1.1-.1 0-.1 0-.1-.1-.1-.3-.2-.6-.2-.9.1 0 .1.1.1.1v.1c.1.2.1.4.2.6 0 0 0 .1.1.1s.1-.1.1-.1v-.9s0-.1.1-.1.1.1.1.1c.1.2.1.5.2.8-.1-.1 0-.1 0 0zm-1.1 5.1c-.1 1.5-.2 3-.5 4.4.3-1.4.4-2.9.5-4.4zm-13.3-1.6c0-.1.1-.2.3-.2.5-.2 1-.3 1.5-.4.8-.1 1.5-.2 2.3-.3h.4c-.7 0-1.3.1-1.9.2-.7.1-1.3.2-1.9.4-.3 0-.5.1-.7.3zM-2 70.1c-.2.1-.4.2-.6.2-.5.1-1 .1-1.5.1h-1.7c1.3 0 2.6 0 3.8-.3zm-18.2-17.3c.3.2.6.4.9.5.2.1.4.1.6.2.1 0 .1 0 .1-.1 0-.2.1-.4.1-.7v-.1l-.2 1.2c0-.2-.2-.2-.3-.3-.3-.1-.6-.1-.9-.3-.1-.1-.2-.2-.3-.4zm25.1-6.9-2.3.1v-.1c.8 0 1.5-.1 2.3 0zm-17.5 21.7c-.6.2-1.3.3-2 .3.3 0 .7-.1 1-.1.3-.2.7-.2 1-.2zM.1 55.9c0 .1 0 .1 0 0-.5.2-.9.4-1.2.5-.2.1-.4.1-.6.1.3 0 .7-.1 1-.2s.5-.2.8-.4c-.1 0 0 0 0 0zm-16.7-8.1c.6-.2 1.2-.1 1.8-.2-.6.1-1.2 0-1.8.2zm-3.5 18.4c.5.3.8.8 1.3 1-.6-.2-.9-.7-1.3-1zm6.1-18.5c.5 0 1.1 0 1.6.2-.5-.1-1.1-.1-1.6-.2zm6.1 17.4c-.2 0-.3.2-.2.2.1.1.2.1.3.1l-.1-.3c.2 0 .3.2.2.3-.1.1-.2.1-.3.1h-.1c-.1 0-.2-.1-.1-.2.1-.3.1-.3.3-.2zm-11.3-16.7c.5-.3 1.1-.5 1.7-.6-.5.2-1.1.3-1.7.6zm12.1 18.8c.3.3.6.3 1 .2-.3.3-1 .2-1-.2zm-4.1.7c-.4.3-.9.6-1.4.5.2-.1.5-.1.7-.2.2-.1.4-.2.7-.3zm-6.6-15c0 .3 0 .6-.1.9 0-.3.1-.6.1-.9zm5.7 14.4c.3-.1.5-.3.8-.4-.1.2-.6.4-.8.4zm4.7-3.9c-.1.1-.3 0-.3.2 0 .1.1.1.2.2-.1.1-.2 0-.2-.1-.1-.1 0-.2 0-.2.1-.2.2-.1.3-.1zm-3.9-15.1c-.3 0-.5-.1-.7-.3.2.1.5.2.7.3zm-5.5 5.8.2-.8c0 .3-.1.6-.2.8zm-.1 13.7c-.3 0-.5 0-.8-.1.3 0 .6 0 .8.1zm-1.4-13.3c-.2.1-.5 0-.7-.1.2 0 .5.1.7.1zm-.1-3.6c0-.2.1-.5.2-.7 0 .1-.1.2-.1.3 0 .2-.1.3-.1.4zm.5.4c-.1-.1 0-.1 0-.2s.1-.3.1-.4c0 .2 0 .4-.1.6zm.5 2.6.1-.6c0 .2 0 .4-.1.6zm17.5 2 .4-.3c-.1.2-.2.3-.4.3zm-15.7 12h-.4c.2-.1.3 0 .4 0zm-.7-31.8h-.2s-.1 0-.1-.1 0-.2-.1-.2c.1 0 .1-.1.1-.1 0-.1-.1 0-.1 0h-.1c.1-.1.3-.1.4-.1v.1c.1.1.1.2.1.4zm-.1-.4c0-.1 0-.1 0 0-.1-.1-.2 0-.1 0 0 .1 0 .1.1 0 0 .1 0 0 0 0zm-.6 3.8c-.1.4-.1.8-.1 1.2-.1-.2 0-.8.1-1.2zm4.1.7c-.3.1-.6.3-.9.5.2-.2.5-.4.9-.5zm-5.7.1c0-.3 0-.6.1-.8l-.1.8zm6.4 0c.2-.1.4-.2.6-.1l-.6.1zm-1.7-4.3.1-.5c0 .2.1.4-.1.5zm-2.2-.3v.4c-.1-.1 0-.3 0-.4zm.3-.1v.3c-.1 0-.1-.2 0-.3zm4.4 8.3c-.4 0-.7 0-1.1-.1.4 0 .8 0 1.1.1zm-8.3.4c0-.3 0-.7.1-1-.1.2-.1.3-.1.5v.5zm1.3-.2v.8c-.1-.3 0-.6 0-.8zm.9.1v.6c-.1-.1-.1-.3 0-.6zm-1.8-.4v.7c-.1-.2 0-.4 0-.7zm8.7.2c.2 0 .4.1.6.3l-.6-.3zm-6.3.2c0 .1 0 .3-.1.4l.1-.4zm.2-2c.1.3.1.8 0 1.1 0-.3.1-.7 0-1.1zm-1.4-.5c0 .3-.1.6-.1.9-.1-.2 0-.7.1-.9zm-.9.7c.1-.3.2-.5.2-.8 0 .2-.1.6-.2.8zm7.3-.6c.2-.1.4-.1.7-.1-.3 0-.5.1-.7.1zm-1.2.2c.2-.1.3-.2.5-.2-.1.2-.3.2-.5.2zm-.3-7.2c0-.3 0-.4.1-.6 0 .2 0 .4-.1.6zm-1.5-2.1v-.5s.1 0 .1.1c0 .3.1.5.1.8 0 .1 0 .2-.1.2s-.1-.1-.1-.2v-.4zm-2.1-.2c.1.3.1.5.1.8v.1s-.1 0-.1-.1c0-.3-.1-.6 0-.8z" class="st2"/><path id="XMLID_78_" d="M-14.1 47.7c.5.1 1 .1 1.6.2-.5-.2-1-.2-1.6-.2z" class="st2"/><path id="XMLID_77_" d="M-11.4 48.3c-.2-.1-.5-.2-.7-.3.2.2.5.3.7.3z" class="st2"/><path id="XMLID_76_" d="M-11.5 43.9c-.4 0-.7-.1-1.1-.1.4 0 .8.1 1.1.1z" class="st2"/><path id="XMLID_175_" d="M-9.5 44.6c.2-.1.3-.1.2-.3-.1-.2-.1-.3-.1-.5 0-.1 0-.3-.2-.3-.1 0 0-.1 0-.1 0-.1.2-.2.1-.3-.1-.5-.2-.9-.3-1.4 0-.1 0-.1-.1-.1 0-.1.1-.1 0-.1s-.1-.1-.1-.2v-.6c-.2-.9-.5-1.8-1.2-2.5-.6-.6-1.3-1.2-1.9-1.8 0 0-.1-.1-.1-.2.1-.2 0-.4 0-.5 0-.3 0-.3.3-.2.1 0 .1 0 .2-.1.1-.5 0-.9 0-1.3 0-.1 0-.2-.2-.2-.1 0-.1-.1-.1-.1 0-.1.1-.1.1-.1.1 0 .2 0 .1-.1V32.8c-.2-.7-.3-.7-.8-.8-.7-.1-1.4 0-2.1 0-.4 0-.9 0-1.3.1-.3.1-.4.2-.4.5-.1.3 0 .7 0 1 0 .1 0 .1.1.1h.1s0 .1-.1.1c-.1.1-.2 0-.2.2 0 .3-.1.7-.1 1s0 .3.4.4c.1 0 .2 0 .1.2v.7c0 .1 0 .2-.1.2l-1.2.9c-.5.5-1 .9-1.4 1.5-.2.4-.4 1-.5 1.6 0 .3-.1.5-.1.8s-.1.5-.2.8c0 .2 0 .3-.1.5 0 .2-.1.3 0 .4.1.3-.2.2-.2.3 0 .3-.1.6-.1 1 0 .3.1.5.4.6.2 0 .4.1.6.1.6.1 1.1.1 1.7.2.9.1 1.7.2 2.6.2 1.2 0 2.4-.1 3.6-.2.8-.1 1.6-.2 2.3-.5h.1c.2.1.3.2.3.4s0 .4-.1.6c-.2.6-.5 1.2-.8 1.8-.1.2-.2.4-.3.5.1 0 .2 0 .3-.1.2-.5.5-1 .7-1.5.1-.4.3-.8.3-1.2.2-.2.1-.4-.2-.6zm-7.8-11.1c-.1-.3-.1-.7 0-1 0-.1.2-.2.3-.2 1.1-.1 2.3-.2 3.4-.1.4.1.4.1.5.5 0 .2.1.4 0 .6 0 .1 0 .2-.1.2s0-.1 0-.2c0-.3 0-.5-.1-.8 0 0 0-.1-.1-.1l-.1.3c0-.1-.1-.2-.1-.3 0 0 0-.1-.1-.1s-.1 0-.1.1c0 .3 0 .6-.1.9v.1s-.1 0-.1-.1v-.5c0-.2 0-.4-.1-.6 0 .4-.1.7-.1 1 0 .1 0 .1-.1.1.3-.3.3-.6.3-.9 0 0 0-.1-.1-.1s-.1.1-.1.1c0 .2-.1.4-.1.5-.1-.2 0-.5-.1-.7-.1.4-.1.7-.1 1.1h-.5c-.1 0-.1 0-.1-.1 0-.3 0-.5-.1-.7 0 0 0-.1-.1-.1s0 .1 0 .1v.8c-.2 0-.2 0-.3-.2 0-.2 0-.5-.1-.8-.1.1-.1.2-.1.3v.7c-.1 0-.1-.1-.1-.1v-.7s0-.1-.1-.1-.1.1-.1.1v.7c0 .1 0 .1-.1.1s-.1 0-.1-.1c0-.2 0-.4-.1-.6 0-.1 0-.2-.1-.2 0 .3-.1.6 0 .9 0 0 .1.1 0 .1s-.2.1-.2 0c-.1 0 0-.1 0-.1.1-.3 0-.6-.1-.8-.1.3-.1.5-.1.8 0 .1.1.2 0 .2-.1.1-.2.1-.4 0 .1-.2 0-.5 0-.7 0-.1 0-.1-.1-.1s0 .1 0 .1c0 .2 0 .5.1.7.2 0 .2 0 0 0 .1 0 0 0 0 0zm4.1.1c0 .1-.1.1-.2.1-.5 0-.9-.1-1.4-.1s-1.1 0-1.6.1c-.2 0-.4 0-.6.1-.1 0-.1 0-.1-.1s.1-.1.1-.1c.3-.1.7-.1 1-.1.8-.1 1.5.1 2.3.1.1 0 .2 0 .3.1.1-.1.1-.1.2-.1zm-4.1 1.6c-.1 0-.1 0-.1-.1v-1c0-.1 0-.2.2-.3.2-.1.3-.1.5 0 .3 0 .7-.1 1-.1h1.4c.3 0 .6.1.9.1.1 0 .2 0 .3.1l.1.1v1.2c0 .1 0 .1-.1.1-.4-.1-.7-.1-1.1-.1H-17.3zm-1.8 2.9c.5-.5 1-.9 1.6-1.4.2-.1.3-.3.5-.4.1 0 .1-.1.1-.2v-.7c0-.1 0-.1.1-.1h3.1c.3 0 .3 0 .4.3v.2c0 .2-.1.3 0 .4l.3.3c.3.4.7.8 1.1 1.1.5.4.9.8 1.2 1.4.3.5.4 1.1.5 1.7-.3-.2-.5-.3-.8-.4-.6-.2-1.2-.2-1.8 0l-1.2.6c-.4.2-.8.4-1.2.4-.5.1-1-.1-1.5-.3 0 0-.1 0-.1-.1h-.2c-.3-.2-.6-.3-.9-.5l-.1-.1h-.1v.1c-.8-.4-1.6-.2-2.3.2.4-.8.6-1.7 1.3-2.5zm-1 2.8c.3-.1.6-.3.9-.4.1 0 .2-.1.3-.1.4 0 .7.1.9.3.3.1.5.3.8.5 1 .6 1.9.6 2.9.1l1.2-.6c1-.5 1.8-.2 2.7.3.1 0 .1.1.1.2s-.1 0-.1 0c-.2-.1-.4-.2-.5-.3-.3-.2-.7-.2-1.1-.1-.3.1-.7.2-1 .4-.9.4-1.7.7-2.7.6-.4 0-.8-.2-1.2-.4-.5-.2-1-.4-1.6-.6-.5 0-1.1 0-1.6.4-.1.1-.1 0-.1 0-.1-.2 0-.3.1-.3zm-.3.6c0-.1.1-.2.2-.2.6-.3 1.2-.5 1.8-.3.5.1 1 .4 1.5.6.6.2 1.1.4 1.7.4.6 0 1.2-.2 1.7-.4s1-.5 1.6-.6c.3-.1.7 0 1 .1.3.1.5.3.8.4.1 0 .1.1.2.1 0 .3.1.5.2.8 0 .1.1.3.1.4 0 .1.1.1 0 .2-.1 0-.1 0-.1-.1-.2-.1-.5-.3-.7-.4-.4-.2-.8-.1-1.2 0h-.2c-.4 0-.7.2-1 .3-.5.2-1.1.4-1.6.7-.5.2-1.1.3-1.6.3s-.9-.2-1.3-.5v-.1.1c-.9-.6-1.9-1-3-.4-.1-.6-.1-1-.1-1.4zm0 1.3c.4-.1.8-.2 1.3-.2.3 0 .6.1.9.3.2.1.4.2.6.4 1 .7 2.1.8 3.2.4l1.5-.6c.6-.3 1.2-.5 1.9-.5.4 0 .7.1 1 .3.1.1.2.2.4.3.1 0 .2.1.1.2s-.1 0-.2-.1c-.4-.3-.9-.4-1.4-.4-.6 0-1.1.2-1.7.4-.4.2-.8.3-1.2.5-1.2.5-2.4.5-3.6-.1l-1.2-.6c-.5-.2-.9-.2-1.4-.1-.1 0-.1 0-.2-.2-.1.1-.1.1 0 0zm9.1 2.1c-1.4.2-2.7.3-3.8.3-1.2 0-2.4 0-3.6-.2-.4-.1-.8-.1-1.3-.1h-.2c-.5-.1-.7-.3-.6-.9.1-.7 0-.6.7-.8.5-.1.9-.1 1.3.1.2.1.5.2.7.4 1.3.8 2.6.8 3.9.3.3-.1.5-.3.8-.4.5-.2.9-.4 1.4-.5.3-.1.7-.1 1-.1.2 0 .5.1.7.2.3.2.5.3.7.5l.1.1c0 .2 0 .3.1.5 0 .1 0 .2-.1.2-.6.2-1.2.3-1.8.4z" class="st2"/><path id="XMLID_66_" d="m-10.7 44 .6.3c-.1-.2-.3-.2-.6-.3z" class="st2"/><path id="XMLID_65_" d="M-10.5 48.9c-.5.1-1 .2-1.5.4-.1 0-.2.1-.3.2.1-.2.3-.2.6-.3.6-.2 1.3-.3 1.9-.4.6-.1 1.3-.1 1.9-.2-.1 0-.3-.1-.4 0-.7 0-1.4.1-2.2.3z" class="st2"/><path id="XMLID_64_" d="m-12.3 40.3.6-.1c-.3-.1-.5-.1-.6.1z" class="st2"/><path id="XMLID_63_" d="M-9.9 48.4c2.3-.3 4.6-.1 6.9.2-2.2-.4-4.6-.5-6.9-.2z" class="st2"/><path id="XMLID_62_" d="M-11.8 41.8c.2 0 .5 0 .7-.1-.3 0-.5 0-.7.1z" class="st2"/><path id="XMLID_61_" d="M-13 42c.2 0 .4-.1.5-.2-.1.1-.3.1-.5.2z" class="st2"/><path id="XMLID_60_" d="M-14 40.7c.3-.2.6-.4.9-.5-.3.1-.6.3-.9.5z" class="st2"/><path id="XMLID_59_" d="M-.7 57.3v.7c-.1 1.4-.3 2.8-.4 4.2-.1.9-.2 1.8-.3 2.8-.1.6-.1 1.3-.3 1.9-.2 1-.9 1.5-1.8 1.7-.5.1-1 .1-1.5.1h-.9s.1 0 .1.1c.9.1 1.8.1 2.7-.2.8-.2 1.3-.8 1.5-1.6.1-.3.1-.6.2-1 .1-.7.1-1.4.2-2.1.2-1.7.5-3.5.6-5.2-.1-.4-.1-.9-.1-1.4z" class="st2"/><path id="XMLID_58_" d="M-12.5 53.6c0 .4.1.9.1 1.3 0 .3.4.5.6.4-.1-.1-.1-.1-.2-.1-.3-.1-.4-.2-.4-.5 0-1-.1-2-.2-3 0-.6-.1-1.1-.3-1.7v.1c.2 1.1.3 2.3.4 3.5z" class="st2"/><path id="XMLID_57_" d="M-9.7 69.8c-.7-.2-1-.7-1-1.4-.1-1-.1-2-.3-3l-.3-2.1c-.2-2.1-.4-4.3-.7-6.4 0-.4-.1-.8-.1-1.3v.5c.1 1.2.2 2.3.3 3.5.2 1.6.3 3.3.5 4.9.1.5.1 1.1.2 1.6.1.8.1 1.5.2 2.3 0 .7.4 1.2 1.2 1.4.3.3.7.4 1.2.5.2 0 .4.1.7.1-.3-.1-.6-.1-.9-.2-.3-.2-.7-.3-1-.4z" class="st2"/><path id="XMLID_56_" d="M2.2 46c-.1 0-.1-.1-.1-.2-.1-.2-.2-.5-.2-.7 0 0 0-.1-.1-.1s-.1.1-.1.1c-.1.2 0 .3 0 .5v.4s0 .1-.1.1l-.1-.1c-.1-.2-.1-.4-.2-.6v-.1s0-.1-.1-.1c0 .3.1.6.2.9 0 .1 0 .1.1.1s.1 0 .1-.1c.1-.2.1-.4.1-.5v-.4c.1 0 .1.1.1.1.1.2.1.4.2.5s.1.3.2.2c.1 0 .1-.2.1-.3 0-.2 0-.3-.1-.5 0 .3.1.6 0 .8z" class="st2"/><path id="XMLID_55_" d="m2.5 46 2.3-.2v-.1c-.8.1-1.5.2-2.3.3z" class="st2"/><path id="XMLID_54_" d="M6.4 45.2c0-.3-.2-.5-.5-.5h-.5c-.6.1-1.2.1-1.8.1H2.4c.7.1 1.4.1 2.1 0 .5 0 .9-.1 1.3-.1.2 0 .4.1.5.3s0 .4-.1.5c0 .1-.1.1-.1.2h.1c.1 0 .2-.3.2-.5z" class="st2"/><path id="XMLID_53_" d="M-8.8 52.9c1.5-.1 3-.2 4.4-.1h.8-.1c-.5-.1-1-.1-1.5-.1-1.5 0-3 0-4.5.2-.4.1-.9.1-1.3.3h.1l2.1-.3z" class="st2"/><path id="XMLID_52_" d="M-.1 55.9c-.3.1-.5.2-.8.3-.3.1-.7.2-1 .2.2 0 .4 0 .6-.1.5 0 .9-.2 1.2-.4H0h-.1z" class="st2"/><path id="XMLID_51_" d="M.4 56c-.1.1 0 .1 0 .2 0 .4-.1.8-.1 1.3-.1 1.3-.2 2.6-.3 3.8-.2 1.4-.3 2.8-.5 4.3-.1.7-.1 1.5-.2 2.2v.5c.1 0 .1-.1.1-.1.1-.5.2-1 .2-1.5.1-.7.1-1.3.2-2 .1-1.2.2-2.3.3-3.4.2-1.5.3-3 .4-4.5-.1-.3-.1-.6-.1-.8z" class="st2"/><path id="XMLID_50_" d="M1.2 46.5c0 .1 0 .2-.1.2-.3 0-.5.3-.6.5-.3.5-.6 1-.8 1.5 0 .1 0 .2-.2.2.1.1 0 .1 0 .2s-.1.2-.1.3c.1-.1.1-.2.2-.3 0-.1.1-.1.2-.1.2.1.5.2.7.2.1 0 .2.1.3.2.2.2.2.3 0 .5s-.5.3-.7.4c-.6.2-1.3.3-1.9.4-.1 0-.1.1-.2 0 0-.1 0-.1.1-.2 0-.1.1 0 .1 0 .6-.1 1.2-.2 1.7-.4.1 0 .2-.1.3-.2.1-.1.1-.2 0-.3H.1c.1.2-.1.3-.2.3-.4.2-.7.3-1.1.3-.2 0-.4.1-.6.1.2-.6.4-1.2.6-1.7.3-.9.6-1.9 1.2-2.7.2-.4.5-.7.9-.9 0 0 .1 0 .1-.1s-.1 0-.1 0c-.2.1-.4.1-.5.3-.2.2-.5.5-.6.8-.1.2-.2.4-.3.7-.2.5-.5 1-.6 1.5-.2.7-.5 1.4-.7 2 0 .1 0 .2-.1.2-.3 0-.5.1-.8.1s-.5.1-.8.1h.2c.4 0 .9-.1 1.3-.1.1 0 .1-.1.2 0 0 .1 0 .1-.1.2H-2c-1.1.1-2.1.1-3.2.1-1 0-2.1-.1-3.1-.3-1.1-.1-2.2-.3-3.3-.6-.3-.1-.6-.2-.8-.4-.2-.1-.2-.3 0-.4.1-.1.2-.1.3-.2.4-.2.9-.3 1.4-.4.1 0 .1 0 .2-.1h-.5c-.5.1-1 .2-1.4.5-.3.2-.2.5 0 .7l.6.3c.9.3 1.8.5 2.8.6 2.3.3 4.6.5 6.9.3.1 0 .1 0 .1.1-.5 1.3-1 2.7-1.4 4.1 0 .1-.1.1-.2.1-1 0-2 0-2.9-.1-1.1-.1-2.3-.3-3.4-.5-.4-.1-.9-.2-1.3-.4-.1 0-.1-.1-.1-.2 0-.2 0-.5-.1-.7-.1-.7-.1-1.3-.2-2 0 .9 0 1.8.1 2.7-.1 0-.1-.1-.2-.1 0 .1.1.1.1.2.1 0 .1.1.1.2.1.7.2 1.3.3 2 .2 1.3.3 2.6.4 3.9l.3 3c.1 1 .3 2 .3 3 0 .4.1.9.2 1.3s.4.6.8.7h.1c0-.1-.1 0-.1-.1-.2-.1-.5-.2-.6-.4-.2-.4-.3-.7-.3-1.1s0-.8-.1-1.1l-.3-2.4c-.1-1-.2-2-.3-3.1-.1-1.3-.3-2.6-.5-4-.1-.5-.1-1.1-.2-1.6v-.1c.4.2.8.3 1.3.4.8.1 1.6.3 2.3.4 1.3.2 2.6.3 3.9.3.3 0 .2 0 .2.2C-5 59-6.2 62.4-7.2 66c-.1.2-.1.4-.1.5l.1-.1c.7-2.2 1.4-4.3 2.1-6.5l1.5-4.5c0-.1.1-.2.2-.2h.5c.1 0 .2 0 .1.1-.4 1.3-.9 2.6-1.3 4-.6 1.9-1.3 3.8-1.8 5.8-.1.5-.3.9-.3 1.4.2-.6.3-1.1.5-1.7.6-2 1.3-4 1.9-6 .4-1.2.8-2.3 1.2-3.5 0-.1.1-.2.2-.2.2 0 .4-.1.5-.1.6-.1 1.2-.3 1.8-.7l.3-.3c.1-.2 0-.5-.2-.5.2.3.2.5-.1.7 0 0-.1 0-.1.1-.6.4-1.3.6-2.1.7-.1 0-.1 0-.1-.1l.6-1.8c0-.1.1-.1.2-.1.2 0 .4.1.7.1-.2-.1-.4-.2-.6-.2s-.2 0-.1-.2c.1-.4.3-.9.4-1.3 0-.1.1-.2.1-.3-.2.5-.4.9-.6 1.4-.3.8-.5 1.5-.8 2.3 0 .1-.1.1-.2.1h-.5c-.1 0-.1 0-.1-.1.5-1.4 1-2.7 1.4-4.1 0-.1.1-.1.2-.1.4 0 .9-.1 1.3-.2.5-.1 1-.2 1.4-.5.2-.1.3-.3.3-.5s-.2-.3-.4-.4l-.9-.3c-.1 0-.1 0-.1-.1.2-.4.4-.9.6-1.3.1-.3.3-.5.5-.7.1 0 .1-.1.2-.1.1.2.1.1 0 0z" class="st2"/><path id="XMLID_49_" d="m.4 55.6-.4.3c.2 0 .3-.1.4-.3z" class="st2"/><path id="XMLID_48_" d="M1.1 51.1C1 52.6.8 54 .6 55.5c.3-1.4.4-2.9.5-4.4z" class="st2"/><path id="XMLID_47_" d="M-18 51.1c0 .1-.1.1 0 .2.1-.2.1-.4.1-.6 0 .1-.1.3-.1.4z" class="st2"/><path id="XMLID_46_" d="M-20 65.4c.6.8 1.4 1.2 2.3 1.5 1.1.3 2.3.3 3.5.2.8-.1 1.6-.2 2.4-.5.1-.1.2-.1.3-.2 0 0 .1-.1 0-.1 0-.1-.1 0-.1 0s-.1 0-.1.1c-.9.4-1.9.6-2.9.6-1.1.1-2.2 0-3.3-.3-.8-.3-1.5-.7-2.1-1.3 0-.3-.1-.4-.2-.6l.3.3c.4.4.8.7 1.3.9 1.5.6 3 .7 4.6.5.8-.1 1.6-.3 2.3-.7.1-.1.2-.1.1-.3h-.1c-.3.2-.6.3-.9.4-1.1.4-2.3.5-3.5.4-.9-.1-1.7-.2-2.5-.6-.6-.3-1.1-.7-1.5-1.2-.2-.3-.3-.6-.2-.9.1-.4 0-.8 0-1.2 0-1.5-.1-3.1-.1-4.7 0-1.1-.1-2.3-.1-3.4v-.2c.3.6.8.9 1.3 1.2.6.3 1.1.4 1.7.5 1.1.2 2.1.1 3.2.1.6 0 1.2-.1 1.7-.2.1 0 .1-.1.1-.2s-.1-.1-.1 0c-1.2.2-2.5.3-3.7.2-.8 0-1.6-.1-2.4-.4-1-.4-1.8-.9-2-2-.1-.5-.1-1 .1-1.4.1-.2.4-.3.6-.3.2.1.4.1.6.3.6.3 1.1.7 1.7 1.1 1.1.7 2.2.8 3.3.2.4-.2.8-.5 1.2-.7.1-.1.1-.1.1-.3-.1.1-.2.1-.3.2-.4.2-.8.5-1.3.7-.8.3-1.6.4-2.4 0-.5-.2-.9-.5-1.3-.8-.4-.3-.8-.5-1.3-.7-.3-.1-.6-.2-.9 0 0-.1.1-.1.1-.1.4-.2.4-.4.5-.5 0-.1.1-.1.1-.1.2 0 .3 0 .5.1.6 0 1.1.3 1.5.7.5.4 1 .8 1.7.9.5.1 1 0 1.5-.1.6-.2 1.1-.4 1.6-.7.1 0 0-.1 0-.1 0-.1-.1 0-.1 0-.2.1-.4.2-.6.2-.8.3-1.6.6-2.5.6-.3 0-.7-.1-1-.3-.2-.2-.5-.4-.7-.5-.1-.1-.2-.1-.2-.2-.1 0-.1-.1-.2-.1-.2-.2-.5-.4-.8-.4-.3 0-.6-.1-.9 0-.1 0-.1 0-.1-.1.2-.4.2-.7.3-1 .1-.3.2-.6.2-.9v-.1s-.1 0-.1.1c-.2.5-.3 1-.4 1.6 0 .2 0 .5-.1.7-.2.3-.3.6-.4.9-.1.5-.1 1.1.1 1.6v1.5c0 1.3.1 2.5.1 3.8 0 1.2.1 2.4.1 3.6v1.2c0 .1-.1.2-.1.4V64.6c.2.2.3.6.5.8z" class="st2"/><path id="XMLID_45_" d="M-18.3 50.2c-.1.2-.2.4-.2.7 0-.1.1-.2.1-.3.1-.2.1-.3.1-.4z" class="st2"/><path id="XMLID_44_" d="M-20 47.9c.1.3.3.5.3.8 0 .1.1.3.2.4.1.1.2.2.4.3.4.2.8.3 1.2.3.9.1 1.8.1 2.7.2h2c.1 0 .1 0 .1-.1s-.1-.1-.1-.1h-.5c-1.1 0-2.3-.1-3.4-.1-.5 0-1.1-.1-1.6-.3-.3-.1-.5-.2-.7-.5 0 0-.1-.1 0-.1.1-.1.1-.1 0-.2-.1-.4-.2-.7-.4-1.1-.3-.5-.5-.9-.7-1.4-.1-.3-.2-.5-.2-.8 0-.1 0-.3.1-.4 0 0 .1-.1 0-.1s-.2 0-.2.1c-.1.1-.1.2-.1.3 0 .5.1 1 .4 1.4 0 .4.3.9.5 1.4z" class="st2"/><path id="XMLID_43_" d="M-16.7 47.8c.6-.1 1.2-.1 1.8-.2-.6.1-1.2 0-1.8.2z" class="st2"/><path id="XMLID_41_" d="M-19.3 48.4c.5-.3 1.1-.4 1.7-.6-.6.1-1.1.3-1.7.6z" class="st2"/></g></svg>