<?xml version="1.0" encoding="UTF-8"?>
<!-- Generator: Adobe Illustrator 26.5.0, SVG Export Plug-In . SVG Version: 6.00 Build 0)  -->
<svg xmlns="http://www.w3.org/2000/svg" xmlns:xlink="http://www.w3.org/1999/xlink" version="1.1" id="Слой_1" x="0px" y="0px" viewBox="0 0 250 250" style="enable-background:new 0 0 250 250;" xml:space="preserve">
<style type="text/css">
	.st0{fill:#FFD500;}
	.st1{fill:#5DB7E8;}
	.st2{fill:#E8E8E8;}
	.st3{fill:#FFFFFF;}
	.st4{display:none;}
	.st5{display:inline;fill:#010202;stroke:#010202;stroke-width:0.25;stroke-miterlimit:10;}
	.st6{display:inline;fill:#010202;stroke:#010202;stroke-width:0.3;stroke-miterlimit:10;}
	.st7{display:inline;fill:none;}
	.st8{display:inline;fill:#231F20;stroke:#231F20;stroke-width:0.5;stroke-miterlimit:10;}
	.st9{display:inline;fill:#010202;stroke:#010202;stroke-width:0.4;stroke-miterlimit:10;}
	.st10{stroke:#000000;stroke-width:0.1;stroke-miterlimit:10;}
	.st11{stroke:#000000;stroke-width:0.25;stroke-miterlimit:10;}
	.st12{fill:none;stroke:#000000;stroke-width:0.25;stroke-miterlimit:10;}
	.st13{fill:#050505;}
	.st14{fill:#010101;}
	.st15{fill:none;}
	.st16{fill:#009604;}
	.st17{fill:#727272;}
	.st18{fill:#41B6E6;stroke:#000000;stroke-width:2.8346457;stroke-linecap:round;stroke-linejoin:round;stroke-miterlimit:10;}
	.st19{fill:#FFD500;stroke:#000000;stroke-width:2.8346457;stroke-linecap:round;stroke-linejoin:round;stroke-miterlimit:10;}
	.st20{fill:#FCFCFC;}
	.st21{fill:#282F39;}
	.st22{fill:#DBDBDB;}
	.st23{fill:#333333;}
	.st24{fill:#343434;}
	.st25{fill:#F8F8F8;}
	.st26{fill:#323232;}
	.st27{fill:#F9F9F9;}
	.st28{fill:#F0F0F0;}
	.st29{fill:#2F2F2F;}
	.st30{fill:#2D2D2D;}
	.st31{fill:#2C2C2C;}
	.st32{fill:#FBFBFB;}
	.st33{fill:#D9D9D9;}
	.st34{fill:#DADADA;}
	.st35{fill:#353535;}
	.st36{fill:#E1E1E1;}
	.st37{fill:#2E2E2E;}
	.st38{fill:#F6F6F6;}
	.st39{fill:#363636;}
	.st40{fill:#313131;}
	.st41{fill:#D3D3D3;}
	.st42{fill:#D2D2D2;}
	.st43{fill:#DADBDB;}
	.st44{fill:#393939;}
	.st45{fill:#D9D9DA;}
	.st46{fill:#A4A4A4;}
	.st47{fill:#C3C3C3;}
	.st48{fill:#444444;}
	.st49{fill:#D0D0D0;}
	.st50{fill:#303030;}
	.st51{fill:#ACACAC;}
	.st52{fill:#626262;}
	.st53{fill:#474747;}
	.st54{fill:#808080;}
	.st55{fill:#C5C5C5;}
	.st56{fill:#979797;}
	.st57{fill:#777777;}
	.st58{fill:#E0E0E0;}
	.st59{fill:#4C4C4C;}
	.st60{fill:#3E3E3E;}
	.st61{fill:#3A3A3A;}
	.st62{fill:#919191;}
	.st63{fill:#C9C9C9;}
	.st64{fill:#DCDCDC;}
	.st65{fill:#8D8D8D;}
	.st66{fill:#666666;}
	.st67{fill:#3F3F3F;}
	.st68{fill:#767676;}
	.st69{fill:#969696;}
	.st70{fill:#5F5F5F;}
	.st71{fill:#CDCDCD;}
	.st72{fill:#484848;}
	.st73{fill:#838383;}
	.st74{fill:#464646;}
	.st75{fill:#4A4A4A;}
	.st76{fill:#747474;}
	.st77{fill:#C4C4C4;}
	.st78{fill:#515151;}
	.st79{fill:#A2A2A2;}
	.st80{fill:#9F9F9F;}
	.st81{fill:#6C6C6C;}
	.st82{fill:#858585;}
	.st83{fill:#CCCCCC;}
	.st84{fill:#B3B3B3;}
	.st85{fill:#989898;}
	.st86{fill:#474748;}
	.st87{fill:#696969;}
	.st88{fill:#ABABAB;}
	.st89{fill:#545454;}
	.st90{fill:#9C9C9C;}
	.st91{fill:#4D4D4D;}
	.st92{fill:#6A6A6A;}
	.st93{fill:#404040;}
	.st94{fill:#C8C8C8;}
	.st95{fill:#7A7A7A;}
	.st96{fill:#AEAEAE;}
	.st97{fill:#373737;}
	.st98{fill:#414141;}
	.st99{fill:#4E4E4E;}
	.st100{fill:#575757;}
	.st101{fill:#5B5B5B;}
	.st102{fill:#606060;}
	.st103{fill:#434343;}
	.st104{fill:#909090;}
	.st105{fill:#ADADAD;}
	.st106{fill:#C0C0C0;}
	.st107{fill:#6F6F6F;}
	.st108{fill:#9D9D9D;}
	.st109{fill:#848484;}
	.st110{fill:#686868;}
	.st111{fill:#535353;}
	.st112{fill:#AFAFAF;}
	.st113{fill:#949495;}
	.st114{fill:#D7D7D7;}
	.st115{fill:#A9A9A9;}
	.st116{fill:#8C8C8C;}
	.st117{fill:#8B8B8B;}
	.st118{fill:#5D5D5D;}
	.st119{fill:#7D7D7D;}
	.st120{fill:#BABABA;}
	.st121{fill:#616161;}
	.st122{fill:#565656;}
	.st123{fill:#7C7C7C;}
	.st124{fill:#BDBDBD;}
	.st125{fill:#888888;}
	.st126{fill:#BEBEBE;}
	.st127{fill:#878787;}
	.st128{fill:#8E8E8E;}
	.st129{fill:#C1C1C1;}
	.st130{fill:#424242;}
	.st131{fill:#C7C7C7;}
	.st132{fill:#939393;}
	.st133{fill:#B0B0B0;}
	.st134{fill:#999999;}
	.st135{fill:#3B3B3B;}
	.st136{fill:#A6A6A6;}
	.st137{fill:#737373;}
	.st138{fill:#D8D8D8;}
	.st139{fill:#454545;}
	.st140{fill:#656565;}
	.st141{fill:#818181;}
	.st142{fill:#7F7F7F;}
	.st143{fill:#5C5C5C;}
	.st144{fill:#A1A1A1;}
	.st145{fill:#797979;}
	.st146{fill:#B2B2B2;}
	.st147{fill:#9E9E9E;}
	.st148{fill:#717171;}
	.st149{fill:#B9B9B9;}
	.st150{fill:#CFCFCF;}
	.st151{fill:#D1D1D1;}
	.st152{fill:#A8A8A8;}
	.st153{fill:#828282;}
	.st154{fill:#595959;}
	.st155{fill:#AAAAAA;}
	.st156{fill:#636363;}
	.st157{fill:#D6D6D6;}
	.st158{fill:#BCBCBC;}
	.st159{fill:#A3A3A3;}
	.st160{fill:#525252;}
	.st161{fill:#8A8A8A;}
	.st162{fill:#646464;}
	.st163{fill:#6B6B6B;}
	.st164{fill:#DEDEDE;}
	.st165{fill:#F2F2F2;}
	.st166{fill:#757575;}
	.st167{fill:#CECECE;}
	.st168{fill:#B4B4B4;}
	.st169{fill:#959595;}
	.st170{fill:#F1F1F1;}
	.st171{fill:#FAFAFA;}
	.st172{fill:#383838;}
	.st173{fill:#9B9B9B;}
	.st174{fill:#CACACA;}
	.st175{fill:#5E5E5E;}
	.st176{fill:#B1B1B1;}
	.st177{fill:#929292;}
	.st178{fill:#7B7B7B;}
	.st179{fill:#A0A0A0;}
	.st180{fill:#2A2A2A;}
	.st181{fill:#A5A5A5;}
	.st182{fill:#707070;}
	.st183{fill:#868686;}
	.st184{fill:#9A9A9A;}
	.st185{fill:#585858;}
	.st186{fill:#6D6D6D;}
	.st187{fill:#4F4F4F;}
	.st188{fill:#C2C2C2;}
	.st189{fill:#242424;}
	.st190{fill:#787878;}
	.st191{fill:#BFBFBF;}
	.st192{fill:#7E7E7E;}
	.st193{fill:#B7B7B7;}
	.st194{fill:#C6C6C6;}
	.st195{fill:#676767;}
	.st196{fill:#A7A7A7;}
	.st197{fill:#6E6E6E;}
	.st198{fill:#B6B6B6;}
	.st199{fill:#B5B5B5;}
	.st200{fill:#494949;}
	.st201{fill:#8F8F8F;}
	.st202{fill:#898989;}
	.st203{fill:#3D3D3D;}
	.st204{fill:#121212;}
	.st205{fill:#212121;}
	.st206{fill:#1D1D1D;}
	.st207{fill:#505050;}
	.st208{fill:#171717;}
	.st209{fill:#1B1B1B;}
	.st210{fill:#F4F4F4;}
	.st211{fill:#555555;}
	.st212{fill:#5A5A5A;}
	.st213{fill:#FBFCFB;}
	.st214{fill:#FCFDFC;}
	.st215{fill:#FCFCFB;}
	.st216{fill:#FDFDFD;}
	.st217{fill:#F5F6F6;}
	.st218{fill:#BFC1C4;}
	.st219{fill:#BEC1C4;}
	.st220{fill:#C2C3C7;}
	.st221{fill:#D4D7D8;}
	.st222{fill:#D0D3D5;}
	.st223{fill:#90949A;}
	.st224{fill:#B4B6BA;}
	.st225{fill:#93979C;}
	.st226{fill:#9DA2A6;}
	.st227{fill:#9DA1A8;}
	.st228{fill:#787D84;}
	.st229{fill:#AAAEB3;}
	.st230{fill:#7F838B;}
	.st231{fill:#868A90;}
	.st232{fill:#AFB3B7;}
	.st233{fill:#C5C6C9;}
	.st234{fill:#7E8288;}
	.st235{fill:#7E8289;}
	.st236{fill:#8A8F95;}
	.st237{fill:#898D94;}
	.st238{fill:#82878E;}
	.st239{fill:#93969D;}
	.st240{fill:#2C303A;}
	.st241{fill:#A6AAB1;}
	.st242{fill:#ABAFB5;}
	.st243{fill:#AAAFB4;}
	.st244{fill:#F7F9F8;}
	.st245{fill:#8D9196;}
	.st246{fill:#A0A4AA;}
	.st247{fill:#A9ADB4;}
	.st248{fill:#B9BEC2;}
	.st249{fill:#9EA2A8;}
	.st250{fill:#F7F7F7;}
	.st251{fill:#D5D5D5;}
	.st252{fill:#E3E3E3;}
	.st253{fill:#E5E5E5;}
	.st254{fill:#EEEEEE;}
	.st255{fill:#DDDDDD;}
	.st256{fill:#BBBBBB;}
	.st257{fill:#D4D4D4;}
	.st258{fill:#ECECEC;}
	.st259{fill:#B8B8B8;}
	.st260{fill:#DFDFDF;}
	.st261{fill:#F3F3F3;}
	.st262{fill:#949494;}
	.st263{fill:#EAEAEA;}
	.st264{fill:#EBEBEB;}
	.st265{fill:#E6E6E6;}
	.st266{fill:#68696A;}
	.st267{fill:#E2E2E2;}
	.st268{fill:#222222;}
	.st269{fill:#F5F5F5;}
	.st270{fill:#3C3C3C;}
	.st271{fill:#D5D5D6;}
	.st272{fill:#B2B3B4;}
	.st273{fill:#E4E4E4;}
	.st274{fill:#E9E9E9;}
	.st275{fill:#282828;}
	.st276{fill:#A9AAAB;}
	.st277{fill:#EFEFEF;}
	.st278{fill:#888989;}
	.st279{fill:#8D8E8E;}
	.st280{fill:#D2D2D3;}
	.st281{fill:#6B6B6C;}
	.st282{fill:#4B4B4B;}
	.st283{fill:#ABABAC;}
	.st284{fill:#CBCBCB;}
	.st285{fill:#272727;}
	.st286{fill:#DADADB;}
	.st287{fill:#2B2B2B;}
	.st288{fill:#E7E7E7;}
	.st289{fill:#353536;}
	.st290{fill:#979899;}
	.st291{fill:#1C1C1C;}
	.st292{fill:#30363F;}
	.st293{fill:#3A4048;}
	.st294{fill:#293039;}
	.st295{fill:#292F38;}
	.st296{fill:#D8D8D9;}
	.st297{fill:#181818;}
	.st298{fill:#0A0A0A;}
	.st299{fill:#A9A9AA;}
	.st300{fill:#292929;}
	.st301{fill:#262626;}
	.st302{fill:#1E1E1E;}
	.st303{fill:#040404;}
	.st304{fill:#080808;}
	.st305{fill:#0B0B0B;}
	.st306{fill:#070707;}
	.st307{fill:#101010;}
	.st308{fill:#0F0F0F;}
	.st309{fill:#161616;}
	.st310{fill:#0D0D0D;}
	.st311{fill:#232323;}
	.st312{fill:#0E0E0E;}
	.st313{fill:#1F1F1F;}
	.st314{fill:#202020;}
	.st315{fill:#191919;}
	.st316{fill:#151515;}
	.st317{fill:#0C0C0C;}
	.st318{fill:#141414;}
	.st319{fill:#111111;}
	.st320{fill:#252525;}
	.st321{fill:#131313;}
	.st322{fill:#1A1A1A;}
	.st323{fill:#221E20;}
	.st324{fill:#1C1A1A;}
	.st325{fill:#131112;}
	.st326{fill:#1E1C1D;}
	.st327{fill:#231F20;}
	.st328{fill:#211E1F;}
	.st329{fill:#211D1E;}
	.st330{fill:#1C191A;}
	.st331{fill:#131213;}
	.st332{fill:#231E20;}
	.st333{fill:#1B191A;}
	.st334{fill:#1F1C1D;}
	.st335{fill:#151414;}
	.st336{fill:#131212;}
	.st337{fill:#1E1B1C;}
	.st338{fill:#1A1819;}
	.st339{fill:#040505;}
	.st340{fill:#1D1B1C;}
	.st341{fill:#0F0E0E;}
	.st342{fill:#181616;}
	.st343{fill:#1B1819;}
	.st344{fill:#171616;}
	.st345{fill:#100F10;}
	.st346{fill:#060706;}
	.st347{fill:#0C0B0B;}
	.st348{fill:#181617;}
	.st349{fill:#626061;}
	.st350{fill:#636162;}
	.st351{fill:#060606;}
	.st352{fill:#605F5F;}
	.st353{fill:#181717;}
	.st354{fill:#565555;}
	.st355{fill:#616060;}
	.st356{fill:#FAF9FA;}
	.st357{fill:#232021;}
	.st358{fill:#5F5D5E;}
	.st359{fill:#646162;}
	.st360{fill:#646263;}
	.st361{fill:#626161;}
	.st362{fill:#201D1E;}
	.st363{fill:#201E1F;}
	.st364{fill:#272526;}
	.st365{fill:#1A191A;}
	.st366{fill:#1E1D1D;}
	.st367{fill:#252223;}
	.st368{fill:#605E5F;}
	.st369{fill:#494748;}
	.st370{fill:#1C1B1C;}
	.st371{fill:#615F60;}
	.st372{fill:#666565;}
	.st373{fill:#595758;}
	.st374{fill:#4F4D4E;}
	.st375{fill:#454445;}
	.st376{fill:#636262;}
	.st377{fill:#484748;}
	.st378{fill:#232122;}
	.st379{fill:#474546;}
	.st380{fill:#6B6A6B;}
	.st381{fill:#585657;}
	.st382{fill:#666465;}
	.st383{fill:#575656;}
	.st384{fill:#5D5C5D;}
	.st385{fill:#616061;}
	.st386{fill:#4A494A;}
	.st387{fill:#5A5959;}
	.st388{fill:#212021;}
	.st389{fill:#474646;}
	.st390{fill:#555455;}
	.st391{fill:#4E4D4E;}
	.st392{fill:#3D3C3D;}
	.st393{fill:#413F40;}
	.st394{fill:#272626;}
	.st395{fill:#797878;}
	.st396{fill:#252324;}
	.st397{fill:#7E7C7D;}
	.st398{fill:#5B5A5B;}
	.st399{fill:#242223;}
	.st400{fill:#7E7D7D;}
	.st401{fill:#575657;}
	.st402{fill:#2B292A;}
	.st403{fill:#9F9E9E;}
	.st404{fill:#757374;}
	.st405{fill:#636263;}
	.st406{fill:#777677;}
	.st407{fill:#717070;}
	.st408{fill:#545253;}
	.st409{fill:#5C5A5A;}
	.st410{fill:#FCFDFD;}
	.st411{fill:#FBFAFB;}
	.st412{fill:#F8F7F8;}
	.st413{fill:#F9F8F9;}
	.st414{fill:#E3E1E2;}
	.st415{fill:#747273;}
	.st416{fill:#676566;}
	.st417{fill:#FCFBFB;}
	.st418{fill:#F9F8F8;}
	.st419{fill:#F5F4F4;}
	.st420{fill:#F9F7F8;}
	.st421{fill:#E5E3E4;}
	.st422{fill:#F4F3F4;}
	.st423{fill:#ECEBEB;}
	.st424{fill:#EAE8E9;}
	.st425{fill:#DCDADB;}
	.st426{fill:#D6D5D5;}
	.st427{fill:#221E1F;}
	.st428{fill:#CECDCD;}
	.st429{fill:#ABAAAA;}
	.st430{fill:#F8F7F7;}
	.st431{fill:#F8F8F9;}
	.st432{fill:#FAF9F9;}
	.st433{fill:#FAF8F9;}
	.st434{fill:#F8F6F7;}
	.st435{fill:#F5F4F5;}
	.st436{fill:#EAE9E9;}
	.st437{fill:#F7F6F7;}
	.st438{fill:#F7F5F6;}
	.st439{fill:#F4F2F3;}
	.st440{fill:#F6F5F6;}
	.st441{fill:#F5F3F4;}
	.st442{fill:#F3F4F4;}
	.st443{fill:#F6F5F5;}
	.st444{fill:#F4F3F3;}
	.st445{fill:#F6F4F5;}
	.st446{fill:#F1EFF0;}
	.st447{fill:#F1F0F1;}
	.st448{fill:#EEECED;}
	.st449{fill:#EBE8E9;}
	.st450{fill:#F3F1F2;}
	.st451{fill:#F3F2F2;}
	.st452{fill:#E9E7E8;}
	.st453{fill:#E8E6E7;}
	.st454{fill:#E4E2E3;}
	.st455{fill:#F2F0F1;}
	.st456{fill:#525151;}
	.st457{fill:#DBD9DA;}
	.st458{fill:#706E6F;}
	.st459{fill:#CDCCCC;}
	.st460{fill:#DAD7D8;}
	.st461{fill:#D2CFD0;}
	.st462{fill:#FBFAFA;}
	.st463{fill:#F7F6F6;}
	.st464{fill:#494848;}
	.st465{fill:#EBEAEB;}
	.st466{fill:#F1F0F0;}
	.st467{fill:#535152;}
	.st468{fill:#EBEAEA;}
	.st469{fill:#F3F2F3;}
	.st470{fill:#EBE9EA;}
	.st471{fill:#EDECED;}
	.st472{fill:#E2E1E2;}
	.st473{fill:#E0DEDF;}
	.st474{fill:#E5E4E4;}
	.st475{fill:#E1DFE0;}
	.st476{fill:#E8E5E6;}
	.st477{fill:#797778;}
	.st478{fill:#CBCACA;}
	.st479{fill:#C5C2C3;}
	.st480{fill:#F0EFF0;}
	.st481{fill:#F2F1F1;}
	.st482{fill:#EDECEC;}
	.st483{fill:#6D6C6C;}
	.st484{fill:#A2A1A2;}
	.st485{fill:#979394;}
	.st486{fill:#5E5D5E;}
	.st487{fill:#BCB9BA;}
	.st488{fill:#D2D0D1;}
	.st489{fill:#E9E8E8;}
	.st490{fill:#B7B4B5;}
	.st491{fill:#D1CECF;}
	.st492{fill:#9B9798;}
	.st493{fill:#E1DEDF;}
	.st494{fill:#E7E5E6;}
	.st495{fill:#D7D4D5;}
	.st496{fill:#DAD8D9;}
	.st497{fill:#E5E2E3;}
	.st498{fill:#CFCDCE;}
	.st499{fill:#736F70;}
	.st500{fill:#D9D5D6;}
	.st501{fill:#BBB8B9;}
	.st502{fill:#C0BCBD;}
	.st503{fill:#BFBEBE;}
	.st504{fill:#FDFCFD;}
	.st505{fill:#E9E8E9;}
	.st506{fill:#3B3A3A;}
	.st507{fill:#D5D4D4;}
	.st508{fill:#BBB9BA;}
	.st509{fill:#100F0F;}
	.st510{fill:#222021;}
	.st511{fill:#373536;}
	.st512{fill:#DFDDDE;}
	.st513{fill:#504F4F;}
	.st514{fill:#FCFBFC;}
	.st515{fill:#FEFDFD;}
	.st516{fill:#EFEDEE;}
	.st517{fill:#B1B0B0;}
	.st518{fill:#8B898A;}
	.st519{fill:#D4D2D3;}
	.st520{fill:#DBDADB;}
	.st521{fill:#E6E5E5;}
	.st522{fill:#D5D3D4;}
	.st523{fill:#B9B6B7;}
	.st524{fill:#D8D7D8;}
	.st525{fill:#636161;}
	.st526{fill:#D8D5D6;}
	.st527{fill:#BAB7B8;}
	.st528{fill:#C6C4C5;}
	.st529{fill:#858384;}
	.st530{fill:#E1E0E0;}
	.st531{fill:#EEEDEE;}
	.st532{fill:#626162;}
	.st533{fill:#6B6A6A;}
	.st534{fill:#313031;}
	.st535{fill:#C7C4C5;}
	.st536{fill:#FDFCFC;}
	.st537{fill:#474647;}
	.st538{fill:#5C5B5B;}
	.st539{fill:#E4E3E4;}
	.st540{fill:#1A1919;}
	.st541{fill:#1C1B1B;}
	.st542{fill:#3F3E3E;}
	.st543{fill:#2F2E2E;}
	.st544{fill:#2D2C2C;}
	.st545{fill:#1D1A1B;}
	.st546{fill:#252425;}
	.st547{fill:#595859;}
	.st548{fill:#201C1D;}
	.st549{fill:#262525;}
	.st550{fill:#202120;}
	.st551{fill:#383738;}
	.st552{fill:#302F2F;}
	.st553{fill:#5B5A5A;}
	.st554{fill:#414241;}
	.st555{fill:#3A3B3A;}
	.st556{fill:#222121;}
	.st557{fill:#1F1D1E;}
	.st558{fill:#141314;}
	.st559{fill:#2F2C2D;}
	.st560{fill:#4D4C4D;}
	.st561{fill:#353334;}
	.st562{fill:#2F2D2E;}
	.st563{fill:#292828;}
	.st564{fill:#2A2829;}
	.st565{fill:#343334;}
	.st566{fill:#4A4949;}
	.st567{fill:#595A59;}
	.st568{fill:#161414;}
	.st569{fill:#171617;}
	.st570{fill:#161415;}
	.st571{fill:#585758;}
	.st572{fill:#1D1C1C;}
	.st573{fill:#151415;}
	.st574{fill:#191718;}
	.st575{fill:#090909;}
	.st576{fill:#141213;}
	.st577{fill:#2B2A2A;}
	.st578{fill:#363435;}
	.st579{fill:#2C2B2B;}
	.st580{fill:#181718;}
	.st581{fill:#302F30;}
	.st582{fill:#312F30;}
	.st583{fill:#666767;}
	.st584{fill:#DEDBDC;}
	.st585{fill:#FEFDFE;}
	.st586{fill:#E7E6E7;}
	.st587{fill:none;stroke:#000000;stroke-width:2.1259842;stroke-miterlimit:10;}
	.st588{fill:none;stroke:#000000;stroke-miterlimit:10;}
	.st589{fill:#000105;}
	.st590{fill:#41B6E6;}
	.st591{fill:#251A0A;}
	.st592{fill:#271A0E;}
	.st593{fill:#21150C;}
	.st594{fill:#33250F;}
	.st595{fill:#FFB600;}
	.st596{fill:#5EA5E5;}
	.st597{fill:#00B5ED;}
</style>
<title>menu icon salad</title>
<g>
	<path d="M216.0296021,125.5464325c-1.4205933-1.2134933-2.9762115-2.2666931-4.5338745-3.297821   c-1.015152-0.6689301-2.1472931-0.4790802-3.2478943-0.0597687c-0.875473,0.338562-1.7866516,0.5849152-2.7856903,0.9161835   c0.1074066-1.6454163,0.354187-3.0290375,0.2427368-4.3800888c-0.1335297-1.5395737-1.4187775-2.1676102-2.8925018-2.5871048   c0.2804871-0.7101746,0.5201416-1.3177643,0.7765656-1.9148636c1.342865-3.0638962,0.8781281-5.6025162-1.4497681-8.0117722   c-0.4075623-0.4293289-0.8455048-0.8658905-1.1536102-1.3611908c-1.1557312-1.8052826-1.1194153-2.9825363,0.1976166-4.6995316   c5.0421448-6.5432434,9.332077-13.5795517,13.4596558-20.7289886c1.1127319-1.9494247,1.3080597-3.6796875,0.1062012-5.653595   c-1.3894043-2.2891312-2.5716095-4.7050247-3.8992615-7.0370331c-0.2808533-0.5015717-0.7136078-1.0398712-1.2080078-1.2554092   c-3.2199707-1.4286652-6.4168854-2.9128799-9.7226715-4.0922432c-2.4772949-0.883255-2.9085999-0.4536858-4.1312103,1.9513512   c-2.9277802,5.731987-5.9162292,11.4492645-8.891098,17.1634674c-0.2983398,0.5709229-0.6856995,1.0978851-1.3967743,1.5275116   c0.3658142-2.5441666,0.7096863-5.0903244,1.1194763-7.6303329c0.2268677-1.4076843,0.5752106-2.7861176,0.8240356-4.1917496   c0.4036255-2.2875595-0.5591736-3.1334839-2.7206268-2.4332047c-0.9938507,0.3228836-1.9761963,0.6645813-3.3250275,1.1268997   c0.2122803-0.974144,0.4194946-1.6601944,0.5030823-2.3535995c0.3144379-2.5178757,0.7494354-5.042141,0.8251801-7.5694199   c0.0809937-2.3492584-0.6863556-4.5526314-2.1374512-6.4259415c-1.3919525-0.0655556-2.2276154,0.6008377-2.9090881,1.5614662   c-1.2950287,1.8122826-2.5901184,3.6245651-4.2705688,5.3825111c0.0071106-0.6828575-0.0108643-1.3814507,0.0234528-2.0705795   c0.1821899-3.7422218-0.4870911-7.352253-2.2654266-10.6414528c-0.7922516-1.4734192-1.9593658-2.8314705-3.2259369-3.9370766   c-1.3032227-1.1401596-2.3483429-0.6046982-2.6442108,1.1559639c-0.1871338,1.1762848-0.208786,2.3859825-0.3571472,3.5747528   c-0.098175,0.8473091-0.2843933,1.6862984-0.4349213,2.5242653c-0.1592102-0.0062714-0.3236694-0.0041618-0.4828186-0.0103722   c-0.0797272-0.2827797-0.2358704-0.5550041-0.2223511-0.8377838c0.0195923-1.0945091,0.314621-2.2382927,0.116333-3.282444   c-0.3345947-1.7584305-0.9038239-3.4769363-1.5107574-5.1724052c-1.7651825-4.8769569-7.5577698-7.5397491-12.7653961-4.6296997   c-4.3635712,2.4353142-7.0521088,6.1615562-8.8846588,10.6436882c-0.4218445,1.0296783-0.7492523,2.0949402-1.2557678,3.5027428   c-0.3731232-0.745575-0.6068115-1.2294769-0.8509369-1.6964912c-0.8635254-1.6576576-1.6705627-3.3499908-2.647171-4.9384727   c-0.4872131-0.8053398-1.2572174-1.6240654-2.4081726-1.1429977c-1.0429993,0.4202805-0.859436,1.4319878-0.9398193,2.3253746   c-0.2588959,2.8206139-0.4570618,5.6558228-0.8562927,8.4586449c-0.319809,2.2467346-1.5887909,3.8306351-3.8612747,4.4848442   c-0.3561096,0.1037865-0.6776047,0.3573799-1.0378189,0.4119568c-5.369545,0.8750534-8.6592255,4.5752411-11.5287552,8.6660385   c-3.0507431,4.3620605-6.1862183,8.6361923-9.6685181,12.6821213c-2.0908432,2.4335632-3.8999252,5.1247559-5.7266846,7.7698822   c-2.9209061,4.210144-6.3488083,7.963829-9.9370117,11.5824203c-5.4487228,5.4970322-10.1579132,11.6192093-14.7917099,17.7883682   c-5.3644791,7.1340637-11.002449,14.0158005-17.2301636,20.4242477c-3.4929161,3.5966492-6.7342911,7.4434509-10.1256523,11.138443   c-4.2602577,4.6200562-8.5771484,9.1815491-12.8175049,13.8256683c-0.5758705,0.6422119-1.0343246,1.5440979-1.1765289,2.3872986   c-0.3283119,2.0550232-0.6963654,4.1550293-0.585762,6.2162018c0.359127,6.6432343,2.7059708,12.7339172,5.8654518,18.4933472   c4.0029907,7.2999725,9.3201866,13.6148834,15.7514381,18.855011c5.4674835,4.4517365,11.7785988,7.4033966,18.7052116,8.9221039   c2.508522,0.5532684,4.7655716,0.48349,6.2426071-2.1238251c0.265892-0.4629669,0.9444656-0.6914825,1.4303589-1.0404053   c3.5748749-2.5901337,7.2210236-5.0891266,10.7215424-7.7839355c11.9862366-9.2307587,23.7933578-18.6781921,36.4502182-27.0240631   c7.978241-5.256958,16.2624664-9.8101349,25.1439362-13.3611755c3.8883972-1.5439148,7.6331024-3.4920807,11.3391418-5.452774   c5.7710114-3.0474243,10.3968506-7.5439758,14.7849579-12.2939148c0.5046539-0.546936,1.0847321-1.0466919,1.5191956-1.6490326   c2.5419312-3.4915924,6.2679901-4.77565,10.2593384-5.1602325c2.1815491-0.2100983,4.5047455,0.1924438,6.6697693,0.7176056   c4.0786743,0.9864349,7.8886261,0.0343018,11.6943512-1.1534424c1.9583435-0.6175385,2.4480438-2.2221832,1.1676636-3.8839417   c-0.9062347-1.1601868-2.0754089-2.1234589-3.3639832-3.4175873c2.4921875-1.4722137,4.7394562-2.7946777,6.9950562-4.1118469   c0.3204193-0.1959381,0.6670532-0.3406219,0.9843292-0.5501251   C217.0200195,127.7843018,217.2364655,126.5797882,216.0296021,125.5464325z M200.3251953,64.1648026   c2.8418427,1.1575317,5.6700592,2.3182602,8.490921,3.5093155c0.2471924,0.1077118,0.5226746,0.3380203,0.6285706,0.578949   c0.8509979,1.9760742,1.6643524,3.9752502,2.6558533,6.3419952c-3.5926056-0.5896835-6.8896942-0.6452255-9.9399567-1.9912109   c-0.3666077-0.1590958-0.7888184-0.5276871-0.9009247-0.8889847c-0.7674103-2.483017-1.4614868-4.9901581-2.2467957-7.705719   C199.6371002,64.0728378,200.0172729,64.0423813,200.3251953,64.1648026z M199.496521,77.4287033   c0.4187164-0.7636108,0.9232941-1.4969406,1.2739868-2.0583954c3.8429413,0.6177826,7.4324036,1.1938324,11.0218048,1.7698288   c-2.9626312,4.7433167-5.8906555,9.4499054-8.8385773,14.1324997c-2.7124176,4.3053665-5.4467926,8.6086884-8.8422546,12.4409485   c-4.2120819,4.766655-8.218811,9.7082062-13.2406769,13.7011871c-1.7382355,1.3840408-3.1379547,3.1775055-4.7085266,4.7594757   c-1.2512512,1.2571564-2.3819427,2.6945114-4.2879486,3.2281723c-0.1174774-0.3529205-0.2651672-0.619957-0.2789154-0.8964615   c-0.0990143-1.9491196-0.1948547-3.884613-0.2227173-5.8357773c-0.0031891-0.3865128,0.227066-0.8484039,0.4836121-1.1658554   c4.0819855-5.2672653,8.4049683-10.3607864,12.2409058-15.7934723   C189.630127,93.8781357,194.9388275,85.882225,199.496521,77.4287033z M186.1138763,117.6373596   c-1.3348236,1.857338-2.6381836,3.8507767-4.7503052,5.1061249c0.14534-0.8295822,0.3137054-1.7145844,0.8476715-2.1965561   C183.4185181,119.4720154,184.8018494,118.6002197,186.1138763,117.6373596z M188.9602509,82.7596512   c0.9834137-1.7023468,1.8954926-3.4452133,2.710968-5.2430191l1.071228,1.4010468   c0.2038422-0.6318359,0.4076843-1.2637329,0.6115112-1.8955688c0.3464661,0.136116,0.6929321,0.272171,1.0393982,0.4082794   c0.1278534-1.9684143,0.2556915-3.9368362,0.3835449-5.9053116c0.4031525,1.0284729,0.806366,2.0570068,1.2095184,3.0854797   c0.5288849-1.9736633,0.5226746-4.0879593-0.0177917-6.0584259c0.0246124,0.0896759,0.2108917,0.2286224,0.2733765,0.304245   c0.1022797,0.1238098,0.1984711,0.2526245,0.2884979,0.3856049c0.1728516,0.255455,0.322525,0.526474,0.4485016,0.807991   c0.2529297,0.5651321,0.4100952,1.1723022,0.4709473,1.7882156c0.121521,1.2299042-0.1429901,2.5056381-0.816803,3.5488205   c-1.8660126,2.8889465-2.4444275,6.133255-4.3376465,9.0045319c-1.9269867,2.9224091-3.6230164,6.7576065-5.5500031,9.6799545   c-1.9269257,2.9224167-3.9594269,5.98172-5.8863525,8.9041367c-1.9269867,2.9224091-5.1367188,5.6548615-7.0636444,8.5772705   c-1.0020599,1.5196762-2.19104,1.7893448-3.1930389,3.3090134c-0.7066803-0.6019211-1.0478973-1.5179825-1.5847473-2.2751923   c-0.53685-0.7572784-1.4924774-1.401474-2.3522644-1.0514526c-0.7232056,0.2944183-1.0243835,1.1368408-1.2446747,1.8860397   c-0.5505981,1.8721008-1.1012726,3.7442093-1.6518707,5.6163177c-0.1280365-4.1725769-2.0849915-8.2567368-5.2568359-10.970787   c-5.9304504-5.0745239-15.2417145-4.6855469-21.8809052-0.581604c-6.6391296,4.1039429-10.9238739,11.1943512-13.56604,18.5387039   c-0.2690887-1.9917526-0.5382385-3.9835129-0.8073273-5.9752655c-0.0803299-0.5943909-0.1555328-1.2262192,0.0944443-1.7714005   c0.2449646-0.5341339,0.7569656-0.8865662,1.2398453-1.2214508c6.2027435-4.300972,11.3717041-10.0821686,14.954422-16.7256393   c0.4270325-0.7917709,0.8403168-1.6075363,1.4614716-2.258194c0.7248993-0.7593231,1.6832886-1.2428589,2.607132-1.7412949   c5.4696045-2.951004,10.3859406-6.923233,14.4200439-11.6508102c1.0953522,2.1316071,3.8273163,2.9982147,6.1933441,2.6170731   c2.3660736-0.381134,4.4441986-1.7448578,6.3993988-3.1307678c0.1040344,2.9654083-2.0677338,5.4545135-3.2269592,8.185936   c-0.5424042,1.2779617-0.7018433,3.0805969,0.5116425,3.7548294c0.6908112,0.3837891,1.5477753,0.2119751,2.3065033-0.0090485   c1.9367523-0.5641098,3.7985535-1.3849487,5.5213318-2.4343491c-0.0738068,6.4381866-4.3130188,12.6359863-10.2864838,15.0389175   c-0.449295,0.1807327-0.927887,0.3562317-1.2398529,0.7266312c-0.3119049,0.3704681-0.3651581,1.0089951,0.0266571,1.2935867   c0.1707306,0.1239929,0.3892212,0.1581268,0.5992737,0.1782074c2.3447266,0.2242813,4.6580353-0.8684845,6.4325714-2.4174042   s3.1059875-3.5295181,4.4632568-5.4546356C179.4912109,96.2840729,184.848999,89.8762894,188.9602509,82.7596512z    M144.0679626,124.4491501c2.0724487,2.948761,2.4013062,6.1713181,1.9027557,9.785881   c-1.0190735,0.0274963-1.9669189,0.052948-2.7723083,0.074173c-2.1364441-2.7905884-2.9395447-5.8318634-2.819046-9.1582642   c0.0207977-0.5928192-0.082016-1.1928711-0.190094-1.7846603c-0.2307892-1.2158508-0.6490173-2.3741074-1.9394684-2.8073502   c-1.2988281-0.4384308-2.3061981,0.2604675-3.2213593,1.1101303c-3.4625702,3.2310638-4.8083191,7.1202469-3.6664124,11.7827072   c0.2862091,1.1457672,0.6374969,2.2621002,0.9719086,3.4612427c-2.3792267,1.0302277-4.6094589,3.2888184-7.2787628,4.4290924   c0.4884872-2.1063385-0.0501251-5.1959229,0.4300995-6.748291c1.8479233-5.9054871,5.4412231-11.1880951,9.2102814-16.1033478   c1.8153534-2.3843536,3.8130188-4.6315079,6.4655609-6.1551056c1.7089691-0.9829407,3.4944763-1.6967316,5.5557709-1.2479858   c5.9860077,1.3272934,9.4266968,5.2936172,11.365921,10.7685776c-1.2523346,1.2215805-2.3768158,2.3132553-3.6960907,3.5862122   c-0.0589142-0.8755951-0.0496368-1.3940582-0.1472015-1.909317c-0.5150299-2.6632767-1.292923-5.222702-3.4437103-7.1136246   c-2.3257294-2.0583954-5.1660767-1.7820663-6.9667664,0.7279053   C142.0388184,119.6403351,142.4249725,122.1182251,144.0679626,124.4491501z M139.5799255,134.6936035   c-1.853714,0.4498291-3.5167389,0.8556976-5.2971191,1.2814026c-3.0857697-4.4785767-1.7555847-11.2899399,3.6165466-13.8292236   c0.3543091,0.9435654,0.7002869,1.8818817,1.0188904,2.7332916c-0.7078857,0.5364304-1.2146454,0.9188995-1.8555298,1.404007   c0.3918152,0.3612366,0.6171265,0.6533051,0.9072571,0.8229446c1.3440094,0.7578812,1.3461151,0.8291016,0.2791595,1.9218063   c-0.3298187,0.341507-0.5045776,0.8265076-0.7578735,1.2507629c0.4734192,0.2491302,0.9228821,0.6113281,1.4277039,0.71698   c1.1176147,0.2437744,1.4685974,0.7075806,0.7556458,1.5321045   C138.9668427,133.34375,139.030899,134.0244904,139.5799255,134.6936035z M124.4240799,132.3802948   c0.1660233-1.7019806,0.3038864-3.0603943,0.4416885-4.4189377   C126.3095169,129.5854187,126.2405243,130.1248169,124.4240799,132.3802948z M139.6200409,111.0350266   c-2.5131836,1.6922073-4.6019135,4.0105896-6.8751068,6.0274277c-0.3844604-0.2983932-0.8757782-0.6867752-1.4655914-1.1600647   c-0.6645813,1.7168198,1.6296844,3.6390457-0.8102722,4.8410797c-0.5436096-0.2113724-1.1700134-0.4395142-2.1378174-0.8110657   c0.3009186,1.364624,0.8081055,2.3804321,0.6513062,3.2843094c-0.1861115,1.0253983-0.9672089,1.9588318-1.5491638,3.0398941   c-0.6212234-0.6093445-1.0843201-1.0617065-1.603981-1.5726242c0.3757095-0.9186554,0.6153107-1.8058319,1.0675507-2.5485687   c1.2331619-2.0489273,2.4297104-4.1324692,3.8618698-6.0338898c3.9595795-5.2389221,9.2561493-8.3847046,15.7032013-9.6234741   c2.6989136-0.5161667,5.1833191-0.0361176,7.5183411,1.4106445c2.0028534,1.250946,3.6791382,2.8570938,4.9627075,4.8121262   c1.8473816,2.8430481,2.382431,5.996376,1.6575928,9.3764572c-0.674942-1.7729645-1.2578735-3.5815659-2.0167236-5.3136444   C155.3235321,109.3566818,146.3049927,106.5430603,139.6200409,111.0350266z M149.8710632,77.6309128   c-0.452301,0.6494446-0.8574524,1.2235641-1.2050018,1.7054138c-1.1731415-0.0802689-2.2019806-1.3985748-3.1723785,0.1738052   c0.5615845,0.6303329,1.0749054,1.207283,1.5401154,1.730751c-0.5943756,1.8655319-1.869873,2.4901276-3.4692078,2.3649368   c-0.1861725,0.8389282-0.1220703,1.7061996-0.5177917,2.1346207c-1.1559143,1.2351456-2.4951477,2.2975693-3.7694855,3.4238663   c0.7545013-2.2896729,1.8326569-4.3889008,2.7641602-6.5331726c0.9576721-2.1860657,1.7655487-4.430809,2.6980743-6.8190155   c2.3343048-0.6971512,4.2568207-2.1525345,5.0813446-4.8528366c0.1778412-0.564537,0.6322479-1.0496445,0.9777527-1.6027222   c2.0448761,1.6500626,2.0558014,2.9382782,0.2111969,5.91008c-1.1017456,0.1972656-2.5495453-0.823494-3.3344421,0.9928894   L149.8710632,77.6309128z M144.6252594,86.1788101c3.2574768-2.8466034,5.3102112-6.6553421,7.6615143-10.1960907   c0.72966-1.0936584,1.1471558-2.4521942,1.4567719-3.749939c0.3818665-1.6371536-0.0762787-3.1231766-1.5355988-4.1627426   c-1.3167419-0.9506836-2.5567627-0.6999817-3.4005127,0.7068558c-0.2271881,0.3824081-0.4228821,0.8076324-0.5306396,1.2412949   c-0.4644928,1.900032-1.9797058,2.8525162-3.5921936,4.2218475c-0.113678-1.7018585-0.6250763-2.8601151-2.3532257-3.0774612   c1.452301-1.1315384,2.6533203-2.1404724,3.9370728-3.0394669c1.0879364-0.753418,2.2199554-1.5026093,3.4294739-2.0402451   c1.9646149-0.8698654,2.7329865-2.0441589,2.3270569-3.9869499c-0.3869934-1.8610115-1.7488403-2.7581367-3.8057861-2.691555   c-2.3774719,0.076107-4.5421906,0.6695251-6.6080627,2.3731346c-0.1238708-1.0326347-0.2078857-1.7375031-0.2866974-2.4506912   c0.6220551-0.1939468,1.1855621-0.2380905,1.610672-0.5084457c2.0639496-1.3087807,4.3911285-1.3230743,6.7005157-1.4766769   c2.2957611-0.1504059,3.8859406,0.9592438,4.9967346,2.8180199c1.2260284,2.0471802,1.8362274,4.3156204,1.4294434,6.6827316   c-0.473587,2.7913055-0.9901123,5.61409-1.9004974,8.2839966c-0.9721527,2.8061981-2.1381226,5.6427307-3.7534485,8.1170654   c-2.9207306,4.4897919-7.6457062,6.7576294-12.3518829,8.9207764c-0.1539001,0.0786438-0.4063416-0.0208054-0.6043243-0.0395584   C139.9269409,90.0826569,142.3217163,88.1882935,144.6252594,86.1788101z M156.3866119,60.2418976   c-0.5878601-1.2409325-1.5193024-2.3236237-2.5430145-3.8367233c2.8168793,1.7943115,4.6084747,3.8685646,5.4063263,6.7318192   c1.647171,5.8866119,0.581543,11.4536057-2.2007141,16.7288895c-3.5474854,6.7428589-9.6345673,10.6879501-16.0663605,14.1963654   c-0.0513153,0.0262375-0.1455841-0.009346-0.3875275-0.0323868c-0.113205-0.3036423-0.2505188-0.6806183-0.2662048-0.7487106   c2.5120239-1.7277908,5.0178986-3.1100845,7.131958-4.9466705c6.1400909-5.2982635,9.0234833-12.3394547,10.1554413-20.1948471   C158.0147247,65.3944016,157.5572968,62.732151,156.3866119,60.2418976z M143.7447815,55.5262604   c1.6431274-4.1228218,4.0301971-7.1985321,6.4570618-10.22612c0.4994049-0.6317139,1.1715851-1.1671181,1.8575134-1.6124268   c2.0712433-1.3391151,4.2645416-0.8778877,5.9692383,1.316864c-3.0644989,0.1129532-4.2065277,2.2771263-5.2091827,4.6098595   c-0.533844,1.2276649-1.1231079,2.4322968-1.7521667,3.7751503c-1.3143921,0.2392387-2.5145569,0.3516502-3.6560974,0.6871376   C146.2748413,54.4037704,145.1941986,54.9404411,143.7447815,55.5262604z M163.0730286,51.5548096   c0.5021667,0.3122711,1.1434784,0.4709358,1.7033691,0.3379021c0.1891785-0.0449295,0.3690796-0.1232071,0.5311127-0.2400818   c0.6110382-0.4406624,0.7817688-1.2611389,0.9063568-2.0041199c0.290741-1.7338829,0.5814819-3.4677086,0.8722229-5.2015915   c2.3327332,1.8190956,3.604599,4.7270355,4.085556,7.6458282c0.4808807,2.9188538,0.2602844,5.9006691,0.1266937,8.8558273   c-0.037384,0.8275909,0.0349274,1.8402061,0.7769318,2.2084999c0.8431549,0.4185295,1.7697144-0.352375,2.3861084-1.063755   c1.7598114-2.0309525,3.4357452-4.1346397,5.0219421-6.3038788c1.5560913,5.1454468,0.256424,10.771534-2.0615387,15.6216545   c-0.3960266,0.8286819-0.811615,1.8525696-0.2837982,2.6041794c0.4952393,0.7052841,1.5752716,0.713913,2.3487091,0.3339157   c0.7734985-0.3799896,1.3670349-1.0425262,2.078476-1.5287781c0.7115021-0.4862595,1.6787567-0.7848358,2.422348-0.3492355   c0.0639191,0.0374451-0.7519684,4.0274734-0.7998505,4.4312286c-0.1815186,1.5317917-0.2966461,3.070282-0.4353485,4.6063004   c-0.2725983,3.0195084-0.6332245,6.0839996-1.7868347,8.9134216c-0.3478546,0.8532181-0.9972382,1.519249-1.5584564,2.2507706   c-0.650528,0.8480377-1.3009949,1.6960144-1.9515381,2.5440445c0.0591125-0.7903824,0.1169434-1.5971069-0.0774841-2.3654709   c-0.1944275-0.7683105-0.6885834-1.5055618-1.4315643-1.7814713c-0.8915863-0.3310242-1.8725891,0.0608521-2.7416229,0.4471741   c-1.5585632,0.6928711-3.1170807,1.3857956-4.6756439,2.0786591c1.7639771-3.3107834,3.5669098-6.7549133,3.7850342-10.4999084   c0.0639954-1.098671-0.2038879-2.4664307-1.2596283-2.7770767c-0.9080353-0.2672195-1.7834473,0.4334869-2.5172119,1.0313721   c-1.4628601,1.1920242-3.1078491,2.1600113-4.8601837,2.859993c-0.425766,0.1700668-0.8686066,0.3264389-1.3271179,0.3275833   c-1.1859894,0.0030212-2.1047668-0.9899979-2.8617401-1.903038c-0.1629486-0.1965408-0.3310242-0.4032135-0.3869324-0.6524048   c-0.0631409-0.2815704,0.026535-0.5724335,0.1151886-0.8470688c0.4638824-1.4363327,0.9277649-2.8727188,1.3916321-4.3090515   c0.1961823-0.6075287,0.399292-1.228447,0.7885132-1.7345428c0.5231018-0.6800842,1.3212738-1.0780487,2.0715485-1.4942245   c1.3641357-0.7566147,2.6556091-1.6440887,3.8510742-2.6461487c0.4078522-0.3419418,0.8261414-0.7323074,0.9432068-1.2515488   c0.1170502-0.5192413-0.2336884-1.1686859-0.7656555-1.1520386c-0.2790375,0.0087433-0.5196686,0.1884537-0.7396088,0.3603897   c-1.674118,1.3081818-3.348175,2.6163559-5.0222321,3.9245911c-0.2122192-1.4699783,0.5731506-2.8968964,0.6834564-4.3780365   c0.0792389-1.0650177-0.1930389-2.1218414-0.4749146-3.1519394c-0.6414948-2.3446121-1.3565521-4.6998367-2.6009827-6.7879639   c-1.2443695-2.0881271-3.0810242-3.9107819-5.3826294-4.6926613c0.6196442-1.6521072,1.2393036-3.3042145,1.858902-4.9563217   c0.2176361-0.5802155,0.486908-1.2173576,1.0533142-1.4687767c0.6385956-0.2835617,1.3744507,0.0455933,1.9660645,0.4174461   c0.9307861,0.5850983,1.7841797,1.2931595,2.5310211,2.1000671   C161.9066925,50.4950981,162.4011993,51.1369438,163.0730286,51.5548096z M140.3291168,51.9955139   c1.7850342-2.2984161,2.3212891-4.4181824,3.6035919-6.9375c1.538681-3.0230675,3.5350037-6.6938515,6.6221619-8.1673317   c2.4138489-1.160183,6.7020264,0.8496284,8.2934723,2.5542603c1.6741791,1.8145142,2.493988,5.3460274,2.961792,7.8050423   c-1.3615417-0.1514931-1.3429718-1.0019417-1.5128479-1.8303146c-1.0342102-5.0028801-6.2306824-6.88554-10.2054443-3.6365089   c-1.3140869,1.0781097-2.4616089,2.4117355-3.4844055,3.7882996c-2.2174225,2.9719849-4.3646545,5.9994507-5.9535675,9.4572067   C140.6433868,54.7657928,140.2076569,52.1526718,140.3291168,51.9955139z M141.7499542,63.7747383   c0.3444672-0.1226044,0.936264-0.3239098,1.5331879-0.533535c0.2316895,0.8786697,0.4308929,1.5855255,0.6248322,2.300827   c0.1864624,0,0.372879-0.0001221,0.5676727,0.0050659c0.4207611-1.158493,0.8362122-2.308548,1.2956238-3.4545593   c0.0533752-0.1413612,0.3256683-0.2042618,0.5089417-0.3111839c0.2494202,0.5519295,0.4726257,1.052475,0.8331909,1.8368263   c0.8731842-0.9690704,1.5819702-1.7495613,2.3065033-2.5552025c1.2521515,1.7256813,1.2115021,2.5740204-0.1980438,3.1148491   c-3.1773376,1.2075272-5.3529663,3.7396317-7.9309082,5.74086c-0.8628082,0.6726608-0.7832031,0.7689743-0.0496979,2.0192566   c-0.5079041,0.2536469-1.0073547,0.5124817-1.7477417,0.8771591   C140.2875061,69.641449,140.990448,66.8186035,141.7499542,63.7747383z M127.3013382,65.8396759   c1.0578995-1.6023865,2.3423691-3.0543823,3.8155441-4.2866669c0.9701538-0.8115158,2.0346527-1.5485764,2.7599487-2.584774   c2.288681-3.2696991,0.3306732-7.823391,1.1880646-11.7213173c2.6294556,6.0814857,5.3160095,12.6557541,3.9561005,19.1402893   c-0.5828552,2.7793045-1.891861,5.380455-2.320816,8.1876373c-0.06427,0.4205322-0.0946503,0.8951645,0.1732025,1.2256699   c0.3552399,0.4383392,1.030014,0.3932114,1.5797577,0.2662888c1.3283844-0.306694,2.5997772-0.8583679,3.7312012-1.6189804   c-1.5718231,5.8985596-4.1781616,11.519928-7.6644745,16.5308533c-0.4781952,0.6873093-0.9843903,1.3887177-1.1628571,2.2067795   c-0.1784515,0.8180618,0.0667877,1.7949066,0.7971191,2.2043915c1.0193024,0.5714874,2.2852478-0.2071991,3.4447174-0.0616379   c-0.4876099,1.2179184-0.9795227,2.4342041-1.4628296,3.6538239c-0.39505,0.9968719-0.9412689,1.8634186-1.5441437,2.762558   c-1.2215729,1.8218994-2.5732422,3.5564423-4.0398102,5.1875916c-2.5811005,2.8707733-5.5762558,7.5225372-8.7872925,9.6661758   c-0.1445999-6.7860718,0.3000717-15.6840897,1.214119-22.409874c2.7378464,0.6197586,5.2552719-1.5263443,7.2448196-3.5066452   c1.2926483-1.286644,2.5975342-2.5884857,3.5605774-4.1373291c0.9630585-1.548851,1.5670776-3.3909531,1.3161011-5.1974411   c-2.8620148,1.4702301-5.7240448,2.9404678-8.5860596,4.4106979c3.3414154-5.9523773,5.7204437-12.443634,7.0167694-19.1455307   c0.2161407-1.1174011,0.2318878-2.5842285-0.8103943-3.0413437c-2.4099731,3.9268112-5.3039322,7.5562515-8.5955658,10.7800598   C124.508606,71.319313,125.618187,68.3891449,127.3013382,65.8396759z M132.9640198,68.3291779   c-0.0732117,0.2104645-0.1381073,0.4263077-0.2029877,0.6420212c-0.2584229,0.8987579-0.491745,1.8131332-0.7752533,2.6962051   c-0.0701294,0.2240982-0.135025,0.4399338-0.2218628,0.6535416c-0.0701447,0.2241669-0.1569824,0.4378281-0.2438202,0.6515579   c-0.0868988,0.2136688-0.1821289,0.4220886-0.27742,0.6305695c-1.5574799,3.2210541-3.3318329,6.341629-5.0422516,9.4904938   c-0.6082001,1.1229782-1.3975525,2.1443329-1.9198761,3.2975845c-0.2396545,0.5143585-0.2687225,1.3815689,0.0183334,1.8172302   c0.5165939,0.7769318,1.3470154,0.3986282,1.9836807-0.0425186c1.3654633-0.9178696,2.6764832-1.9164352,4.0335693-2.8395538   c1.0188751-0.6800156,2.0890808-1.2930374,3.4807892-2.159584c-1.6860046,4.3407059-7.4052048,9.3194656-10.3984756,9.4303055   c-0.089859-2.8403931-0.2038422-5.6608887-0.2444839-8.5055008c-0.0150223-1.3374252,0.015976-2.6927643,0.2209015-4.0093231   c0.1118088-0.7572174,0.5137558-1.531311,0.9639435-2.1588669c2.3534775-3.2831116,4.7603302-6.5211639,7.1452179-9.7613373   c0.3266907-0.4483185,0.6617584-0.8915176,1.1862488-1.6006622c0.0534821,0.3246307,0.1027527,0.6000519,0.1426849,0.8346481   c0.0188751,0.0817108,0.0377502,0.1634293,0.0397949,0.2346497c0.0430603,0.2482224,0.0797882,0.4691925,0.1133728,0.6765213   l-0.0052338,0.0083847C132.9608917,68.3155441,132.9556427,68.3239288,132.9640198,68.3291779z M110.0125427,189.7574463   c-3.4207306,3.3505402-10.9416656,6.0631714-14.6379929,9.0900269c-6.0280991,4.9138641-12.2553253,9.5868683-18.4081345,14.364624   c-0.7288132,0.5700226-1.4660034,0.9482727-2.4726486,0.5642395c-2.5096664-0.9617767-5.1617889-1.6396942-7.5731583-2.7963104   c-7.8939934-3.8120728-14.4446487-9.289856-19.618618-16.4124756c-4.9192924-6.7653961-8.4143791-14.1324921-9.9239845-22.4029846   c-0.2810898-1.5269623-0.1034851-2.9304962,0.4815521-4.3707428c1.2286911-3.030365,2.9517822-5.7518921,5.0112038-8.2284546   c3.0571976-3.6822815,6.2379646-7.2641449,9.4019661-10.8564453c2.07938-2.3592682,4.0822334-4.8011475,6.3564644-6.9688263   c5.9723778-5.6826019,11.6587715-11.5787964,16.7281075-18.1283112c6.9705734-8.9967041,13.256897-19.311676,20.570015-28.0361557   c4.4297867-5.2831268,10.1085281-8.7904968,13.9652786-14.5363541c3.2976379-4.9067535,6.8834915-9.6219025,10.3152542-14.4449539   c1.0688782-1.4875259,2.4070892-2.492363,4.4911728-2.9380875c-2.1543427,3.8035583-3.8404617,7.491745-4.0078735,11.6393509   c-0.1663284,4.0899506-0.1431732,8.1934204-0.2026291,12.3734055c-1.2964783,0.6581345-3.1471786,0.3758926-4.3093567,1.8634872   c1.5672607,1.1652527,3.0959778-0.070076,4.7205887,0.4437408c-1.1105576,2.3935165-4.2937927,1.1858749-5.6860352,3.6946411   c2.0213623-0.1587296,3.6488647-0.2838669,5.5717545-0.4342117c-0.9567719,1.5692444-2.3582458,1.2763977-3.4672852,1.597229   c-1.1823196,0.3449554-2.4045639,0.5484924-3.605751,0.8117294c0.0199585,0.2104721,0.0367889,0.4073715,0.0566864,0.6179047   c2.0059891,0.9849319,4.2062225,0.0175476,6.3532715,0.1237488c-0.128273,1.8654175-0.2910995,3.5810242-0.3471832,5.2934418   c-0.1723022,5.3677368-0.2984619,10.7176208-0.440361,16.0926514l-0.005188,0.0083847   c0.0031357,0.0136261-0.0021133,0.0220108,0.0010223,0.0355759c0.2110748,1.7511368,0.3739014,3.5420685,0.5985489,5.290062   c0.9132843,7.2107239,1.8266907,14.4214325,2.8028183,21.6248474c0.3547897,2.6213684,0.3493042,5.2041321-0.0552979,7.8289185   c-1.1007233,7.0594788-2.8656006,13.9138336-5.8600845,20.4429016   C114.0555191,178.9914856,114.7336655,185.1456604,110.0125427,189.7574463z M145.9508972,165.1398315   c0.5149689-1.2161407,1.3104553-2.7719421,1.7186127-3.705246c0.9346313-2.1305847,2.0587006-4.0196838,2.932663-6.164917   c0.2961731-0.7353821,1.6290588-1.7002563,0.1435852-2.7911377c-0.7505188,1.4067688-1.4602814,2.6176758-2.0505676,3.8799591   c-1.3356171,2.8470306-2.5905304,5.7328949-3.9177094,8.5852356c-0.5746002,1.2370758-1.2907562,1.5487976-2.8314056,1.6466827   c0.6446686-1.5544739,1.3613281-3.4984589,1.8499908-5.0454559c0.4582672-1.4612427,0.9880676-2.2914734,1.3308258-4.9571075   c-0.6636658,1.1931-1.1976318,1.9547272-1.512619,2.7947998c-0.8434448,2.2457733-1.579071,4.5239258-2.3838043,6.7822876   c-0.341156,0.975174-1.1776276,2.2267456-2.6795654,2.2439423c0.1820679-0.6085663,0.3067932-1.5408478,0.5045471-2.0812531   c0.7681885-2.1064606,1.38237-4.1688385,2.1338043-6.2857971c0.209259-0.6147614,0.3399353-1.2050018,0.6622162-1.8499908   c0.1053467-0.2108765-0.0716095-0.5723877-0.3680115-0.6759949c-0.1717529-0.06073-0.5539856,0.1782074-0.6984711,0.3909149   c-0.2104797,0.2995453-0.2951508,0.6776733-0.4134064,1.0348663c-1.0642395,3.1214294-2.12323,6.2344055-3.165451,9.3579407   c-0.3651581,1.0883026-1.5750275,2.6697998-3.2276764,2.7792053c0.2982788-0.7572784,0.866272-2.1855011,1.1457367-2.8380737   c0.673996-1.5827637,1.1507263-2.9424133,1.8079529-4.5356598c0.2658386-0.6494446,0.772583-1.545166,0.6375732-1.9001617   c-0.3661194-0.962677-1.2283936,0.5492096-1.5937347,1.171402c-0.0701294,0.1308594-0.1067352,0.2827759-0.1684875,0.4190063   c-1.0057983,2.5055084-2.0450745,4.9901581-2.9900208,7.5103912c-0.4112854,1.1060791-1.034256,1.9169617-2.0290222,2.5770874   c-4.1781235,2.7724915-8.310173,5.6204224-12.4651947,8.430603c-0.4596634,0.3070221-0.955986,0.579483-1.4356079,0.862442   c3.1894531-6.2442322,5.7943497-12.5971375,7.1685638-19.4042816c1.3700485-6.7631836,2.6217194-13.5419769,1.1303253-20.3681793   c2.251564-0.9934845,4.2590637-1.9880676,6.3524323-2.7658539c2.3782654-0.8793945,4.7984314-1.732666,7.2626343-2.3021545   c6.2271729-1.4461517,12.5198364-0.6844788,18.7904205-0.3908997c3.508728,0.1643372,6.8415833,0.9645996,9.9474487,2.5200348   c3.5122681,1.7627106,7.1184387,2.162796,10.9074707,1.3374329c0.806488-0.1719971,1.6223145-0.3031616,2.4475555-0.3935089   c0.4398804-0.0514984,0.9028473,0.0279846,1.2432861,0.0425873   C172.7012634,152.1305542,159.9797974,160.4351196,145.9508972,165.1398315z M210.3979034,128.6691895   c-1.4471893,0.9367371-2.9404449,1.7981567-4.3939056,2.7076569c-2.4629364,1.5371552-2.5851746,2.4044342-0.6228485,4.5037689   c0.4954834,0.5308228,0.9858398,1.0700989,1.6175537,1.7559052c-0.5550079,0.2358551-0.933075,0.4307709-1.3320007,0.565979   c-2.8276062,0.8900146-5.6409302,0.5075989-8.4249878-0.1828461c-3.1485748-0.7783203-6.2047424-0.8464813-9.2259369,0.5400391   c-0.7089691,0.3143768-1.5257568,0.6895447-2.8078918,0.2615509c4.1050262-1.9095001,7.8300629-3.4156036,12.0289917-3.0879517   c0.692337,0.0479431,1.6706848,0.4959564,1.7739868-0.6393738c0.1086273-1.0506134-0.9355316-0.9454956-1.623703-1.1306915   c-0.1435242-0.0314178-0.2922363-0.0543976-0.4430695-0.0554199c-3.8469086-0.0146027-7.6748962,0.145752-11.1735382,1.9796906   c-1.0231628,0.5375824-1.8534088,1.4752197-3.1088867,2.4967651c-0.6504059-0.0218353-1.7836914-0.0539093-3.0267944-0.0965576   c1.0098877-2.3630524,2.7427521-4.1116638,2.433075-6.6932678c-0.6429901,0.5071106-1.1381683,1.0948029-1.5632172,1.7380371   c-0.9777527,1.5095367-1.9221039,3.0399475-2.8777771,4.5516052c-0.4429016,0.6903381-1.0114746,1.1157379-1.9614868,0.6970215   c0.5095367-1.6737518,1.9952545-3.0640717,1.6584473-5.2665405c-2.1152039,1.4281921-2.6769104,3.8383026-4.4140472,5.3512115   c-0.3131714-0.0209198-0.7017365,0.0043488-1.047348-0.095047c-0.6494446-0.1725922-1.3208466-0.3473663-1.9084778-0.6560669   c-4.6929016-2.4651642-9.7559662-3.2743073-14.9739532-3.3879852c-1.2484131-0.0341949-2.4926758,0.0740509-3.7358398,0.1247101   c-1.1563263-0.1630707-2.3074646-0.3344574-3.4941254-0.5048218c0.0382996-1.5720825,0.0881195-3.1252899,0.1242981-4.675415   c2.0653229-0.2478027,2.4296417-0.6259918,2.3578186-2.7678452c-0.9487457,0.3626862-1.7970276,0.6949768-2.7133942,1.0429459   l-0.5755005-1.6525269c0.8470154-1.1136322,2.329834-1.771759,2.1481934-3.4580002   c-1.5304108-0.6645813-2.0242004,1.0773239-3.3364868,1.294487c-0.3416901-0.8891068-0.8279419-1.751976-0.9894562-2.6683426   c-0.3693085-2.094574,1.5980225-4.2558517,3.3703156-3.6614685c1.7335205,0.5817795,3.3478241,1.6715851,3.8112793,3.5221634   c0.8252411,3.2297363,1.7489014,6.5443802-0.8235474,9.5625c-1.0784149,1.2602997-1.2937164,2.6868591,0.1206055,3.9663239   c2.2223663-3.9124603,4.0633545-8.1098251,8.0141296-11.2456665c0.4150238,1.0513916,0.7022705,1.8599243,1.0627899,2.6442184   c0.5417938,1.1655502,1.4719086,1.2804947,2.2078857,0.2140884c0.5412598-0.7920074,1.0332489-1.6729126,1.3157806-2.591568   c0.8464661-2.7914886,1.5630951-5.6174088,2.3623962-8.4266205c0.2563629-0.8766861,0.6174316-1.7346115,1.0851746-3.0617218   c0.754425,1.1235733,1.4061127,1.7402725,1.5979462,2.4775848c0.5442047,2.0756454,0.9857178,4.2037506,1.2985229,6.3328857   c0.1899719,1.3185501-0.0296021,2.6959,0.1142883,4.0323029c0.1659546,1.5248642,1.1066284,2.0890961,2.5424194,1.5995789   c0.6921997-0.231636,1.3854218-0.6141663,1.941452-1.0940247c1.2376862-1.0676117,2.3757324-2.255661,3.5704803-3.385025   c0.3413239-0.3226471,0.7277222-0.6056061,1.4983826-1.2426224c-0.3494263,1.5291977-0.6486053,2.5305939-0.7719269,3.5486984   c-0.0606079,0.4513931,0.0914764,1.233757,0.3890381,1.3729477c0.42836,0.2093201,1.1384735,0.1169357,1.6202087-0.0948029   c0.5193634-0.2347183,0.9549561-0.7083054,1.3643188-1.1398621c1.3422546-1.4216766,2.6091156-2.8904495,3.9629517-4.29319   c1.2626953-1.3315735,2.3441772-2.8579407,4.244812-3.9425049c-0.0887756,1.0746078-0.1303864,1.8873672-0.2327881,2.6854706   c-0.3354187,2.6446381-1.396698,5.0339966-2.5962677,7.3836136c-0.3192596,0.604393-0.5023499,1.270546-0.8205414,2.0969925   c1.6004333,0.1607819,2.0924225-0.7201233,2.5362701-1.5612869c1.654892-3.1718979,2.6488647-6.5352173,2.5420532-10.1317978   c-0.0274963-0.8326569-0.1838684-1.9438171-0.7276001-2.4348907c-0.822403-0.7349625-1.6013184,0.2696915-2.3447876,0.713974   c-0.0565643,0.0345535-0.182312-0.0439682-0.367691-0.1015015c2.8907471-3.2853394,5.7365723-6.5172424,8.8418884-10.0529785   c1.0415649,1.5591736,2.1185913,2.7445068,2.678299,4.14254c0.798645,1.9666138,0.5541534,3.9807968-0.9220886,5.6915894   c-1.7338257,1.9924774-0.4334259,4.1444702,1.7953949,4.4181976c0.618988,0.0721283,1.2265778,0.3117294,1.9230652,0.502182   c-0.2091522,0.8944702-0.3766174,1.5355301-0.5135193,2.1838303c-0.5543976,2.5661774,0.2115631,3.7086334,2.8048706,3.9769974   c0.7918396,0.075264,1.7396851,0.0498123,2.408844-0.3127518c2.0640106-1.1223679,3.5231323-0.362442,5.0256195,1.3914642   C211.9026184,127.5470505,211.1916046,128.1630859,210.3979034,128.6691895z"></path>
	<path d="M132.9608765,68.3155289c0,0-0.0052338,0.0083847,0.0031586,0.0136261c0,0,0,0,0.0052338-0.0083847   C132.9608765,68.3155289,132.9608765,68.3155289,132.9608765,68.3155289z"></path>
	<path d="M132.9608765,68.3155289c0,0-0.0052338,0.0083847,0.0031586,0.0136261c0,0,0,0,0.0052338-0.0083847   C132.9608765,68.3155289,132.9608765,68.3155289,132.9608765,68.3155289z"></path>
	<path d="M132.9608765,68.3155289c0,0-0.0052338,0.0083847,0.0031586,0.0136261c0,0,0,0,0.0052338-0.0083847   C132.9608765,68.3155289,132.9608765,68.3155289,132.9608765,68.3155289z"></path>
	<path d="M132.9608765,68.3155289c0,0-0.0052338,0.0083847,0.0031586,0.0136261c0,0,0,0,0.0052338-0.0083847   C132.9608765,68.3155289,132.9608765,68.3155289,132.9608765,68.3155289z"></path>
	<path d="M132.9608765,68.3155289c0,0-0.0052338,0.0083847,0.0031586,0.0136261c0,0,0,0,0.0052338-0.0083847   C132.9608765,68.3155289,132.9608765,68.3155289,132.9608765,68.3155289z"></path>
	<path d="M132.9608765,68.3155289c0,0-0.0052338,0.0083847,0.0031586,0.0136261c0,0,0,0,0.0052338-0.0083847   C132.9608765,68.3155289,132.9608765,68.3155289,132.9608765,68.3155289z"></path>
	<path d="M132.9608765,68.3155289c0,0-0.0052338,0.0083847,0.0031586,0.0136261c0,0,0,0,0.0052338-0.0083847   C132.9608765,68.3155289,132.9608765,68.3155289,132.9608765,68.3155289z"></path>
	<path d="M132.9608765,68.3155289c0,0-0.0052338,0.0083847,0.0031586,0.0136261c0,0,0,0,0.0052338-0.0083847   C132.9608765,68.3155289,132.9608765,68.3155289,132.9608765,68.3155289z"></path>
	<path d="M132.9608765,68.3155289c0,0-0.0052338,0.0083847,0.0031586,0.0136261c0,0,0,0,0.0052338-0.0083847   C132.9608765,68.3155289,132.9608765,68.3155289,132.9608765,68.3155289z"></path>
	<path d="M132.9608765,68.3155289c0,0-0.0052338,0.0083847,0.0031586,0.0136261c0,0,0,0,0.0052338-0.0083847   C132.9608765,68.3155289,132.9608765,68.3155289,132.9608765,68.3155289z"></path>
	<path d="M132.9608765,68.3155289c0,0-0.0052338,0.0083847,0.0031586,0.0136261c0,0,0,0,0.0052338-0.0083847   C132.9608765,68.3155289,132.9608765,68.3155289,132.9608765,68.3155289z"></path>
	<path d="M132.9608765,68.3155289c0,0-0.0052338,0.0083847,0.0031586,0.0136261c0,0,0,0,0.0052338-0.0083847   C132.9608765,68.3155289,132.9608765,68.3155289,132.9608765,68.3155289z"></path>
	<path d="M132.9608765,68.3155289c0,0-0.0052338,0.0083847,0.0031586,0.0136261c0,0,0,0,0.0052338-0.0083847   C132.9608765,68.3155289,132.9608765,68.3155289,132.9608765,68.3155289z"></path>
	<path d="M132.9608765,68.3155289c0,0-0.0052338,0.0083847,0.0031586,0.0136261c0,0,0,0,0.0052338-0.0083847   C132.9608765,68.3155289,132.9608765,68.3155289,132.9608765,68.3155289z"></path>
	<path d="M132.9608765,68.3155289c0,0-0.0052338,0.0083847,0.0031586,0.0136261c0,0,0,0,0.0052338-0.0083847   C132.9608765,68.3155289,132.9608765,68.3155289,132.9608765,68.3155289z"></path>
	<path d="M132.9608765,68.3155289c0,0-0.0052338,0.0083847,0.0031586,0.0136261c0,0,0,0,0.0052338-0.0083847   C132.9608765,68.3155289,132.9608765,68.3155289,132.9608765,68.3155289z"></path>
	<path d="M132.9608765,68.3155289c0,0-0.0052338,0.0083847,0.0031586,0.0136261c0,0,0,0,0.0052338-0.0083847   C132.9608765,68.3155289,132.9608765,68.3155289,132.9608765,68.3155289z"></path>
	<path d="M132.9608765,68.3155289c0,0-0.0052338,0.0083847,0.0031586,0.0136261c0,0,0,0,0.0052338-0.0083847   C132.9608765,68.3155289,132.9608765,68.3155289,132.9608765,68.3155289z"></path>
	<path d="M132.9608765,68.3155289c0,0-0.0052338,0.0083847,0.0031586,0.0136261c0,0,0,0,0.0052338-0.0083847   C132.9608765,68.3155289,132.9608765,68.3155289,132.9608765,68.3155289z"></path>
	<path d="M132.9608765,68.3155289c0,0-0.0052338,0.0083847,0.0031586,0.0136261c0,0,0,0,0.0052338-0.0083847   C132.9608765,68.3155289,132.9608765,68.3155289,132.9608765,68.3155289z"></path>
	<path d="M132.9608765,68.3155289c0,0-0.0052338,0.0083847,0.0031586,0.0136261c0,0,0,0,0.0052338-0.0083847   C132.9608765,68.3155289,132.9608765,68.3155289,132.9608765,68.3155289z"></path>
	<path d="M132.9608765,68.3155289c0,0-0.0052338,0.0083847,0.0031586,0.0136261c0,0,0,0,0.0052338-0.0083847   C132.9608765,68.3155289,132.9608765,68.3155289,132.9608765,68.3155289z"></path>
	<path d="M132.9608765,68.3155289c0,0-0.0052338,0.0083847,0.0031586,0.0136261c0,0,0,0,0.0052338-0.0083847   C132.9608765,68.3155289,132.9608765,68.3155289,132.9608765,68.3155289z"></path>
	<path d="M132.9608765,68.3155289c0,0-0.0052338,0.0083847,0.0031586,0.0136261c0,0,0,0,0.0052338-0.0083847   C132.9608765,68.3155289,132.9608765,68.3155289,132.9608765,68.3155289z"></path>
	<path d="M132.9608765,68.3155289c0,0-0.0052338,0.0083847,0.0031586,0.0136261c0,0,0,0,0.0052338-0.0083847   C132.9608765,68.3155289,132.9608765,68.3155289,132.9608765,68.3155289z"></path>
	<path d="M132.9608765,68.3155289c0,0-0.0052338,0.0083847,0.0031586,0.0136261c0,0,0,0,0.0052338-0.0083847   C132.9608765,68.3155289,132.9608765,68.3155289,132.9608765,68.3155289z"></path>
	<path d="M132.9608765,68.3155289c0,0-0.0052338,0.0083847,0.0031586,0.0136261c0,0,0,0,0.0052338-0.0083847   C132.9608765,68.3155289,132.9608765,68.3155289,132.9608765,68.3155289z"></path>
	<path d="M132.9608765,68.3155289c0,0-0.0052338,0.0083847,0.0031586,0.0136261c0,0,0,0,0.0052338-0.0083847   C132.9608765,68.3155289,132.9608765,68.3155289,132.9608765,68.3155289z"></path>
	<path d="M132.9608765,68.3155289c0,0-0.0052338,0.0083847,0.0031586,0.0136261c0,0,0,0,0.0052338-0.0083847   C132.9608765,68.3155289,132.9608765,68.3155289,132.9608765,68.3155289z"></path>
	<path class="st3" d="M132.9671783,68.3427811c0.0030975,0.0135956-0.0021057,0.0219345,0.0010376,0.0355682   c0.0083923,0.0052338,0.0167847,0.0104752,0.0115356,0.0188599c0.005249-0.0083847-0.0031433-0.0136261-0.0062866-0.0272522   C132.9786682,68.361618,132.9702759,68.3563766,132.9671783,68.3427811z"></path>
	<path class="st3" d="M132.9682159,68.3783493c0.0083923,0.0052338,0.0167847,0.0104752,0.0115356,0.0188599   c0.005249-0.0083847-0.0031433-0.0136261-0.0062866-0.0272522L132.9682159,68.3783493z"></path>
	<path d="M71.2148209,208.5184479c-0.0363693,0.2373047-0.0727386,0.4746094-0.1090317,0.7118988   c0.5906982-0.0058136,1.16008,0.1108856,1.7668457-0.0216217c4.1807709-0.9305115,8.336174-2.6305389,12.3656769-5.7018433   c4.5528336-3.4742432,9.072113-7.0136108,13.6060486-10.5285034c0.2859955-0.2262726,0.6042938-0.4391937,0.822464-0.7201996   c0.1995468-0.2579803,0.4436035-0.7847443,0.3673019-0.8717194c-0.1735382-0.1907959-0.5350571-0.3301544-0.8122177-0.2109833   c-0.5428162,0.234848-1.092308,0.616745-1.6032486,1.0043335c-3.4098358,2.5809937-6.8531876,5.0968018-10.19487,7.7962494   c-4.3612595,3.5145264-8.8619919,5.8881989-13.5339432,7.4380493   C73.0020142,207.7133942,72.1033401,208.1435547,71.2148209,208.5184479z"></path>
	<path d="M43.394558,162.4810791c-1.066906,1.3733215-1.6086617,2.6786194-0.9233704,4.1957703   c0.1905861,0.4160614,0.1195602,1.1737213-0.0943947,1.6837006c-0.6093521,1.4907837-0.6713257,2.8778839-0.4391251,4.2705078   c0.580719,3.461853,1.1557083,6.9200745,1.7510948,10.3713379c0.1056519,0.5907288,0.127655,1.4956207,0.9344749,1.2470398   c0.9136353-0.2907715,0.7607498-1.2180176,0.6893959-1.8764648c-0.1597252-1.4958344-0.3514328-2.9918823-0.6441879-4.4420929   c-0.3493423-1.733139-0.8361664-3.4135132-1.2206612-5.1289673c-0.3136902-1.4038696-0.408783-2.8098907,0.2031975-4.4079437   c0.2864456-0.7419128,0.2078972-1.672226,0.0706291-2.4312439c-0.1457291-0.7840729,0.0121498-1.3588104,0.5843124-1.9915924   c0.6384735-0.7002563,1.3205681-1.3930969,1.797039-2.1945343c0.4021492-0.6696472,0.6400604-1.5012817,0.7489166-2.255127   c0.0413246-0.3108673-0.3762321-0.7498932-0.7042732-0.8557281c-0.1945229-0.062088-0.6105042,0.4107971-0.927784,0.6482849   c0.067688,0.0719452,0.1366539,0.1546631,0.2101326,0.2302399   C44.7519035,160.5268097,44.1215248,161.5489807,43.394558,162.4810791z"></path>
	<path d="M94.8415146,142.4216156c1.6258545,1.3882904,3.1281891,2.7693176,3.8367767,4.842865   c0.1048126,0.2984772,0.4725418,0.4931793,0.7438812,0.7675323c1.0209808-0.6088257,1.0050125-1.5158539,0.6277542-2.2174835   c-0.6424255-1.2283325-1.4397507-2.4136963-2.3188019-3.4869843c-0.7512665-0.9235077-1.7296677-1.6511536-2.5584259-2.5065918   c-0.8705978-0.8815765-0.8572617-1.91008-0.1589813-2.86026c0.8354263-1.1324158,1.6938553-2.5068054,3.2481461-2.5146179   c1.6527252-0.0161591,2.2344589,1.5703888,2.9847412,2.7379456c0.7041397,1.0921783,0.586113,2.2882996,0.1549683,3.4635468   c-0.2972412,0.7929535-0.3022156,1.5470276,0.6300278,1.8264008c0.9269485,0.2877197,1.358223-0.4214478,1.6355896-1.1452484   c1.0307846-2.769516,0.3828049-5.2944641-1.1983566-7.6683502c-0.1121368-0.1748505-0.3048782-0.388443-0.5007477-0.4292297   c-1.2694702-0.280304-2.5599594-0.7135315-3.8398132-0.6974945c-0.8881302,0.0045013-1.7740097,0.6394043-2.6473618,1.0492096   c-0.2597275,0.1173401-0.4491959,0.3834686-0.6680374,0.5845947   C91.5690384,137.1973572,91.5132141,139.5623016,94.8415146,142.4216156z"></path>
	<path d="M60.2204552,201.0207214c-0.0812073,0.1300201-0.1524734,0.2580719-0.2337036,0.3881378   c0.1966591,0.246048,0.3426933,0.5591125,0.5936165,0.7322388c2.9963455,2.1015778,6.157402,3.3364105,9.8670273,2.851593   c3.5472183-0.4630585,6.7619324-1.5856934,9.6884918-3.438797c0.4189682-0.2641907,0.7693024-0.6287689,1.1526184-0.9480743   c-0.0486526-0.1043091-0.0999298-0.2185364-0.144928-0.3287811c-0.3406219-0.015564-0.7136307-0.1334991-1.0092163-0.0387726   c-0.766983,0.2604523-1.4800949,0.6449432-2.2470551,0.905365c-1.9379578,0.6629639-3.847229,1.4342194-5.8488541,1.8766479   c-3.3527222,0.7406464-6.6704865,0.3034973-9.8633232-1.3291779   C61.5660019,201.3763428,60.8723564,201.2389374,60.2204552,201.0207214z"></path>
	<path d="M119.5259628,147.645813c-0.9962158,2.9193115-0.7188416,5.9816284-1.0771713,8.9614716   c-0.3792953,3.1065216-1.1491852,6.1671143-1.7432175,9.2444c-0.5678253,2.9421997-2.02491,5.6668091-2.5873947,9.0666199   C118.7723923,170.7306976,122.1878738,153.2693024,119.5259628,147.645813z"></path>
	<path d="M115.1311035,110.0874863c-0.2230148,0.5608597-0.4498978,0.9354553-0.5178452,1.3385773   c-0.0907364,0.5302963-0.0944061,1.0796661-0.0815353,1.625206c0.0244293,0.8214645,0.057106,1.6410522,0.1444321,2.4523392   c0.3302765,2.992775-0.3110962,5.7747192-1.7275925,8.404953c-0.2446594,0.4483185-0.3640594,0.9678345-0.5393982,1.4523697   c0.093483,0.0654678,0.1901474,0.1258392,0.2868195,0.1862183c0.297493-0.2950974,0.6458511-0.5584259,0.8854523-0.8967667   c1.3944244-1.9721451,2.3074722-4.1246872,2.2425079-6.5910568c-0.067482-2.4962616-0.1896744-4.9842148-0.3004074-7.4791718   C115.5216217,110.5152817,115.4179535,110.4434509,115.1311035,110.0874863z"></path>
	<path d="M93.42939,173.3314667c0.1331863,0.5142212,0.1668549,1.0944061,0.4267502,1.5363159   c0.554306,0.9403534,1.3107681,1.7622986,1.8650742,2.702652c1.1034164,1.8891296,2.3477097,2.0605011,3.8606644,0.4775238   c0.4093933-0.4316559,0.7957382-0.9009705,1.2166672-1.3137512c2.5872421-2.5196381,2.3768158-5.726593-0.520813-7.9324493   c-1.0884476-0.8312836-1.2487259-0.8731689-2.742157-0.5710754c0.2525711,0.4723053,0.4171524,0.9362335,0.7073975,1.2922211   c0.4263763,0.5109711,0.9920807,0.9108887,1.413269,1.4302826c1.2174301,1.482666,1.1990585,2.8924103-0.0123215,4.3841553   c-0.4711456,0.5678558-0.9621887,1.111557-1.4532242,1.6552582c-0.0314102,0.050293-0.1392975,0.0178833-0.4650345,0.0357819   c-0.2389832-0.568634-0.400444-1.2986145-0.7902527-1.8682404c-0.5301819-0.7738342-1.1535873-1.5476532-1.9067917-2.0763397   C94.7174911,172.8544922,93.9718704,173.2276001,93.42939,173.3314667z"></path>
	<path d="M99.4839249,158.4153748c-1.3578339,2.0992889-0.543396,4.2272949,1.34095,4.7168732   c0.7844925,0.1987457,1.4673386,0.019516,2.0096741-0.6436768c0.9872665-1.1890411,1.2976761-3.5697479,0.6112061-4.8954773   c-0.5406876-1.0367279-1.1618652-1.2732544-2.1357193-0.6466522   C100.5110855,157.4609375,99.8210983,158.1367035,99.4839249,158.4153748z"></path>
	<path d="M80.2958832,128.2573853c0.0073929,0.1560669,0.01474,0.3121033,0.0305252,0.4734192   c0.5237198,0.1873169,1.0527267,0.5526428,1.5648575,0.5346985c2.6686249-0.1505432,5.341423-0.3451233,7.997406-0.6433563   c0.6912231-0.0808716,1.4126968-0.5272064,1.958252-0.9902878c0.2942276-0.247261,0.384079-0.913414,0.3001785-1.3386154   c-0.0388107-0.1990128-0.7552567-0.4134827-1.1123962-0.345314c-3.0036392,0.5004654-6.0083084,1.0585861-9.0066986,1.6438751   C81.4310455,127.7082214,80.8729019,128.0236359,80.2958832,128.2573853z"></path>
	<path d="M103.0697861,125.8344116c0.1320038,0.1056976,0.4116058,0.0124207,0.6472778,0.0081635   c0.9610443-1.3335495-1.1541519-3.4119263,1.6724319-4.1511002c-0.1389236,1.2295685-0.2559128,2.2748947-0.3980179,3.4908905   c1.5950928-0.1104584,1.9340744-1.250061,2.2228775-2.2346344c0.3295975-1.0872345,0.3103714-2.2875214-0.673317-3.0999451   c-0.8548279-0.7203522-1.8434753-0.4058914-2.7555618-0.0086288   C101.2386246,120.9511414,100.8551483,124.1017075,103.0697861,125.8344116z"></path>
	<path d="M117.8774261,119.3793564c-0.0780716,1.7103424-0.1204987,3.4196243-0.1985168,5.1299973   c-0.1029968,2.440361-0.2331772,4.8870087-0.3414154,7.3357544c-0.0384674,0.8263702-0.0413742,1.6517029-0.0578766,2.4801331   c0.1686172,0.0470886,0.3425217,0.0858154,0.524765,0.1297455c0.2460327-0.3939056,0.5747528-0.7710724,0.7265167-1.200531   c0.8235474-2.3630371,1.0123901-4.7730408,0.7298965-7.2677383c-0.0430069-0.3414307-0.0776825-0.6776428-0.1122971-1.0138321   c-0.0378571-0.3497925-0.072525-0.6860046-0.1019363-1.0305328c-0.048317-0.5195084-0.0882721-1.0337296-0.100975-1.5542526   c-0.0189819-0.3613281-0.0295792-0.7174225-0.018158-1.0714264c-0.0042572-0.2356644-0.0001297-0.4660873,0.0123901-0.6912766   c0.0103378-0.2963715,0.026001-0.6011505,0.0583878-0.8954849c0.0605316-0.6378937,0.1703033-1.2799377,0.3324509-1.9125977   C118.3451538,117.8658218,117.9158859,118.4597626,117.8774261,119.3793564z"></path>
	<path d="M79.7568817,122.5736008c0.4263458,0.231308,0.8244934,0.6197739,1.2811508,0.6719894   c2.5451202,0.3082199,5.0660858,0.1702576,7.4254074-0.9773026c0.5162582-0.2483673,0.9979248-0.6464767,1.3852997-1.0802231   c0.2073059-0.2200012,0.3014526-0.7436752,0.1704712-1.0002594c-0.1195297-0.2376938-0.6306763-0.4638062-0.9029388-0.4008484   c-3.0245438,0.7204056-6.0334015,1.5089188-9.0369263,2.2890244   C79.9704056,122.1011581,79.9191742,122.3137589,79.7568817,122.5736008z"></path>
	<path d="M113.4957352,85.4915543l1.9471359-3.1174698c0.3228683,0.9006119,0.4968491,1.4053955,0.6939392,1.9478683   c1.2127686-0.1512222,1.4146576-1.0153198,1.2248535-1.7745819c-0.1803284-0.7184372-0.6613235-1.49646-1.2552948-1.9256821   c-0.7228165-0.521431-1.6286697-0.1901703-2.17836,0.503334C113.0077438,82.2626953,112.5357742,83.5406494,113.4957352,85.4915543   z"></path>
	<path d="M89.462471,149.9892883c-0.0323334,0.4807129,0.3804626,0.994873,0.7001343,1.6954651   c1.1876678,0.0195312,2.2895203,0.1951447,3.3284836,0.0052643c1.0221024-0.2003479,1.4302902-1.2268219,1.0152893-2.0918274   c-0.3982239-0.854538-1.0623856-1.1528168-2.0122375-0.8257904c-0.610527,0.2128143-1.267189,0.257019-1.8693466,0.4749908   C90.188118,149.4056854,89.4759903,149.7064819,89.462471,149.9892883z"></path>
	<path d="M83.3471298,125.7596359c2.3075485,0.8004837,4.3612213,0.2541885,6.2921982-0.9162445   c0.2398071-0.1414566,0.4239807-0.6788025,0.3474274-0.9479675c-0.0817413-0.2607346-0.5887833-0.6240005-0.806633-0.5737076   C87.1190643,123.8051682,85.067482,124.3294525,83.3471298,125.7596359z"></path>
	<path d="M83.6036835,118.7087708c0.3187332,1.0378113,1.215271,1.03862,1.9881744,0.9388809   c0.8462524-0.1238174,1.6871948-0.4257202,2.4515991-0.8103409c0.2429504-0.1278381,0.3946075-0.836937,0.2803955-1.1762619   c-0.111145-0.3256836-0.5762939-0.6627808-0.946022-0.7422562   C86.5304642,116.7273483,84.2831802,117.8633347,83.6036835,118.7087708z"></path>
	<path d="M98.8497467,114.3682022c0.9561386-0.3929977,1.9026642-1.1997757,3.063385-0.5214462   c0.0554886,0.0230637,0.8312988-0.9020004,0.745369-1.0255661c-0.3897324-0.5696487-0.8801041-1.2020798-1.4939575-1.469017   c-0.9113235-0.4060822-1.7657928,0.0853958-2.3887787,0.803009C98.211441,112.8162231,97.937294,113.553627,98.8497467,114.3682022   z"></path>
	<path d="M107.8357925,152.5414581c-0.0395126,0.8839569,0.5900803,1.4053955,1.3453064,1.5392151   c0.4021912,0.0648346,1.093338-0.2024994,1.2943573-0.5428925c0.587265-0.9962463,0.5115891-1.9754791-0.6627731-2.7438812   C108.9937973,151.1910706,107.9024506,151.2783508,107.8357925,152.5414581z"></path>
	<path d="M116.5289917,75.2821198c0.0336914,0.6734924,0.3574524,1.1436234,1.2779846,0.8448639   c0.3024826-0.8013382,0.624794-1.6717682,1.0538559-2.8250046   C117.2071304,73.6554108,116.4868164,74.3238297,116.5289917,75.2821198z"></path>
	<path d="M140.4938507,139.5858002c1.3330078,0.7422028,2.7631226,1.0328217,4.0117035,1.0052795   c4.8874664-0.0991669,9.9817352,0.5432587,15.2345734,1.5788422c1.9775085,0.3927765,3.6287231,0.2315521,4.7320404-0.5023041   c0.3907166-0.2631226,0.5260315-0.6373291-0.1490326-0.9973907c-0.3643188-0.1936798-1.2150574-0.3176727-1.5158539-0.2129669   c-2.2290649,0.7990723-5.1035614,0.3994141-8.0185852-0.1713104c-2.4353027-0.4838562-4.7033844-0.6702881-6.9701996-0.6922913   c-1.8851166-0.0198517-3.8927612-0.2468414-5.8383331-0.372757   C141.3829803,139.1800842,140.6101227,138.9705658,140.4938507,139.5858002z"></path>
	<path d="M134.4281921,142.8404083c1.3711243,0.565155,3.2331848,0.1205139,3.7367249-0.8348236   c0.1140747-0.219986,0.1506042-0.6515198,0.0091553-0.798111c-0.2127075-0.2376556-0.6201477-0.480545-0.9039459-0.4364624   C136.075119,140.9682465,135.0509491,141.4702759,134.4281921,142.8404083z"></path>
	<path d="M187.2507172,133.3870087c2.0163269,0.5953369,2.2205353,0.5481873,8.3830719-3.3497925   c1.4827118-0.9378204,3.4023285-1.5678558,3.4508667-3.9955902c-3.7994385,1.2149429-7.2174377,3.0875702-10.3147583,5.509964   C188.1908264,131.9937439,187.8087463,132.6987152,187.2507172,133.3870087z"></path>
</g>
</svg>
