<svg version="1.1" id="Слой_1" xmlns="http://www.w3.org/2000/svg" x="0" y="0" viewBox="0 0 250 250" style="enable-background:new 0 0 250 250" xml:space="preserve"><style></style><path d="M41.179 138.126c.057-.414.195-.873.149-1.24-.058-.54-.184-1.274-.39-1.47h-.004v-.001c-.207-.184-.654.023-.792.367-.333.884-.643 1.883-.803 2.939-.884 5.969-.528 11.708.975 17.137.218.758.597 1.332.895 1.974l.002-.001.002.003c.138-.138.287-.275.425-.424-.104-1.045-.138-2.147-.333-3.134-.987-5.36-.93-10.744-.126-16.15z"/><path d="M38.917 132.157c.253-1.045.69-2.078.15-3.214l-.004-.002a.932.932 0 0 0-.287-.138c-.46-.138-.803.218-1.067.838a20.556 20.556 0 0 0-.724 1.814c-.057.149-.114.298-.16.447-3.008 9.62-3.214 19.273-.104 28.95.23.734.586 1.377.896 2.077l.002-.001.001.003c.184-.092.379-.184.563-.276-.08-1.079-.15-2.158-.264-3.225-.402-3.593-.987-7.151-1.171-10.767-.15-3.191.138-6.29.654-9.344l-.002-.007c.378-2.225.86-4.416 1.376-6.583a.536.536 0 0 1 .004-.015v.017l.137-.574zM45.173 140.284c-.138-.39-.344-.942-.528-.965l-.003-.001c-.253-.023-.62.252-.758.642-.184.528-.31 1.343-.253 1.952.207 2.192.437 4.384.78 6.497.116.757.575 1.285.885 1.916l.002-.001.001.003.31-.24c.012-.793.08-1.596.046-2.377-.115-2.146-.264-4.281-.402-6.416-.022-.345 0-.746-.08-1.01zM107.938 58.878c-.08 0-.172-.035-.287-.115.103.08.195.115.287.115zM96.987 108.614c-6.164-3.696-12.075-8.104-19.892-7.518-3.145.321-6.279.826-9.435.93-4.052.126-7.174 1.951-9.16 5.222-5.372 8.885-7.92 18.55-7.083 28.984.471 5.923 3.938 9.355 9.505 10.87 4.51 1.24 9.09 2.227 13.498 3.719 9.872 3.363 18.963 1.136 27.64-3.662 1.62-.895 2.974-2.778 3.789-4.51 2.043-4.328 2.272-8.84 2.387-13.74.241-9.528-3.616-15.703-11.249-20.295zm-20.5-4.89c.126-.252.24-.505.367-.757 4.97-.322 9.493 1.653 13.579 4.74.057.046.115.104.172.161.058.058.103.138.15.218.034.058.057.115.091.184.023.057.046.126.07.195.045.115.08.23.102.356.012.011.012.023.012.034.034.138.057.264.069.402.011.092.023.184.023.276.011.046.011.091.011.137.023.322.012.62-.034.884-.023.15-.058.299-.092.448-.023.115-.057.23-.092.344-.046.138-.103.287-.15.425-.102.275-.229.54-.378.78a5.71 5.71 0 0 1-.746 1.022c-1.09 1.148-2.502 1.997-3.776 2.973-.643-1.263-1.286-2.537-2.067-4.063-.401.264-.987.665-1.618 1.101l-.654.448c-.356-.138-.7-.275-1.068-.402.16-.7.333-1.411.505-2.123.172-.712.344-1.423.528-2.135-.643.275-1.572.712-2.525 1.067-.999.368-2.032.643-3.042.965-.252-.356-.505-.7-.757-1.045 1.756-1.205 3.523-2.399 5.28-3.593h.011c-.275-.356-.54-.7-.803-1.056h-.012c-1.78.953-3.558 1.906-5.498 2.95.792-1.676 1.527-3.214 2.342-4.936zm-.196 18.504c.758-.78 1.447-1.515 2.124-2.204l.287-.287a32.654 32.654 0 0 1 1.722-1.641c.413-.368 1.492-.471 1.963-.196.068.046.126.092.183.15.092.069.16.149.23.24.034.047.08.093.103.15.16.23.287.493.367.746.07.195.104.39.092.562-.011.23-.069.46-.16.69-.08.217-.207.447-.368.653-.149.207-.333.414-.55.597a4.714 4.714 0 0 1-.977.7 2.452 2.452 0 0 1-.298.161c-.16.08-.321.16-.494.218-.126.058-.252.104-.378.15a4.135 4.135 0 0 1-.402.126c-.195.057-.39.103-.597.138a.978.978 0 0 1-.264.045c-.08.012-.172.035-.264.035a1.25 1.25 0 0 1-.298.034 5.214 5.214 0 0 1-1.09-.011 5.786 5.786 0 0 1-1.585-.367c.23-.242.448-.471.654-.69zm29.994 9.47c-.563 10.238-5.74 15.473-14.819 17.745-3.202.804-6.83 1.09-10.032.46-6.68-1.286-13.212-3.34-19.812-5.085-.368-.092-.792-.08-1.09-.276-1.642-1.102-3.249-2.238-4.867-3.363 1.274-1.619 2.238-3.788 3.89-4.74 6.142-3.525 12.363-6.968 18.826-9.826 6.611-2.916 11.432-7.278 14.233-13.924.367-.884 1.044-1.641 1.572-2.445 11.433 6.818 12.65 11.536 12.099 21.454zM52.93 87.767c-3.57 3.65-2.17 9.677-7.416 11.387-4.167 1.355-8.184 3.157-12.489 4.844 5.808 1.366 10.595-.987 14.945-4.5 3.41-2.743 6.6-5.773 4.96-11.73zM88.834 92.474c2.066 1.457 4.695 2.1 7.06 3.11-9.264-9.08-20.272-10.376-23.98-3.547.69-.218 1.32-.287 1.814-.596 5.303-3.249 10.182-2.445 15.106 1.033zM66.944 157.063c-3.214-.275-6.508.287-9.768.505-2.663 1.4-5.36 2.744-7.943 4.282-.253.15.207 1.492.321 2.18a8067.96 8067.96 0 0 1 8.391-5.647c3.65-.034 7.519-1.067 10.515 2.342-1.298 1.389-2.526 2.697-3.742 3.994.195.253.39.494.596.747 1-.597 2.17-1.022 2.962-1.825 1.01-1.022 2.663-2.778 2.353-3.433-.643-1.377-2.319-3.03-3.685-3.145zM117.174 100.589c2.939-2.365 3.754-4.58 2.847-7.186-.826-2.387-4.832-4.396-7.415-3.971 5.98 2.617 6.83 4.385 4.568 11.157zM112.422 104.4v12.202c2.813-3.547 2.72-8.368 0-12.202zM135.82 72.71a26.14 26.14 0 0 0 2.03 1.882c3.49 2.893 6.004 6.313 6.739 10.664.195 1.136.401 2.26.62 3.386l.62 3.03c.16.792.332 1.595.493 2.388a141.5 141.5 0 0 1 .62 3.018c.925 4.562 1.703 9.142 1.852 13.804.015.5.016 1.002.016 1.504.001.345.009.689.001 1.034-.018.86-.055 1.721-.125 2.586-.011.161-.011.31-.011.471 0 1.217.321 2.468.46 3.696.148-1.664.263-3.294.355-4.878.654-11.25-.034-20.616-2.468-28.398a41.153 41.153 0 0 0-2.192-5.625c-2.204-4.614-5.2-8.574-9.126-11.983a39.078 39.078 0 0 0-2.227-1.802 49.515 49.515 0 0 0-2.41-1.688c-.275.218-.54.425-.815.655h-.011c1.25 1.366 2.444 2.812 3.684 4.212.62.7 1.251 1.39 1.894 2.043zm12.976 38.212c.01.321.01.643.014.965-.005-.322-.003-.645-.014-.965zM99.34 75.614c-10.319-1.63-20.638-3.272-30.957-4.902-.07.39-.138.792-.207 1.182 10.32 1.7 20.627 3.387 30.946 5.085.08-.459.15-.906.218-1.365zM118.062 75.568c3.776 2.548 7.725 5.2 11.134 7.495-1.332-4.236-6.198-7.622-11.134-7.495z"/><path d="M225.558 147.228c-.046-1.664-.54-3.42-1.217-4.947-3.294-7.323-9.745-10.928-16.678-13.947-14.417-6.278-29.132-8.677-44.054-7.92.401-2.364.63-4.81.642-7.358-.528-4.9-1.572-15.186-2.25-20.064-1.549-11.157-2.96-19.605-4.384-30.774-1.171-9.137-7.737-14.853-16.53-18.159-6.863-2.594-13.865-3.788-21.166-3.742-1.526.012-3.581-.666-4.488-1.756-3.616-4.396-5.946-4.787-10.457-1.08-3.937 3.238-6.692 3.387-10.881.368-3.122-2.238-5.9-2.273-8.92.333-1.032.884-3.052 1.47-4.292 1.102-2.893-.85-5.12-.425-7.324 1.584-.964.884-2.364 1.355-3.638 1.814-2.847 1.021-5.785 1.825-8.61 2.904-13.762 5.28-23.897 13.935-27.444 29.006-.861 3.639-2.422 7.254-4.35 10.468-2.71 4.511-3.938 9.264-4.167 14.406a71.03 71.03 0 0 1-.643 6.807c-1.377 9.653-2.457 19.307-1.056 29.063 1.354 9.39 2.537 18.802 4.029 28.18.838 5.338 3.903 9.344 8.896 11.524 2.996 1.298 6.152 2.468 9.355 3.054 19.513 3.547 38.98 7.977 59.057 4.878 2.41-.379 5.027-.252 7.369-.711-.115 3.317-.035 6.646.735 10.032.86 3.8 1.94 7.059 4.522 9.481 2.514 2.353 5.728 4.063 8.839 5.636 3.788 1.917 7.656 3.914 11.72 4.913 6.817 1.664 13.773 2.79 20.73 3.742 16.035 2.17 31.405-1.114 46.51-6.153 13.304-4.453 17.884-15.243 19.319-27.824.665-5.842.114-11.823.114-17.734h.77c0-5.716.091-11.421-.058-17.126zM115.996 49.19c.31-1.205 2.112-2.675 3.386-2.8 1.044-.104 3.306 1.767 3.19 2.456-.24 1.434-1.686 2.674-2.64 4.006a82.097 82.097 0 0 0-1.675-.046c-.092-.138-.207-.287-.321-.437-.356-.447-.781-.918-1.137-1.377-.126-.172-.252-.333-.367-.494a3.76 3.76 0 0 1-.207-.332.869.869 0 0 1-.103-.207c-.035-.069-.058-.138-.08-.195a1.104 1.104 0 0 1-.07-.379c0-.069.012-.138.024-.195zm7.128 5.682c1.504 1.779 3.49 3.26 3.248 4.017-.459 1.4-2.548 3.547-3.363 3.318a2.77 2.77 0 0 1-.574-.241c-.092-.046-.195-.092-.287-.161a6.505 6.505 0 0 1-1.044-.85c-.15-.149-.287-.298-.437-.459-.436-.459-.86-.964-1.285-1.423-.172-.172-.333-.344-.505-.505 1.17-1.022 2.353-2.043 4.247-3.696zm-9.31-1.205.104 1.469h-.011c-1.929 1.32-3.742 3.053-5.889 3.73-.023.012-.046.012-.08.012a.577.577 0 0 1-.138-.023c-.046-.023-.092-.057-.15-.092a1.799 1.799 0 0 1-.355-.298 8.629 8.629 0 0 1-.413-.448c-.356-.413-.735-.953-1.125-1.47-.23-.31-.46-.63-.689-.918-.08-.091-.15-.183-.218-.275a4.804 4.804 0 0 0-.207-.253c.93-.62 1.837-1.343 2.755-1.974.207-.138.413-.275.62-.402.15-.092.287-.183.425-.252.137-.08.275-.15.413-.218a6.104 6.104 0 0 1 1.17-.482.982.982 0 0 1 .265-.035 1.855 1.855 0 0 1 .597.126.815.815 0 0 1 .206.092c.138.058.287.138.436.23.15.08.299.183.448.275.608.402 1.24.884 1.825 1.194 0 .012.012.012.012.012zm-3.81-15.84c.15-.07.608.263 1.09.745.15.15.299.322.448.494.631.734 1.194 1.618 1.113 2.112-.252 1.504-1.962 2.766-3.661 4.878-2.009-2.031-3.272-3.294-4.523-4.568 1.814-1.286 3.536-2.8 5.533-3.662zm-9.929 7.587c.493.045 1.022.252 1.55.573.137.08.275.173.413.276.069.046.126.092.183.138.058.046.127.103.196.16.126.104.24.207.355.322.115.115.23.23.333.344.161.172.31.344.425.528.057.092.115.172.172.264.115.172.218.356.287.54.103.252-.011.585-.264.987l-.011.011c-.08.15-.195.31-.322.482-.195.264-.413.551-.665.85-.23.298-.506.631-.781.964-.367.46-.746.941-1.102 1.458-2.055-2.227-3.398-3.685-4.74-5.131 1.33-.999 2.731-2.87 3.971-2.766zm-1.664 11.995c.264-.196 2.88 1.767 3.34 3.11.643 1.848-2.824 5.166-5.636 5.889-1.114-1.217-3.352-3.26-3.157-3.524a25.686 25.686 0 0 1 5.453-5.475zm2.938 12.11c.115.86-1.309 1.95-2.548 3.592-1.24-1.687-2.468-2.651-2.548-3.707v-.035a.74.74 0 0 1 .068-.287c.104-.264.333-.574.62-.85.092-.091.184-.171.276-.252.092-.069.183-.149.275-.218.092-.08.195-.138.287-.195.104-.057.195-.115.287-.15.092-.045.172-.08.264-.102a.857.857 0 0 1 .23-.035h.069c.321.035.7.184 1.067.39.15.08.299.173.436.276.092.069.195.15.287.23.058.045.104.091.15.137.103.092.206.195.298.31.069.069.126.15.184.23.057.069.103.149.137.218.092.149.138.31.161.447zM90.33 38.755c1.573.15 3.02 1.745 4.523 2.732-.011.528-.023 1.044-.023 1.56v.012c-.08.058-.16.115-.24.161-.024.023-.047.035-.07.058-.103.08-.206.16-.31.252-.54.448-1.102.964-1.641 1.389-.115.092-.23.172-.333.252a3.626 3.626 0 0 1-.528.333c-.092.046-.172.092-.252.115-.046.023-.092.035-.127.046a.257.257 0 0 1-.114.034.703.703 0 0 1-.31 0c-.035.012-.07 0-.104-.011-1.515-.46-2.961-2.33-3.558-3.926-.23-.608 2.09-3.099 3.088-3.007zm-1.802 12.098c.276-.321.563-.642.861-.987a102.411 102.411 0 0 0 1.527 1.883c.413.493.792.94 1.125 1.343.15.195.287.367.413.528.264.344.448.631.505.815.046.091.046.172.012.218a11.55 11.55 0 0 1-.597.757c-.195.241-.402.482-.631.723-.207.241-.437.471-.666.7-.356.356-.723.7-1.102 1.022-.23.207-.46.402-.7.586a19.727 19.727 0 0 1-1.963 1.412c-.046.022-.138 0-.276-.08l-.172-.104c-.034-.012-.057-.035-.092-.058a3.158 3.158 0 0 1-.356-.264 33.134 33.134 0 0 1-.757-.677 21.55 21.55 0 0 1-.528-.505 5.814 5.814 0 0 1-.264-.275 5.777 5.777 0 0 1-.264-.276 10.313 10.313 0 0 1-.436-.528c-.127-.16-.207-.298-.218-.379 0-.023-.012-.034-.012-.046 0-.008.002-.011.005-.017-.001.02-.008.035.007.063-.012-.034-.012-.068 0-.091.114-.207.23-.402.355-.609.127-.195.264-.39.402-.585.138-.195.276-.39.425-.586.138-.195.298-.39.46-.596.435-.517.883-1.045 1.365-1.608.494-.55 1.022-1.136 1.572-1.779zM78.266 63.768a2.14 2.14 0 0 1 .344-.299c.115-.092.218-.16.344-.23.104-.057.23-.114.356-.172.104-.045.218-.091.333-.126.104-.046.218-.08.333-.103.23-.069.47-.126.723-.16.253-.047.505-.081.78-.116.804-.091 1.688-.137 2.618-.183.252.252.998.711 1.412 1.274.069.092.126.184.172.287.011.046.034.103.046.15a.656.656 0 0 1 .046.16c.057.516-.15 1.125-.54 1.733a6.936 6.936 0 0 1-.78.999 2.715 2.715 0 0 1-.31.321 8.235 8.235 0 0 1-2.032 1.47 3.9 3.9 0 0 1-.448.206c-.643.252-1.25.356-1.767.23a2.805 2.805 0 0 1-.356-.138.744.744 0 0 1-.184-.104 3.421 3.421 0 0 1-.562-.401c-.127-.104-.241-.218-.368-.345a4.413 4.413 0 0 1-.367-.424c-.057-.07-.115-.15-.172-.218a7.001 7.001 0 0 1-.276-.46c-.16-.31-.252-.62-.24-.872.01-.23.022-.448.057-.643.126-.803.413-1.389.838-1.836zm2.651-19.606c.046-.126.103-.252.16-.39a7.01 7.01 0 0 1 .23-.39c.265-.402.609-.77.942-.999.092-.069.183-.115.264-.16.115-.046.218-.07.321-.08.058 0 .115 0 .172.01.046 0 .092.012.127.024.114.023.24.068.367.137.034.023.08.046.115.07.516.286 1.113.849 1.848 1.445.115.092.24.196.367.287.126.104.253.207.39.299-1.572 1.067-2.479 2.146-3.42 2.17-.689.01-2.066-1.424-1.975-2.055.012-.115.046-.241.092-.368zm-8.666 6.256a5.008 5.008 0 0 1 .448-1.538c.103-.207.206-.413.332-.62.08-.126.173-.252.264-.379.092-.126.196-.24.299-.355l.321-.322c.276-.275.574-.493.896-.666.092-.057.195-.114.298-.16.103-.058.195-.092.299-.127.264-.103.54-.172.815-.218.275-.034.562-.034.837 0 1.539.207 2.893 1.848 4.316 2.836h.012c-.035.183-.08.355-.138.539a8.828 8.828 0 0 1-.425 1.113c-.08.184-.172.368-.287.551a8.77 8.77 0 0 1-.677 1.068c-.114.172-.252.344-.39.516v.012c-.264.321-.54.631-.838.907a6.92 6.92 0 0 1-.895.769c-.31.23-.609.413-.907.55-.012.012-.023.012-.023.012a2.196 2.196 0 0 1-.425.172c-.298.104-.585.161-.85.161-.16 0-.31-.023-.458-.057a2.18 2.18 0 0 1-.609-.276c-.069-.046-.137-.092-.206-.149-.07-.046-.127-.103-.195-.16a8.803 8.803 0 0 1-.345-.322c-.069-.092-.15-.184-.23-.276a4.479 4.479 0 0 1-.344-.47 3.748 3.748 0 0 1-.298-.494 3.436 3.436 0 0 1-.184-.356 3.117 3.117 0 0 1-.126-.287c-.034-.08-.057-.149-.08-.218-.023-.046-.046-.091-.046-.137-.046-.161-.092-.31-.115-.448-.023-.115-.034-.23-.057-.356a3.866 3.866 0 0 1 .011-.815zm-2.238 6.899a13.88 13.88 0 0 1 1.274-.15c.723.85 2.399 1.986 2.778 3.467.528 2.066-3.169 5.51-5.2 4.81a1.935 1.935 0 0 1-.322-.138 4.76 4.76 0 0 1-.332-.184 2.903 2.903 0 0 1-.241-.16c-.092-.058-.173-.127-.253-.196-.057-.034-.103-.08-.15-.126a3.006 3.006 0 0 1-.344-.31 2.048 2.048 0 0 1-.149-.16 4.215 4.215 0 0 1-.356-.414c-.103-.126-.195-.252-.287-.379-.126-.183-.23-.378-.333-.562-.068-.138-.126-.287-.183-.425a1.886 1.886 0 0 1-.126-.413l-.035-.264a4.016 4.016 0 0 1-.011-.826c.023-.219.057-.437.103-.632.023-.103.057-.195.092-.298a.943.943 0 0 1 .115-.276c.045-.092.091-.172.137-.264.104-.16.218-.321.345-.482.103-.115.218-.23.344-.344.011-.012.023-.023.046-.035.103-.08.218-.172.333-.24l.023-.024a.919.919 0 0 1 .252-.149.466.466 0 0 1 .104-.057c.092-.058.172-.103.275-.15a7.211 7.211 0 0 1 1.527-.504c.183-.046.379-.08.574-.115zm-4.707-8.598c0-.057.012-.103.023-.16.023-.161.092-.333.195-.517.035-.08.08-.16.138-.24.046-.07.092-.139.138-.196.08-.126.184-.264.298-.379l.15-.15a.783.783 0 0 1 .137-.137c.046-.046.092-.08.138-.126.092-.069.184-.138.264-.172a.5.5 0 0 1 .264-.058c.965.127 2.376 1.056 2.548 1.871.035.195.012.414-.08.655v.011c-.034.08-.08.172-.115.253a7.13 7.13 0 0 1-.149.287c-.069.137-.16.264-.252.413-.127.206-.287.436-.448.677-.103.16-.218.333-.333.505-.023.035-.057.08-.08.126l-.207.345a.24.24 0 0 0-.046.069c-.046.091-.103.195-.16.298h-.012v-.011c-.494-.632-.964-1.137-1.354-1.573-.196-.23-.38-.436-.529-.631a3.679 3.679 0 0 1-.367-.574 1.264 1.264 0 0 1-.103-.264c-.035-.08-.046-.172-.058-.253v-.069zm-5.475 5.223c.414-.505.861-1.022 1.343-1.573.184-.206.367-.413.563-.62 0 0-.002-.003 0-.008.245-.274.491-.55.751-.845.148-.169.294-.336.454-.512v-.008c.214-.246.417-.475.643-.738l.011-.012c.08.126.15.264.23.39.08.127.149.264.23.38.149.24.286.458.436.676.091.15.183.287.275.425.23.322.425.62.608.907.138.195.241.367.333.54.046.08.103.172.15.252.091.172.16.333.23.494.033.091.056.183.09.275l.035.172c.023.092.035.184.046.276.012.069.012.137.012.206 0 .138-.012.264-.035.402-.011.092-.023.184-.057.276a.952.952 0 0 1-.07.24 1.31 1.31 0 0 1-.102.299 2.17 2.17 0 0 1-.184.413 5.79 5.79 0 0 1-.494.804 6.549 6.549 0 0 1-.63.746c-.3.31-.61.585-.942.803-.15.115-.299.207-.448.299-.16.092-.321.172-.482.24a3.395 3.395 0 0 1-.735.219c-.344.057-.665.057-.964-.046-1.25-.425-3.156-2.72-2.938-3.088.31-.528.654-1.021 1.044-1.526.184-.253.39-.505.597-.758zm-1.228-5.062c-.85 2.307-1.515 3.891-2.02 5.521-.631 2.02-2.147 4.534-1.48 6.038 1.285 2.938 4.407 2.123 7.035 1.4.104-.023.23.07.356.115 2.583 6.394 4.34 7.197 10.87 4.97 4.27 5.189 7.588 5.533 12.742 1.355 3.443-2.778 5.854-2.25 7.759 1.699 2.1 4.327 4.603 5.05 8.7 2.972 1.172-.585 2.87-.378 4.27-.183 1.964.275 4.145 1.687 5.751 1.148 2.09-.689 4.35-2.468 5.361-4.397 1.194-2.295-.172-4.683-2.583-6.026-2.525-1.412-5.085-1.813-7.3.505-1.297 1.355-2.342 2.939-3.501 4.43l-1.515-.033c.15-1.734.115-3.513.482-5.2.459-2.055 2.112-1.573 3.788-1.837 4.672-.711 8.597-.356 12.638 2.675 2.927 2.18 6.003.654 8.104-3.1 1.182-2.123 2.146-3.064 4.924-2.605 1.894.31 4.385-.953 6.072-2.227.976-.735 1.504-3.053 1.125-4.327-.379-1.24-1.997-2.572-3.34-2.985-3.295-1.033-6.509-.528-9.252 1.883-.597.528-1.4.815-1.756 1.021-.528-2.732-1.033-5.314-1.561-8.046 7.621.206 15.174 2.422 21.625 6.898 2.491 1.734 4.064 5.843 4.615 9.114 1.985 11.731 3.455 23.554 4.924 35.366 1.079 8.689 2.502 17.516.092 26.09-4.546.563-9.091 1.4-13.66 2.491-.7.172-1.389.333-2.089.494-.034-1.48-.092-2.95-.184-4.42a85.716 85.716 0 0 0-.172-2.421c-.034-.483-.08-.965-.126-1.447-.034-.516-.092-1.033-.15-1.55-.217-2.215-.504-4.419-.849-6.61-.114-.793-.252-1.585-.39-2.388a58.4 58.4 0 0 1-.103-.597 96.226 96.226 0 0 0-.322-1.78l-.378-1.928c-.058-.275-.115-.55-.173-.838-.149-.654-.286-1.32-.436-1.974a176.205 176.205 0 0 0-1.136-4.718 173.199 173.199 0 0 0-1.274-4.626c-.012-.023-.012-.046-.023-.069a44702.54 44702.54 0 0 1 3.133 28.743c.253 2.341.506 4.683.77 7.036-1.734.413-3.467.838-5.166 1.32-.402-10.147-.85-20.317-4.11-30.154-2.674-8.104-5.119-14.325-13.268-17.08-1.4-.482-5.533-.172-7.025-.172-11.238-.023-22.498.275-33.724-.023-7.955-.218-15.875-1.458-23.83-1.756-3.432-.127-6.932.838-10.353 1.584-1.951.424-3.788 1.389-5.705 2.123-.631-9.263 12.248-26.79 23.818-31.474zm49.335 19.823c1.366-1.067 2.732-2.961 4.109-2.984.184 0 .367.035.55.103a.731.731 0 0 1 .185.07c.252.114.516.286.769.493.069.057.137.115.218.172.046.046.103.092.16.15.104.091.207.183.31.286.104.103.207.195.31.299.08.068.161.16.253.252.08.069.172.16.252.253.173.16.345.332.505.482.161.16.322.298.494.436h.011c-.137.15-.275.31-.413.46-.275.309-.55.63-.85.963-.435.494-.906 1.033-1.457 1.653-.367.413-.758.85-1.194 1.343-1.193-1.251-2.089-2.192-2.88-3.019-.31-.333-.61-.642-.896-.952-.15-.15-.299-.31-.436-.46zm22.153-13.43a1.782 1.782 0 0 1-.149-.436c-.092-.355-.08-.757.035-1.216.355-1.39 2.284-2.376 3.96-3.983 1.86 1.595 3.087 2.651 4.316 3.707l.011.012c-.207.137-.402.275-.608.413-.207.126-.402.287-.609.436-.688.528-1.377 1.068-2.1 1.492-.127.07-.253.15-.39.218a4.335 4.335 0 0 1-.402.196 2.494 2.494 0 0 1-.402.172 2.912 2.912 0 0 1-.413.137 3.09 3.09 0 0 1-.907.127c-.666 0-1.309-.195-1.768-.574a2.056 2.056 0 0 1-.321-.31v-.012a1.68 1.68 0 0 1-.253-.378zM25.97 138.654l-1.55-13.039c.425-.057.838-.115 1.263-.16.482 4.338.952 8.666 1.434 13.004-.378.058-.769.127-1.147.196zm76.722 37.708c-2.284-4.58-4.19-8.644-6.405-12.512-.218-.39-2.365.321-3.547.803 4.293.976 4.373 3.478 4.282 7.645-.092 4.557.091 6.199-4.81 6.038-8.07-.264-16.185-.712-24.14-1.997-9.951-1.607-19.754-4.144-29.625-6.268-3.72-.792-4.879-3.535-5.464-6.875-.654-3.72-1.756-7.381-2.227-11.112-1.044-8.115-1.848-16.265-2.651-24.403-.241-2.387.103-4.844-.207-7.208-1.4-10.4 1.458-20.122 5.097-29.57 1.33-3.477 4.258-6.496 6.967-9.216 1.033-1.045 3.696-1.343 5.257-.85 7.036 2.262 13.992 1.114 21.075.54 4.683-.38 9.55.046 14.176.941 5.555 1.09 10.927 1.504 16.552.528a45.495 45.495 0 0 1 12.04-.448c5.992.586 10.56 3.605 13.385 9.263 3.397 6.83 4.855 13.935 5.2 21.546.206 4.671.493 9.343.826 14.004-4.58 1.664-8.862 4.074-12.489 8.172-4.213 4.764-6.256 9.436-5.291 15.703.413 2.72.769 5.44 1.078 8.173l-.022.023.022.022c.356 3.214.655 6.44.884 9.654.138 1.917.127 3.822.046 5.74-3.615 1.308-7.243 2.02-10.009 1.664zm13.843 12.075a1.314 1.314 0 0 1-.218-.115.915.915 0 0 1-.253-.218c-.091-.092-.16-.218-.23-.356s-.114-.298-.16-.47a6.977 6.977 0 0 1-.115-.597c-.068-.436-.103-.964-.126-1.584l.31-.104c.298-.08.563-.137.815-.172 0 0 .023-.011.023 0a2.38 2.38 0 0 1 .643.012c.103.011.195.034.287.057.16.034.31.103.447.184.07.034.127.08.184.126.07.034.126.08.172.138.058.057.115.115.161.172.046.034.08.08.103.115.058.069.115.149.161.218.092.16.195.333.287.505.264.516.47 1.113.7 1.676-1.572.459-2.56.654-3.19.413zm4.615 6.06a.575.575 0 0 1-.023.138c-.058.345-.138.746-.173 1.045-1.159-.46-2.307-.918-3.466-1.366v-.012c.183-.516.379-1.021.574-1.538.126.046.264.08.39.115.517.16 1.056.299 1.561.482.16.058.321.115.47.184.219.092.425.184.632.298h.012c.045.023.068.115.068.23 0 .103-.011.252-.045.425zm8.654-10.215c-.114.115-.23.23-.344.333a3.452 3.452 0 0 1-.321.275c-.643.494-1.229.62-1.883.356a2.992 2.992 0 0 1-.78-.46c-.058-.045-.127-.091-.184-.137a3.13 3.13 0 0 1-.379-.321 6.135 6.135 0 0 1-.482-.471 19.82 19.82 0 0 1-1.09-1.182c1.228.16 2.284.287 3.27.413l2.928.367a11.48 11.48 0 0 1-.735.827zm5.579-3.8h7.725c-2.49 2.617-4.132 2.652-7.725 0zm25.39 20.685c1.642-2.79 2.79-2.927 5.66-.735-1.883.241-3.777.494-5.66.735zm42.609 3.282h-5.59c.264.15.493.287.711.414.115.069.218.126.322.183.505.299.907.54 1.32.78.149.081.31.173.47.265 0 .011.012.011.012.011-.54.31-1.09.597-1.642.873-.54.298-1.09.562-1.653.815-.55.264-1.101.516-1.664.746-.321.138-.631.275-.953.39-.665.264-1.331.517-1.997.746-.298.104-.597.207-.895.299-.241.08-.494.16-.735.23-.298.103-.597.194-.907.275-.436.137-.86.252-1.308.367-.574.16-1.16.298-1.733.425-.574.137-1.16.264-1.745.379-1.17.23-2.353.424-3.536.585-1.193.16-2.387.298-3.592.402a94.148 94.148 0 0 1-3.65.24c-.609.035-1.229.058-1.849.07v-.012h.012c.069-.103.126-.195.184-.275.069-.08.114-.161.172-.218.092-.138.183-.242.264-.356.424-.563.85-1.125 1.274-1.676.379-.023.746-.069 1.125-.103 1.389-.138 2.766-.39 4.143-.609 1.378-.31 2.755-.55 4.087-.964 2.709-.712 5.326-1.745 7.828-2.973-2.732.597-5.395 1.274-8.104 1.733-2.697.505-5.418.907-8.138 1.194-1.951.23-3.914.39-5.877.494.654-.39 1.274-.78 1.94-1.183.666-.39 1.332-.792 2.02-1.205 0 0 .012 0 .023-.011.872-.115 1.745-.264 2.617-.414 1.366-.298 2.744-.54 4.087-.964 2.697-.7 5.314-1.733 7.817-2.961-2.732.585-5.395 1.262-8.104 1.733-2.698.505-5.407.907-8.139 1.194a78.222 78.222 0 0 1-4.316.39c1.883-1.263 3.616-2.433 5.338-3.593-.126-.31-.253-.608-.39-.918-2.778.585-5.556 1.17-8.334 1.768v-.012c-.057-.115-.115-.24-.172-.367 2.353-1.366 4.718-2.732 7.897-4.569-3.018-.93-5.154-1.584-7.289-2.238-.034-.344-.057-.677-.08-1.01 2.33-.551 4.649-1.09 6.979-1.63l.035-.815c-1.596-.333-3.18-.666-5.04-1.044a714.66 714.66 0 0 1 3.41-4.213h-5.843c1.47-1.182 2.342-1.883 3.662-2.95-2.273-.666-4.259-1.251-6.245-1.825v-.7c1.447-.287 2.893-.563 4.34-.85 0-.24.01-.482.022-.723-2.41-.184-4.798-.379-7.874-.608a812.74 812.74 0 0 1 2.56-1.619c-2.101-.654-3.742-.964-5.2-1.653a95.455 95.455 0 0 1-8.242-4.338c-.459-.276-.367-1.481-.528-2.262.322-.046.666-.138.999-.23.55-.149 1.09-.252 1.458-.057 2.1 1.171 4.063 2.617 6.359 4.155v-2.192c.757.195 1.503.39 2.261.563.126.034.264.057.39.091.54.127 1.08.241 1.63.345.104.023.207.046.31.057.241.057.494.103.746.15.597.114 1.194.229 1.79.32.334.058.678.116 1.023.161.665.104 1.331.196 1.985.276.666.08 1.32.16 1.986.218.184.023.367.034.551.057.631.058 1.274.115 1.905.15.253.011.505.023.758.046a74.48 74.48 0 0 0 5.544.126c.287 0 .586-.012.884-.012.86-.011 1.733-.046 2.606-.091.872-.046 1.744-.104 2.617-.173.93-.08 1.87-.172 2.8-.275.93-.104 1.872-.23 2.801-.356l1.79-.275a64.71 64.71 0 0 0 1.975-.345c.218-.034.436-.069.655-.115a137.97 137.97 0 0 0 2.835-.574c.597-.137 1.205-.264 1.802-.413h.023c.23-.046.447-.092.677-.149-.298.184-.631.321-.85.574-.734.872-1.411 1.802-2.111 2.697 1.056.632 2.043 1.435 3.18 1.814 1.33.436 2.8.482 4.212.735.149.023.275.206 1.021.826h-7.553l-.206.792v.012c.16.091.321.183.493.264.827.47 1.665.952 2.583 1.457.356.207.723.414 1.114.643l-1.952 1.492-.011.012c.344.23.665.459 1.01.689 1.01.7 2.1 1.446 3.593 2.467-2.916.368-5.028.643-7.152.907-.045.207-.103.402-.149.597 2.365 1.217 4.706 2.434 7.094 3.662-1.056 1.32-1.056 1.32-6.979 1.32 2.227 1.056 4.454 2.112 6.68 3.156h.012l-.103.643h-.012l-4.442-.24-.275.55c1.767.872 3.535 1.733 5.636 2.766h-4.19l-.138.414c.735.367 1.48.734 2.606 1.308-1.32.08-2.204.138-3.547.218 2.307 1.148 4.212 2.1 6.118 3.054l.011.011c-.057.184-.103.367-.16.562zm15.771-31.301c-.379.068-.757.149-1.148.23l-2.387.458c-.413.08-.838.161-1.286.253l.012-.012a11.2 11.2 0 0 1 .62-1.274 3.09 3.09 0 0 1 .436-.654.46.46 0 0 1 .115-.138.707.707 0 0 1 .16-.16.09.09 0 0 1 .046-.046h.012c.069-.058.149-.115.218-.161a.744.744 0 0 1 .183-.103c.023-.035.046-.046.08-.035.07-.023.127-.046.184-.057.172-.035.333-.035.517 0 .08.023.172.046.264.08.379.15.78.425 1.24.861.114.092.23.218.355.356.127.115.253.252.39.402h-.01zm-6.508-11.445c-9.436 3.995-18.722 8.208-28.96 9.126-10.744.964-21.58 1.504-32.072-2.33-3.615-1.309-7.254-2.537-11.007-3.777-1.516-.505-3.042-1.01-4.592-1.526-1.297-.414-2.605-.85-3.937-1.286-.47-.16-.941-.321-1.423-.482a11.677 11.677 0 0 1 1.986-1.699c2.398-1.664 5.349-2.514 8-2.456 1.722.023 3.306.424 4.557 1.205.034.023.08.046.115.092.85.62 1.205 1.986 1.721 2.87 1.424-2.354 1.298-3.272-.94-4.144a12.972 12.972 0 0 0-.816-.287c-1.32-.425-2.617-.723-3.88-.873-2.938-.355-5.739.046-8.379 1.366-1.32.655-2.594 1.516-3.834 2.629-.16-.103-.332-.195-.493-.299-2.41-1.434-4.833-2.743-7.094-4.293a15.432 15.432 0 0 1-2.48-2.1 13.86 13.86 0 0 1-1.606-2.009c-2.985-4.568-2.743-10.262.574-14.474-.012-.012-.012-.012 0-.012.321-.413.666-.803 1.067-1.182 1.194-1.217 2.698-2.261 4.5-3.053a139.638 139.638 0 0 1 5.073-2.135c1.39-.563 2.801-1.102 4.201-1.607a99.744 99.744 0 0 1 5.338-1.745c.517-.16 1.033-.31 1.55-.448 4.855-1.377 9.802-2.341 14.853-2.766a63.766 63.766 0 0 1 8.264-.23c.517.012 1.033.035 1.55.07 10.778.62 21.557 1.469 32.232 2.96 4.063.575 7.84 3.192 11.72 4.96 5.67 2.57 10.18 6.668 14.313 11.214.425.47.78 1.309.7 1.917-.93 7.277-2.755 13.395-10.801 16.804z"/><path d="M197.252 144.76c-2.192-2.881-5.154-4.545-8.678-5.268-2.8-.563-5.636-.976-8.367-1.745-7.691-2.181-15.232-2.25-22.659-.08-1.515.436-3.03.975-4.534 1.606-1.48.609-2.904 1.275-4.178 2.124-1.7 1.125-3.145 2.571-4.098 4.637-.976 2.135-1.09 3.467-.15 4.66.483.62 1.229 1.194 2.273 1.826.505.31 1.01.597 1.527.872 6.784 3.685 14.142 4.97 21.844 5.177 2.02-.264 4.074-.356 6.049-.827 6.784-1.607 13.946-2.123 19.904-6.336 2.87-2.031 3.18-3.857 1.067-6.646zm-42.677 8.414c-.287.207-.585.425-.872.631l-2.445-1.48c-.437-.253-.861-.517-1.297-.792a4.835 4.835 0 0 1-.322-.196v-.011c-.057-.035-.126-.069-.183-.103l-.012-.012a25.702 25.702 0 0 1-1.308-.86 15.393 15.393 0 0 1-1-.69c-.458-.344-.653-1.836-.298-2.364.184-.276.38-.551.574-.827.104-.137.195-.264.299-.39.092-.138.195-.264.31-.402.206-.252.413-.493.62-.723.31-.333.642-.654.987-.952.172-.15.344-.299.528-.437.183-.149.378-.287.574-.413.114-.08.218-.149.332-.218.127-.08.253-.16.39-.23.357-.195.735-.39 1.137-.562.207-.092.425-.172.632-.241.424-.15.883-.275 1.354-.39V153.174zm2.192-.815c-.103-3.271-.195-6.084 1.986-8.884 2.365-3.054 4.856-5.12 9.045-4.523-1.079 6.853-3.937 12.248-10.985 15.508 0-.724-.023-1.424-.046-2.101zm10.572 2.238h-.011c-.15.126-.299.241-.448.345a2.37 2.37 0 0 1-.436.287 1.818 1.818 0 0 1-.436.24 3.73 3.73 0 0 1-.884.322c-1.355.321-2.767-.092-4.328-1.228.276-.253.563-.494.838-.723.276-.241.563-.471.838-.7.276-.242.563-.471.827-.712.126-.126.264-.241.39-.356.126-.115.264-.241.379-.367.172-.161.333-.333.493-.505.08-.08.161-.161.23-.253v-.011c.034-.023.046-.035.057-.058l.172-.206c.15-.195.31-.39.448-.597.46-.597.895-1.229 1.286-1.883l.378-.654v-.023c.115-.218.219-.436.322-.654.069-.172.15-.345.207-.517.045-.126.091-.252.126-.379.057-.16.103-.332.149-.493 1.263-5.04 2.663-6.348 7.782-6.003 1.78.114 3.536.55 5.568.883-1.7 4.11-3.834 7.186-7.6 9.172-.275.137-.539.298-.814.459-1.056.643-2.055 1.435-3.019 2.273-.712.642-1.4 1.297-2.078 1.951-.149.138-.287.275-.436.39zm18.033-4.178c-.126.16-.253.321-.402.482-.126.16-.264.322-.413.47-.276.3-.574.586-.884.85-.184.16-.367.31-.55.46-.173.126-.334.263-.518.378-.206.15-.424.287-.654.425a9.23 9.23 0 0 1-.574.321c-.252.138-.505.264-.757.379-.218.103-.436.195-.666.287-.23.092-.47.172-.712.264a20.28 20.28 0 0 1-1.331.379c-.23.057-.482.115-.735.16-.172.046-.356.07-.54.104h-.01c-.23.046-.46.08-.69.103-.585.08-1.193.138-1.836.184-1.527.08-3.191.046-5.005-.115.93-.884 1.688-1.78 2.422-2.548-.363.369-.733.778-1.125 1.204.202-.202.383-.405.563-.607v-.012c.195-.195.379-.402.562-.585a.785.785 0 0 1 .138-.138.775.775 0 0 1 .138-.138c.08-.092.16-.172.24-.24.07-.07.15-.15.23-.219.253-.23.505-.436.77-.597.103-.08.218-.137.344-.206.126-.07.252-.127.39-.184 3.444-1.377 5.579-3.765 7.45-6.784 2.364-3.8 3.765-4.006 7.587-1.664h.012c-.138.55-.299 1.09-.46 1.595a24.478 24.478 0 0 1-1.102 2.87c-.401.884-.86 1.699-1.377 2.433-.16.241-.333.471-.505.69zm9.665-1.274c-.046.057-.092.115-.138.16a.499.499 0 0 0-.069.081c-.057.057-.103.115-.16.16a1.879 1.879 0 0 1-.161.15 1.52 1.52 0 0 1-.299.252c-.057.035-.115.08-.172.115-.631.402-1.297.758-1.963 1.102-.333.172-.677.333-1.01.494-.757.356-1.515.7-2.272 1.056-.414.195-.827.39-1.229.585 0 0 0-.011-.011-.011-.276-.39-.551-.78-.838-1.171l.792-1.619c.264-.55.516-1.09.78-1.63.529-1.079 1.09-2.135 1.757-3.122.54-.803 2.227-1.618 2.961-1.331 1.182.459 2.4 1.699 2.824 2.88.15.414-.253 1.195-.792 1.849zM211.221 138.918c-.424-.402-.872-.78-1.343-1.114a13.718 13.718 0 0 0-1.423-.93c-.482-.287-.975-.54-1.469-.746a8.973 8.973 0 0 0-.77-.31 14.21 14.21 0 0 0-1.549-.47c-2.617-.632-5.36-.482-8.012.47 5.04.035 9.918.38 14.027 4.443-1.71.459-2.915.769-4.11 1.09l.207.86c1.952-.4 3.892-.803 6.29-1.296a16.207 16.207 0 0 0-1.848-1.997zM141.593 135.887a5.24 5.24 0 0 0-.861-.47c-.126-.058-.264-.104-.402-.15-.264-.068-.528-.137-.792-.183a2.973 2.973 0 0 0-.425-.07 7.474 7.474 0 0 0-.711-.068c-.115-.011-.23-.023-.345-.011-.16-.012-.32-.012-.482-.012-.195 0-.39.012-.597.023-.103 0-.195.012-.298.012-.39.022-.78.08-1.16.149-.16.023-.31.046-.47.08-.425.092-.85.195-1.263.321-.091.035-.183.058-.275.08s-.184.058-.276.093c-.218.069-.436.149-.654.24a6.638 6.638 0 0 0-.78.334c-.161.057-.31.126-.46.206a9.023 9.023 0 0 0-.654.345l-.482.275a8.799 8.799 0 0 0-.608.379c-.115.069-.218.149-.333.23a2.95 2.95 0 0 0-.299.229c-.126.08-.252.184-.378.287-.127.092-.253.195-.38.298-.217.184-.424.38-.63.574-.414.39-.793.815-1.137 1.263a9.258 9.258 0 0 0-.493.677c.275-.218.562-.425.837-.62.253-.183.494-.356.746-.516.299-.207.597-.402.896-.586.057-.046.126-.08.184-.126.206-.126.413-.252.62-.367.034-.023.068-.046.114-.07.103-.056.218-.125.322-.171.126-.08.264-.15.39-.218.333-.173.666-.345.998-.482.196-.092.39-.173.586-.253.321-.138.654-.264.976-.379.218-.08.436-.149.665-.206a8.09 8.09 0 0 1 .563-.15c.183-.057.379-.091.574-.126.206-.046.413-.08.62-.115.344-.057.7-.103 1.067-.126a13.61 13.61 0 0 1 3.18.138c.022.24.057.493.08.734.023-.24.034-.482.057-.711.127.011.264.034.39.069.127.023.253.046.39.08.127.034.265.057.403.092.126.023.252.057.39.103.172.046.356.103.54.16.126.035.252.07.367.116.24.08.493.172.734.264a10667.11 10667.11 0 0 0-4.281 3.696c.172.23.356.459.528.7.85-.643 1.813-1.182 2.525-1.963.39-.425.712-.907 1.022-1.389.31-.493.597-1.01.918-1.492-.494-.31-.976-.689-1.48-1.033a3.792 3.792 0 0 0-.276-.184zM155.62 126.601c.091.16.195.322.298.482.264.379.562.723.884 1.045.252.264.516.505.803.711.196.161.414.31.632.448.137.103.287.184.424.264.023.023.058.046.08.046h.012c.115.069.23.138.356.184.184.114.367.206.562.275.368.16.747.31 1.137.436.528.173 1.079.31 1.63.402.149.035.298.058.447.069.218.034.437.057.655.069.172.023.356.034.528.034.31.023.608.023.918.012.126 0 .253 0 .379-.012.206-.011.402-.023.608-.046.195-.023.39-.046.597-.068.47-.07.953-.161 1.412-.287.218-.058.448-.127.666-.196.103-.034.218-.069.333-.114.23-.08.459-.161.688-.264.138-.058.276-.115.413-.184a11.334 11.334 0 0 0 1.24-.689 6.35 6.35 0 0 0 .574-.39c.16-.115.31-.23.47-.367.3-.253.598-.517.873-.815-.413.126-.838.24-1.251.367-.413.115-.827.241-1.228.356-.712.195-1.412.39-2.112.55-.31.081-.62.15-.93.207-.322.07-.631.138-.953.184a9.118 9.118 0 0 1-.953.15c-.734.103-1.469.16-2.192.16-.298 0-.597-.012-.884-.034-.069 0-.149 0-.218-.012-.264-.023-.516-.057-.78-.092-.173-.023-.345-.057-.517-.092a5.386 5.386 0 0 1-.585-.137 4.723 4.723 0 0 1-.574-.172 4.683 4.683 0 0 1-.563-.207c-.092-.035-.195-.08-.287-.115a3.105 3.105 0 0 1-.287-.126c-.218-.103-.436-.218-.654-.333a7.674 7.674 0 0 1-.895-.562c-.15-.092-.287-.207-.436-.31a9.345 9.345 0 0 1-1.045-.907c-.08-.07-.16-.15-.241-.23a5.584 5.584 0 0 1-.367-.367l-.035-.035c.046.104.092.207.16.31.058.138.127.276.208.402zM208.868 155.068a4.827 4.827 0 0 0-.332-.184c-.104-.057-.207-.115-.31-.149l-.31-.138-.172-.069a1.64 1.64 0 0 0-.31-.103.569.569 0 0 0-.15-.046 2.854 2.854 0 0 0-.424-.103 3.47 3.47 0 0 0-.482-.069c-.023-.011-.046-.011-.07-.011a5.66 5.66 0 0 0-.63-.035c-.368 0-.724.035-1.102.092-.161.023-.322.057-.494.092-.356.092-.723.195-1.102.321h-.012c-.573.195-1.159.46-1.756.77-.321.171-.608.332-.872.504-.138.07-.264.15-.379.241-.126.08-.24.161-.344.253a5.463 5.463 0 0 0-.46.402c-.091.08-.16.149-.218.23a3.255 3.255 0 0 0-.344.47c-.103.16-.172.321-.218.493-.034.08-.057.173-.069.253-.092.425-.08.884.046 1.412.034.149.08.31.138.47.034.161.092.322.16.482.092-.401.207-.78.333-1.136.115-.367.264-.7.425-1.01.069-.16.15-.31.241-.448.08-.149.172-.287.276-.413.16-.241.344-.47.54-.677.01-.023.034-.035.045-.046.069-.08.15-.15.218-.207.069-.069.138-.137.218-.183.069-.07.138-.127.218-.172.07-.07.15-.115.218-.161a3.27 3.27 0 0 1 .62-.345c.138-.068.276-.137.425-.183.103-.046.207-.08.31-.104.138-.045.275-.08.413-.103.218-.057.448-.092.689-.115.011-.011.011-.011.023 0a6.996 6.996 0 0 1 1.55 0c.194.023.401.046.596.092a5.4 5.4 0 0 1 .723.15c.173.034.333.08.505.137.127.035.264.08.402.126.299.092.609.207.919.345.31.126.62.264.93.424.768.39 1.549.85 2.33 1.39-.93-1.332-1.918-2.308-2.95-2.94zM193.005 164.17c-2.984.551-5.98 1.068-9 1.4-1.17.138-2.34.242-3.511.31-3.892.242-7.783.506-11.663.758h-.023c-.39.035-.792.058-1.182.08-1.205.08-2.422.104-3.627.184-.884.046-1.447.299-1.573.643-.126.379.322.654 1.263.689.643.023 1.309-.012 1.963-.058 4.488-.321 8.987-.654 13.487-.987 4.993-.356 9.872-1.216 14.647-2.48.505-.125.964-.32 1.698-.573-.987-.321-1.744-.103-2.479.034zM166.122 163.436c-.378.023-.998.23-1.102.413-.23.402.299.562.815.608.792.058 1.584.104 2.388.08 5.108-.137 10.227-.585 15.335-1.124.218-.023.448-.046.666-.08.356-.035.7-.092 1.056-.15 2.858-.425 5.602-1.136 8.322-1.974.482-.15.907-.402 1.584-.7-.93-.218-1.538-.035-2.17.103-2.502.54-4.97 1.148-7.53 1.446-.332.046-.665.08-.998.104-1.492.126-2.984.252-4.477.367-2.766.218-5.52.425-8.276.62-1.87.137-3.753.16-5.613.287zM179.908 160.451c3.398-.23 6.405-1.285 9.447-2.272.402-.127.826-.31.689-.7-.781-.184-1.63.057-2.445.206-2.686.54-5.35 1.09-8.024 1.641-.298.058-.62.092-.872.207-.23.092-.528.287-.528.413 0 .172.183.402.424.448.38.092.861.092 1.31.057zM188.597 180.022l-3.581.08c-2.388.08-4.764.092-7.254.31 1.136.551 2.364.861 3.581 1.057 1.228.206 2.468.286 3.708.252 2.479-.069 4.981-.528 7.22-1.687-1.263-.08-2.468-.023-3.674-.012zM92.556 126.303a75.878 75.878 0 0 0-.034 3.225l.011 1.573c0 .218-.023.55-.034.55l-.195.678c-.253.815-.654 1.251-1.389 1.641-.723.39-1.664.597-2.606.724-.975.114-1.974.195-2.995.172-.506.011-1.01 0-1.527-.035-.528-.023-1.01-.046-1.607-.034-2.25-.08-4.706.287-6.784 1.607-2.124 1.262-3.466 3.524-3.994 5.74a14.99 14.99 0 0 0-.287 1.698l-.035.425c0 .126-.023.31-.011.321v.023c.034-.069-.046.046 0 .402.08.321.218.424.23.436.057.057.114.103.171.15.058.034.058.034.092.045a.395.395 0 0 0 .127.057c.126.046.218.07.298.092.172.035.31.058.46.08 1.112.138 2.169.196 3.248.253 4.27.207 8.517.31 12.787.436 1.067.023 2.135.046 3.214.046 1.079-.023 2.146.012 3.317-.275 2.319-.551 4.167-2.227 5.475-4.04 1.332-1.849 2.204-3.926 2.79-6.061.585-2.135.94-4.305.93-6.543.01-2.273-.552-4.465-1.378-6.485a20.95 20.95 0 0 0-1.492-2.905c-.574-.94-1.148-1.79-1.917-2.651-.505-.253-1.045-.482-1.596-.563-.55-.114-1.16-.057-1.733.138-1.182.436-1.929 1.538-2.353 2.571-.85 2.124-1.08 4.34-1.183 6.509zm2.342-6.084c.287-.93.712-1.825 1.515-2.273.78-.459 1.917-.356 2.859-.103 1.928 3.662 3.282 7.828 3.053 11.8-.138 1.997-.54 4.052-1.125 5.992-.609 1.94-1.355 3.845-2.4 5.532-.998 1.7-2.364 3.226-4.166 3.857-.872.345-1.963.448-2.996.574-1.044.103-2.1.15-3.156.172-4.236.058-8.471-.344-12.661-.975a43.905 43.905 0 0 1-2.916-.528l.023-.161c.092-.494.218-.964.356-1.435.62-1.825 1.71-3.444 3.306-4.316 1.572-.907 3.524-1.17 5.487-1.021 2.066.126 4.35.264 6.6-.07 1.136-.194 2.307-.458 3.455-1.101a5.76 5.76 0 0 0 1.584-1.332c.447-.562.723-1.262.872-1.87l.092-.425.092-.448c.069-.517.034-.723.034-1.033l-.114-1.619c-.08-1.056-.173-2.1-.207-3.133-.08-2.066-.126-4.178.413-6.084z"/></svg>